<svg xmlns="http://www.w3.org/2000/svg" width="1000" height="2740"><defs><style type="text/css">
    /* https://www.vis4.net/palettes/#/9|d|00429d,96ffea|ffffe0,ff005e,93003a|1|1 */
    :root {
    --data-series-0--1-only: #000;

    --data-series-0--3-or-less: #00429d;
    --data-series-1--3-or-less: #96ffea;
    --data-series-2--3-or-less: #93003a;

    --data-series-0--5-or-less: #00429d;
    --data-series-1--5-or-less: #629cc4;
    --data-series-2--5-or-less: #96ffea;
    --data-series-3--5-or-less: #f4777f;
    --data-series-4--5-or-less: #93003a;

    --data-series-0--7-or-less: #00429d;
    --data-series-1--7-or-less: #4d7cb7;
    --data-series-2--7-or-less: #74bcd1;
    --data-series-3--7-or-less: #96ffea;
    --data-series-4--7-or-less: #ffa59e;
    --data-series-5--7-or-less: #dd4c65;
    --data-series-6--7-or-less: #93003a;

    --data-series-0--9-or-less: #00429d;
    --data-series-1--9-or-less: #416db1;
    --data-series-2--9-or-less: #629cc4;
    --data-series-3--9-or-less: #7dccd7;
    --data-series-4--9-or-less: #96ffea;
    --data-series-5--9-or-less: #ffbcaf;
    --data-series-6--9-or-less: #f4777f;
    --data-series-7--9-or-less: #cf3759;
    --data-series-8--9-or-less: #93003a;
    }

    .background {
    fill: white;
    }

    text {
    font-size: 14px;
    font-family: sans-serif;
    }

    .axis-path,
    .axis-line {
    fill: none;
    stroke: #000;
    stroke-width: 1px;
    shape-rendering: crispEdges;
    }

    .line {
    fill: none;
    stroke-width: 1.5px;
    }

    .error-bar {
    fill: none;
    }

    /* Series of 1 */

    .data-series-0.data-series-count-1 {
    stroke: var(--data-series-0--1-only);
    fill: var(--data-series-0--1-only);
    }

    /* Series of 3 */

    .data-series-0.data-series-count-3,
    .data-series-0.data-series-count-2 {
    stroke: var(--data-series-0--3-or-less);
    fill: var(--data-series-0--3-or-less);
    }

    .data-series-1.data-series-count-3,
    .data-series-1.data-series-count-2 {
    stroke: var(--data-series-1--3-or-less);
    fill: var(--data-series-1--3-or-less);
    }

    .data-series-2.data-series-count-3,
    .data-series-2.data-series-count-2 {
    stroke: var(--data-series-2--3-or-less);
    fill: var(--data-series-2--3-or-less);
    }

    /* Series of 5 */

    .data-series-0.data-series-count-5,
    .data-series-0.data-series-count-4 {
    stroke: var(--data-series-0--5-or-less);
    fill: var(--data-series-0--5-or-less);
    }

    .data-series-1.data-series-count-5,
    .data-series-1.data-series-count-4 {
    stroke: var(--data-series-1--5-or-less);
    fill: var(--data-series-1--5-or-less);
    }

    .data-series-2.data-series-count-5,
    .data-series-2.data-series-count-4 {
    stroke: var(--data-series-2--5-or-less);
    fill: var(--data-series-2--5-or-less);
    }

    .data-series-3.data-series-count-5,
    .data-series-3.data-series-count-4 {
    stroke: var(--data-series-3--5-or-less);
    fill: var(--data-series-3--5-or-less);
    }

    .data-series-4.data-series-count-5,
    .data-series-4.data-series-count-4 {
    stroke: var(--data-series-4--5-or-less);
    fill: var(--data-series-4--5-or-less);
    }

    /* Series of 7 */

    .data-series-0.data-series-count-7,
    .data-series-0.data-series-count-6 {
    stroke: var(--data-series-0--7-or-less);
    fill: var(--data-series-0--7-or-less);
    }

    .data-series-1.data-series-count-7,
    .data-series-1.data-series-count-6 {
    stroke: var(--data-series-1--7-or-less);
    fill: var(--data-series-1--7-or-less);
    }

    .data-series-2.data-series-count-7,
    .data-series-2.data-series-count-6 {
    stroke: var(--data-series-2--7-or-less);
    fill: var(--data-series-2--7-or-less);
    }

    .data-series-3.data-series-count-7,
    .data-series-3.data-series-count-6 {
    stroke: var(--data-series-3--7-or-less);
    fill: var(--data-series-3--7-or-less);
    }

    .data-series-4.data-series-count-7,
    .data-series-4.data-series-count-6 {
    stroke: var(--data-series-4--7-or-less);
    fill: var(--data-series-4--7-or-less);
    }

    .data-series-5.data-series-count-7,
    .data-series-5.data-series-count-6 {
    stroke: var(--data-series-5--7-or-less);
    fill: var(--data-series-5--7-or-less);
    }

    .data-series-6.data-series-count-7,
    .data-series-6.data-series-count-6 {
    stroke: var(--data-series-6--7-or-less);
    fill: var(--data-series-6--7-or-less);
    }

    /* Series of 9 */

    .data-series-0.data-series-count-9,
    .data-series-0.data-series-count-8 {
    stroke: var(--data-series-0--9-or-less);
    fill: var(--data-series-0--9-or-less);
    }

    .data-series-1.data-series-count-9,
    .data-series-1.data-series-count-8 {
    stroke: var(--data-series-1--9-or-less);
    fill: var(--data-series-1--9-or-less);
    }

    .data-series-2.data-series-count-9,
    .data-series-2.data-series-count-8 {
    stroke: var(--data-series-2--9-or-less);
    fill: var(--data-series-2--9-or-less);
    }

    .data-series-3.data-series-count-9,
    .data-series-3.data-series-count-8 {
    stroke: var(--data-series-3--9-or-less);
    fill: var(--data-series-3--9-or-less);
    }

    .data-series-4.data-series-count-9,
    .data-series-4.data-series-count-8 {
    stroke: var(--data-series-4--9-or-less);
    fill: var(--data-series-4--9-or-less);
    }

    .data-series-5.data-series-count-9,
    .data-series-5.data-series-count-8 {
    stroke: var(--data-series-5--9-or-less);
    fill: var(--data-series-5--9-or-less);
    }

    .data-series-6.data-series-count-9,
    .data-series-6.data-series-count-8 {
    stroke: var(--data-series-6--9-or-less);
    fill: var(--data-series-6--9-or-less);
    }

    .data-series-7.data-series-count-9,
    .data-series-7.data-series-count-8 {
    stroke: var(--data-series-7--9-or-less);
    fill: var(--data-series-7--9-or-less);
    }

    .data-series-8.data-series-count-9,
    .data-series-8.data-series-count-8 {
    stroke: var(--data-series-8--9-or-less);
    fill: var(--data-series-8--9-or-less);
    }
  </style></defs><rect width="1000" height="2740" class="background"/><g transform="translate(0, 0)"><g transform="translate(80, 40)"><g transform="translate(440, 0)"><text style="text-anchor: middle; font-size: 28px;">Decoding an array of ints (unoptimized)</text></g><g class="x axis" transform="translate(0, 400)"><g class="tick" style="opacity: 1;" transform="translate(0,0)"><line y2="6" x2="0" class="axis-line"/><text dy=".71em" style="text-anchor: middle;" y="9" x="0">1,000</text></g><g class="tick" style="opacity: 1;" transform="translate(110,0)"><line y2="6" x2="0" class="axis-line"/><text dy=".71em" style="text-anchor: middle;" y="9" x="0">1,500</text></g><g class="tick" style="opacity: 1;" transform="translate(220,0)"><line y2="6" x2="0" class="axis-line"/><text dy=".71em" style="text-anchor: middle;" y="9" x="0">2,000</text></g><g class="tick" style="opacity: 1;" transform="translate(330,0)"><line y2="6" x2="0" class="axis-line"/><text dy=".71em" style="text-anchor: middle;" y="9" x="0">2,500</text></g><g class="tick" style="opacity: 1;" transform="translate(440,0)"><line y2="6" x2="0" class="axis-line"/><text dy=".71em" style="text-anchor: middle;" y="9" x="0">3,000</text></g><g class="tick" style="opacity: 1;" transform="translate(550,0)"><line y2="6" x2="0" class="axis-line"/><text dy=".71em" style="text-anchor: middle;" y="9" x="0">3,500</text></g><g class="tick" style="opacity: 1;" transform="translate(660,0)"><line y2="6" x2="0" class="axis-line"/><text dy=".71em" style="text-anchor: middle;" y="9" x="0">4,000</text></g><g class="tick" style="opacity: 1;" transform="translate(770,0)"><line y2="6" x2="0" class="axis-line"/><text dy=".71em" style="text-anchor: middle;" y="9" x="0">4,500</text></g><g class="tick" style="opacity: 1;" transform="translate(880,0)"><line y2="6" x2="0" class="axis-line"/><text dy=".71em" style="text-anchor: middle;" y="9" x="0">5,000</text></g><path class="axis-path" d="M0,6V0H880V6"/><text x="440" y="40" style="text-anchor: middle;">Number of elements in the array</text></g><g class="y axis"><g class="tick" style="opacity: 1;" transform="translate(0,375.59475494217907)"><line x2="-6" y2="0" class="axis-line"/><text dy=".32em" style="text-anchor: end;" x="-9" y="0">4.00e-4</text></g><g class="tick" style="opacity: 1;" transform="translate(0,343.29821357184727)"><line x2="-6" y2="0" class="axis-line"/><text dy=".32em" style="text-anchor: end;" x="-9" y="0">6.00e-4</text></g><g class="tick" style="opacity: 1;" transform="translate(0,311.0016722015154)"><line x2="-6" y2="0" class="axis-line"/><text dy=".32em" style="text-anchor: end;" x="-9" y="0">8.00e-4</text></g><g class="tick" style="opacity: 1;" transform="translate(0,278.7051308311836)"><line x2="-6" y2="0" class="axis-line"/><text dy=".32em" style="text-anchor: end;" x="-9" y="0">1.00e-3</text></g><g class="tick" style="opacity: 1;" transform="translate(0,246.40858946085177)"><line x2="-6" y2="0" class="axis-line"/><text dy=".32em" style="text-anchor: end;" x="-9" y="0">1.20e-3</text></g><g class="tick" style="opacity: 1;" transform="translate(0,214.11204809051995)"><line x2="-6" y2="0" class="axis-line"/><text dy=".32em" style="text-anchor: end;" x="-9" y="0">1.40e-3</text></g><g class="tick" style="opacity: 1;" transform="translate(0,181.81550672018813)"><line x2="-6" y2="0" class="axis-line"/><text dy=".32em" style="text-anchor: end;" x="-9" y="0">1.60e-3</text></g><g class="tick" style="opacity: 1;" transform="translate(0,149.5189653498563)"><line x2="-6" y2="0" class="axis-line"/><text dy=".32em" style="text-anchor: end;" x="-9" y="0">1.80e-3</text></g><g class="tick" style="opacity: 1;" transform="translate(0,117.22242397952449)"><line x2="-6" y2="0" class="axis-line"/><text dy=".32em" style="text-anchor: end;" x="-9" y="0">2.00e-3</text></g><g class="tick" style="opacity: 1;" transform="translate(0,84.92588260919263)"><line x2="-6" y2="0" class="axis-line"/><text dy=".32em" style="text-anchor: end;" x="-9" y="0">2.20e-3</text></g><g class="tick" style="opacity: 1;" transform="translate(0,52.629341238860846)"><line x2="-6" y2="0" class="axis-line"/><text dy=".32em" style="text-anchor: end;" x="-9" y="0">2.40e-3</text></g><g class="tick" style="opacity: 1;" transform="translate(0,20.33279986852903)"><line x2="-6" y2="0" class="axis-line"/><text dy=".32em" style="text-anchor: end;" x="-9" y="0">2.60e-3</text></g><path class="axis-path" d="M-6,0H0V400H-6"/><text transform="rotate(-90)" y="6" dy=".71em" style="text-anchor: end;">Mean running time (seconds)</text></g><g class="data-series-0 data-series-count-4"><circle cx="0" cy="375.30463436412793" r="3"/><circle cx="220" cy="297.6527452292108" r="3"/><circle cx="440" cy="220.5721300179965" r="3"/><circle cx="660" cy="152.04061249905382" r="3"/><circle cx="880" cy="73.8743656327293" r="3"/><path class="error-bar" x="0" y="375.30463436412793" d="M 0 375.30463436412793 V 372.28914747815014 h -3 h 6 h -3 V 378.3201212501058 h -3 h 6"/><path class="error-bar" x="220" y="297.6527452292108" d="M 220 297.6527452292108 V 290.787037163369 h -3 h 6 h -3 V 304.5184532950525 h -3 h 6"/><path class="error-bar" x="440" y="220.5721300179965" d="M 440 220.5721300179965 V 209.29856160438644 h -3 h 6 h -3 V 231.84569843160654 h -3 h 6"/><path class="error-bar" x="660" y="152.04061249905382" d="M 660 152.04061249905382 V 141.67821625337257 h -3 h 6 h -3 V 162.4030087447351 h -3 h 6"/><path class="error-bar" x="880" y="73.8743656327293" d="M 880 73.8743656327293 V 55.60982077112695 h -3 h 6 h -3 V 92.13891049433163 h -3 h 6"/><path class="line" d="M0,375.30463436412793L220,297.6527452292108L440,220.5721300179965L660,152.04061249905382L880,73.8743656327293"/></g><g class="data-series-1 data-series-count-4"><circle cx="0" cy="400" r="3"/><circle cx="220" cy="359.2420939114775" r="3"/><circle cx="440" cy="318.5627766408504" r="3"/><circle cx="660" cy="282.4826738873631" r="3"/><circle cx="880" cy="242.90235613806055" r="3"/><path class="error-bar" x="0" y="400" d="M 0 400 V 399.3326596971005 h -3 h 6 h -3 V 400.6673403028995 h -3 h 6"/><path class="error-bar" x="220" y="359.2420939114775" d="M 220 359.2420939114775 V 356.7931201533099 h -3 h 6 h -3 V 361.691067669645 h -3 h 6"/><path class="error-bar" x="440" y="318.5627766408504" d="M 440 318.5627766408504 V 315.6589742392919 h -3 h 6 h -3 V 321.46657904240897 h -3 h 6"/><path class="error-bar" x="660" y="282.4826738873631" d="M 660 282.4826738873631 V 269.1920182264009 h -3 h 6 h -3 V 295.7733295483253 h -3 h 6"/><path class="error-bar" x="880" y="242.90235613806055" d="M 880 242.90235613806055 V 237.90558453005755 h -3 h 6 h -3 V 247.89912774606356 h -3 h 6"/><path class="line" d="M0,400L220,359.2420939114775L440,318.5627766408504L660,282.4826738873631L880,242.90235613806055"/></g><g class="data-series-2 data-series-count-4"><circle cx="0" cy="355.5691485688958" r="3"/><circle cx="220" cy="270.0719243894842" r="3"/><circle cx="440" cy="181.66063358137552" r="3"/><circle cx="660" cy="100.81851992073379" r="3"/><circle cx="880" cy="0" r="3"/><path class="error-bar" x="0" y="355.5691485688958" d="M 0 355.5691485688958 V 347.5226700355976 h -3 h 6 h -3 V 363.6156271021939 h -3 h 6"/><path class="error-bar" x="220" y="270.0719243894842" d="M 220 270.0719243894842 V 265.16364720507096 h -3 h 6 h -3 V 274.98020157389743 h -3 h 6"/><path class="error-bar" x="440" y="181.66063358137552" d="M 440 181.66063358137552 V 171.10903891381037 h -3 h 6 h -3 V 192.21222824894073 h -3 h 6"/><path class="error-bar" x="660" y="100.81851992073379" d="M 660 100.81851992073379 V 88.37242744644303 h -3 h 6 h -3 V 113.26461239502454 h -3 h 6"/><path class="error-bar" x="880" y="0" d="M 880 0 V -44.00613912359432 h -3 h 6 h -3 V 44.00613912359432 h -3 h 6"/><path class="line" d="M0,355.5691485688958L220,270.0719243894842L440,181.66063358137552L660,100.81851992073379L880,0"/></g><g class="data-series-3 data-series-count-4"><circle cx="0" cy="378.1862979361842" r="3"/><circle cx="220" cy="300.37290836035356" r="3"/><circle cx="440" cy="229.24497526293638" r="3"/><circle cx="660" cy="158.94701280084917" r="3"/><circle cx="880" cy="76.87611339391829" r="3"/><path class="error-bar" x="0" y="378.1862979361842" d="M 0 378.1862979361842 V 376.34592475120166 h -3 h 6 h -3 V 380.0266711211666 h -3 h 6"/><path class="error-bar" x="220" y="300.37290836035356" d="M 220 300.37290836035356 V 285.0650781108739 h -3 h 6 h -3 V 315.68073860983327 h -3 h 6"/><path class="error-bar" x="440" y="229.24497526293638" d="M 440 229.24497526293638 V 221.28548780287946 h -3 h 6 h -3 V 237.2044627229932 h -3 h 6"/><path class="error-bar" x="660" y="158.94701280084917" d="M 660 158.94701280084917 V 153.72946210277033 h -3 h 6 h -3 V 164.16456349892803 h -3 h 6"/><path class="error-bar" x="880" y="76.87611339391829" d="M 880 76.87611339391829 V 60.7275862061293 h -3 h 6 h -3 V 93.02464058170727 h -3 h 6"/><path class="line" d="M0,378.1862979361842L220,300.37290836035356L440,229.24497526293638L660,158.94701280084917L880,76.87611339391829"/></g><g class="legend" transform="translate(50, 50)"><rect x="0" y="0" width="15" height="15" class="data-series-0 data-series-count-4"/><rect x="0" y="20" width="15" height="15" class="data-series-1 data-series-count-4"/><rect x="0" y="40" width="15" height="15" class="data-series-2 data-series-count-4"/><rect x="0" y="60" width="15" height="15" class="data-series-3 data-series-count-4"/><text x="24" y="13">argonaut-codec</text><text x="24" y="33">json</text><text x="24" y="53">json-codecs</text><text x="24" y="73">codec-argonaut</text></g></g><g transform="translate(960, 500)" class="graph-footer"><text style="text-anchor: end;">Ran on:</text><text style="text-anchor: end;" y="14">2023-09-05 16:38:10</text></g></g><line x1="0" y1="545" x2="1000" y2="545" class="graph-gap-line"/><g transform="translate(0, 550)"><g transform="translate(80, 40)"><g transform="translate(440, 0)"><text style="text-anchor: middle; font-size: 28px;">Decoding an array of ints (unoptimized)*</text><text y="20" style="text-anchor: middle; font-size: 16px;">* Tag: json-codec-with-argonaut-codec</text></g><g class="x axis" transform="translate(0, 400)"><g class="tick" style="opacity: 1;" transform="translate(0,0)"><line y2="6" x2="0" class="axis-line"/><text dy=".71em" style="text-anchor: middle;" y="9" x="0">1,000</text></g><g class="tick" style="opacity: 1;" transform="translate(110,0)"><line y2="6" x2="0" class="axis-line"/><text dy=".71em" style="text-anchor: middle;" y="9" x="0">1,500</text></g><g class="tick" style="opacity: 1;" transform="translate(220,0)"><line y2="6" x2="0" class="axis-line"/><text dy=".71em" style="text-anchor: middle;" y="9" x="0">2,000</text></g><g class="tick" style="opacity: 1;" transform="translate(330,0)"><line y2="6" x2="0" class="axis-line"/><text dy=".71em" style="text-anchor: middle;" y="9" x="0">2,500</text></g><g class="tick" style="opacity: 1;" transform="translate(440,0)"><line y2="6" x2="0" class="axis-line"/><text dy=".71em" style="text-anchor: middle;" y="9" x="0">3,000</text></g><g class="tick" style="opacity: 1;" transform="translate(550,0)"><line y2="6" x2="0" class="axis-line"/><text dy=".71em" style="text-anchor: middle;" y="9" x="0">3,500</text></g><g class="tick" style="opacity: 1;" transform="translate(660,0)"><line y2="6" x2="0" class="axis-line"/><text dy=".71em" style="text-anchor: middle;" y="9" x="0">4,000</text></g><g class="tick" style="opacity: 1;" transform="translate(770,0)"><line y2="6" x2="0" class="axis-line"/><text dy=".71em" style="text-anchor: middle;" y="9" x="0">4,500</text></g><g class="tick" style="opacity: 1;" transform="translate(880,0)"><line y2="6" x2="0" class="axis-line"/><text dy=".71em" style="text-anchor: middle;" y="9" x="0">5,000</text></g><path class="axis-path" d="M0,6V0H880V6"/><text x="440" y="40" style="text-anchor: middle;">Number of elements in the array</text></g><g class="y axis"><g class="tick" style="opacity: 1;" transform="translate(0,365.8875293703648)"><line x2="-6" y2="0" class="axis-line"/><text dy=".32em" style="text-anchor: end;" x="-9" y="0">6.00e-4</text></g><g class="tick" style="opacity: 1;" transform="translate(0,331.4658479807371)"><line x2="-6" y2="0" class="axis-line"/><text dy=".32em" style="text-anchor: end;" x="-9" y="0">8.00e-4</text></g><g class="tick" style="opacity: 1;" transform="translate(0,297.04416659110944)"><line x2="-6" y2="0" class="axis-line"/><text dy=".32em" style="text-anchor: end;" x="-9" y="0">1.00e-3</text></g><g class="tick" style="opacity: 1;" transform="translate(0,262.62248520148177)"><line x2="-6" y2="0" class="axis-line"/><text dy=".32em" style="text-anchor: end;" x="-9" y="0">1.20e-3</text></g><g class="tick" style="opacity: 1;" transform="translate(0,228.20080381185406)"><line x2="-6" y2="0" class="axis-line"/><text dy=".32em" style="text-anchor: end;" x="-9" y="0">1.40e-3</text></g><g class="tick" style="opacity: 1;" transform="translate(0,193.77912242222632)"><line x2="-6" y2="0" class="axis-line"/><text dy=".32em" style="text-anchor: end;" x="-9" y="0">1.60e-3</text></g><g class="tick" style="opacity: 1;" transform="translate(0,159.35744103259867)"><line x2="-6" y2="0" class="axis-line"/><text dy=".32em" style="text-anchor: end;" x="-9" y="0">1.80e-3</text></g><g class="tick" style="opacity: 1;" transform="translate(0,124.935759642971)"><line x2="-6" y2="0" class="axis-line"/><text dy=".32em" style="text-anchor: end;" x="-9" y="0">2.00e-3</text></g><g class="tick" style="opacity: 1;" transform="translate(0,90.51407825334326)"><line x2="-6" y2="0" class="axis-line"/><text dy=".32em" style="text-anchor: end;" x="-9" y="0">2.20e-3</text></g><g class="tick" style="opacity: 1;" transform="translate(0,56.09239686371561)"><line x2="-6" y2="0" class="axis-line"/><text dy=".32em" style="text-anchor: end;" x="-9" y="0">2.40e-3</text></g><g class="tick" style="opacity: 1;" transform="translate(0,21.67071547408792)"><line x2="-6" y2="0" class="axis-line"/><text dy=".32em" style="text-anchor: end;" x="-9" y="0">2.60e-3</text></g><path class="axis-path" d="M-6,0H0V400H-6"/><text transform="rotate(-90)" y="6" dy=".71em" style="text-anchor: end;">Mean running time (seconds)</text></g><g class="data-series-0 data-series-count-2"><circle cx="0" cy="400" r="3"/><circle cx="220" cy="317.23855020710687" r="3"/><circle cx="440" cy="235.08596465024522" r="3"/><circle cx="660" cy="162.04501471894002" r="3"/><circle cx="880" cy="78.73536201639854" r="3"/><path class="error-bar" x="0" y="400" d="M 0 400 V 396.7860915002162 h -3 h 6 h -3 V 403.2139084997838 h -3 h 6"/><path class="error-bar" x="220" y="317.23855020710687" d="M 220 317.23855020710687 V 309.9210726838419 h -3 h 6 h -3 V 324.5560277303719 h -3 h 6"/><path class="error-bar" x="440" y="235.08596465024522" d="M 440 235.08596465024522 V 223.07058580184847 h -3 h 6 h -3 V 247.10134349864202 h -3 h 6"/><path class="error-bar" x="660" y="162.04501471894002" d="M 660 162.04501471894002 V 151.0007639457109 h -3 h 6 h -3 V 173.08926549216923 h -3 h 6"/><path class="error-bar" x="880" y="78.73536201639854" d="M 880 78.73536201639854 V 59.26899449599996 h -3 h 6 h -3 V 98.20172953679717 h -3 h 6"/><path class="line" d="M0,400L220,317.23855020710687L440,235.08596465024522L660,162.04501471894002L880,78.73536201639854"/></g><g class="data-series-1 data-series-count-2"><circle cx="0" cy="378.9659023756318" r="3"/><circle cx="220" cy="287.84288778854255" r="3"/><circle cx="440" cy="193.6140584985421" r="3"/><circle cx="660" cy="107.4524646801112" r="3"/><circle cx="880" cy="0" r="3"/><path class="error-bar" x="0" y="378.9659023756318" d="M 0 378.9659023756318 V 370.38995867919317 h -3 h 6 h -3 V 387.5418460720705 h -3 h 6"/><path class="error-bar" x="220" y="287.84288778854255" d="M 220 287.84288778854255 V 282.6116417713126 h -3 h 6 h -3 V 293.0741338057726 h -3 h 6"/><path class="error-bar" x="440" y="193.6140584985421" d="M 440 193.6140584985421 V 182.36815988560053 h -3 h 6 h -3 V 204.85995711148357 h -3 h 6"/><path class="error-bar" x="660" y="107.4524646801112" d="M 660 107.4524646801112 V 94.18740868592886 h -3 h 6 h -3 V 120.7175206742936 h -3 h 6"/><path class="error-bar" x="880" y="0" d="M 880 0 V -46.9017806808095 h -3 h 6 h -3 V 46.9017806808095 h -3 h 6"/><path class="line" d="M0,378.9659023756318L220,287.84288778854255L440,193.6140584985421L660,107.4524646801112L880,0"/></g><g class="legend" transform="translate(50, 50)"><rect x="0" y="0" width="15" height="15" class="data-series-0 data-series-count-2"/><rect x="0" y="20" width="15" height="15" class="data-series-1 data-series-count-2"/><text x="24" y="13">argonaut-codec</text><text x="24" y="33">json-codecs</text></g></g><g transform="translate(960, 500)" class="graph-footer"><text style="text-anchor: end;">Ran on:</text><text style="text-anchor: end;" y="14">2023-09-05 16:38:10</text></g></g><line x1="0" y1="1095" x2="1000" y2="1095" class="graph-gap-line"/><g transform="translate(0, 1100)"><g transform="translate(80, 40)"><g transform="translate(440, 0)"><text style="text-anchor: middle; font-size: 28px;">Decoding an array of ints (unoptimized)*</text><text y="20" style="text-anchor: middle; font-size: 16px;">* Tag: json-codec-with-json</text></g><g class="x axis" transform="translate(0, 400)"><g class="tick" style="opacity: 1;" transform="translate(0,0)"><line y2="6" x2="0" class="axis-line"/><text dy=".71em" style="text-anchor: middle;" y="9" x="0">1,000</text></g><g class="tick" style="opacity: 1;" transform="translate(110,0)"><line y2="6" x2="0" class="axis-line"/><text dy=".71em" style="text-anchor: middle;" y="9" x="0">1,500</text></g><g class="tick" style="opacity: 1;" transform="translate(220,0)"><line y2="6" x2="0" class="axis-line"/><text dy=".71em" style="text-anchor: middle;" y="9" x="0">2,000</text></g><g class="tick" style="opacity: 1;" transform="translate(330,0)"><line y2="6" x2="0" class="axis-line"/><text dy=".71em" style="text-anchor: middle;" y="9" x="0">2,500</text></g><g class="tick" style="opacity: 1;" transform="translate(440,0)"><line y2="6" x2="0" class="axis-line"/><text dy=".71em" style="text-anchor: middle;" y="9" x="0">3,000</text></g><g class="tick" style="opacity: 1;" transform="translate(550,0)"><line y2="6" x2="0" class="axis-line"/><text dy=".71em" style="text-anchor: middle;" y="9" x="0">3,500</text></g><g class="tick" style="opacity: 1;" transform="translate(660,0)"><line y2="6" x2="0" class="axis-line"/><text dy=".71em" style="text-anchor: middle;" y="9" x="0">4,000</text></g><g class="tick" style="opacity: 1;" transform="translate(770,0)"><line y2="6" x2="0" class="axis-line"/><text dy=".71em" style="text-anchor: middle;" y="9" x="0">4,500</text></g><g class="tick" style="opacity: 1;" transform="translate(880,0)"><line y2="6" x2="0" class="axis-line"/><text dy=".71em" style="text-anchor: middle;" y="9" x="0">5,000</text></g><path class="axis-path" d="M0,6V0H880V6"/><text x="440" y="40" style="text-anchor: middle;">Number of elements in the array</text></g><g class="y axis"><g class="tick" style="opacity: 1;" transform="translate(0,375.59475494217907)"><line x2="-6" y2="0" class="axis-line"/><text dy=".32em" style="text-anchor: end;" x="-9" y="0">4.00e-4</text></g><g class="tick" style="opacity: 1;" transform="translate(0,343.29821357184727)"><line x2="-6" y2="0" class="axis-line"/><text dy=".32em" style="text-anchor: end;" x="-9" y="0">6.00e-4</text></g><g class="tick" style="opacity: 1;" transform="translate(0,311.0016722015154)"><line x2="-6" y2="0" class="axis-line"/><text dy=".32em" style="text-anchor: end;" x="-9" y="0">8.00e-4</text></g><g class="tick" style="opacity: 1;" transform="translate(0,278.7051308311836)"><line x2="-6" y2="0" class="axis-line"/><text dy=".32em" style="text-anchor: end;" x="-9" y="0">1.00e-3</text></g><g class="tick" style="opacity: 1;" transform="translate(0,246.40858946085177)"><line x2="-6" y2="0" class="axis-line"/><text dy=".32em" style="text-anchor: end;" x="-9" y="0">1.20e-3</text></g><g class="tick" style="opacity: 1;" transform="translate(0,214.11204809051995)"><line x2="-6" y2="0" class="axis-line"/><text dy=".32em" style="text-anchor: end;" x="-9" y="0">1.40e-3</text></g><g class="tick" style="opacity: 1;" transform="translate(0,181.81550672018813)"><line x2="-6" y2="0" class="axis-line"/><text dy=".32em" style="text-anchor: end;" x="-9" y="0">1.60e-3</text></g><g class="tick" style="opacity: 1;" transform="translate(0,149.5189653498563)"><line x2="-6" y2="0" class="axis-line"/><text dy=".32em" style="text-anchor: end;" x="-9" y="0">1.80e-3</text></g><g class="tick" style="opacity: 1;" transform="translate(0,117.22242397952449)"><line x2="-6" y2="0" class="axis-line"/><text dy=".32em" style="text-anchor: end;" x="-9" y="0">2.00e-3</text></g><g class="tick" style="opacity: 1;" transform="translate(0,84.92588260919263)"><line x2="-6" y2="0" class="axis-line"/><text dy=".32em" style="text-anchor: end;" x="-9" y="0">2.20e-3</text></g><g class="tick" style="opacity: 1;" transform="translate(0,52.629341238860846)"><line x2="-6" y2="0" class="axis-line"/><text dy=".32em" style="text-anchor: end;" x="-9" y="0">2.40e-3</text></g><g class="tick" style="opacity: 1;" transform="translate(0,20.33279986852903)"><line x2="-6" y2="0" class="axis-line"/><text dy=".32em" style="text-anchor: end;" x="-9" y="0">2.60e-3</text></g><path class="axis-path" d="M-6,0H0V400H-6"/><text transform="rotate(-90)" y="6" dy=".71em" style="text-anchor: end;">Mean running time (seconds)</text></g><g class="data-series-0 data-series-count-2"><circle cx="0" cy="400" r="3"/><circle cx="220" cy="359.2420939114775" r="3"/><circle cx="440" cy="318.5627766408504" r="3"/><circle cx="660" cy="282.4826738873631" r="3"/><circle cx="880" cy="242.90235613806055" r="3"/><path class="error-bar" x="0" y="400" d="M 0 400 V 399.3326596971005 h -3 h 6 h -3 V 400.6673403028995 h -3 h 6"/><path class="error-bar" x="220" y="359.2420939114775" d="M 220 359.2420939114775 V 356.7931201533099 h -3 h 6 h -3 V 361.691067669645 h -3 h 6"/><path class="error-bar" x="440" y="318.5627766408504" d="M 440 318.5627766408504 V 315.6589742392919 h -3 h 6 h -3 V 321.46657904240897 h -3 h 6"/><path class="error-bar" x="660" y="282.4826738873631" d="M 660 282.4826738873631 V 269.1920182264009 h -3 h 6 h -3 V 295.7733295483253 h -3 h 6"/><path class="error-bar" x="880" y="242.90235613806055" d="M 880 242.90235613806055 V 237.90558453005755 h -3 h 6 h -3 V 247.89912774606356 h -3 h 6"/><path class="line" d="M0,400L220,359.2420939114775L440,318.5627766408504L660,282.4826738873631L880,242.90235613806055"/></g><g class="data-series-1 data-series-count-2"><circle cx="0" cy="355.5691485688958" r="3"/><circle cx="220" cy="270.0719243894842" r="3"/><circle cx="440" cy="181.66063358137552" r="3"/><circle cx="660" cy="100.81851992073379" r="3"/><circle cx="880" cy="0" r="3"/><path class="error-bar" x="0" y="355.5691485688958" d="M 0 355.5691485688958 V 347.5226700355976 h -3 h 6 h -3 V 363.6156271021939 h -3 h 6"/><path class="error-bar" x="220" y="270.0719243894842" d="M 220 270.0719243894842 V 265.16364720507096 h -3 h 6 h -3 V 274.98020157389743 h -3 h 6"/><path class="error-bar" x="440" y="181.66063358137552" d="M 440 181.66063358137552 V 171.10903891381037 h -3 h 6 h -3 V 192.21222824894073 h -3 h 6"/><path class="error-bar" x="660" y="100.81851992073379" d="M 660 100.81851992073379 V 88.37242744644303 h -3 h 6 h -3 V 113.26461239502454 h -3 h 6"/><path class="error-bar" x="880" y="0" d="M 880 0 V -44.00613912359432 h -3 h 6 h -3 V 44.00613912359432 h -3 h 6"/><path class="line" d="M0,355.5691485688958L220,270.0719243894842L440,181.66063358137552L660,100.81851992073379L880,0"/></g><g class="legend" transform="translate(50, 50)"><rect x="0" y="0" width="15" height="15" class="data-series-0 data-series-count-2"/><rect x="0" y="20" width="15" height="15" class="data-series-1 data-series-count-2"/><text x="24" y="13">json</text><text x="24" y="33">json-codecs</text></g></g><g transform="translate(960, 500)" class="graph-footer"><text style="text-anchor: end;">Ran on:</text><text style="text-anchor: end;" y="14">2023-09-05 16:38:10</text></g></g><line x1="0" y1="1645" x2="1000" y2="1645" class="graph-gap-line"/><g transform="translate(0, 1650)"><g transform="translate(80, 40)"><g transform="translate(440, 0)"><text style="text-anchor: middle; font-size: 28px;">Decoding an array of ints (unoptimized)*</text><text y="20" style="text-anchor: middle; font-size: 16px;">* Tag: json-codec-with-baseline</text></g><g class="x axis" transform="translate(0, 400)"><g class="tick" style="opacity: 1;" transform="translate(0,0)"><line y2="6" x2="0" class="axis-line"/><text dy=".71em" style="text-anchor: middle;" y="9" x="0">1,000</text></g><g class="tick" style="opacity: 1;" transform="translate(110,0)"><line y2="6" x2="0" class="axis-line"/><text dy=".71em" style="text-anchor: middle;" y="9" x="0">1,500</text></g><g class="tick" style="opacity: 1;" transform="translate(220,0)"><line y2="6" x2="0" class="axis-line"/><text dy=".71em" style="text-anchor: middle;" y="9" x="0">2,000</text></g><g class="tick" style="opacity: 1;" transform="translate(330,0)"><line y2="6" x2="0" class="axis-line"/><text dy=".71em" style="text-anchor: middle;" y="9" x="0">2,500</text></g><g class="tick" style="opacity: 1;" transform="translate(440,0)"><line y2="6" x2="0" class="axis-line"/><text dy=".71em" style="text-anchor: middle;" y="9" x="0">3,000</text></g><g class="tick" style="opacity: 1;" transform="translate(550,0)"><line y2="6" x2="0" class="axis-line"/><text dy=".71em" style="text-anchor: middle;" y="9" x="0">3,500</text></g><g class="tick" style="opacity: 1;" transform="translate(660,0)"><line y2="6" x2="0" class="axis-line"/><text dy=".71em" style="text-anchor: middle;" y="9" x="0">4,000</text></g><g class="tick" style="opacity: 1;" transform="translate(770,0)"><line y2="6" x2="0" class="axis-line"/><text dy=".71em" style="text-anchor: middle;" y="9" x="0">4,500</text></g><g class="tick" style="opacity: 1;" transform="translate(880,0)"><line y2="6" x2="0" class="axis-line"/><text dy=".71em" style="text-anchor: middle;" y="9" x="0">5,000</text></g><path class="axis-path" d="M0,6V0H880V6"/><text x="440" y="40" style="text-anchor: middle;">Number of elements in the array</text></g><g class="y axis"><g class="tick" style="opacity: 1;" transform="translate(0,386.1957258705521)"><line x2="-6" y2="0" class="axis-line"/><text dy=".32em" style="text-anchor: end;" x="-9" y="0">6.00e-4</text></g><g class="tick" style="opacity: 1;" transform="translate(0,349.8635058224183)"><line x2="-6" y2="0" class="axis-line"/><text dy=".32em" style="text-anchor: end;" x="-9" y="0">8.00e-4</text></g><g class="tick" style="opacity: 1;" transform="translate(0,313.53128577428436)"><line x2="-6" y2="0" class="axis-line"/><text dy=".32em" style="text-anchor: end;" x="-9" y="0">1.00e-3</text></g><g class="tick" style="opacity: 1;" transform="translate(0,277.19906572615054)"><line x2="-6" y2="0" class="axis-line"/><text dy=".32em" style="text-anchor: end;" x="-9" y="0">1.20e-3</text></g><g class="tick" style="opacity: 1;" transform="translate(0,240.8668456780166)"><line x2="-6" y2="0" class="axis-line"/><text dy=".32em" style="text-anchor: end;" x="-9" y="0">1.40e-3</text></g><g class="tick" style="opacity: 1;" transform="translate(0,204.53462562988273)"><line x2="-6" y2="0" class="axis-line"/><text dy=".32em" style="text-anchor: end;" x="-9" y="0">1.60e-3</text></g><g class="tick" style="opacity: 1;" transform="translate(0,168.2024055817489)"><line x2="-6" y2="0" class="axis-line"/><text dy=".32em" style="text-anchor: end;" x="-9" y="0">1.80e-3</text></g><g class="tick" style="opacity: 1;" transform="translate(0,131.87018553361497)"><line x2="-6" y2="0" class="axis-line"/><text dy=".32em" style="text-anchor: end;" x="-9" y="0">2.00e-3</text></g><g class="tick" style="opacity: 1;" transform="translate(0,95.5379654854811)"><line x2="-6" y2="0" class="axis-line"/><text dy=".32em" style="text-anchor: end;" x="-9" y="0">2.20e-3</text></g><g class="tick" style="opacity: 1;" transform="translate(0,59.20574543734727)"><line x2="-6" y2="0" class="axis-line"/><text dy=".32em" style="text-anchor: end;" x="-9" y="0">2.40e-3</text></g><g class="tick" style="opacity: 1;" transform="translate(0,22.873525389213434)"><line x2="-6" y2="0" class="axis-line"/><text dy=".32em" style="text-anchor: end;" x="-9" y="0">2.60e-3</text></g><path class="axis-path" d="M-6,0H0V400H-6"/><text transform="rotate(-90)" y="6" dy=".71em" style="text-anchor: end;">Mean running time (seconds)</text></g><g class="data-series-0 data-series-count-1"><circle cx="0" cy="400" r="3"/><circle cx="220" cy="303.81929981999497" r="3"/><circle cx="440" cy="204.360400009425" r="3"/><circle cx="660" cy="113.4164989583724" r="3"/><circle cx="880" cy="0" r="3"/><path class="error-bar" x="0" y="400" d="M 0 400 V 390.94805770896176 h -3 h 6 h -3 V 409.05194229103824 h -3 h 6"/><path class="error-bar" x="220" y="303.81929981999497" d="M 220 303.81929981999497 V 298.297699080259 h -3 h 6 h -3 V 309.340900559731 h -3 h 6"/><path class="error-bar" x="440" y="204.360400009425" d="M 440 204.360400009425 V 192.49030980611744 h -3 h 6 h -3 V 216.23049021273263 h -3 h 6"/><path class="error-bar" x="660" y="113.4164989583724" d="M 660 113.4164989583724 V 99.41518020011215 h -3 h 6 h -3 V 127.41781771663261 h -3 h 6"/><path class="error-bar" x="880" y="0" d="M 880 0 V -49.50501392003375 h -3 h 6 h -3 V 49.50501392003375 h -3 h 6"/><path class="line" d="M0,400L220,303.81929981999497L440,204.360400009425L660,113.4164989583724L880,0"/></g><g class="legend" transform="translate(50, 50)"><rect x="0" y="0" width="15" height="15" class="data-series-0 data-series-count-1"/><text x="24" y="13">json-codecs</text></g></g><g transform="translate(960, 500)" class="graph-footer"><text style="text-anchor: end;">Ran on:</text><text style="text-anchor: end;" y="14">2023-09-05 16:38:10</text></g></g><line x1="0" y1="2195" x2="1000" y2="2195" class="graph-gap-line"/><g transform="translate(0, 2200)"><g transform="translate(80, 40)"><g transform="translate(440, 0)"><text style="text-anchor: middle; font-size: 28px;">Decoding an array of ints (unoptimized)*</text><text y="20" style="text-anchor: middle; font-size: 16px;">* Tag: json-codec-with-codec-argonaut</text></g><g class="x axis" transform="translate(0, 400)"><g class="tick" style="opacity: 1;" transform="translate(0,0)"><line y2="6" x2="0" class="axis-line"/><text dy=".71em" style="text-anchor: middle;" y="9" x="0">1,000</text></g><g class="tick" style="opacity: 1;" transform="translate(110,0)"><line y2="6" x2="0" class="axis-line"/><text dy=".71em" style="text-anchor: middle;" y="9" x="0">1,500</text></g><g class="tick" style="opacity: 1;" transform="translate(220,0)"><line y2="6" x2="0" class="axis-line"/><text dy=".71em" style="text-anchor: middle;" y="9" x="0">2,000</text></g><g class="tick" style="opacity: 1;" transform="translate(330,0)"><line y2="6" x2="0" class="axis-line"/><text dy=".71em" style="text-anchor: middle;" y="9" x="0">2,500</text></g><g class="tick" style="opacity: 1;" transform="translate(440,0)"><line y2="6" x2="0" class="axis-line"/><text dy=".71em" style="text-anchor: middle;" y="9" x="0">3,000</text></g><g class="tick" style="opacity: 1;" transform="translate(550,0)"><line y2="6" x2="0" class="axis-line"/><text dy=".71em" style="text-anchor: middle;" y="9" x="0">3,500</text></g><g class="tick" style="opacity: 1;" transform="translate(660,0)"><line y2="6" x2="0" class="axis-line"/><text dy=".71em" style="text-anchor: middle;" y="9" x="0">4,000</text></g><g class="tick" style="opacity: 1;" transform="translate(770,0)"><line y2="6" x2="0" class="axis-line"/><text dy=".71em" style="text-anchor: middle;" y="9" x="0">4,500</text></g><g class="tick" style="opacity: 1;" transform="translate(880,0)"><line y2="6" x2="0" class="axis-line"/><text dy=".71em" style="text-anchor: middle;" y="9" x="0">5,000</text></g><path class="axis-path" d="M0,6V0H880V6"/><text x="440" y="40" style="text-anchor: middle;">Number of elements in the array</text></g><g class="y axis"><g class="tick" style="opacity: 1;" transform="translate(0,397.25897737898225)"><line x2="-6" y2="0" class="axis-line"/><text dy=".32em" style="text-anchor: end;" x="-9" y="0">4.00e-4</text></g><g class="tick" style="opacity: 1;" transform="translate(0,363.0995786418217)"><line x2="-6" y2="0" class="axis-line"/><text dy=".32em" style="text-anchor: end;" x="-9" y="0">6.00e-4</text></g><g class="tick" style="opacity: 1;" transform="translate(0,328.9401799046611)"><line x2="-6" y2="0" class="axis-line"/><text dy=".32em" style="text-anchor: end;" x="-9" y="0">8.00e-4</text></g><g class="tick" style="opacity: 1;" transform="translate(0,294.78078116750044)"><line x2="-6" y2="0" class="axis-line"/><text dy=".32em" style="text-anchor: end;" x="-9" y="0">1.00e-3</text></g><g class="tick" style="opacity: 1;" transform="translate(0,260.6213824303399)"><line x2="-6" y2="0" class="axis-line"/><text dy=".32em" style="text-anchor: end;" x="-9" y="0">1.20e-3</text></g><g class="tick" style="opacity: 1;" transform="translate(0,226.4619836931793)"><line x2="-6" y2="0" class="axis-line"/><text dy=".32em" style="text-anchor: end;" x="-9" y="0">1.40e-3</text></g><g class="tick" style="opacity: 1;" transform="translate(0,192.3025849560187)"><line x2="-6" y2="0" class="axis-line"/><text dy=".32em" style="text-anchor: end;" x="-9" y="0">1.60e-3</text></g><g class="tick" style="opacity: 1;" transform="translate(0,158.14318621885812)"><line x2="-6" y2="0" class="axis-line"/><text dy=".32em" style="text-anchor: end;" x="-9" y="0">1.80e-3</text></g><g class="tick" style="opacity: 1;" transform="translate(0,123.98378748169749)"><line x2="-6" y2="0" class="axis-line"/><text dy=".32em" style="text-anchor: end;" x="-9" y="0">2.00e-3</text></g><g class="tick" style="opacity: 1;" transform="translate(0,89.8243887445369)"><line x2="-6" y2="0" class="axis-line"/><text dy=".32em" style="text-anchor: end;" x="-9" y="0">2.20e-3</text></g><g class="tick" style="opacity: 1;" transform="translate(0,55.66499000737637)"><line x2="-6" y2="0" class="axis-line"/><text dy=".32em" style="text-anchor: end;" x="-9" y="0">2.40e-3</text></g><g class="tick" style="opacity: 1;" transform="translate(0,21.50559127021574)"><line x2="-6" y2="0" class="axis-line"/><text dy=".32em" style="text-anchor: end;" x="-9" y="0">2.60e-3</text></g><path class="axis-path" d="M-6,0H0V400H-6"/><text transform="rotate(-90)" y="6" dy=".71em" style="text-anchor: end;">Mean running time (seconds)</text></g><g class="data-series-0 data-series-count-2"><circle cx="0" cy="376.07829845691043" r="3"/><circle cx="220" cy="285.64961328668403" r="3"/><circle cx="440" cy="192.13877876879533" r="3"/><circle cx="660" cy="106.63370986301155" r="3"/><circle cx="880" cy="0" r="3"/><path class="error-bar" x="0" y="376.07829845691043" d="M 0 376.07829845691043 V 367.56770082055084 h -3 h 6 h -3 V 384.58889609326997 h -3 h 6"/><path class="error-bar" x="220" y="285.64961328668403" d="M 220 285.64961328668403 V 280.45822775928826 h -3 h 6 h -3 V 290.84099881407985 h -3 h 6"/><path class="error-bar" x="440" y="192.13877876879533" d="M 440 192.13877876879533 V 180.97857045332043 h -3 h 6 h -3 V 203.29898708427027 h -3 h 6"/><path class="error-bar" x="660" y="106.63370986301155" d="M 660 106.63370986301155 V 93.46972952611323 h -3 h 6 h -3 V 119.79769019990991 h -3 h 6"/><path class="error-bar" x="880" y="0" d="M 880 0 V -46.544403500329864 h -3 h 6 h -3 V 46.544403500329864 h -3 h 6"/><path class="line" d="M0,376.07829845691043L220,285.64961328668403L440,192.13877876879533L660,106.63370986301155L880,0"/></g><g class="data-series-1 data-series-count-2"><circle cx="0" cy="400" r="3"/><circle cx="220" cy="317.6983513147153" r="3"/><circle cx="440" cy="242.4677747596446" r="3"/><circle cx="660" cy="168.115041362678" r="3"/><circle cx="880" cy="81.3103106203922" r="3"/><path class="error-bar" x="0" y="400" d="M 0 400 V 398.05347449653715 h -3 h 6 h -3 V 401.94652550346285 h -3 h 6"/><path class="error-bar" x="220" y="317.6983513147153" d="M 220 317.6983513147153 V 301.50756880036545 h -3 h 6 h -3 V 333.8891338290652 h -3 h 6"/><path class="error-bar" x="440" y="242.4677747596446" d="M 440 242.4677747596446 V 234.04918582240074 h -3 h 6 h -3 V 250.88636369688837 h -3 h 6"/><path class="error-bar" x="660" y="168.115041362678" d="M 660 168.115041362678 V 162.59654349371579 h -3 h 6 h -3 V 173.63353923164024 h -3 h 6"/><path class="error-bar" x="880" y="81.3103106203922" d="M 880 81.3103106203922 V 64.23033995417424 h -3 h 6 h -3 V 98.39028128661012 h -3 h 6"/><path class="line" d="M0,400L220,317.6983513147153L440,242.4677747596446L660,168.115041362678L880,81.3103106203922"/></g><g class="legend" transform="translate(50, 50)"><rect x="0" y="0" width="15" height="15" class="data-series-0 data-series-count-2"/><rect x="0" y="20" width="15" height="15" class="data-series-1 data-series-count-2"/><text x="24" y="13">json-codecs</text><text x="24" y="33">codec-argonaut</text></g></g><g transform="translate(960, 500)" class="graph-footer"><text style="text-anchor: end;">Ran on:</text><text style="text-anchor: end;" y="14">2023-09-05 16:38:10</text></g></g></svg>