<svg xmlns="http://www.w3.org/2000/svg" width="1000" height="540"><defs><style type="text/css">
    /* https://www.vis4.net/palettes/#/9|d|00429d,96ffea|ffffe0,ff005e,93003a|1|1 */
    :root {
    --data-series-0--1-only: #000;

    --data-series-0--3-or-less: #00429d;
    --data-series-1--3-or-less: #96ffea;
    --data-series-2--3-or-less: #93003a;

    --data-series-0--5-or-less: #00429d;
    --data-series-1--5-or-less: #629cc4;
    --data-series-2--5-or-less: #96ffea;
    --data-series-3--5-or-less: #f4777f;
    --data-series-4--5-or-less: #93003a;

    --data-series-0--7-or-less: #00429d;
    --data-series-1--7-or-less: #4d7cb7;
    --data-series-2--7-or-less: #74bcd1;
    --data-series-3--7-or-less: #96ffea;
    --data-series-4--7-or-less: #ffa59e;
    --data-series-5--7-or-less: #dd4c65;
    --data-series-6--7-or-less: #93003a;

    --data-series-0--9-or-less: #00429d;
    --data-series-1--9-or-less: #416db1;
    --data-series-2--9-or-less: #629cc4;
    --data-series-3--9-or-less: #7dccd7;
    --data-series-4--9-or-less: #96ffea;
    --data-series-5--9-or-less: #ffbcaf;
    --data-series-6--9-or-less: #f4777f;
    --data-series-7--9-or-less: #cf3759;
    --data-series-8--9-or-less: #93003a;
    }

    .background {
    fill: white;
    }

    text {
    font-size: 14px;
    font-family: sans-serif;
    }

    .axis-path,
    .axis-line {
    fill: none;
    stroke: #000;
    stroke-width: 1px;
    shape-rendering: crispEdges;
    }

    .line {
    fill: none;
    stroke-width: 1.5px;
    }

    .error-bar {
    fill: none;
    }

    /* Series of 1 */

    .data-series-0.data-series-count-1 {
    stroke: var(--data-series-0--1-only);
    fill: var(--data-series-0--1-only);
    }

    /* Series of 3 */

    .data-series-0.data-series-count-3,
    .data-series-0.data-series-count-2 {
    stroke: var(--data-series-0--3-or-less);
    fill: var(--data-series-0--3-or-less);
    }

    .data-series-1.data-series-count-3,
    .data-series-1.data-series-count-2 {
    stroke: var(--data-series-1--3-or-less);
    fill: var(--data-series-1--3-or-less);
    }

    .data-series-2.data-series-count-3,
    .data-series-2.data-series-count-2 {
    stroke: var(--data-series-2--3-or-less);
    fill: var(--data-series-2--3-or-less);
    }

    /* Series of 5 */

    .data-series-0.data-series-count-5,
    .data-series-0.data-series-count-4 {
    stroke: var(--data-series-0--5-or-less);
    fill: var(--data-series-0--5-or-less);
    }

    .data-series-1.data-series-count-5,
    .data-series-1.data-series-count-4 {
    stroke: var(--data-series-1--5-or-less);
    fill: var(--data-series-1--5-or-less);
    }

    .data-series-2.data-series-count-5,
    .data-series-2.data-series-count-4 {
    stroke: var(--data-series-2--5-or-less);
    fill: var(--data-series-2--5-or-less);
    }

    .data-series-3.data-series-count-5,
    .data-series-3.data-series-count-4 {
    stroke: var(--data-series-3--5-or-less);
    fill: var(--data-series-3--5-or-less);
    }

    .data-series-4.data-series-count-5,
    .data-series-4.data-series-count-4 {
    stroke: var(--data-series-4--5-or-less);
    fill: var(--data-series-4--5-or-less);
    }

    /* Series of 7 */

    .data-series-0.data-series-count-7,
    .data-series-0.data-series-count-6 {
    stroke: var(--data-series-0--7-or-less);
    fill: var(--data-series-0--7-or-less);
    }

    .data-series-1.data-series-count-7,
    .data-series-1.data-series-count-6 {
    stroke: var(--data-series-1--7-or-less);
    fill: var(--data-series-1--7-or-less);
    }

    .data-series-2.data-series-count-7,
    .data-series-2.data-series-count-6 {
    stroke: var(--data-series-2--7-or-less);
    fill: var(--data-series-2--7-or-less);
    }

    .data-series-3.data-series-count-7,
    .data-series-3.data-series-count-6 {
    stroke: var(--data-series-3--7-or-less);
    fill: var(--data-series-3--7-or-less);
    }

    .data-series-4.data-series-count-7,
    .data-series-4.data-series-count-6 {
    stroke: var(--data-series-4--7-or-less);
    fill: var(--data-series-4--7-or-less);
    }

    .data-series-5.data-series-count-7,
    .data-series-5.data-series-count-6 {
    stroke: var(--data-series-5--7-or-less);
    fill: var(--data-series-5--7-or-less);
    }

    .data-series-6.data-series-count-7,
    .data-series-6.data-series-count-6 {
    stroke: var(--data-series-6--7-or-less);
    fill: var(--data-series-6--7-or-less);
    }

    /* Series of 9 */

    .data-series-0.data-series-count-9,
    .data-series-0.data-series-count-8 {
    stroke: var(--data-series-0--9-or-less);
    fill: var(--data-series-0--9-or-less);
    }

    .data-series-1.data-series-count-9,
    .data-series-1.data-series-count-8 {
    stroke: var(--data-series-1--9-or-less);
    fill: var(--data-series-1--9-or-less);
    }

    .data-series-2.data-series-count-9,
    .data-series-2.data-series-count-8 {
    stroke: var(--data-series-2--9-or-less);
    fill: var(--data-series-2--9-or-less);
    }

    .data-series-3.data-series-count-9,
    .data-series-3.data-series-count-8 {
    stroke: var(--data-series-3--9-or-less);
    fill: var(--data-series-3--9-or-less);
    }

    .data-series-4.data-series-count-9,
    .data-series-4.data-series-count-8 {
    stroke: var(--data-series-4--9-or-less);
    fill: var(--data-series-4--9-or-less);
    }

    .data-series-5.data-series-count-9,
    .data-series-5.data-series-count-8 {
    stroke: var(--data-series-5--9-or-less);
    fill: var(--data-series-5--9-or-less);
    }

    .data-series-6.data-series-count-9,
    .data-series-6.data-series-count-8 {
    stroke: var(--data-series-6--9-or-less);
    fill: var(--data-series-6--9-or-less);
    }

    .data-series-7.data-series-count-9,
    .data-series-7.data-series-count-8 {
    stroke: var(--data-series-7--9-or-less);
    fill: var(--data-series-7--9-or-less);
    }

    .data-series-8.data-series-count-9,
    .data-series-8.data-series-count-8 {
    stroke: var(--data-series-8--9-or-less);
    fill: var(--data-series-8--9-or-less);
    }
  </style></defs><rect width="1000" height="540" class="background"/><g transform="translate(0, 0)"><g transform="translate(80, 40)"><g transform="translate(440, 0)"><text style="text-anchor: middle; font-size: 28px;">Minute changes in decode approach (unoptimized)</text></g><g class="x axis" transform="translate(0, 400)"><g class="tick" style="opacity: 1;" transform="translate(0,0)"><line y2="6" x2="0" class="axis-line"/><text dy=".71em" style="text-anchor: middle;" y="9" x="0">1,000</text></g><g class="tick" style="opacity: 1;" transform="translate(110,0)"><line y2="6" x2="0" class="axis-line"/><text dy=".71em" style="text-anchor: middle;" y="9" x="0">1,500</text></g><g class="tick" style="opacity: 1;" transform="translate(220,0)"><line y2="6" x2="0" class="axis-line"/><text dy=".71em" style="text-anchor: middle;" y="9" x="0">2,000</text></g><g class="tick" style="opacity: 1;" transform="translate(330,0)"><line y2="6" x2="0" class="axis-line"/><text dy=".71em" style="text-anchor: middle;" y="9" x="0">2,500</text></g><g class="tick" style="opacity: 1;" transform="translate(440,0)"><line y2="6" x2="0" class="axis-line"/><text dy=".71em" style="text-anchor: middle;" y="9" x="0">3,000</text></g><g class="tick" style="opacity: 1;" transform="translate(550,0)"><line y2="6" x2="0" class="axis-line"/><text dy=".71em" style="text-anchor: middle;" y="9" x="0">3,500</text></g><g class="tick" style="opacity: 1;" transform="translate(660,0)"><line y2="6" x2="0" class="axis-line"/><text dy=".71em" style="text-anchor: middle;" y="9" x="0">4,000</text></g><g class="tick" style="opacity: 1;" transform="translate(770,0)"><line y2="6" x2="0" class="axis-line"/><text dy=".71em" style="text-anchor: middle;" y="9" x="0">4,500</text></g><g class="tick" style="opacity: 1;" transform="translate(880,0)"><line y2="6" x2="0" class="axis-line"/><text dy=".71em" style="text-anchor: middle;" y="9" x="0">5,000</text></g><path class="axis-path" d="M0,6V0H880V6"/><text x="440" y="40" style="text-anchor: middle;">Number of elements in the array</text></g><g class="y axis"><g class="tick" style="opacity: 1;" transform="translate(0,376.407667411163)"><line x2="-6" y2="0" class="axis-line"/><text dy=".32em" style="text-anchor: end;" x="-9" y="0">5.00e-4</text></g><g class="tick" style="opacity: 1;" transform="translate(0,317.01668470268004)"><line x2="-6" y2="0" class="axis-line"/><text dy=".32em" style="text-anchor: end;" x="-9" y="0">1.00e-3</text></g><g class="tick" style="opacity: 1;" transform="translate(0,257.625701994197)"><line x2="-6" y2="0" class="axis-line"/><text dy=".32em" style="text-anchor: end;" x="-9" y="0">1.50e-3</text></g><g class="tick" style="opacity: 1;" transform="translate(0,198.23471928571402)"><line x2="-6" y2="0" class="axis-line"/><text dy=".32em" style="text-anchor: end;" x="-9" y="0">2.00e-3</text></g><g class="tick" style="opacity: 1;" transform="translate(0,138.84373657723103)"><line x2="-6" y2="0" class="axis-line"/><text dy=".32em" style="text-anchor: end;" x="-9" y="0">2.50e-3</text></g><g class="tick" style="opacity: 1;" transform="translate(0,79.45275386874803)"><line x2="-6" y2="0" class="axis-line"/><text dy=".32em" style="text-anchor: end;" x="-9" y="0">3.00e-3</text></g><g class="tick" style="opacity: 1;" transform="translate(0,20.06177116026504)"><line x2="-6" y2="0" class="axis-line"/><text dy=".32em" style="text-anchor: end;" x="-9" y="0">3.50e-3</text></g><path class="axis-path" d="M-6,0H0V400H-6"/><text transform="rotate(-90)" y="6" dy=".71em" style="text-anchor: end;">Mean running time (seconds)</text></g><g class="data-series-0 data-series-count-5"><circle cx="0" cy="366.8245473993131" r="3"/><circle cx="440" cy="179.27667091706078" r="3"/><circle cx="880" cy="0" r="3"/><path class="error-bar" x="0" y="366.8245473993131" d="M 0 366.8245473993131 V 363.72128061304164 h -3 h 6 h -3 V 369.9278141855845 h -3 h 6"/><path class="error-bar" x="440" y="179.27667091706078" d="M 440 179.27667091706078 V 167.73744322965095 h -3 h 6 h -3 V 190.81589860447062 h -3 h 6"/><path class="error-bar" x="880" y="0" d="M 880 0 V -15.338575108974695 h -3 h 6 h -3 V 15.338575108974739 h -3 h 6"/><path class="line" d="M0,366.8245473993131L440,179.27667091706078L880,0"/></g><g class="data-series-1 data-series-count-5"><circle cx="0" cy="381.6723844488309" r="3"/><circle cx="440" cy="236.4115649673294" r="3"/><circle cx="880" cy="96.51282680262021" r="3"/><path class="error-bar" x="0" y="381.6723844488309" d="M 0 381.6723844488309 V 379.9196045727628 h -3 h 6 h -3 V 383.4251643248989 h -3 h 6"/><path class="error-bar" x="440" y="236.4115649673294" d="M 440 236.4115649673294 V 229.1359750385473 h -3 h 6 h -3 V 243.68715489611156 h -3 h 6"/><path class="error-bar" x="880" y="96.51282680262021" d="M 880 96.51282680262021 V 88.56184331364459 h -3 h 6 h -3 V 104.46381029159579 h -3 h 6"/><path class="line" d="M0,381.6723844488309L440,236.4115649673294L880,96.51282680262021"/></g><g class="data-series-2 data-series-count-5"><circle cx="0" cy="367.04315041682196" r="3"/><circle cx="440" cy="189.29586672208498" r="3"/><circle cx="880" cy="3.20637090275806" r="3"/><path class="error-bar" x="0" y="367.04315041682196" d="M 0 367.04315041682196 V 365.3412718828257 h -3 h 6 h -3 V 368.74502895081827 h -3 h 6"/><path class="error-bar" x="440" y="189.29586672208498" d="M 440 189.29586672208498 V 179.63014777682625 h -3 h 6 h -3 V 198.9615856673437 h -3 h 6"/><path class="error-bar" x="880" y="3.20637090275806" d="M 880 3.20637090275806 V -16.4378744149956 h -3 h 6 h -3 V 22.850616220511675 h -3 h 6"/><path class="line" d="M0,367.04315041682196L440,189.29586672208498L880,3.20637090275806"/></g><g class="data-series-3 data-series-count-5"><circle cx="0" cy="378.7187639356549" r="3"/><circle cx="440" cy="238.07522951532633" r="3"/><circle cx="880" cy="103.44417910062957" r="3"/><path class="error-bar" x="0" y="378.7187639356549" d="M 0 378.7187639356549 V 377.0254756855003 h -3 h 6 h -3 V 380.4120521858095 h -3 h 6"/><path class="error-bar" x="440" y="238.07522951532633" d="M 440 238.07522951532633 V 234.71975709256284 h -3 h 6 h -3 V 241.4307019380898 h -3 h 6"/><path class="error-bar" x="880" y="103.44417910062957" d="M 880 103.44417910062957 V 95.08520347872094 h -3 h 6 h -3 V 111.80315472253821 h -3 h 6"/><path class="line" d="M0,378.7187639356549L440,238.07522951532633L880,103.44417910062957"/></g><g class="data-series-4 data-series-count-5"><circle cx="0" cy="400" r="3"/><circle cx="440" cy="325.8837619171473" r="3"/><circle cx="880" cy="248.49405688106376" r="3"/><path class="error-bar" x="0" y="400" d="M 0 400 V 399.0654310162729 h -3 h 6 h -3 V 400.93456898372705 h -3 h 6"/><path class="error-bar" x="440" y="325.8837619171473" d="M 440 325.8837619171473 V 320.50088936089594 h -3 h 6 h -3 V 331.26663447339865 h -3 h 6"/><path class="error-bar" x="880" y="248.49405688106376" d="M 880 248.49405688106376 V 238.24100155229345 h -3 h 6 h -3 V 258.74711220983403 h -3 h 6"/><path class="line" d="M0,400L440,325.8837619171473L880,248.49405688106376"/></g><g class="legend" transform="translate(50, 50)"><rect x="0" y="0" width="15" height="15" class="data-series-0 data-series-count-5"/><rect x="0" y="20" width="15" height="15" class="data-series-1 data-series-count-5"/><rect x="0" y="40" width="15" height="15" class="data-series-2 data-series-count-5"/><rect x="0" y="60" width="15" height="15" class="data-series-3 data-series-count-5"/><rect x="0" y="80" width="15" height="15" class="data-series-4 data-series-count-5"/><text x="24" y="13">Either-String-A</text><text x="24" y="33">Either-String-A__noShow</text><text x="24" y="53">Either-String-A__noWithIndex</text><text x="24" y="73">Either-String-A__noShow__noWithIndex</text><text x="24" y="93">Maybe-A</text></g></g><g transform="translate(960, 500)" class="graph-footer"><text style="text-anchor: end;">Ran on:</text><text style="text-anchor: end;" y="14">2023-09-05 15:11:09</text></g></g></svg>