<svg xmlns="http://www.w3.org/2000/svg" width="1000" height="540"><defs><style type="text/css">
    /* https://www.vis4.net/palettes/#/9|d|00429d,96ffea|ffffe0,ff005e,93003a|1|1 */
    :root {
    --data-series-0--1-only: #000;

    --data-series-0--3-or-less: #00429d;
    --data-series-1--3-or-less: #96ffea;
    --data-series-2--3-or-less: #93003a;

    --data-series-0--5-or-less: #00429d;
    --data-series-1--5-or-less: #629cc4;
    --data-series-2--5-or-less: #96ffea;
    --data-series-3--5-or-less: #f4777f;
    --data-series-4--5-or-less: #93003a;

    --data-series-0--7-or-less: #00429d;
    --data-series-1--7-or-less: #4d7cb7;
    --data-series-2--7-or-less: #74bcd1;
    --data-series-3--7-or-less: #96ffea;
    --data-series-4--7-or-less: #ffa59e;
    --data-series-5--7-or-less: #dd4c65;
    --data-series-6--7-or-less: #93003a;

    --data-series-0--9-or-less: #00429d;
    --data-series-1--9-or-less: #416db1;
    --data-series-2--9-or-less: #629cc4;
    --data-series-3--9-or-less: #7dccd7;
    --data-series-4--9-or-less: #96ffea;
    --data-series-5--9-or-less: #ffbcaf;
    --data-series-6--9-or-less: #f4777f;
    --data-series-7--9-or-less: #cf3759;
    --data-series-8--9-or-less: #93003a;
    }

    .background {
    fill: white;
    }

    text {
    font-size: 14px;
    font-family: sans-serif;
    }

    .axis-path,
    .axis-line {
    fill: none;
    stroke: #000;
    stroke-width: 1px;
    shape-rendering: crispEdges;
    }

    .line {
    fill: none;
    stroke-width: 1.5px;
    }

    .error-bar {
    fill: none;
    }

    /* Series of 1 */

    .data-series-0.data-series-count-1 {
    stroke: var(--data-series-0--1-only);
    fill: var(--data-series-0--1-only);
    }

    /* Series of 3 */

    .data-series-0.data-series-count-3,
    .data-series-0.data-series-count-2 {
    stroke: var(--data-series-0--3-or-less);
    fill: var(--data-series-0--3-or-less);
    }

    .data-series-1.data-series-count-3,
    .data-series-1.data-series-count-2 {
    stroke: var(--data-series-1--3-or-less);
    fill: var(--data-series-1--3-or-less);
    }

    .data-series-2.data-series-count-3,
    .data-series-2.data-series-count-2 {
    stroke: var(--data-series-2--3-or-less);
    fill: var(--data-series-2--3-or-less);
    }

    /* Series of 5 */

    .data-series-0.data-series-count-5,
    .data-series-0.data-series-count-4 {
    stroke: var(--data-series-0--5-or-less);
    fill: var(--data-series-0--5-or-less);
    }

    .data-series-1.data-series-count-5,
    .data-series-1.data-series-count-4 {
    stroke: var(--data-series-1--5-or-less);
    fill: var(--data-series-1--5-or-less);
    }

    .data-series-2.data-series-count-5,
    .data-series-2.data-series-count-4 {
    stroke: var(--data-series-2--5-or-less);
    fill: var(--data-series-2--5-or-less);
    }

    .data-series-3.data-series-count-5,
    .data-series-3.data-series-count-4 {
    stroke: var(--data-series-3--5-or-less);
    fill: var(--data-series-3--5-or-less);
    }

    .data-series-4.data-series-count-5,
    .data-series-4.data-series-count-4 {
    stroke: var(--data-series-4--5-or-less);
    fill: var(--data-series-4--5-or-less);
    }

    /* Series of 7 */

    .data-series-0.data-series-count-7,
    .data-series-0.data-series-count-6 {
    stroke: var(--data-series-0--7-or-less);
    fill: var(--data-series-0--7-or-less);
    }

    .data-series-1.data-series-count-7,
    .data-series-1.data-series-count-6 {
    stroke: var(--data-series-1--7-or-less);
    fill: var(--data-series-1--7-or-less);
    }

    .data-series-2.data-series-count-7,
    .data-series-2.data-series-count-6 {
    stroke: var(--data-series-2--7-or-less);
    fill: var(--data-series-2--7-or-less);
    }

    .data-series-3.data-series-count-7,
    .data-series-3.data-series-count-6 {
    stroke: var(--data-series-3--7-or-less);
    fill: var(--data-series-3--7-or-less);
    }

    .data-series-4.data-series-count-7,
    .data-series-4.data-series-count-6 {
    stroke: var(--data-series-4--7-or-less);
    fill: var(--data-series-4--7-or-less);
    }

    .data-series-5.data-series-count-7,
    .data-series-5.data-series-count-6 {
    stroke: var(--data-series-5--7-or-less);
    fill: var(--data-series-5--7-or-less);
    }

    .data-series-6.data-series-count-7,
    .data-series-6.data-series-count-6 {
    stroke: var(--data-series-6--7-or-less);
    fill: var(--data-series-6--7-or-less);
    }

    /* Series of 9 */

    .data-series-0.data-series-count-9,
    .data-series-0.data-series-count-8 {
    stroke: var(--data-series-0--9-or-less);
    fill: var(--data-series-0--9-or-less);
    }

    .data-series-1.data-series-count-9,
    .data-series-1.data-series-count-8 {
    stroke: var(--data-series-1--9-or-less);
    fill: var(--data-series-1--9-or-less);
    }

    .data-series-2.data-series-count-9,
    .data-series-2.data-series-count-8 {
    stroke: var(--data-series-2--9-or-less);
    fill: var(--data-series-2--9-or-less);
    }

    .data-series-3.data-series-count-9,
    .data-series-3.data-series-count-8 {
    stroke: var(--data-series-3--9-or-less);
    fill: var(--data-series-3--9-or-less);
    }

    .data-series-4.data-series-count-9,
    .data-series-4.data-series-count-8 {
    stroke: var(--data-series-4--9-or-less);
    fill: var(--data-series-4--9-or-less);
    }

    .data-series-5.data-series-count-9,
    .data-series-5.data-series-count-8 {
    stroke: var(--data-series-5--9-or-less);
    fill: var(--data-series-5--9-or-less);
    }

    .data-series-6.data-series-count-9,
    .data-series-6.data-series-count-8 {
    stroke: var(--data-series-6--9-or-less);
    fill: var(--data-series-6--9-or-less);
    }

    .data-series-7.data-series-count-9,
    .data-series-7.data-series-count-8 {
    stroke: var(--data-series-7--9-or-less);
    fill: var(--data-series-7--9-or-less);
    }

    .data-series-8.data-series-count-9,
    .data-series-8.data-series-count-8 {
    stroke: var(--data-series-8--9-or-less);
    fill: var(--data-series-8--9-or-less);
    }
  </style></defs><rect width="1000" height="540" class="background"/><g transform="translate(0, 0)"><g transform="translate(80, 40)"><g transform="translate(440, 0)"><text style="text-anchor: middle; font-size: 28px;">Decode approaches (unoptimized)</text></g><g class="x axis" transform="translate(0, 400)"><g class="tick" style="opacity: 1;" transform="translate(0,0)"><line y2="6" x2="0" class="axis-line"/><text dy=".71em" style="text-anchor: middle;" y="9" x="0">1,000</text></g><g class="tick" style="opacity: 1;" transform="translate(110,0)"><line y2="6" x2="0" class="axis-line"/><text dy=".71em" style="text-anchor: middle;" y="9" x="0">1,500</text></g><g class="tick" style="opacity: 1;" transform="translate(220,0)"><line y2="6" x2="0" class="axis-line"/><text dy=".71em" style="text-anchor: middle;" y="9" x="0">2,000</text></g><g class="tick" style="opacity: 1;" transform="translate(330,0)"><line y2="6" x2="0" class="axis-line"/><text dy=".71em" style="text-anchor: middle;" y="9" x="0">2,500</text></g><g class="tick" style="opacity: 1;" transform="translate(440,0)"><line y2="6" x2="0" class="axis-line"/><text dy=".71em" style="text-anchor: middle;" y="9" x="0">3,000</text></g><g class="tick" style="opacity: 1;" transform="translate(550,0)"><line y2="6" x2="0" class="axis-line"/><text dy=".71em" style="text-anchor: middle;" y="9" x="0">3,500</text></g><g class="tick" style="opacity: 1;" transform="translate(660,0)"><line y2="6" x2="0" class="axis-line"/><text dy=".71em" style="text-anchor: middle;" y="9" x="0">4,000</text></g><g class="tick" style="opacity: 1;" transform="translate(770,0)"><line y2="6" x2="0" class="axis-line"/><text dy=".71em" style="text-anchor: middle;" y="9" x="0">4,500</text></g><g class="tick" style="opacity: 1;" transform="translate(880,0)"><line y2="6" x2="0" class="axis-line"/><text dy=".71em" style="text-anchor: middle;" y="9" x="0">5,000</text></g><path class="axis-path" d="M0,6V0H880V6"/><text x="440" y="40" style="text-anchor: middle;">Number of elements in the array</text></g><g class="y axis"><g class="tick" style="opacity: 1;" transform="translate(0,385.3525398691635)"><line x2="-6" y2="0" class="axis-line"/><text dy=".32em" style="text-anchor: end;" x="-9" y="0">4.00e-4</text></g><g class="tick" style="opacity: 1;" transform="translate(0,354.5097795011113)"><line x2="-6" y2="0" class="axis-line"/><text dy=".32em" style="text-anchor: end;" x="-9" y="0">6.00e-4</text></g><g class="tick" style="opacity: 1;" transform="translate(0,323.66701913305917)"><line x2="-6" y2="0" class="axis-line"/><text dy=".32em" style="text-anchor: end;" x="-9" y="0">8.00e-4</text></g><g class="tick" style="opacity: 1;" transform="translate(0,292.824258765007)"><line x2="-6" y2="0" class="axis-line"/><text dy=".32em" style="text-anchor: end;" x="-9" y="0">1.00e-3</text></g><g class="tick" style="opacity: 1;" transform="translate(0,261.98149839695486)"><line x2="-6" y2="0" class="axis-line"/><text dy=".32em" style="text-anchor: end;" x="-9" y="0">1.20e-3</text></g><g class="tick" style="opacity: 1;" transform="translate(0,231.13873802890268)"><line x2="-6" y2="0" class="axis-line"/><text dy=".32em" style="text-anchor: end;" x="-9" y="0">1.40e-3</text></g><g class="tick" style="opacity: 1;" transform="translate(0,200.29597766085047)"><line x2="-6" y2="0" class="axis-line"/><text dy=".32em" style="text-anchor: end;" x="-9" y="0">1.60e-3</text></g><g class="tick" style="opacity: 1;" transform="translate(0,169.45321729279837)"><line x2="-6" y2="0" class="axis-line"/><text dy=".32em" style="text-anchor: end;" x="-9" y="0">1.80e-3</text></g><g class="tick" style="opacity: 1;" transform="translate(0,138.61045692474616)"><line x2="-6" y2="0" class="axis-line"/><text dy=".32em" style="text-anchor: end;" x="-9" y="0">2.00e-3</text></g><g class="tick" style="opacity: 1;" transform="translate(0,107.767696556694)"><line x2="-6" y2="0" class="axis-line"/><text dy=".32em" style="text-anchor: end;" x="-9" y="0">2.20e-3</text></g><g class="tick" style="opacity: 1;" transform="translate(0,76.92493618864194)"><line x2="-6" y2="0" class="axis-line"/><text dy=".32em" style="text-anchor: end;" x="-9" y="0">2.40e-3</text></g><g class="tick" style="opacity: 1;" transform="translate(0,46.08217582058973)"><line x2="-6" y2="0" class="axis-line"/><text dy=".32em" style="text-anchor: end;" x="-9" y="0">2.60e-3</text></g><g class="tick" style="opacity: 1;" transform="translate(0,15.239415452537575)"><line x2="-6" y2="0" class="axis-line"/><text dy=".32em" style="text-anchor: end;" x="-9" y="0">2.80e-3</text></g><path class="axis-path" d="M-6,0H0V400H-6"/><text transform="rotate(-90)" y="6" dy=".71em" style="text-anchor: end;">Mean running time (seconds)</text></g><g class="data-series-0 data-series-count-4"><circle cx="0" cy="321.9501163953739" r="3"/><circle cx="440" cy="182.23408059823106" r="3"/><circle cx="880" cy="0" r="3"/><path class="error-bar" x="0" y="321.9501163953739" d="M 0 321.9501163953739 V 274.7970687602568 h -3 h 6 h -3 V 369.10316403049103 h -3 h 6"/><path class="error-bar" x="440" y="182.23408059823106" d="M 440 182.23408059823106 V 166.86248138198167 h -3 h 6 h -3 V 197.60567981448048 h -3 h 6"/><path class="error-bar" x="880" y="0" d="M 880 0 V -26.724303645371172 h -3 h 6 h -3 V 26.724303645371172 h -3 h 6"/><path class="line" d="M0,321.9501163953739L440,182.23408059823106L880,0"/></g><g class="data-series-1 data-series-count-4"><circle cx="0" cy="303.47610050037184" r="3"/><circle cx="440" cy="181.19578051792143" r="3"/><circle cx="880" cy="7.92733153445635" r="3"/><path class="error-bar" x="0" y="303.47610050037184" d="M 0 303.47610050037184 V 208.14689308570468 h -3 h 6 h -3 V 398.805307915039 h -3 h 6"/><path class="error-bar" x="440" y="181.19578051792143" d="M 440 181.19578051792143 V 147.44250852157873 h -3 h 6 h -3 V 214.94905251426414 h -3 h 6"/><path class="error-bar" x="880" y="7.92733153445635" d="M 880 7.92733153445635 V -5.349865231300299 h -3 h 6 h -3 V 21.204528300213042 h -3 h 6"/><path class="line" d="M0,303.47610050037184L440,181.19578051792143L880,7.92733153445635"/></g><g class="data-series-2 data-series-count-4"><circle cx="0" cy="371.3963439295131" r="3"/><circle cx="440" cy="196.5266724644967" r="3"/><circle cx="880" cy="24.259810555528503" r="3"/><path class="error-bar" x="0" y="371.3963439295131" d="M 0 371.3963439295131 V 368.86385029490134 h -3 h 6 h -3 V 373.92883756412476 h -3 h 6"/><path class="error-bar" x="440" y="196.5266724644967" d="M 440 196.5266724644967 V 186.99278743615088 h -3 h 6 h -3 V 206.06055749284252 h -3 h 6"/><path class="error-bar" x="880" y="24.259810555528503" d="M 880 24.259810555528503 V -13.900579853905093 h -3 h 6 h -3 V 62.420200964962056 h -3 h 6"/><path class="line" d="M0,371.3963439295131L440,196.5266724644967L880,24.259810555528503"/></g><g class="data-series-3 data-series-count-4"><circle cx="0" cy="400" r="3"/><circle cx="440" cy="304.0125228510295" r="3"/><circle cx="880" cy="209.65255202780605" r="3"/><path class="error-bar" x="0" y="400" d="M 0 400 V 397.8005934797664 h -3 h 6 h -3 V 402.19940652023354 h -3 h 6"/><path class="error-bar" x="440" y="304.0125228510295" d="M 440 304.0125228510295 V 300.1134900257897 h -3 h 6 h -3 V 307.91155567626924 h -3 h 6"/><path class="error-bar" x="880" y="209.65255202780605" d="M 880 209.65255202780605 V 202.72826676070514 h -3 h 6 h -3 V 216.57683729490697 h -3 h 6"/><path class="line" d="M0,400L440,304.0125228510295L880,209.65255202780605"/></g><g class="legend" transform="translate(50, 50)"><rect x="0" y="0" width="15" height="15" class="data-series-0 data-series-count-4"/><rect x="0" y="20" width="15" height="15" class="data-series-1 data-series-count-4"/><rect x="0" y="40" width="15" height="15" class="data-series-2 data-series-count-4"/><rect x="0" y="60" width="15" height="15" class="data-series-3 data-series-count-4"/><text x="24" y="13">Either-String-A__noShow__noWithIndex</text><text x="24" y="33">Either-List-String-A__noShow__noWithIndex</text><text x="24" y="53">Either-DecodeErr-A__noShow__noWithIndex</text><text x="24" y="73">Maybe-A</text></g></g><g transform="translate(960, 500)" class="graph-footer"><text style="text-anchor: end;">Ran on:</text><text style="text-anchor: end;" y="14">2023-09-05 16:33:39</text></g></g></svg>