<svg xmlns="http://www.w3.org/2000/svg" width="1000" height="2740"><defs><style type="text/css">
    /* https://www.vis4.net/palettes/#/9|d|00429d,96ffea|ffffe0,ff005e,93003a|1|1 */
    :root {
    --data-series-0--1-only: #000;

    --data-series-0--3-or-less: #00429d;
    --data-series-1--3-or-less: #96ffea;
    --data-series-2--3-or-less: #93003a;

    --data-series-0--5-or-less: #00429d;
    --data-series-1--5-or-less: #629cc4;
    --data-series-2--5-or-less: #96ffea;
    --data-series-3--5-or-less: #f4777f;
    --data-series-4--5-or-less: #93003a;

    --data-series-0--7-or-less: #00429d;
    --data-series-1--7-or-less: #4d7cb7;
    --data-series-2--7-or-less: #74bcd1;
    --data-series-3--7-or-less: #96ffea;
    --data-series-4--7-or-less: #ffa59e;
    --data-series-5--7-or-less: #dd4c65;
    --data-series-6--7-or-less: #93003a;

    --data-series-0--9-or-less: #00429d;
    --data-series-1--9-or-less: #416db1;
    --data-series-2--9-or-less: #629cc4;
    --data-series-3--9-or-less: #7dccd7;
    --data-series-4--9-or-less: #96ffea;
    --data-series-5--9-or-less: #ffbcaf;
    --data-series-6--9-or-less: #f4777f;
    --data-series-7--9-or-less: #cf3759;
    --data-series-8--9-or-less: #93003a;
    }

    .background {
    fill: white;
    }

    text {
    font-size: 14px;
    font-family: sans-serif;
    }

    .axis-path,
    .axis-line {
    fill: none;
    stroke: #000;
    stroke-width: 1px;
    shape-rendering: crispEdges;
    }

    .line {
    fill: none;
    stroke-width: 1.5px;
    }

    .error-bar {
    fill: none;
    }

    /* Series of 1 */

    .data-series-0.data-series-count-1 {
    stroke: var(--data-series-0--1-only);
    fill: var(--data-series-0--1-only);
    }

    /* Series of 3 */

    .data-series-0.data-series-count-3,
    .data-series-0.data-series-count-2 {
    stroke: var(--data-series-0--3-or-less);
    fill: var(--data-series-0--3-or-less);
    }

    .data-series-1.data-series-count-3,
    .data-series-1.data-series-count-2 {
    stroke: var(--data-series-1--3-or-less);
    fill: var(--data-series-1--3-or-less);
    }

    .data-series-2.data-series-count-3,
    .data-series-2.data-series-count-2 {
    stroke: var(--data-series-2--3-or-less);
    fill: var(--data-series-2--3-or-less);
    }

    /* Series of 5 */

    .data-series-0.data-series-count-5,
    .data-series-0.data-series-count-4 {
    stroke: var(--data-series-0--5-or-less);
    fill: var(--data-series-0--5-or-less);
    }

    .data-series-1.data-series-count-5,
    .data-series-1.data-series-count-4 {
    stroke: var(--data-series-1--5-or-less);
    fill: var(--data-series-1--5-or-less);
    }

    .data-series-2.data-series-count-5,
    .data-series-2.data-series-count-4 {
    stroke: var(--data-series-2--5-or-less);
    fill: var(--data-series-2--5-or-less);
    }

    .data-series-3.data-series-count-5,
    .data-series-3.data-series-count-4 {
    stroke: var(--data-series-3--5-or-less);
    fill: var(--data-series-3--5-or-less);
    }

    .data-series-4.data-series-count-5,
    .data-series-4.data-series-count-4 {
    stroke: var(--data-series-4--5-or-less);
    fill: var(--data-series-4--5-or-less);
    }

    /* Series of 7 */

    .data-series-0.data-series-count-7,
    .data-series-0.data-series-count-6 {
    stroke: var(--data-series-0--7-or-less);
    fill: var(--data-series-0--7-or-less);
    }

    .data-series-1.data-series-count-7,
    .data-series-1.data-series-count-6 {
    stroke: var(--data-series-1--7-or-less);
    fill: var(--data-series-1--7-or-less);
    }

    .data-series-2.data-series-count-7,
    .data-series-2.data-series-count-6 {
    stroke: var(--data-series-2--7-or-less);
    fill: var(--data-series-2--7-or-less);
    }

    .data-series-3.data-series-count-7,
    .data-series-3.data-series-count-6 {
    stroke: var(--data-series-3--7-or-less);
    fill: var(--data-series-3--7-or-less);
    }

    .data-series-4.data-series-count-7,
    .data-series-4.data-series-count-6 {
    stroke: var(--data-series-4--7-or-less);
    fill: var(--data-series-4--7-or-less);
    }

    .data-series-5.data-series-count-7,
    .data-series-5.data-series-count-6 {
    stroke: var(--data-series-5--7-or-less);
    fill: var(--data-series-5--7-or-less);
    }

    .data-series-6.data-series-count-7,
    .data-series-6.data-series-count-6 {
    stroke: var(--data-series-6--7-or-less);
    fill: var(--data-series-6--7-or-less);
    }

    /* Series of 9 */

    .data-series-0.data-series-count-9,
    .data-series-0.data-series-count-8 {
    stroke: var(--data-series-0--9-or-less);
    fill: var(--data-series-0--9-or-less);
    }

    .data-series-1.data-series-count-9,
    .data-series-1.data-series-count-8 {
    stroke: var(--data-series-1--9-or-less);
    fill: var(--data-series-1--9-or-less);
    }

    .data-series-2.data-series-count-9,
    .data-series-2.data-series-count-8 {
    stroke: var(--data-series-2--9-or-less);
    fill: var(--data-series-2--9-or-less);
    }

    .data-series-3.data-series-count-9,
    .data-series-3.data-series-count-8 {
    stroke: var(--data-series-3--9-or-less);
    fill: var(--data-series-3--9-or-less);
    }

    .data-series-4.data-series-count-9,
    .data-series-4.data-series-count-8 {
    stroke: var(--data-series-4--9-or-less);
    fill: var(--data-series-4--9-or-less);
    }

    .data-series-5.data-series-count-9,
    .data-series-5.data-series-count-8 {
    stroke: var(--data-series-5--9-or-less);
    fill: var(--data-series-5--9-or-less);
    }

    .data-series-6.data-series-count-9,
    .data-series-6.data-series-count-8 {
    stroke: var(--data-series-6--9-or-less);
    fill: var(--data-series-6--9-or-less);
    }

    .data-series-7.data-series-count-9,
    .data-series-7.data-series-count-8 {
    stroke: var(--data-series-7--9-or-less);
    fill: var(--data-series-7--9-or-less);
    }

    .data-series-8.data-series-count-9,
    .data-series-8.data-series-count-8 {
    stroke: var(--data-series-8--9-or-less);
    fill: var(--data-series-8--9-or-less);
    }
  </style></defs><rect width="1000" height="2740" class="background"/><g transform="translate(0, 0)"><g transform="translate(80, 40)"><g transform="translate(440, 0)"><text style="text-anchor: middle; font-size: 28px;">Decoding an array of ints (optimized)</text></g><g class="x axis" transform="translate(0, 400)"><g class="tick" style="opacity: 1;" transform="translate(0,0)"><line y2="6" x2="0" class="axis-line"/><text dy=".71em" style="text-anchor: middle;" y="9" x="0">1,000</text></g><g class="tick" style="opacity: 1;" transform="translate(110,0)"><line y2="6" x2="0" class="axis-line"/><text dy=".71em" style="text-anchor: middle;" y="9" x="0">1,500</text></g><g class="tick" style="opacity: 1;" transform="translate(220,0)"><line y2="6" x2="0" class="axis-line"/><text dy=".71em" style="text-anchor: middle;" y="9" x="0">2,000</text></g><g class="tick" style="opacity: 1;" transform="translate(330,0)"><line y2="6" x2="0" class="axis-line"/><text dy=".71em" style="text-anchor: middle;" y="9" x="0">2,500</text></g><g class="tick" style="opacity: 1;" transform="translate(440,0)"><line y2="6" x2="0" class="axis-line"/><text dy=".71em" style="text-anchor: middle;" y="9" x="0">3,000</text></g><g class="tick" style="opacity: 1;" transform="translate(550,0)"><line y2="6" x2="0" class="axis-line"/><text dy=".71em" style="text-anchor: middle;" y="9" x="0">3,500</text></g><g class="tick" style="opacity: 1;" transform="translate(660,0)"><line y2="6" x2="0" class="axis-line"/><text dy=".71em" style="text-anchor: middle;" y="9" x="0">4,000</text></g><g class="tick" style="opacity: 1;" transform="translate(770,0)"><line y2="6" x2="0" class="axis-line"/><text dy=".71em" style="text-anchor: middle;" y="9" x="0">4,500</text></g><g class="tick" style="opacity: 1;" transform="translate(880,0)"><line y2="6" x2="0" class="axis-line"/><text dy=".71em" style="text-anchor: middle;" y="9" x="0">5,000</text></g><path class="axis-path" d="M0,6V0H880V6"/><text x="440" y="40" style="text-anchor: middle;">Number of elements in the array</text></g><g class="y axis"><g class="tick" style="opacity: 1;" transform="translate(0,399.2865004367122)"><line x2="-6" y2="0" class="axis-line"/><text dy=".32em" style="text-anchor: end;" x="-9" y="0">2.00e-4</text></g><g class="tick" style="opacity: 1;" transform="translate(0,346.02620835000425)"><line x2="-6" y2="0" class="axis-line"/><text dy=".32em" style="text-anchor: end;" x="-9" y="0">4.00e-4</text></g><g class="tick" style="opacity: 1;" transform="translate(0,292.7659162632963)"><line x2="-6" y2="0" class="axis-line"/><text dy=".32em" style="text-anchor: end;" x="-9" y="0">6.00e-4</text></g><g class="tick" style="opacity: 1;" transform="translate(0,239.50562417658833)"><line x2="-6" y2="0" class="axis-line"/><text dy=".32em" style="text-anchor: end;" x="-9" y="0">8.00e-4</text></g><g class="tick" style="opacity: 1;" transform="translate(0,186.2453320898803)"><line x2="-6" y2="0" class="axis-line"/><text dy=".32em" style="text-anchor: end;" x="-9" y="0">1.00e-3</text></g><g class="tick" style="opacity: 1;" transform="translate(0,132.98504000317237)"><line x2="-6" y2="0" class="axis-line"/><text dy=".32em" style="text-anchor: end;" x="-9" y="0">1.20e-3</text></g><g class="tick" style="opacity: 1;" transform="translate(0,79.72474791646435)"><line x2="-6" y2="0" class="axis-line"/><text dy=".32em" style="text-anchor: end;" x="-9" y="0">1.40e-3</text></g><g class="tick" style="opacity: 1;" transform="translate(0,26.46445582975634)"><line x2="-6" y2="0" class="axis-line"/><text dy=".32em" style="text-anchor: end;" x="-9" y="0">1.60e-3</text></g><path class="axis-path" d="M-6,0H0V400H-6"/><text transform="rotate(-90)" y="6" dy=".71em" style="text-anchor: end;">Mean running time (seconds)</text></g><g class="data-series-0 data-series-count-4"><circle cx="0" cy="381.31097993322135" r="3"/><circle cx="220" cy="283.6546452680682" r="3"/><circle cx="440" cy="191.34194593208744" r="3"/><circle cx="660" cy="104.56048652522884" r="3"/><circle cx="880" cy="0" r="3"/><path class="error-bar" x="0" y="381.31097993322135" d="M 0 381.31097993322135 V 378.27653004054724 h -3 h 6 h -3 V 384.34542982589545 h -3 h 6"/><path class="error-bar" x="220" y="283.6546452680682" d="M 220 283.6546452680682 V 263.59958623587613 h -3 h 6 h -3 V 303.7097043002602 h -3 h 6"/><path class="error-bar" x="440" y="191.34194593208744" d="M 440 191.34194593208744 V 179.70625727455115 h -3 h 6 h -3 V 202.9776345896238 h -3 h 6"/><path class="error-bar" x="660" y="104.56048652522884" d="M 660 104.56048652522884 V 98.83608054467814 h -3 h 6 h -3 V 110.28489250577955 h -3 h 6"/><path class="error-bar" x="880" y="0" d="M 880 0 V -18.048469993366734 h -3 h 6 h -3 V 18.048469993366734 h -3 h 6"/><path class="line" d="M0,381.31097993322135L220,283.6546452680682L440,191.34194593208744L660,104.56048652522884L880,0"/></g><g class="data-series-1 data-series-count-4"><circle cx="0" cy="400" r="3"/><circle cx="220" cy="348.5633027268671" r="3"/><circle cx="440" cy="288.14013444531736" r="3"/><circle cx="660" cy="235.8960906998682" r="3"/><circle cx="880" cy="183.50065203069502" r="3"/><path class="error-bar" x="0" y="400" d="M 0 400 V 398.44398441231823 h -3 h 6 h -3 V 401.55601558768177 h -3 h 6"/><path class="error-bar" x="220" y="348.5633027268671" d="M 220 348.5633027268671 V 344.43251354503974 h -3 h 6 h -3 V 352.6940919086944 h -3 h 6"/><path class="error-bar" x="440" y="288.14013444531736" d="M 440 288.14013444531736 V 285.4671442027083 h -3 h 6 h -3 V 290.8131246879265 h -3 h 6"/><path class="error-bar" x="660" y="235.8960906998682" d="M 660 235.8960906998682 V 232.05634213387194 h -3 h 6 h -3 V 239.73583926586457 h -3 h 6"/><path class="error-bar" x="880" y="183.50065203069502" d="M 880 183.50065203069502 V 168.2835925256494 h -3 h 6 h -3 V 198.71771153574068 h -3 h 6"/><path class="line" d="M0,400L220,348.5633027268671L440,288.14013444531736L660,235.8960906998682L880,183.50065203069502"/></g><g class="data-series-2 data-series-count-4"><circle cx="0" cy="384.89590447084197" r="3"/><circle cx="220" cy="312.627819341597" r="3"/><circle cx="440" cy="231.70296953324075" r="3"/><circle cx="660" cy="156.5413514534805" r="3"/><circle cx="880" cy="75.57393699054495" r="3"/><path class="error-bar" x="0" y="384.89590447084197" d="M 0 384.89590447084197 V 382.8009163914083 h -3 h 6 h -3 V 386.9908925502756 h -3 h 6"/><path class="error-bar" x="220" y="312.627819341597" d="M 220 312.627819341597 V 305.4542776619688 h -3 h 6 h -3 V 319.8013610212252 h -3 h 6"/><path class="error-bar" x="440" y="231.70296953324075" d="M 440 231.70296953324075 V 206.8960078305734 h -3 h 6 h -3 V 256.50993123590797 h -3 h 6"/><path class="error-bar" x="660" y="156.5413514534805" d="M 660 156.5413514534805 V 145.65347897917022 h -3 h 6 h -3 V 167.42922392779076 h -3 h 6"/><path class="error-bar" x="880" y="75.57393699054495" d="M 880 75.57393699054495 V 62.35264179328412 h -3 h 6 h -3 V 88.79523218780578 h -3 h 6"/><path class="line" d="M0,384.89590447084197L220,312.627819341597L440,231.70296953324075L660,156.5413514534805L880,75.57393699054495"/></g><g class="data-series-3 data-series-count-4"><circle cx="0" cy="381.44653651025493" r="3"/><circle cx="220" cy="290.59037000237504" r="3"/><circle cx="440" cy="201.39649883655224" r="3"/><circle cx="660" cy="92.36536427534898" r="3"/><circle cx="880" cy="5.441743826969114" r="3"/><path class="error-bar" x="0" y="381.44653651025493" d="M 0 381.44653651025493 V 378.4009388931119 h -3 h 6 h -3 V 384.49213412739795 h -3 h 6"/><path class="error-bar" x="220" y="290.59037000237504" d="M 220 290.59037000237504 V 285.91655372695686 h -3 h 6 h -3 V 295.26418627779327 h -3 h 6"/><path class="error-bar" x="440" y="201.39649883655224" d="M 440 201.39649883655224 V 190.25330584444214 h -3 h 6 h -3 V 212.5396918286623 h -3 h 6"/><path class="error-bar" x="660" y="92.36536427534898" d="M 660 92.36536427534898 V 49.03026879012167 h -3 h 6 h -3 V 135.70045976057625 h -3 h 6"/><path class="error-bar" x="880" y="5.441743826969114" d="M 880 5.441743826969114 V -4.729869248329255 h -3 h 6 h -3 V 15.613356902267439 h -3 h 6"/><path class="line" d="M0,381.44653651025493L220,290.59037000237504L440,201.39649883655224L660,92.36536427534898L880,5.441743826969114"/></g><g class="legend" transform="translate(50, 50)"><rect x="0" y="0" width="15" height="15" class="data-series-0 data-series-count-4"/><rect x="0" y="20" width="15" height="15" class="data-series-1 data-series-count-4"/><rect x="0" y="40" width="15" height="15" class="data-series-2 data-series-count-4"/><rect x="0" y="60" width="15" height="15" class="data-series-3 data-series-count-4"/><text x="24" y="13">argonaut-codec</text><text x="24" y="33">json</text><text x="24" y="53">json-codecs</text><text x="24" y="73">codec-argonaut</text></g></g><g transform="translate(960, 500)" class="graph-footer"><text style="text-anchor: end;">Ran on:</text><text style="text-anchor: end;" y="14">2023-09-05 16:45:27</text></g></g><line x1="0" y1="545" x2="1000" y2="545" class="graph-gap-line"/><g transform="translate(0, 550)"><g transform="translate(80, 40)"><g transform="translate(440, 0)"><text style="text-anchor: middle; font-size: 28px;">Decoding an array of ints (optimized)*</text><text y="20" style="text-anchor: middle; font-size: 16px;">* Tag: json-codec-with-argonaut-codec</text></g><g class="x axis" transform="translate(0, 400)"><g class="tick" style="opacity: 1;" transform="translate(0,0)"><line y2="6" x2="0" class="axis-line"/><text dy=".71em" style="text-anchor: middle;" y="9" x="0">1,000</text></g><g class="tick" style="opacity: 1;" transform="translate(110,0)"><line y2="6" x2="0" class="axis-line"/><text dy=".71em" style="text-anchor: middle;" y="9" x="0">1,500</text></g><g class="tick" style="opacity: 1;" transform="translate(220,0)"><line y2="6" x2="0" class="axis-line"/><text dy=".71em" style="text-anchor: middle;" y="9" x="0">2,000</text></g><g class="tick" style="opacity: 1;" transform="translate(330,0)"><line y2="6" x2="0" class="axis-line"/><text dy=".71em" style="text-anchor: middle;" y="9" x="0">2,500</text></g><g class="tick" style="opacity: 1;" transform="translate(440,0)"><line y2="6" x2="0" class="axis-line"/><text dy=".71em" style="text-anchor: middle;" y="9" x="0">3,000</text></g><g class="tick" style="opacity: 1;" transform="translate(550,0)"><line y2="6" x2="0" class="axis-line"/><text dy=".71em" style="text-anchor: middle;" y="9" x="0">3,500</text></g><g class="tick" style="opacity: 1;" transform="translate(660,0)"><line y2="6" x2="0" class="axis-line"/><text dy=".71em" style="text-anchor: middle;" y="9" x="0">4,000</text></g><g class="tick" style="opacity: 1;" transform="translate(770,0)"><line y2="6" x2="0" class="axis-line"/><text dy=".71em" style="text-anchor: middle;" y="9" x="0">4,500</text></g><g class="tick" style="opacity: 1;" transform="translate(880,0)"><line y2="6" x2="0" class="axis-line"/><text dy=".71em" style="text-anchor: middle;" y="9" x="0">5,000</text></g><path class="axis-path" d="M0,6V0H880V6"/><text x="440" y="40" style="text-anchor: middle;">Number of elements in the array</text></g><g class="y axis"><g class="tick" style="opacity: 1;" transform="translate(0,359.6049782090811)"><line x2="-6" y2="0" class="axis-line"/><text dy=".32em" style="text-anchor: end;" x="-9" y="0">4.00e-4</text></g><g class="tick" style="opacity: 1;" transform="translate(0,304.25464429484464)"><line x2="-6" y2="0" class="axis-line"/><text dy=".32em" style="text-anchor: end;" x="-9" y="0">6.00e-4</text></g><g class="tick" style="opacity: 1;" transform="translate(0,248.90431038060808)"><line x2="-6" y2="0" class="axis-line"/><text dy=".32em" style="text-anchor: end;" x="-9" y="0">8.00e-4</text></g><g class="tick" style="opacity: 1;" transform="translate(0,193.5539764663715)"><line x2="-6" y2="0" class="axis-line"/><text dy=".32em" style="text-anchor: end;" x="-9" y="0">1.00e-3</text></g><g class="tick" style="opacity: 1;" transform="translate(0,138.203642552135)"><line x2="-6" y2="0" class="axis-line"/><text dy=".32em" style="text-anchor: end;" x="-9" y="0">1.20e-3</text></g><g class="tick" style="opacity: 1;" transform="translate(0,82.85330863789841)"><line x2="-6" y2="0" class="axis-line"/><text dy=".32em" style="text-anchor: end;" x="-9" y="0">1.40e-3</text></g><g class="tick" style="opacity: 1;" transform="translate(0,27.50297472366188)"><line x2="-6" y2="0" class="axis-line"/><text dy=".32em" style="text-anchor: end;" x="-9" y="0">1.60e-3</text></g><path class="axis-path" d="M-6,0H0V400H-6"/><text transform="rotate(-90)" y="6" dy=".71em" style="text-anchor: end;">Mean running time (seconds)</text></g><g class="data-series-0 data-series-count-2"><circle cx="0" cy="396.2743957563807" r="3"/><circle cx="220" cy="294.7858285559457" r="3"/><circle cx="440" cy="198.8505917672945" r="3"/><circle cx="660" cy="108.66365197517958" r="3"/><circle cx="880" cy="0" r="3"/><path class="error-bar" x="0" y="396.2743957563807" d="M 0 396.2743957563807 V 393.12086789866464 h -3 h 6 h -3 V 399.4279236140968 h -3 h 6"/><path class="error-bar" x="220" y="294.7858285559457" d="M 220 294.7858285559457 V 273.94376835292655 h -3 h 6 h -3 V 315.6278887589649 h -3 h 6"/><path class="error-bar" x="440" y="198.8505917672945" d="M 440 198.8505917672945 V 186.75829509967144 h -3 h 6 h -3 V 210.94288843491765 h -3 h 6"/><path class="error-bar" x="660" y="108.66365197517958" d="M 660 108.66365197517958 V 102.71460869978215 h -3 h 6 h -3 V 114.61269525057705 h -3 h 6"/><path class="error-bar" x="880" y="0" d="M 880 0 V -18.756728542674317 h -3 h 6 h -3 V 18.756728542674317 h -3 h 6"/><path class="line" d="M0,396.2743957563807L220,294.7858285559457L440,198.8505917672945L660,108.66365197517958L880,0"/></g><g class="data-series-1 data-series-count-2"><circle cx="0" cy="400" r="3"/><circle cx="220" cy="324.89596871278775" r="3"/><circle cx="440" cy="240.79546375198544" r="3"/><circle cx="660" cy="162.68435141568452" r="3"/><circle cx="880" cy="78.53961147697284" r="3"/><path class="error-bar" x="0" y="400" d="M 0 400 V 397.82280034149613 h -3 h 6 h -3 V 402.17719965850387 h -3 h 6"/><path class="error-bar" x="220" y="324.89596871278775" d="M 220 324.89596871278775 V 317.4409227158806 h -3 h 6 h -3 V 332.3510147096948 h -3 h 6"/><path class="error-bar" x="440" y="240.79546375198544" d="M 440 240.79546375198544 V 215.0150265849316 h -3 h 6 h -3 V 266.5759009190393 h -3 h 6"/><path class="error-bar" x="660" y="162.68435141568452" d="M 660 162.68435141568452 V 151.3692167542451 h -3 h 6 h -3 V 173.99948607712395 h -3 h 6"/><path class="error-bar" x="880" y="78.53961147697284" d="M 880 78.53961147697284 V 64.79948585476069 h -3 h 6 h -3 V 92.27973709918498 h -3 h 6"/><path class="line" d="M0,400L220,324.89596871278775L440,240.79546375198544L660,162.68435141568452L880,78.53961147697284"/></g><g class="legend" transform="translate(50, 50)"><rect x="0" y="0" width="15" height="15" class="data-series-0 data-series-count-2"/><rect x="0" y="20" width="15" height="15" class="data-series-1 data-series-count-2"/><text x="24" y="13">argonaut-codec</text><text x="24" y="33">json-codecs</text></g></g><g transform="translate(960, 500)" class="graph-footer"><text style="text-anchor: end;">Ran on:</text><text style="text-anchor: end;" y="14">2023-09-05 16:45:27</text></g></g><line x1="0" y1="1095" x2="1000" y2="1095" class="graph-gap-line"/><g transform="translate(0, 1100)"><g transform="translate(80, 40)"><g transform="translate(440, 0)"><text style="text-anchor: middle; font-size: 28px;">Decoding an array of ints (optimized)*</text><text y="20" style="text-anchor: middle; font-size: 16px;">* Tag: json-codec-with-json</text></g><g class="x axis" transform="translate(0, 400)"><g class="tick" style="opacity: 1;" transform="translate(0,0)"><line y2="6" x2="0" class="axis-line"/><text dy=".71em" style="text-anchor: middle;" y="9" x="0">1,000</text></g><g class="tick" style="opacity: 1;" transform="translate(110,0)"><line y2="6" x2="0" class="axis-line"/><text dy=".71em" style="text-anchor: middle;" y="9" x="0">1,500</text></g><g class="tick" style="opacity: 1;" transform="translate(220,0)"><line y2="6" x2="0" class="axis-line"/><text dy=".71em" style="text-anchor: middle;" y="9" x="0">2,000</text></g><g class="tick" style="opacity: 1;" transform="translate(330,0)"><line y2="6" x2="0" class="axis-line"/><text dy=".71em" style="text-anchor: middle;" y="9" x="0">2,500</text></g><g class="tick" style="opacity: 1;" transform="translate(440,0)"><line y2="6" x2="0" class="axis-line"/><text dy=".71em" style="text-anchor: middle;" y="9" x="0">3,000</text></g><g class="tick" style="opacity: 1;" transform="translate(550,0)"><line y2="6" x2="0" class="axis-line"/><text dy=".71em" style="text-anchor: middle;" y="9" x="0">3,500</text></g><g class="tick" style="opacity: 1;" transform="translate(660,0)"><line y2="6" x2="0" class="axis-line"/><text dy=".71em" style="text-anchor: middle;" y="9" x="0">4,000</text></g><g class="tick" style="opacity: 1;" transform="translate(770,0)"><line y2="6" x2="0" class="axis-line"/><text dy=".71em" style="text-anchor: middle;" y="9" x="0">4,500</text></g><g class="tick" style="opacity: 1;" transform="translate(880,0)"><line y2="6" x2="0" class="axis-line"/><text dy=".71em" style="text-anchor: middle;" y="9" x="0">5,000</text></g><path class="axis-path" d="M0,6V0H880V6"/><text x="440" y="40" style="text-anchor: middle;">Number of elements in the array</text></g><g class="y axis"><g class="tick" style="opacity: 1;" transform="translate(0,399.1202931642801)"><line x2="-6" y2="0" class="axis-line"/><text dy=".32em" style="text-anchor: end;" x="-9" y="0">2.00e-4</text></g><g class="tick" style="opacity: 1;" transform="translate(0,366.28674607336353)"><line x2="-6" y2="0" class="axis-line"/><text dy=".32em" style="text-anchor: end;" x="-9" y="0">3.00e-4</text></g><g class="tick" style="opacity: 1;" transform="translate(0,333.4531989824471)"><line x2="-6" y2="0" class="axis-line"/><text dy=".32em" style="text-anchor: end;" x="-9" y="0">4.00e-4</text></g><g class="tick" style="opacity: 1;" transform="translate(0,300.61965189153057)"><line x2="-6" y2="0" class="axis-line"/><text dy=".32em" style="text-anchor: end;" x="-9" y="0">5.00e-4</text></g><g class="tick" style="opacity: 1;" transform="translate(0,267.78610480061405)"><line x2="-6" y2="0" class="axis-line"/><text dy=".32em" style="text-anchor: end;" x="-9" y="0">6.00e-4</text></g><g class="tick" style="opacity: 1;" transform="translate(0,234.95255770969746)"><line x2="-6" y2="0" class="axis-line"/><text dy=".32em" style="text-anchor: end;" x="-9" y="0">7.00e-4</text></g><g class="tick" style="opacity: 1;" transform="translate(0,202.11901061878095)"><line x2="-6" y2="0" class="axis-line"/><text dy=".32em" style="text-anchor: end;" x="-9" y="0">8.00e-4</text></g><g class="tick" style="opacity: 1;" transform="translate(0,169.28546352786444)"><line x2="-6" y2="0" class="axis-line"/><text dy=".32em" style="text-anchor: end;" x="-9" y="0">9.00e-4</text></g><g class="tick" style="opacity: 1;" transform="translate(0,136.4519164369479)"><line x2="-6" y2="0" class="axis-line"/><text dy=".32em" style="text-anchor: end;" x="-9" y="0">1.00e-3</text></g><g class="tick" style="opacity: 1;" transform="translate(0,103.61836934603134)"><line x2="-6" y2="0" class="axis-line"/><text dy=".32em" style="text-anchor: end;" x="-9" y="0">1.10e-3</text></g><g class="tick" style="opacity: 1;" transform="translate(0,70.78482225511485)"><line x2="-6" y2="0" class="axis-line"/><text dy=".32em" style="text-anchor: end;" x="-9" y="0">1.20e-3</text></g><g class="tick" style="opacity: 1;" transform="translate(0,37.95127516419829)"><line x2="-6" y2="0" class="axis-line"/><text dy=".32em" style="text-anchor: end;" x="-9" y="0">1.30e-3</text></g><g class="tick" style="opacity: 1;" transform="translate(0,5.1177280732817465)"><line x2="-6" y2="0" class="axis-line"/><text dy=".32em" style="text-anchor: end;" x="-9" y="0">1.40e-3</text></g><path class="axis-path" d="M-6,0H0V400H-6"/><text transform="rotate(-90)" y="6" dy=".71em" style="text-anchor: end;">Mean running time (seconds)</text></g><g class="data-series-0 data-series-count-2"><circle cx="0" cy="400" r="3"/><circle cx="220" cy="336.5813007796062" r="3"/><circle cx="440" cy="262.0827629974691" r="3"/><circle cx="660" cy="197.6686487172282" r="3"/><circle cx="880" cy="133.06787258581588" r="3"/><path class="error-bar" x="0" y="400" d="M 0 400 V 398.08151592600444 h -3 h 6 h -3 V 401.9184840739955 h -3 h 6"/><path class="error-bar" x="220" y="336.5813007796062" d="M 220 336.5813007796062 V 331.48825844692897 h -3 h 6 h -3 V 341.6743431122833 h -3 h 6"/><path class="error-bar" x="440" y="262.0827629974691" d="M 440 262.0827629974691 V 258.7871088594337 h -3 h 6 h -3 V 265.3784171355045 h -3 h 6"/><path class="error-bar" x="660" y="197.6686487172282" d="M 660 197.6686487172282 V 192.93444391212978 h -3 h 6 h -3 V 202.40285352232667 h -3 h 6"/><path class="error-bar" x="880" y="133.06787258581588" d="M 880 133.06787258581588 V 114.3060513389179 h -3 h 6 h -3 V 151.82969383271384 h -3 h 6"/><path class="line" d="M0,400L220,336.5813007796062L440,262.0827629974691L660,197.6686487172282L880,133.06787258581588"/></g><g class="data-series-1 data-series-count-2"><circle cx="0" cy="381.37745729914695" r="3"/><circle cx="220" cy="292.2747699763485" r="3"/><circle cx="440" cy="192.49875437799898" r="3"/><circle cx="660" cy="99.82849554300554" r="3"/><circle cx="880" cy="0" r="3"/><path class="error-bar" x="0" y="381.37745729914695" d="M 0 381.37745729914695 V 378.79444894278987 h -3 h 6 h -3 V 383.96046565550404 h -3 h 6"/><path class="error-bar" x="220" y="292.2747699763485" d="M 220 292.2747699763485 V 283.4301764032124 h -3 h 6 h -3 V 301.11936354948466 h -3 h 6"/><path class="error-bar" x="440" y="192.49875437799898" d="M 440 192.49875437799898 V 161.91309615738393 h -3 h 6 h -3 V 223.084412598614 h -3 h 6"/><path class="error-bar" x="660" y="99.82849554300554" d="M 660 99.82849554300554 V 86.40433057510907 h -3 h 6 h -3 V 113.25266051090202 h -3 h 6"/><path class="error-bar" x="880" y="0" d="M 880 0 V -16.30115049896652 h -3 h 6 h -3 V 16.301150498966564 h -3 h 6"/><path class="line" d="M0,381.37745729914695L220,292.2747699763485L440,192.49875437799898L660,99.82849554300554L880,0"/></g><g class="legend" transform="translate(50, 50)"><rect x="0" y="0" width="15" height="15" class="data-series-0 data-series-count-2"/><rect x="0" y="20" width="15" height="15" class="data-series-1 data-series-count-2"/><text x="24" y="13">json</text><text x="24" y="33">json-codecs</text></g></g><g transform="translate(960, 500)" class="graph-footer"><text style="text-anchor: end;">Ran on:</text><text style="text-anchor: end;" y="14">2023-09-05 16:45:27</text></g></g><line x1="0" y1="1645" x2="1000" y2="1645" class="graph-gap-line"/><g transform="translate(0, 1650)"><g transform="translate(80, 40)"><g transform="translate(440, 0)"><text style="text-anchor: middle; font-size: 28px;">Decoding an array of ints (optimized)*</text><text y="20" style="text-anchor: middle; font-size: 16px;">* Tag: json-codec-with-baseline</text></g><g class="x axis" transform="translate(0, 400)"><g class="tick" style="opacity: 1;" transform="translate(0,0)"><line y2="6" x2="0" class="axis-line"/><text dy=".71em" style="text-anchor: middle;" y="9" x="0">1,000</text></g><g class="tick" style="opacity: 1;" transform="translate(110,0)"><line y2="6" x2="0" class="axis-line"/><text dy=".71em" style="text-anchor: middle;" y="9" x="0">1,500</text></g><g class="tick" style="opacity: 1;" transform="translate(220,0)"><line y2="6" x2="0" class="axis-line"/><text dy=".71em" style="text-anchor: middle;" y="9" x="0">2,000</text></g><g class="tick" style="opacity: 1;" transform="translate(330,0)"><line y2="6" x2="0" class="axis-line"/><text dy=".71em" style="text-anchor: middle;" y="9" x="0">2,500</text></g><g class="tick" style="opacity: 1;" transform="translate(440,0)"><line y2="6" x2="0" class="axis-line"/><text dy=".71em" style="text-anchor: middle;" y="9" x="0">3,000</text></g><g class="tick" style="opacity: 1;" transform="translate(550,0)"><line y2="6" x2="0" class="axis-line"/><text dy=".71em" style="text-anchor: middle;" y="9" x="0">3,500</text></g><g class="tick" style="opacity: 1;" transform="translate(660,0)"><line y2="6" x2="0" class="axis-line"/><text dy=".71em" style="text-anchor: middle;" y="9" x="0">4,000</text></g><g class="tick" style="opacity: 1;" transform="translate(770,0)"><line y2="6" x2="0" class="axis-line"/><text dy=".71em" style="text-anchor: middle;" y="9" x="0">4,500</text></g><g class="tick" style="opacity: 1;" transform="translate(880,0)"><line y2="6" x2="0" class="axis-line"/><text dy=".71em" style="text-anchor: middle;" y="9" x="0">5,000</text></g><path class="axis-path" d="M0,6V0H880V6"/><text x="440" y="40" style="text-anchor: middle;">Number of elements in the array</text></g><g class="y axis"><g class="tick" style="opacity: 1;" transform="translate(0,384.1724140355297)"><line x2="-6" y2="0" class="axis-line"/><text dy=".32em" style="text-anchor: end;" x="-9" y="0">3.00e-4</text></g><g class="tick" style="opacity: 1;" transform="translate(0,349.7356150454285)"><line x2="-6" y2="0" class="axis-line"/><text dy=".32em" style="text-anchor: end;" x="-9" y="0">4.00e-4</text></g><g class="tick" style="opacity: 1;" transform="translate(0,315.29881605532734)"><line x2="-6" y2="0" class="axis-line"/><text dy=".32em" style="text-anchor: end;" x="-9" y="0">5.00e-4</text></g><g class="tick" style="opacity: 1;" transform="translate(0,280.86201706522627)"><line x2="-6" y2="0" class="axis-line"/><text dy=".32em" style="text-anchor: end;" x="-9" y="0">6.00e-4</text></g><g class="tick" style="opacity: 1;" transform="translate(0,246.42521807512506)"><line x2="-6" y2="0" class="axis-line"/><text dy=".32em" style="text-anchor: end;" x="-9" y="0">7.00e-4</text></g><g class="tick" style="opacity: 1;" transform="translate(0,211.9884190850239)"><line x2="-6" y2="0" class="axis-line"/><text dy=".32em" style="text-anchor: end;" x="-9" y="0">8.00e-4</text></g><g class="tick" style="opacity: 1;" transform="translate(0,177.55162009492275)"><line x2="-6" y2="0" class="axis-line"/><text dy=".32em" style="text-anchor: end;" x="-9" y="0">9.00e-4</text></g><g class="tick" style="opacity: 1;" transform="translate(0,143.11482110482157)"><line x2="-6" y2="0" class="axis-line"/><text dy=".32em" style="text-anchor: end;" x="-9" y="0">1.00e-3</text></g><g class="tick" style="opacity: 1;" transform="translate(0,108.67802211472042)"><line x2="-6" y2="0" class="axis-line"/><text dy=".32em" style="text-anchor: end;" x="-9" y="0">1.10e-3</text></g><g class="tick" style="opacity: 1;" transform="translate(0,74.24122312461931)"><line x2="-6" y2="0" class="axis-line"/><text dy=".32em" style="text-anchor: end;" x="-9" y="0">1.20e-3</text></g><g class="tick" style="opacity: 1;" transform="translate(0,39.80442413451812)"><line x2="-6" y2="0" class="axis-line"/><text dy=".32em" style="text-anchor: end;" x="-9" y="0">1.30e-3</text></g><g class="tick" style="opacity: 1;" transform="translate(0,5.3676251444169765)"><line x2="-6" y2="0" class="axis-line"/><text dy=".32em" style="text-anchor: end;" x="-9" y="0">1.40e-3</text></g><path class="axis-path" d="M-6,0H0V400H-6"/><text transform="rotate(-90)" y="6" dy=".71em" style="text-anchor: end;">Mean running time (seconds)</text></g><g class="data-series-0 data-series-count-1"><circle cx="0" cy="400" r="3"/><circle cx="220" cy="306.5464561499684" r="3"/><circle cx="440" cy="201.8984087221555" r="3"/><circle cx="660" cy="104.70308995185471" r="3"/><circle cx="880" cy="0" r="3"/><path class="error-bar" x="0" y="400" d="M 0 400 V 397.29086414844807 h -3 h 6 h -3 V 402.709135851552 h -3 h 6"/><path class="error-bar" x="220" y="306.5464561499684" d="M 220 306.5464561499684 V 297.2699838217169 h -3 h 6 h -3 V 315.8229284782199 h -3 h 6"/><path class="error-bar" x="440" y="201.8984087221555" d="M 440 201.8984087221555 V 169.81926231720786 h -3 h 6 h -3 V 233.9775551271032 h -3 h 6"/><path class="error-bar" x="660" y="104.70308995185471" d="M 660 104.70308995185471 V 90.62342718105097 h -3 h 6 h -3 V 118.78275272265846 h -3 h 6"/><path class="error-bar" x="880" y="0" d="M 880 0 V -17.097130611136446 h -3 h 6 h -3 V 17.0971306111364 h -3 h 6"/><path class="line" d="M0,400L220,306.5464561499684L440,201.8984087221555L660,104.70308995185471L880,0"/></g><g class="legend" transform="translate(50, 50)"><rect x="0" y="0" width="15" height="15" class="data-series-0 data-series-count-1"/><text x="24" y="13">json-codecs</text></g></g><g transform="translate(960, 500)" class="graph-footer"><text style="text-anchor: end;">Ran on:</text><text style="text-anchor: end;" y="14">2023-09-05 16:45:27</text></g></g><line x1="0" y1="2195" x2="1000" y2="2195" class="graph-gap-line"/><g transform="translate(0, 2200)"><g transform="translate(80, 40)"><g transform="translate(440, 0)"><text style="text-anchor: middle; font-size: 28px;">Decoding an array of ints (optimized)*</text><text y="20" style="text-anchor: middle; font-size: 16px;">* Tag: json-codec-with-codec-argonaut</text></g><g class="x axis" transform="translate(0, 400)"><g class="tick" style="opacity: 1;" transform="translate(0,0)"><line y2="6" x2="0" class="axis-line"/><text dy=".71em" style="text-anchor: middle;" y="9" x="0">1,000</text></g><g class="tick" style="opacity: 1;" transform="translate(110,0)"><line y2="6" x2="0" class="axis-line"/><text dy=".71em" style="text-anchor: middle;" y="9" x="0">1,500</text></g><g class="tick" style="opacity: 1;" transform="translate(220,0)"><line y2="6" x2="0" class="axis-line"/><text dy=".71em" style="text-anchor: middle;" y="9" x="0">2,000</text></g><g class="tick" style="opacity: 1;" transform="translate(330,0)"><line y2="6" x2="0" class="axis-line"/><text dy=".71em" style="text-anchor: middle;" y="9" x="0">2,500</text></g><g class="tick" style="opacity: 1;" transform="translate(440,0)"><line y2="6" x2="0" class="axis-line"/><text dy=".71em" style="text-anchor: middle;" y="9" x="0">3,000</text></g><g class="tick" style="opacity: 1;" transform="translate(550,0)"><line y2="6" x2="0" class="axis-line"/><text dy=".71em" style="text-anchor: middle;" y="9" x="0">3,500</text></g><g class="tick" style="opacity: 1;" transform="translate(660,0)"><line y2="6" x2="0" class="axis-line"/><text dy=".71em" style="text-anchor: middle;" y="9" x="0">4,000</text></g><g class="tick" style="opacity: 1;" transform="translate(770,0)"><line y2="6" x2="0" class="axis-line"/><text dy=".71em" style="text-anchor: middle;" y="9" x="0">4,500</text></g><g class="tick" style="opacity: 1;" transform="translate(880,0)"><line y2="6" x2="0" class="axis-line"/><text dy=".71em" style="text-anchor: middle;" y="9" x="0">5,000</text></g><path class="axis-path" d="M0,6V0H880V6"/><text x="440" y="40" style="text-anchor: middle;">Number of elements in the array</text></g><g class="y axis"><g class="tick" style="opacity: 1;" transform="translate(0,359.0256740841823)"><line x2="-6" y2="0" class="axis-line"/><text dy=".32em" style="text-anchor: end;" x="-9" y="0">4.00e-4</text></g><g class="tick" style="opacity: 1;" transform="translate(0,302.8815622406502)"><line x2="-6" y2="0" class="axis-line"/><text dy=".32em" style="text-anchor: end;" x="-9" y="0">6.00e-4</text></g><g class="tick" style="opacity: 1;" transform="translate(0,246.73745039711815)"><line x2="-6" y2="0" class="axis-line"/><text dy=".32em" style="text-anchor: end;" x="-9" y="0">8.00e-4</text></g><g class="tick" style="opacity: 1;" transform="translate(0,190.59333855358602)"><line x2="-6" y2="0" class="axis-line"/><text dy=".32em" style="text-anchor: end;" x="-9" y="0">1.00e-3</text></g><g class="tick" style="opacity: 1;" transform="translate(0,134.44922671005398)"><line x2="-6" y2="0" class="axis-line"/><text dy=".32em" style="text-anchor: end;" x="-9" y="0">1.20e-3</text></g><g class="tick" style="opacity: 1;" transform="translate(0,78.30511486652183)"><line x2="-6" y2="0" class="axis-line"/><text dy=".32em" style="text-anchor: end;" x="-9" y="0">1.40e-3</text></g><g class="tick" style="opacity: 1;" transform="translate(0,22.161003022989732)"><line x2="-6" y2="0" class="axis-line"/><text dy=".32em" style="text-anchor: end;" x="-9" y="0">1.60e-3</text></g><path class="axis-path" d="M-6,0H0V400H-6"/><text transform="rotate(-90)" y="6" dy=".71em" style="text-anchor: end;">Mean running time (seconds)</text></g><g class="data-series-0 data-series-count-2"><circle cx="0" cy="400" r="3"/><circle cx="220" cy="323.8189034410716" r="3"/><circle cx="440" cy="238.51231497616743" r="3"/><circle cx="660" cy="159.2810128845282" r="3"/><circle cx="880" cy="73.92955506886283" r="3"/><path class="error-bar" x="0" y="400" d="M 0 400 V 397.7915771687639 h -3 h 6 h -3 V 402.2084228312361 h -3 h 6"/><path class="error-bar" x="220" y="323.8189034410716" d="M 220 323.8189034410716 V 316.2569447924108 h -3 h 6 h -3 V 331.38086208973255 h -3 h 6"/><path class="error-bar" x="440" y="238.51231497616743" d="M 440 238.51231497616743 V 212.3621611229865 h -3 h 6 h -3 V 264.66246882934837 h -3 h 6"/><path class="error-bar" x="660" y="159.2810128845282" d="M 660 159.2810128845282 V 147.8036081241373 h -3 h 6 h -3 V 170.75841764491906 h -3 h 6"/><path class="error-bar" x="880" y="73.92955506886283" d="M 880 73.92955506886283 V 59.9923826053153 h -3 h 6 h -3 V 87.86672753241041 h -3 h 6"/><path class="line" d="M0,400L220,323.8189034410716L440,238.51231497616743L660,159.2810128845282L880,73.92955506886283"/></g><g class="data-series-1 data-series-count-2"><circle cx="0" cy="396.3638633401895" r="3"/><circle cx="220" cy="300.5882193428102" r="3"/><circle cx="440" cy="206.56487695597204" r="3"/><circle cx="660" cy="91.63016718634411" r="3"/><circle cx="880" cy="0" r="3"/><path class="error-bar" x="0" y="396.3638633401895" d="M 0 396.3638633401895 V 393.15335948172594 h -3 h 6 h -3 V 399.574367198653 h -3 h 6"/><path class="error-bar" x="220" y="300.5882193428102" d="M 220 300.5882193428102 V 295.6613356660177 h -3 h 6 h -3 V 305.51510301960263 h -3 h 6"/><path class="error-bar" x="440" y="206.56487695597204" d="M 440 206.56487695597204 V 194.8183271506391 h -3 h 6 h -3 V 218.3114267613049 h -3 h 6"/><path class="error-bar" x="660" y="91.63016718634411" d="M 660 91.63016718634411 V 45.94865939979664 h -3 h 6 h -3 V 137.31167497289158 h -3 h 6"/><path class="error-bar" x="880" y="0" d="M 880 0 V -10.722362941588237 h -3 h 6 h -3 V 10.722362941588237 h -3 h 6"/><path class="line" d="M0,396.3638633401895L220,300.5882193428102L440,206.56487695597204L660,91.63016718634411L880,0"/></g><g class="legend" transform="translate(50, 50)"><rect x="0" y="0" width="15" height="15" class="data-series-0 data-series-count-2"/><rect x="0" y="20" width="15" height="15" class="data-series-1 data-series-count-2"/><text x="24" y="13">json-codecs</text><text x="24" y="33">codec-argonaut</text></g></g><g transform="translate(960, 500)" class="graph-footer"><text style="text-anchor: end;">Ran on:</text><text style="text-anchor: end;" y="14">2023-09-05 16:45:27</text></g></g></svg>