<svg xmlns="http://www.w3.org/2000/svg" width="1000" height="540"><defs><style type="text/css">
    /* https://www.vis4.net/palettes/#/9|d|00429d,96ffea|ffffe0,ff005e,93003a|1|1 */
    :root {
    --data-series-0--1-only: #000;

    --data-series-0--3-or-less: #00429d;
    --data-series-1--3-or-less: #96ffea;
    --data-series-2--3-or-less: #93003a;

    --data-series-0--5-or-less: #00429d;
    --data-series-1--5-or-less: #629cc4;
    --data-series-2--5-or-less: #96ffea;
    --data-series-3--5-or-less: #f4777f;
    --data-series-4--5-or-less: #93003a;

    --data-series-0--7-or-less: #00429d;
    --data-series-1--7-or-less: #4d7cb7;
    --data-series-2--7-or-less: #74bcd1;
    --data-series-3--7-or-less: #96ffea;
    --data-series-4--7-or-less: #ffa59e;
    --data-series-5--7-or-less: #dd4c65;
    --data-series-6--7-or-less: #93003a;

    --data-series-0--9-or-less: #00429d;
    --data-series-1--9-or-less: #416db1;
    --data-series-2--9-or-less: #629cc4;
    --data-series-3--9-or-less: #7dccd7;
    --data-series-4--9-or-less: #96ffea;
    --data-series-5--9-or-less: #ffbcaf;
    --data-series-6--9-or-less: #f4777f;
    --data-series-7--9-or-less: #cf3759;
    --data-series-8--9-or-less: #93003a;
    }

    .background {
    fill: white;
    }

    text {
    font-size: 14px;
    font-family: sans-serif;
    }

    .axis-path,
    .axis-line {
    fill: none;
    stroke: #000;
    stroke-width: 1px;
    shape-rendering: crispEdges;
    }

    .line {
    fill: none;
    stroke-width: 1.5px;
    }

    .error-bar {
    fill: none;
    }

    /* Series of 1 */

    .data-series-0.data-series-count-1 {
    stroke: var(--data-series-0--1-only);
    fill: var(--data-series-0--1-only);
    }

    /* Series of 3 */

    .data-series-0.data-series-count-3,
    .data-series-0.data-series-count-2 {
    stroke: var(--data-series-0--3-or-less);
    fill: var(--data-series-0--3-or-less);
    }

    .data-series-1.data-series-count-3,
    .data-series-1.data-series-count-2 {
    stroke: var(--data-series-1--3-or-less);
    fill: var(--data-series-1--3-or-less);
    }

    .data-series-2.data-series-count-3,
    .data-series-2.data-series-count-2 {
    stroke: var(--data-series-2--3-or-less);
    fill: var(--data-series-2--3-or-less);
    }

    /* Series of 5 */

    .data-series-0.data-series-count-5,
    .data-series-0.data-series-count-4 {
    stroke: var(--data-series-0--5-or-less);
    fill: var(--data-series-0--5-or-less);
    }

    .data-series-1.data-series-count-5,
    .data-series-1.data-series-count-4 {
    stroke: var(--data-series-1--5-or-less);
    fill: var(--data-series-1--5-or-less);
    }

    .data-series-2.data-series-count-5,
    .data-series-2.data-series-count-4 {
    stroke: var(--data-series-2--5-or-less);
    fill: var(--data-series-2--5-or-less);
    }

    .data-series-3.data-series-count-5,
    .data-series-3.data-series-count-4 {
    stroke: var(--data-series-3--5-or-less);
    fill: var(--data-series-3--5-or-less);
    }

    .data-series-4.data-series-count-5,
    .data-series-4.data-series-count-4 {
    stroke: var(--data-series-4--5-or-less);
    fill: var(--data-series-4--5-or-less);
    }

    /* Series of 7 */

    .data-series-0.data-series-count-7,
    .data-series-0.data-series-count-6 {
    stroke: var(--data-series-0--7-or-less);
    fill: var(--data-series-0--7-or-less);
    }

    .data-series-1.data-series-count-7,
    .data-series-1.data-series-count-6 {
    stroke: var(--data-series-1--7-or-less);
    fill: var(--data-series-1--7-or-less);
    }

    .data-series-2.data-series-count-7,
    .data-series-2.data-series-count-6 {
    stroke: var(--data-series-2--7-or-less);
    fill: var(--data-series-2--7-or-less);
    }

    .data-series-3.data-series-count-7,
    .data-series-3.data-series-count-6 {
    stroke: var(--data-series-3--7-or-less);
    fill: var(--data-series-3--7-or-less);
    }

    .data-series-4.data-series-count-7,
    .data-series-4.data-series-count-6 {
    stroke: var(--data-series-4--7-or-less);
    fill: var(--data-series-4--7-or-less);
    }

    .data-series-5.data-series-count-7,
    .data-series-5.data-series-count-6 {
    stroke: var(--data-series-5--7-or-less);
    fill: var(--data-series-5--7-or-less);
    }

    .data-series-6.data-series-count-7,
    .data-series-6.data-series-count-6 {
    stroke: var(--data-series-6--7-or-less);
    fill: var(--data-series-6--7-or-less);
    }

    /* Series of 9 */

    .data-series-0.data-series-count-9,
    .data-series-0.data-series-count-8 {
    stroke: var(--data-series-0--9-or-less);
    fill: var(--data-series-0--9-or-less);
    }

    .data-series-1.data-series-count-9,
    .data-series-1.data-series-count-8 {
    stroke: var(--data-series-1--9-or-less);
    fill: var(--data-series-1--9-or-less);
    }

    .data-series-2.data-series-count-9,
    .data-series-2.data-series-count-8 {
    stroke: var(--data-series-2--9-or-less);
    fill: var(--data-series-2--9-or-less);
    }

    .data-series-3.data-series-count-9,
    .data-series-3.data-series-count-8 {
    stroke: var(--data-series-3--9-or-less);
    fill: var(--data-series-3--9-or-less);
    }

    .data-series-4.data-series-count-9,
    .data-series-4.data-series-count-8 {
    stroke: var(--data-series-4--9-or-less);
    fill: var(--data-series-4--9-or-less);
    }

    .data-series-5.data-series-count-9,
    .data-series-5.data-series-count-8 {
    stroke: var(--data-series-5--9-or-less);
    fill: var(--data-series-5--9-or-less);
    }

    .data-series-6.data-series-count-9,
    .data-series-6.data-series-count-8 {
    stroke: var(--data-series-6--9-or-less);
    fill: var(--data-series-6--9-or-less);
    }

    .data-series-7.data-series-count-9,
    .data-series-7.data-series-count-8 {
    stroke: var(--data-series-7--9-or-less);
    fill: var(--data-series-7--9-or-less);
    }

    .data-series-8.data-series-count-9,
    .data-series-8.data-series-count-8 {
    stroke: var(--data-series-8--9-or-less);
    fill: var(--data-series-8--9-or-less);
    }
  </style></defs><rect width="1000" height="540" class="background"/><g transform="translate(0, 0)"><g transform="translate(80, 40)"><g transform="translate(440, 0)"><text style="text-anchor: middle; font-size: 28px;">Benchmarking decode approaches (unoptimized)</text></g><g class="x axis" transform="translate(0, 400)"><g class="tick" style="opacity: 1;" transform="translate(0,0)"><line y2="6" x2="0" class="axis-line"/><text dy=".71em" style="text-anchor: middle;" y="9" x="0">1,000</text></g><g class="tick" style="opacity: 1;" transform="translate(110,0)"><line y2="6" x2="0" class="axis-line"/><text dy=".71em" style="text-anchor: middle;" y="9" x="0">1,500</text></g><g class="tick" style="opacity: 1;" transform="translate(220,0)"><line y2="6" x2="0" class="axis-line"/><text dy=".71em" style="text-anchor: middle;" y="9" x="0">2,000</text></g><g class="tick" style="opacity: 1;" transform="translate(330,0)"><line y2="6" x2="0" class="axis-line"/><text dy=".71em" style="text-anchor: middle;" y="9" x="0">2,500</text></g><g class="tick" style="opacity: 1;" transform="translate(440,0)"><line y2="6" x2="0" class="axis-line"/><text dy=".71em" style="text-anchor: middle;" y="9" x="0">3,000</text></g><g class="tick" style="opacity: 1;" transform="translate(550,0)"><line y2="6" x2="0" class="axis-line"/><text dy=".71em" style="text-anchor: middle;" y="9" x="0">3,500</text></g><g class="tick" style="opacity: 1;" transform="translate(660,0)"><line y2="6" x2="0" class="axis-line"/><text dy=".71em" style="text-anchor: middle;" y="9" x="0">4,000</text></g><g class="tick" style="opacity: 1;" transform="translate(770,0)"><line y2="6" x2="0" class="axis-line"/><text dy=".71em" style="text-anchor: middle;" y="9" x="0">4,500</text></g><g class="tick" style="opacity: 1;" transform="translate(880,0)"><line y2="6" x2="0" class="axis-line"/><text dy=".71em" style="text-anchor: middle;" y="9" x="0">5,000</text></g><path class="axis-path" d="M0,6V0H880V6"/><text x="440" y="40" style="text-anchor: middle;">Number of elements in the array</text></g><g class="y axis"><g class="tick" style="opacity: 1;" transform="translate(0,377.52837648680503)"><line x2="-6" y2="0" class="axis-line"/><text dy=".32em" style="text-anchor: end;" x="-9" y="0">5.00e-4</text></g><g class="tick" style="opacity: 1;" transform="translate(0,320.1843259637897)"><line x2="-6" y2="0" class="axis-line"/><text dy=".32em" style="text-anchor: end;" x="-9" y="0">1.00e-3</text></g><g class="tick" style="opacity: 1;" transform="translate(0,262.84027544077446)"><line x2="-6" y2="0" class="axis-line"/><text dy=".32em" style="text-anchor: end;" x="-9" y="0">1.50e-3</text></g><g class="tick" style="opacity: 1;" transform="translate(0,205.49622491775915)"><line x2="-6" y2="0" class="axis-line"/><text dy=".32em" style="text-anchor: end;" x="-9" y="0">2.00e-3</text></g><g class="tick" style="opacity: 1;" transform="translate(0,148.1521743947439)"><line x2="-6" y2="0" class="axis-line"/><text dy=".32em" style="text-anchor: end;" x="-9" y="0">2.50e-3</text></g><g class="tick" style="opacity: 1;" transform="translate(0,90.80812387172865)"><line x2="-6" y2="0" class="axis-line"/><text dy=".32em" style="text-anchor: end;" x="-9" y="0">3.00e-3</text></g><g class="tick" style="opacity: 1;" transform="translate(0,33.464073348713356)"><line x2="-6" y2="0" class="axis-line"/><text dy=".32em" style="text-anchor: end;" x="-9" y="0">3.50e-3</text></g><path class="axis-path" d="M-6,0H0V400H-6"/><text transform="rotate(-90)" y="6" dy=".71em" style="text-anchor: end;">Mean running time (seconds)</text></g><g class="data-series-0 data-series-count-4"><circle cx="0" cy="367.01189691429283" r="3"/><circle cx="440" cy="191.2618840227603" r="3"/><circle cx="880" cy="22.360204691460474" r="3"/><path class="error-bar" x="0" y="367.01189691429283" d="M 0 367.01189691429283 V 364.94189444693626 h -3 h 6 h -3 V 369.0818993816494 h -3 h 6"/><path class="error-bar" x="440" y="191.2618840227603" d="M 440 191.2618840227603 V 182.7342018638688 h -3 h 6 h -3 V 199.78956618165176 h -3 h 6"/><path class="error-bar" x="880" y="22.360204691460474" d="M 880 22.360204691460474 V 4.967506750905093 h -3 h 6 h -3 V 39.752902632015804 h -3 h 6"/><path class="line" d="M0,367.01189691429283L440,191.2618840227603L880,22.360204691460474"/></g><g class="data-series-1 data-series-count-4"><circle cx="0" cy="364.98183892240286" r="3"/><circle cx="440" cy="179.33388496501146" r="3"/><circle cx="880" cy="0" r="3"/><path class="error-bar" x="0" y="364.98183892240286" d="M 0 364.98183892240286 V 362.5595290186866 h -3 h 6 h -3 V 367.4041488261192 h -3 h 6"/><path class="error-bar" x="440" y="179.33388496501146" d="M 440 179.33388496501146 V 168.94290889118477 h -3 h 6 h -3 V 189.72486103883818 h -3 h 6"/><path class="error-bar" x="880" y="0" d="M 880 0 V -18.002779681743597 h -3 h 6 h -3 V 18.002779681743597 h -3 h 6"/><path class="line" d="M0,364.98183892240286L440,179.33388496501146L880,0"/></g><g class="data-series-2 data-series-count-4"><circle cx="0" cy="368.40051410374014" r="3"/><circle cx="440" cy="203.9329346967355" r="3"/><circle cx="880" cy="26.494897316960262" r="3"/><path class="error-bar" x="0" y="368.40051410374014" d="M 0 368.40051410374014 V 365.7686334251268 h -3 h 6 h -3 V 371.03239478235344 h -3 h 6"/><path class="error-bar" x="440" y="203.9329346967355" d="M 440 203.9329346967355 V 192.7152236197951 h -3 h 6 h -3 V 215.1506457736759 h -3 h 6"/><path class="error-bar" x="880" y="26.494897316960262" d="M 880 26.494897316960262 V -14.592826523269231 h -3 h 6 h -3 V 67.58262115718976 h -3 h 6"/><path class="line" d="M0,368.40051410374014L440,203.9329346967355L880,26.494897316960262"/></g><g class="data-series-3 data-series-count-4"><circle cx="0" cy="400" r="3"/><circle cx="440" cy="328.77750932924823" r="3"/><circle cx="880" cy="258.20301288611205" r="3"/><path class="error-bar" x="0" y="400" d="M 0 400 V 398.95133438481366 h -3 h 6 h -3 V 401.0486656151863 h -3 h 6"/><path class="error-bar" x="440" y="328.77750932924823" d="M 440 328.77750932924823 V 324.4853267583832 h -3 h 6 h -3 V 333.0696919001131 h -3 h 6"/><path class="error-bar" x="880" y="258.20301288611205" d="M 880 258.20301288611205 V 253.2548716260465 h -3 h 6 h -3 V 263.15115414617753 h -3 h 6"/><path class="line" d="M0,400L440,328.77750932924823L880,258.20301288611205"/></g><g class="legend" transform="translate(50, 50)"><rect x="0" y="0" width="15" height="15" class="data-series-0 data-series-count-4"/><rect x="0" y="20" width="15" height="15" class="data-series-1 data-series-count-4"/><rect x="0" y="40" width="15" height="15" class="data-series-2 data-series-count-4"/><rect x="0" y="60" width="15" height="15" class="data-series-3 data-series-count-4"/><text x="24" y="13">Either-String-A</text><text x="24" y="33">Either-List-String-A</text><text x="24" y="53">Either-DecodeErr-A</text><text x="24" y="73">Maybe-A</text></g></g><g transform="translate(960, 500)" class="graph-footer"><text style="text-anchor: end;">Ran on:</text><text style="text-anchor: end;" y="14">2023-09-05 11:54:55</text></g></g></svg>