<svg xmlns="http://www.w3.org/2000/svg" width="1000" height="2740"><defs><style type="text/css">
    /* https://www.vis4.net/palettes/#/9|d|00429d,96ffea|ffffe0,ff005e,93003a|1|1 */
    :root {
    --data-series-0--1-only: #000;

    --data-series-0--3-or-less: #00429d;
    --data-series-1--3-or-less: #96ffea;
    --data-series-2--3-or-less: #93003a;

    --data-series-0--5-or-less: #00429d;
    --data-series-1--5-or-less: #629cc4;
    --data-series-2--5-or-less: #96ffea;
    --data-series-3--5-or-less: #f4777f;
    --data-series-4--5-or-less: #93003a;

    --data-series-0--7-or-less: #00429d;
    --data-series-1--7-or-less: #4d7cb7;
    --data-series-2--7-or-less: #74bcd1;
    --data-series-3--7-or-less: #96ffea;
    --data-series-4--7-or-less: #ffa59e;
    --data-series-5--7-or-less: #dd4c65;
    --data-series-6--7-or-less: #93003a;

    --data-series-0--9-or-less: #00429d;
    --data-series-1--9-or-less: #416db1;
    --data-series-2--9-or-less: #629cc4;
    --data-series-3--9-or-less: #7dccd7;
    --data-series-4--9-or-less: #96ffea;
    --data-series-5--9-or-less: #ffbcaf;
    --data-series-6--9-or-less: #f4777f;
    --data-series-7--9-or-less: #cf3759;
    --data-series-8--9-or-less: #93003a;
    }

    .background {
    fill: white;
    }

    text {
    font-size: 14px;
    font-family: sans-serif;
    }

    .axis-path,
    .axis-line {
    fill: none;
    stroke: #000;
    stroke-width: 1px;
    shape-rendering: crispEdges;
    }

    .line {
    fill: none;
    stroke-width: 1.5px;
    }

    .error-bar {
    fill: none;
    }

    /* Series of 1 */

    .data-series-0.data-series-count-1 {
    stroke: var(--data-series-0--1-only);
    fill: var(--data-series-0--1-only);
    }

    /* Series of 3 */

    .data-series-0.data-series-count-3,
    .data-series-0.data-series-count-2 {
    stroke: var(--data-series-0--3-or-less);
    fill: var(--data-series-0--3-or-less);
    }

    .data-series-1.data-series-count-3,
    .data-series-1.data-series-count-2 {
    stroke: var(--data-series-1--3-or-less);
    fill: var(--data-series-1--3-or-less);
    }

    .data-series-2.data-series-count-3,
    .data-series-2.data-series-count-2 {
    stroke: var(--data-series-2--3-or-less);
    fill: var(--data-series-2--3-or-less);
    }

    /* Series of 5 */

    .data-series-0.data-series-count-5,
    .data-series-0.data-series-count-4 {
    stroke: var(--data-series-0--5-or-less);
    fill: var(--data-series-0--5-or-less);
    }

    .data-series-1.data-series-count-5,
    .data-series-1.data-series-count-4 {
    stroke: var(--data-series-1--5-or-less);
    fill: var(--data-series-1--5-or-less);
    }

    .data-series-2.data-series-count-5,
    .data-series-2.data-series-count-4 {
    stroke: var(--data-series-2--5-or-less);
    fill: var(--data-series-2--5-or-less);
    }

    .data-series-3.data-series-count-5,
    .data-series-3.data-series-count-4 {
    stroke: var(--data-series-3--5-or-less);
    fill: var(--data-series-3--5-or-less);
    }

    .data-series-4.data-series-count-5,
    .data-series-4.data-series-count-4 {
    stroke: var(--data-series-4--5-or-less);
    fill: var(--data-series-4--5-or-less);
    }

    /* Series of 7 */

    .data-series-0.data-series-count-7,
    .data-series-0.data-series-count-6 {
    stroke: var(--data-series-0--7-or-less);
    fill: var(--data-series-0--7-or-less);
    }

    .data-series-1.data-series-count-7,
    .data-series-1.data-series-count-6 {
    stroke: var(--data-series-1--7-or-less);
    fill: var(--data-series-1--7-or-less);
    }

    .data-series-2.data-series-count-7,
    .data-series-2.data-series-count-6 {
    stroke: var(--data-series-2--7-or-less);
    fill: var(--data-series-2--7-or-less);
    }

    .data-series-3.data-series-count-7,
    .data-series-3.data-series-count-6 {
    stroke: var(--data-series-3--7-or-less);
    fill: var(--data-series-3--7-or-less);
    }

    .data-series-4.data-series-count-7,
    .data-series-4.data-series-count-6 {
    stroke: var(--data-series-4--7-or-less);
    fill: var(--data-series-4--7-or-less);
    }

    .data-series-5.data-series-count-7,
    .data-series-5.data-series-count-6 {
    stroke: var(--data-series-5--7-or-less);
    fill: var(--data-series-5--7-or-less);
    }

    .data-series-6.data-series-count-7,
    .data-series-6.data-series-count-6 {
    stroke: var(--data-series-6--7-or-less);
    fill: var(--data-series-6--7-or-less);
    }

    /* Series of 9 */

    .data-series-0.data-series-count-9,
    .data-series-0.data-series-count-8 {
    stroke: var(--data-series-0--9-or-less);
    fill: var(--data-series-0--9-or-less);
    }

    .data-series-1.data-series-count-9,
    .data-series-1.data-series-count-8 {
    stroke: var(--data-series-1--9-or-less);
    fill: var(--data-series-1--9-or-less);
    }

    .data-series-2.data-series-count-9,
    .data-series-2.data-series-count-8 {
    stroke: var(--data-series-2--9-or-less);
    fill: var(--data-series-2--9-or-less);
    }

    .data-series-3.data-series-count-9,
    .data-series-3.data-series-count-8 {
    stroke: var(--data-series-3--9-or-less);
    fill: var(--data-series-3--9-or-less);
    }

    .data-series-4.data-series-count-9,
    .data-series-4.data-series-count-8 {
    stroke: var(--data-series-4--9-or-less);
    fill: var(--data-series-4--9-or-less);
    }

    .data-series-5.data-series-count-9,
    .data-series-5.data-series-count-8 {
    stroke: var(--data-series-5--9-or-less);
    fill: var(--data-series-5--9-or-less);
    }

    .data-series-6.data-series-count-9,
    .data-series-6.data-series-count-8 {
    stroke: var(--data-series-6--9-or-less);
    fill: var(--data-series-6--9-or-less);
    }

    .data-series-7.data-series-count-9,
    .data-series-7.data-series-count-8 {
    stroke: var(--data-series-7--9-or-less);
    fill: var(--data-series-7--9-or-less);
    }

    .data-series-8.data-series-count-9,
    .data-series-8.data-series-count-8 {
    stroke: var(--data-series-8--9-or-less);
    fill: var(--data-series-8--9-or-less);
    }
  </style></defs><rect width="1000" height="2740" class="background"/><g transform="translate(0, 0)"><g transform="translate(80, 40)"><g transform="translate(440, 0)"><text style="text-anchor: middle; font-size: 28px;">Decoding an array of ints (unoptimized)</text></g><g class="x axis" transform="translate(0, 400)"><g class="tick" style="opacity: 1;" transform="translate(0,0)"><line y2="6" x2="0" class="axis-line"/><text dy=".71em" style="text-anchor: middle;" y="9" x="0">1,000</text></g><g class="tick" style="opacity: 1;" transform="translate(110,0)"><line y2="6" x2="0" class="axis-line"/><text dy=".71em" style="text-anchor: middle;" y="9" x="0">1,500</text></g><g class="tick" style="opacity: 1;" transform="translate(220,0)"><line y2="6" x2="0" class="axis-line"/><text dy=".71em" style="text-anchor: middle;" y="9" x="0">2,000</text></g><g class="tick" style="opacity: 1;" transform="translate(330,0)"><line y2="6" x2="0" class="axis-line"/><text dy=".71em" style="text-anchor: middle;" y="9" x="0">2,500</text></g><g class="tick" style="opacity: 1;" transform="translate(440,0)"><line y2="6" x2="0" class="axis-line"/><text dy=".71em" style="text-anchor: middle;" y="9" x="0">3,000</text></g><g class="tick" style="opacity: 1;" transform="translate(550,0)"><line y2="6" x2="0" class="axis-line"/><text dy=".71em" style="text-anchor: middle;" y="9" x="0">3,500</text></g><g class="tick" style="opacity: 1;" transform="translate(660,0)"><line y2="6" x2="0" class="axis-line"/><text dy=".71em" style="text-anchor: middle;" y="9" x="0">4,000</text></g><g class="tick" style="opacity: 1;" transform="translate(770,0)"><line y2="6" x2="0" class="axis-line"/><text dy=".71em" style="text-anchor: middle;" y="9" x="0">4,500</text></g><g class="tick" style="opacity: 1;" transform="translate(880,0)"><line y2="6" x2="0" class="axis-line"/><text dy=".71em" style="text-anchor: middle;" y="9" x="0">5,000</text></g><path class="axis-path" d="M0,6V0H880V6"/><text x="440" y="40" style="text-anchor: middle;">Number of elements in the array</text></g><g class="y axis"><g class="tick" style="opacity: 1;" transform="translate(0,366.2297959789753)"><line x2="-6" y2="0" class="axis-line"/><text dy=".32em" style="text-anchor: end;" x="-9" y="0">5.00e-4</text></g><g class="tick" style="opacity: 1;" transform="translate(0,305.05597794264327)"><line x2="-6" y2="0" class="axis-line"/><text dy=".32em" style="text-anchor: end;" x="-9" y="0">1.00e-3</text></g><g class="tick" style="opacity: 1;" transform="translate(0,243.88215990631127)"><line x2="-6" y2="0" class="axis-line"/><text dy=".32em" style="text-anchor: end;" x="-9" y="0">1.50e-3</text></g><g class="tick" style="opacity: 1;" transform="translate(0,182.7083418699793)"><line x2="-6" y2="0" class="axis-line"/><text dy=".32em" style="text-anchor: end;" x="-9" y="0">2.00e-3</text></g><g class="tick" style="opacity: 1;" transform="translate(0,121.53452383364728)"><line x2="-6" y2="0" class="axis-line"/><text dy=".32em" style="text-anchor: end;" x="-9" y="0">2.50e-3</text></g><g class="tick" style="opacity: 1;" transform="translate(0,60.36070579731532)"><line x2="-6" y2="0" class="axis-line"/><text dy=".32em" style="text-anchor: end;" x="-9" y="0">3.00e-3</text></g><path class="axis-path" d="M-6,0H0V400H-6"/><text transform="rotate(-90)" y="6" dy=".71em" style="text-anchor: end;">Mean running time (seconds)</text></g><g class="data-series-0 data-series-count-4"><circle cx="0" cy="381.0375114536351" r="3"/><circle cx="220" cy="324.99620272584804" r="3"/><circle cx="440" cy="268.82582250934047" r="3"/><circle cx="660" cy="216.78158258496944" r="3"/><circle cx="880" cy="170.77626294215656" r="3"/><path class="error-bar" x="0" y="381.0375114536351" d="M 0 381.0375114536351 V 378.7134402494542 h -3 h 6 h -3 V 383.361582657816 h -3 h 6"/><path class="error-bar" x="220" y="324.99620272584804" d="M 220 324.99620272584804 V 322.3324881770971 h -3 h 6 h -3 V 327.65991727459897 h -3 h 6"/><path class="error-bar" x="440" y="268.82582250934047" d="M 440 268.82582250934047 V 264.4427933291523 h -3 h 6 h -3 V 273.20885168952856 h -3 h 6"/><path class="error-bar" x="660" y="216.78158258496944" d="M 660 216.78158258496944 V 207.11663192311613 h -3 h 6 h -3 V 226.44653324682284 h -3 h 6"/><path class="error-bar" x="880" y="170.77626294215656" d="M 880 170.77626294215656 V 163.03123140540458 h -3 h 6 h -3 V 178.52129447890852 h -3 h 6"/><path class="line" d="M0,381.0375114536351L220,324.99620272584804L440,268.82582250934047L660,216.78158258496944L880,170.77626294215656"/></g><g class="data-series-1 data-series-count-4"><circle cx="0" cy="400" r="3"/><circle cx="220" cy="368.2552842859679" r="3"/><circle cx="440" cy="338.095952451254" r="3"/><circle cx="660" cy="306.167123991451" r="3"/><circle cx="880" cy="277.63139631022545" r="3"/><path class="error-bar" x="0" y="400" d="M 0 400 V 399.3771198564901 h -3 h 6 h -3 V 400.62288014350986 h -3 h 6"/><path class="error-bar" x="220" y="368.2552842859679" d="M 220 368.2552842859679 V 366.99675999014636 h -3 h 6 h -3 V 369.5138085817893 h -3 h 6"/><path class="error-bar" x="440" y="338.095952451254" d="M 440 338.095952451254 V 335.9240527097698 h -3 h 6 h -3 V 340.2678521927382 h -3 h 6"/><path class="error-bar" x="660" y="306.167123991451" d="M 660 306.167123991451 V 294.3659929488632 h -3 h 6 h -3 V 317.9682550340387 h -3 h 6"/><path class="error-bar" x="880" y="277.63139631022545" d="M 880 277.63139631022545 V 275.4012272624942 h -3 h 6 h -3 V 279.8615653579567 h -3 h 6"/><path class="line" d="M0,400L220,368.2552842859679L440,338.095952451254L660,306.167123991451L880,277.63139631022545"/></g><g class="data-series-2 data-series-count-4"><circle cx="0" cy="351.0429179660069" r="3"/><circle cx="220" cy="266.9799179202574" r="3"/><circle cx="440" cy="171.5624490020302" r="3"/><circle cx="660" cy="82.99905449570373" r="3"/><circle cx="880" cy="0" r="3"/><path class="error-bar" x="0" y="351.0429179660069" d="M 0 351.0429179660069 V 347.0794154942185 h -3 h 6 h -3 V 355.00642043779527 h -3 h 6"/><path class="error-bar" x="220" y="266.9799179202574" d="M 220 266.9799179202574 V 261.75027938313286 h -3 h 6 h -3 V 272.209556457382 h -3 h 6"/><path class="error-bar" x="440" y="171.5624490020302" d="M 440 171.5624490020302 V 161.4479165568121 h -3 h 6 h -3 V 181.6769814472484 h -3 h 6"/><path class="error-bar" x="660" y="82.99905449570373" d="M 660 82.99905449570373 V 64.47575402762165 h -3 h 6 h -3 V 101.52235496378582 h -3 h 6"/><path class="error-bar" x="880" y="0" d="M 880 0 V -14.283778881855458 h -3 h 6 h -3 V 14.283778881855413 h -3 h 6"/><path class="line" d="M0,351.0429179660069L220,266.9799179202574L440,171.5624490020302L660,82.99905449570373L880,0"/></g><g class="data-series-3 data-series-count-4"><circle cx="0" cy="381.57315162637434" r="3"/><circle cx="220" cy="326.03507871900206" r="3"/><circle cx="440" cy="269.49494115508026" r="3"/><circle cx="660" cy="216.4686212521632" r="3"/><circle cx="880" cy="158.55864689367482" r="3"/><path class="error-bar" x="0" y="381.57315162637434" d="M 0 381.57315162637434 V 379.7224147097154 h -3 h 6 h -3 V 383.4238885430333 h -3 h 6"/><path class="error-bar" x="220" y="326.03507871900206" d="M 220 326.03507871900206 V 322.9873763615313 h -3 h 6 h -3 V 329.0827810764729 h -3 h 6"/><path class="error-bar" x="440" y="269.49494115508026" d="M 440 269.49494115508026 V 263.28760774704165 h -3 h 6 h -3 V 275.702274563119 h -3 h 6"/><path class="error-bar" x="660" y="216.4686212521632" d="M 660 216.4686212521632 V 208.43104122936583 h -3 h 6 h -3 V 224.50620127496057 h -3 h 6"/><path class="error-bar" x="880" y="158.55864689367482" d="M 880 158.55864689367482 V 143.6664792556867 h -3 h 6 h -3 V 173.45081453166299 h -3 h 6"/><path class="line" d="M0,381.57315162637434L220,326.03507871900206L440,269.49494115508026L660,216.4686212521632L880,158.55864689367482"/></g><g class="legend" transform="translate(50, 50)"><rect x="0" y="0" width="15" height="15" class="data-series-0 data-series-count-4"/><rect x="0" y="20" width="15" height="15" class="data-series-1 data-series-count-4"/><rect x="0" y="40" width="15" height="15" class="data-series-2 data-series-count-4"/><rect x="0" y="60" width="15" height="15" class="data-series-3 data-series-count-4"/><text x="24" y="13">argonaut-codec</text><text x="24" y="33">json</text><text x="24" y="53">json-codecs</text><text x="24" y="73">codec-argonaut</text></g></g><g transform="translate(960, 500)" class="graph-footer"><text style="text-anchor: end;">Ran on:</text><text style="text-anchor: end;" y="14">2023-09-05 13:31:04</text></g></g><line x1="0" y1="545" x2="1000" y2="545" class="graph-gap-line"/><g transform="translate(0, 550)"><g transform="translate(80, 40)"><g transform="translate(440, 0)"><text style="text-anchor: middle; font-size: 28px;">Decoding an array of ints (unoptimized)*</text><text y="20" style="text-anchor: middle; font-size: 16px;">* Tag: json-codec-with-argonaut-codec</text></g><g class="x axis" transform="translate(0, 400)"><g class="tick" style="opacity: 1;" transform="translate(0,0)"><line y2="6" x2="0" class="axis-line"/><text dy=".71em" style="text-anchor: middle;" y="9" x="0">1,000</text></g><g class="tick" style="opacity: 1;" transform="translate(110,0)"><line y2="6" x2="0" class="axis-line"/><text dy=".71em" style="text-anchor: middle;" y="9" x="0">1,500</text></g><g class="tick" style="opacity: 1;" transform="translate(220,0)"><line y2="6" x2="0" class="axis-line"/><text dy=".71em" style="text-anchor: middle;" y="9" x="0">2,000</text></g><g class="tick" style="opacity: 1;" transform="translate(330,0)"><line y2="6" x2="0" class="axis-line"/><text dy=".71em" style="text-anchor: middle;" y="9" x="0">2,500</text></g><g class="tick" style="opacity: 1;" transform="translate(440,0)"><line y2="6" x2="0" class="axis-line"/><text dy=".71em" style="text-anchor: middle;" y="9" x="0">3,000</text></g><g class="tick" style="opacity: 1;" transform="translate(550,0)"><line y2="6" x2="0" class="axis-line"/><text dy=".71em" style="text-anchor: middle;" y="9" x="0">3,500</text></g><g class="tick" style="opacity: 1;" transform="translate(660,0)"><line y2="6" x2="0" class="axis-line"/><text dy=".71em" style="text-anchor: middle;" y="9" x="0">4,000</text></g><g class="tick" style="opacity: 1;" transform="translate(770,0)"><line y2="6" x2="0" class="axis-line"/><text dy=".71em" style="text-anchor: middle;" y="9" x="0">4,500</text></g><g class="tick" style="opacity: 1;" transform="translate(880,0)"><line y2="6" x2="0" class="axis-line"/><text dy=".71em" style="text-anchor: middle;" y="9" x="0">5,000</text></g><path class="axis-path" d="M0,6V0H880V6"/><text x="440" y="40" style="text-anchor: middle;">Number of elements in the array</text></g><g class="y axis"><g class="tick" style="opacity: 1;" transform="translate(0,384.45537247168204)"><line x2="-6" y2="0" class="axis-line"/><text dy=".32em" style="text-anchor: end;" x="-9" y="0">5.00e-4</text></g><g class="tick" style="opacity: 1;" transform="translate(0,320.23721420904013)"><line x2="-6" y2="0" class="axis-line"/><text dy=".32em" style="text-anchor: end;" x="-9" y="0">1.00e-3</text></g><g class="tick" style="opacity: 1;" transform="translate(0,256.0190559463981)"><line x2="-6" y2="0" class="axis-line"/><text dy=".32em" style="text-anchor: end;" x="-9" y="0">1.50e-3</text></g><g class="tick" style="opacity: 1;" transform="translate(0,191.80089768375615)"><line x2="-6" y2="0" class="axis-line"/><text dy=".32em" style="text-anchor: end;" x="-9" y="0">2.00e-3</text></g><g class="tick" style="opacity: 1;" transform="translate(0,127.58273942111416)"><line x2="-6" y2="0" class="axis-line"/><text dy=".32em" style="text-anchor: end;" x="-9" y="0">2.50e-3</text></g><g class="tick" style="opacity: 1;" transform="translate(0,63.36458115847216)"><line x2="-6" y2="0" class="axis-line"/><text dy=".32em" style="text-anchor: end;" x="-9" y="0">3.00e-3</text></g><path class="axis-path" d="M-6,0H0V400H-6"/><text transform="rotate(-90)" y="6" dy=".71em" style="text-anchor: end;">Mean running time (seconds)</text></g><g class="data-series-0 data-series-count-2"><circle cx="0" cy="400" r="3"/><circle cx="220" cy="341.16977248356164" r="3"/><circle cx="440" cy="282.2040501826565" r="3"/><circle cx="660" cy="227.5698072433455" r="3"/><circle cx="880" cy="179.27501393829223" r="3"/><path class="error-bar" x="0" y="400" d="M 0 400 V 397.56027043603694 h -3 h 6 h -3 V 402.43972956396306 h -3 h 6"/><path class="error-bar" x="220" y="341.16977248356164" d="M 220 341.16977248356164 V 338.37349708423 h -3 h 6 h -3 V 343.96604788289335 h -3 h 6"/><path class="error-bar" x="440" y="282.2040501826565" d="M 440 282.2040501826565 V 277.60289775179257 h -3 h 6 h -3 V 286.80520261352046 h -3 h 6"/><path class="error-bar" x="660" y="227.5698072433455" d="M 660 227.5698072433455 V 217.42387633488227 h -3 h 6 h -3 V 237.71573815180872 h -3 h 6"/><path class="error-bar" x="880" y="179.27501393829223" d="M 880 179.27501393829223 V 171.1445477201972 h -3 h 6 h -3 V 187.40548015638728 h -3 h 6"/><path class="line" d="M0,400L220,341.16977248356164L440,282.2040501826565L660,227.5698072433455L880,179.27501393829223"/></g><g class="data-series-1 data-series-count-2"><circle cx="0" cy="368.5127132253193" r="3"/><circle cx="220" cy="280.26628339214705" r="3"/><circle cx="440" cy="180.10032487093443" r="3"/><circle cx="660" cy="87.12953659503744" r="3"/><circle cx="880" cy="0" r="3"/><path class="error-bar" x="0" y="368.5127132253193" d="M 0 368.5127132253193 V 364.351965422125 h -3 h 6 h -3 V 372.67346102851366 h -3 h 6"/><path class="error-bar" x="220" y="280.26628339214705" d="M 220 280.26628339214705 V 274.77638974133686 h -3 h 6 h -3 V 285.75617704295723 h -3 h 6"/><path class="error-bar" x="440" y="180.10032487093443" d="M 440 180.10032487093443 V 169.48243855666388 h -3 h 6 h -3 V 190.718211185205 h -3 h 6"/><path class="error-bar" x="660" y="87.12953659503744" d="M 660 87.12953659503744 V 67.68441645721497 h -3 h 6 h -3 V 106.57465673285986 h -3 h 6"/><path class="error-bar" x="880" y="0" d="M 880 0 V -14.99461701538376 h -3 h 6 h -3 V 14.994617015383804 h -3 h 6"/><path class="line" d="M0,368.5127132253193L220,280.26628339214705L440,180.10032487093443L660,87.12953659503744L880,0"/></g><g class="legend" transform="translate(50, 50)"><rect x="0" y="0" width="15" height="15" class="data-series-0 data-series-count-2"/><rect x="0" y="20" width="15" height="15" class="data-series-1 data-series-count-2"/><text x="24" y="13">argonaut-codec</text><text x="24" y="33">json-codecs</text></g></g><g transform="translate(960, 500)" class="graph-footer"><text style="text-anchor: end;">Ran on:</text><text style="text-anchor: end;" y="14">2023-09-05 13:31:04</text></g></g><line x1="0" y1="1095" x2="1000" y2="1095" class="graph-gap-line"/><g transform="translate(0, 1100)"><g transform="translate(80, 40)"><g transform="translate(440, 0)"><text style="text-anchor: middle; font-size: 28px;">Decoding an array of ints (unoptimized)*</text><text y="20" style="text-anchor: middle; font-size: 16px;">* Tag: json-codec-with-json</text></g><g class="x axis" transform="translate(0, 400)"><g class="tick" style="opacity: 1;" transform="translate(0,0)"><line y2="6" x2="0" class="axis-line"/><text dy=".71em" style="text-anchor: middle;" y="9" x="0">1,000</text></g><g class="tick" style="opacity: 1;" transform="translate(110,0)"><line y2="6" x2="0" class="axis-line"/><text dy=".71em" style="text-anchor: middle;" y="9" x="0">1,500</text></g><g class="tick" style="opacity: 1;" transform="translate(220,0)"><line y2="6" x2="0" class="axis-line"/><text dy=".71em" style="text-anchor: middle;" y="9" x="0">2,000</text></g><g class="tick" style="opacity: 1;" transform="translate(330,0)"><line y2="6" x2="0" class="axis-line"/><text dy=".71em" style="text-anchor: middle;" y="9" x="0">2,500</text></g><g class="tick" style="opacity: 1;" transform="translate(440,0)"><line y2="6" x2="0" class="axis-line"/><text dy=".71em" style="text-anchor: middle;" y="9" x="0">3,000</text></g><g class="tick" style="opacity: 1;" transform="translate(550,0)"><line y2="6" x2="0" class="axis-line"/><text dy=".71em" style="text-anchor: middle;" y="9" x="0">3,500</text></g><g class="tick" style="opacity: 1;" transform="translate(660,0)"><line y2="6" x2="0" class="axis-line"/><text dy=".71em" style="text-anchor: middle;" y="9" x="0">4,000</text></g><g class="tick" style="opacity: 1;" transform="translate(770,0)"><line y2="6" x2="0" class="axis-line"/><text dy=".71em" style="text-anchor: middle;" y="9" x="0">4,500</text></g><g class="tick" style="opacity: 1;" transform="translate(880,0)"><line y2="6" x2="0" class="axis-line"/><text dy=".71em" style="text-anchor: middle;" y="9" x="0">5,000</text></g><path class="axis-path" d="M0,6V0H880V6"/><text x="440" y="40" style="text-anchor: middle;">Number of elements in the array</text></g><g class="y axis"><g class="tick" style="opacity: 1;" transform="translate(0,366.2297959789753)"><line x2="-6" y2="0" class="axis-line"/><text dy=".32em" style="text-anchor: end;" x="-9" y="0">5.00e-4</text></g><g class="tick" style="opacity: 1;" transform="translate(0,305.05597794264327)"><line x2="-6" y2="0" class="axis-line"/><text dy=".32em" style="text-anchor: end;" x="-9" y="0">1.00e-3</text></g><g class="tick" style="opacity: 1;" transform="translate(0,243.88215990631127)"><line x2="-6" y2="0" class="axis-line"/><text dy=".32em" style="text-anchor: end;" x="-9" y="0">1.50e-3</text></g><g class="tick" style="opacity: 1;" transform="translate(0,182.7083418699793)"><line x2="-6" y2="0" class="axis-line"/><text dy=".32em" style="text-anchor: end;" x="-9" y="0">2.00e-3</text></g><g class="tick" style="opacity: 1;" transform="translate(0,121.53452383364728)"><line x2="-6" y2="0" class="axis-line"/><text dy=".32em" style="text-anchor: end;" x="-9" y="0">2.50e-3</text></g><g class="tick" style="opacity: 1;" transform="translate(0,60.36070579731532)"><line x2="-6" y2="0" class="axis-line"/><text dy=".32em" style="text-anchor: end;" x="-9" y="0">3.00e-3</text></g><path class="axis-path" d="M-6,0H0V400H-6"/><text transform="rotate(-90)" y="6" dy=".71em" style="text-anchor: end;">Mean running time (seconds)</text></g><g class="data-series-0 data-series-count-2"><circle cx="0" cy="400" r="3"/><circle cx="220" cy="368.2552842859679" r="3"/><circle cx="440" cy="338.095952451254" r="3"/><circle cx="660" cy="306.167123991451" r="3"/><circle cx="880" cy="277.63139631022545" r="3"/><path class="error-bar" x="0" y="400" d="M 0 400 V 399.3771198564901 h -3 h 6 h -3 V 400.62288014350986 h -3 h 6"/><path class="error-bar" x="220" y="368.2552842859679" d="M 220 368.2552842859679 V 366.99675999014636 h -3 h 6 h -3 V 369.5138085817893 h -3 h 6"/><path class="error-bar" x="440" y="338.095952451254" d="M 440 338.095952451254 V 335.9240527097698 h -3 h 6 h -3 V 340.2678521927382 h -3 h 6"/><path class="error-bar" x="660" y="306.167123991451" d="M 660 306.167123991451 V 294.3659929488632 h -3 h 6 h -3 V 317.9682550340387 h -3 h 6"/><path class="error-bar" x="880" y="277.63139631022545" d="M 880 277.63139631022545 V 275.4012272624942 h -3 h 6 h -3 V 279.8615653579567 h -3 h 6"/><path class="line" d="M0,400L220,368.2552842859679L440,338.095952451254L660,306.167123991451L880,277.63139631022545"/></g><g class="data-series-1 data-series-count-2"><circle cx="0" cy="351.0429179660069" r="3"/><circle cx="220" cy="266.9799179202574" r="3"/><circle cx="440" cy="171.5624490020302" r="3"/><circle cx="660" cy="82.99905449570373" r="3"/><circle cx="880" cy="0" r="3"/><path class="error-bar" x="0" y="351.0429179660069" d="M 0 351.0429179660069 V 347.0794154942185 h -3 h 6 h -3 V 355.00642043779527 h -3 h 6"/><path class="error-bar" x="220" y="266.9799179202574" d="M 220 266.9799179202574 V 261.75027938313286 h -3 h 6 h -3 V 272.209556457382 h -3 h 6"/><path class="error-bar" x="440" y="171.5624490020302" d="M 440 171.5624490020302 V 161.4479165568121 h -3 h 6 h -3 V 181.6769814472484 h -3 h 6"/><path class="error-bar" x="660" y="82.99905449570373" d="M 660 82.99905449570373 V 64.47575402762165 h -3 h 6 h -3 V 101.52235496378582 h -3 h 6"/><path class="error-bar" x="880" y="0" d="M 880 0 V -14.283778881855458 h -3 h 6 h -3 V 14.283778881855413 h -3 h 6"/><path class="line" d="M0,351.0429179660069L220,266.9799179202574L440,171.5624490020302L660,82.99905449570373L880,0"/></g><g class="legend" transform="translate(50, 50)"><rect x="0" y="0" width="15" height="15" class="data-series-0 data-series-count-2"/><rect x="0" y="20" width="15" height="15" class="data-series-1 data-series-count-2"/><text x="24" y="13">json</text><text x="24" y="33">json-codecs</text></g></g><g transform="translate(960, 500)" class="graph-footer"><text style="text-anchor: end;">Ran on:</text><text style="text-anchor: end;" y="14">2023-09-05 13:31:04</text></g></g><line x1="0" y1="1645" x2="1000" y2="1645" class="graph-gap-line"/><g transform="translate(0, 1650)"><g transform="translate(80, 40)"><g transform="translate(440, 0)"><text style="text-anchor: middle; font-size: 28px;">Decoding an array of ints (unoptimized)*</text><text y="20" style="text-anchor: middle; font-size: 16px;">* Tag: json-codec-with-baseline</text></g><g class="x axis" transform="translate(0, 400)"><g class="tick" style="opacity: 1;" transform="translate(0,0)"><line y2="6" x2="0" class="axis-line"/><text dy=".71em" style="text-anchor: middle;" y="9" x="0">1,000</text></g><g class="tick" style="opacity: 1;" transform="translate(110,0)"><line y2="6" x2="0" class="axis-line"/><text dy=".71em" style="text-anchor: middle;" y="9" x="0">1,500</text></g><g class="tick" style="opacity: 1;" transform="translate(220,0)"><line y2="6" x2="0" class="axis-line"/><text dy=".71em" style="text-anchor: middle;" y="9" x="0">2,000</text></g><g class="tick" style="opacity: 1;" transform="translate(330,0)"><line y2="6" x2="0" class="axis-line"/><text dy=".71em" style="text-anchor: middle;" y="9" x="0">2,500</text></g><g class="tick" style="opacity: 1;" transform="translate(440,0)"><line y2="6" x2="0" class="axis-line"/><text dy=".71em" style="text-anchor: middle;" y="9" x="0">3,000</text></g><g class="tick" style="opacity: 1;" transform="translate(550,0)"><line y2="6" x2="0" class="axis-line"/><text dy=".71em" style="text-anchor: middle;" y="9" x="0">3,500</text></g><g class="tick" style="opacity: 1;" transform="translate(660,0)"><line y2="6" x2="0" class="axis-line"/><text dy=".71em" style="text-anchor: middle;" y="9" x="0">4,000</text></g><g class="tick" style="opacity: 1;" transform="translate(770,0)"><line y2="6" x2="0" class="axis-line"/><text dy=".71em" style="text-anchor: middle;" y="9" x="0">4,500</text></g><g class="tick" style="opacity: 1;" transform="translate(880,0)"><line y2="6" x2="0" class="axis-line"/><text dy=".71em" style="text-anchor: middle;" y="9" x="0">5,000</text></g><path class="axis-path" d="M0,6V0H880V6"/><text x="440" y="40" style="text-anchor: middle;">Number of elements in the array</text></g><g class="y axis"><g class="tick" style="opacity: 1;" transform="translate(0,347.5996379134283)"><line x2="-6" y2="0" class="axis-line"/><text dy=".32em" style="text-anchor: end;" x="-9" y="0">1.00e-3</text></g><g class="tick" style="opacity: 1;" transform="translate(0,277.89440826141663)"><line x2="-6" y2="0" class="axis-line"/><text dy=".32em" style="text-anchor: end;" x="-9" y="0">1.50e-3</text></g><g class="tick" style="opacity: 1;" transform="translate(0,208.189178609405)"><line x2="-6" y2="0" class="axis-line"/><text dy=".32em" style="text-anchor: end;" x="-9" y="0">2.00e-3</text></g><g class="tick" style="opacity: 1;" transform="translate(0,138.48394895739332)"><line x2="-6" y2="0" class="axis-line"/><text dy=".32em" style="text-anchor: end;" x="-9" y="0">2.50e-3</text></g><g class="tick" style="opacity: 1;" transform="translate(0,68.77871930538171)"><line x2="-6" y2="0" class="axis-line"/><text dy=".32em" style="text-anchor: end;" x="-9" y="0">3.00e-3</text></g><path class="axis-path" d="M-6,0H0V400H-6"/><text transform="rotate(-90)" y="6" dy=".71em" style="text-anchor: end;">Mean running time (seconds)</text></g><g class="data-series-0 data-series-count-1"><circle cx="0" cy="400" r="3"/><circle cx="220" cy="304.2134215009121" r="3"/><circle cx="440" cy="195.4888593065346" r="3"/><circle cx="660" cy="94.57425317293074" r="3"/><circle cx="880" cy="0" r="3"/><path class="error-bar" x="0" y="400" d="M 0 400 V 395.48374028480225 h -3 h 6 h -3 V 404.5162597151978 h -3 h 6"/><path class="error-bar" x="220" y="304.2134215009121" d="M 220 304.2134215009121 V 298.25444808828684 h -3 h 6 h -3 V 310.17239491353735 h -3 h 6"/><path class="error-bar" x="440" y="195.4888593065346" d="M 440 195.4888593065346 V 183.9637358215508 h -3 h 6 h -3 V 207.01398279151837 h -3 h 6"/><path class="error-bar" x="660" y="94.57425317293074" d="M 660 94.57425317293074 V 73.46765962544231 h -3 h 6 h -3 V 115.68084672041917 h -3 h 6"/><path class="error-bar" x="880" y="0" d="M 880 0 V -16.27582059153072 h -3 h 6 h -3 V 16.275820591530767 h -3 h 6"/><path class="line" d="M0,400L220,304.2134215009121L440,195.4888593065346L660,94.57425317293074L880,0"/></g><g class="legend" transform="translate(50, 50)"><rect x="0" y="0" width="15" height="15" class="data-series-0 data-series-count-1"/><text x="24" y="13">json-codecs</text></g></g><g transform="translate(960, 500)" class="graph-footer"><text style="text-anchor: end;">Ran on:</text><text style="text-anchor: end;" y="14">2023-09-05 13:31:04</text></g></g><line x1="0" y1="2195" x2="1000" y2="2195" class="graph-gap-line"/><g transform="translate(0, 2200)"><g transform="translate(80, 40)"><g transform="translate(440, 0)"><text style="text-anchor: middle; font-size: 28px;">Decoding an array of ints (unoptimized)*</text><text y="20" style="text-anchor: middle; font-size: 16px;">* Tag: json-codec-with-codec-argonaut</text></g><g class="x axis" transform="translate(0, 400)"><g class="tick" style="opacity: 1;" transform="translate(0,0)"><line y2="6" x2="0" class="axis-line"/><text dy=".71em" style="text-anchor: middle;" y="9" x="0">1,000</text></g><g class="tick" style="opacity: 1;" transform="translate(110,0)"><line y2="6" x2="0" class="axis-line"/><text dy=".71em" style="text-anchor: middle;" y="9" x="0">1,500</text></g><g class="tick" style="opacity: 1;" transform="translate(220,0)"><line y2="6" x2="0" class="axis-line"/><text dy=".71em" style="text-anchor: middle;" y="9" x="0">2,000</text></g><g class="tick" style="opacity: 1;" transform="translate(330,0)"><line y2="6" x2="0" class="axis-line"/><text dy=".71em" style="text-anchor: middle;" y="9" x="0">2,500</text></g><g class="tick" style="opacity: 1;" transform="translate(440,0)"><line y2="6" x2="0" class="axis-line"/><text dy=".71em" style="text-anchor: middle;" y="9" x="0">3,000</text></g><g class="tick" style="opacity: 1;" transform="translate(550,0)"><line y2="6" x2="0" class="axis-line"/><text dy=".71em" style="text-anchor: middle;" y="9" x="0">3,500</text></g><g class="tick" style="opacity: 1;" transform="translate(660,0)"><line y2="6" x2="0" class="axis-line"/><text dy=".71em" style="text-anchor: middle;" y="9" x="0">4,000</text></g><g class="tick" style="opacity: 1;" transform="translate(770,0)"><line y2="6" x2="0" class="axis-line"/><text dy=".71em" style="text-anchor: middle;" y="9" x="0">4,500</text></g><g class="tick" style="opacity: 1;" transform="translate(880,0)"><line y2="6" x2="0" class="axis-line"/><text dy=".71em" style="text-anchor: middle;" y="9" x="0">5,000</text></g><path class="axis-path" d="M0,6V0H880V6"/><text x="440" y="40" style="text-anchor: middle;">Number of elements in the array</text></g><g class="y axis"><g class="tick" style="opacity: 1;" transform="translate(0,383.9156863296054)"><line x2="-6" y2="0" class="axis-line"/><text dy=".32em" style="text-anchor: end;" x="-9" y="0">5.00e-4</text></g><g class="tick" style="opacity: 1;" transform="translate(0,319.7876754613443)"><line x2="-6" y2="0" class="axis-line"/><text dy=".32em" style="text-anchor: end;" x="-9" y="0">1.00e-3</text></g><g class="tick" style="opacity: 1;" transform="translate(0,255.65966459308308)"><line x2="-6" y2="0" class="axis-line"/><text dy=".32em" style="text-anchor: end;" x="-9" y="0">1.50e-3</text></g><g class="tick" style="opacity: 1;" transform="translate(0,191.53165372482195)"><line x2="-6" y2="0" class="axis-line"/><text dy=".32em" style="text-anchor: end;" x="-9" y="0">2.00e-3</text></g><g class="tick" style="opacity: 1;" transform="translate(0,127.40364285656081)"><line x2="-6" y2="0" class="axis-line"/><text dy=".32em" style="text-anchor: end;" x="-9" y="0">2.50e-3</text></g><g class="tick" style="opacity: 1;" transform="translate(0,63.275631988299665)"><line x2="-6" y2="0" class="axis-line"/><text dy=".32em" style="text-anchor: end;" x="-9" y="0">3.00e-3</text></g><path class="axis-path" d="M-6,0H0V400H-6"/><text transform="rotate(-90)" y="6" dy=".71em" style="text-anchor: end;">Mean running time (seconds)</text></g><g class="data-series-0 data-series-count-2"><circle cx="0" cy="367.9954068778279" r="3"/><circle cx="220" cy="279.8728545573108" r="3"/><circle cx="440" cy="179.84750580147661" r="3"/><circle cx="660" cy="87.00722694134839" r="3"/><circle cx="880" cy="0" r="3"/><path class="error-bar" x="0" y="367.9954068778279" d="M 0 367.9954068778279 V 363.84049979917756 h -3 h 6 h -3 V 372.15031395647827 h -3 h 6"/><path class="error-bar" x="220" y="279.8728545573108" d="M 220 279.8728545573108 V 274.3906674434278 h -3 h 6 h -3 V 285.3550416711937 h -3 h 6"/><path class="error-bar" x="440" y="179.84750580147661" d="M 440 179.84750580147661 V 169.24452453604206 h -3 h 6 h -3 V 190.45048706691117 h -3 h 6"/><path class="error-bar" x="660" y="87.00722694134839" d="M 660 87.00722694134839 V 67.58940324056604 h -3 h 6 h -3 V 106.42505064213074 h -3 h 6"/><path class="error-bar" x="880" y="0" d="M 880 0 V -14.973568052127195 h -3 h 6 h -3 V 14.97356805212724 h -3 h 6"/><path class="line" d="M0,367.9954068778279L220,279.8728545573108L440,179.84750580147661L660,87.00722694134839L880,0"/></g><g class="data-series-1 data-series-count-2"><circle cx="0" cy="400" r="3"/><circle cx="220" cy="341.7798944494359" r="3"/><circle cx="440" cy="282.5093327519669" r="3"/><circle cx="660" cy="226.92227724043138" r="3"/><circle cx="880" cy="166.21572688524057" r="3"/><path class="error-bar" x="0" y="400" d="M 0 400 V 398.05988769516875 h -3 h 6 h -3 V 401.9401123048313 h -3 h 6"/><path class="error-bar" x="220" y="341.7798944494359" d="M 220 341.7798944494359 V 338.58501310678315 h -3 h 6 h -3 V 344.9747757920887 h -3 h 6"/><path class="error-bar" x="440" y="282.5093327519669" d="M 440 282.5093327519669 V 276.0022361372483 h -3 h 6 h -3 V 289.0164293666855 h -3 h 6"/><path class="error-bar" x="660" y="226.92227724043138" d="M 660 226.92227724043138 V 218.49654813602362 h -3 h 6 h -3 V 235.34800634483918 h -3 h 6"/><path class="error-bar" x="880" y="166.21572688524057" d="M 880 166.21572688524057 V 150.6043898983342 h -3 h 6 h -3 V 181.82706387214697 h -3 h 6"/><path class="line" d="M0,400L220,341.7798944494359L440,282.5093327519669L660,226.92227724043138L880,166.21572688524057"/></g><g class="legend" transform="translate(50, 50)"><rect x="0" y="0" width="15" height="15" class="data-series-0 data-series-count-2"/><rect x="0" y="20" width="15" height="15" class="data-series-1 data-series-count-2"/><text x="24" y="13">json-codecs</text><text x="24" y="33">codec-argonaut</text></g></g><g transform="translate(960, 500)" class="graph-footer"><text style="text-anchor: end;">Ran on:</text><text style="text-anchor: end;" y="14">2023-09-05 13:31:04</text></g></g></svg>