<svg xmlns="http://www.w3.org/2000/svg" width="1000" height="2740"><defs><style type="text/css">
    /* https://www.vis4.net/palettes/#/9|d|00429d,96ffea|ffffe0,ff005e,93003a|1|1 */
    :root {
    --data-series-0--1-only: #000;

    --data-series-0--3-or-less: #00429d;
    --data-series-1--3-or-less: #96ffea;
    --data-series-2--3-or-less: #93003a;

    --data-series-0--5-or-less: #00429d;
    --data-series-1--5-or-less: #629cc4;
    --data-series-2--5-or-less: #96ffea;
    --data-series-3--5-or-less: #f4777f;
    --data-series-4--5-or-less: #93003a;

    --data-series-0--7-or-less: #00429d;
    --data-series-1--7-or-less: #4d7cb7;
    --data-series-2--7-or-less: #74bcd1;
    --data-series-3--7-or-less: #96ffea;
    --data-series-4--7-or-less: #ffa59e;
    --data-series-5--7-or-less: #dd4c65;
    --data-series-6--7-or-less: #93003a;

    --data-series-0--9-or-less: #00429d;
    --data-series-1--9-or-less: #416db1;
    --data-series-2--9-or-less: #629cc4;
    --data-series-3--9-or-less: #7dccd7;
    --data-series-4--9-or-less: #96ffea;
    --data-series-5--9-or-less: #ffbcaf;
    --data-series-6--9-or-less: #f4777f;
    --data-series-7--9-or-less: #cf3759;
    --data-series-8--9-or-less: #93003a;
    }

    .background {
    fill: white;
    }

    text {
    font-size: 14px;
    font-family: sans-serif;
    }

    .axis-path,
    .axis-line {
    fill: none;
    stroke: #000;
    stroke-width: 1px;
    shape-rendering: crispEdges;
    }

    .line {
    fill: none;
    stroke-width: 1.5px;
    }

    .error-bar {
    fill: none;
    }

    /* Series of 1 */

    .data-series-0.data-series-count-1 {
    stroke: var(--data-series-0--1-only);
    fill: var(--data-series-0--1-only);
    }

    /* Series of 3 */

    .data-series-0.data-series-count-3,
    .data-series-0.data-series-count-2 {
    stroke: var(--data-series-0--3-or-less);
    fill: var(--data-series-0--3-or-less);
    }

    .data-series-1.data-series-count-3,
    .data-series-1.data-series-count-2 {
    stroke: var(--data-series-1--3-or-less);
    fill: var(--data-series-1--3-or-less);
    }

    .data-series-2.data-series-count-3,
    .data-series-2.data-series-count-2 {
    stroke: var(--data-series-2--3-or-less);
    fill: var(--data-series-2--3-or-less);
    }

    /* Series of 5 */

    .data-series-0.data-series-count-5,
    .data-series-0.data-series-count-4 {
    stroke: var(--data-series-0--5-or-less);
    fill: var(--data-series-0--5-or-less);
    }

    .data-series-1.data-series-count-5,
    .data-series-1.data-series-count-4 {
    stroke: var(--data-series-1--5-or-less);
    fill: var(--data-series-1--5-or-less);
    }

    .data-series-2.data-series-count-5,
    .data-series-2.data-series-count-4 {
    stroke: var(--data-series-2--5-or-less);
    fill: var(--data-series-2--5-or-less);
    }

    .data-series-3.data-series-count-5,
    .data-series-3.data-series-count-4 {
    stroke: var(--data-series-3--5-or-less);
    fill: var(--data-series-3--5-or-less);
    }

    .data-series-4.data-series-count-5,
    .data-series-4.data-series-count-4 {
    stroke: var(--data-series-4--5-or-less);
    fill: var(--data-series-4--5-or-less);
    }

    /* Series of 7 */

    .data-series-0.data-series-count-7,
    .data-series-0.data-series-count-6 {
    stroke: var(--data-series-0--7-or-less);
    fill: var(--data-series-0--7-or-less);
    }

    .data-series-1.data-series-count-7,
    .data-series-1.data-series-count-6 {
    stroke: var(--data-series-1--7-or-less);
    fill: var(--data-series-1--7-or-less);
    }

    .data-series-2.data-series-count-7,
    .data-series-2.data-series-count-6 {
    stroke: var(--data-series-2--7-or-less);
    fill: var(--data-series-2--7-or-less);
    }

    .data-series-3.data-series-count-7,
    .data-series-3.data-series-count-6 {
    stroke: var(--data-series-3--7-or-less);
    fill: var(--data-series-3--7-or-less);
    }

    .data-series-4.data-series-count-7,
    .data-series-4.data-series-count-6 {
    stroke: var(--data-series-4--7-or-less);
    fill: var(--data-series-4--7-or-less);
    }

    .data-series-5.data-series-count-7,
    .data-series-5.data-series-count-6 {
    stroke: var(--data-series-5--7-or-less);
    fill: var(--data-series-5--7-or-less);
    }

    .data-series-6.data-series-count-7,
    .data-series-6.data-series-count-6 {
    stroke: var(--data-series-6--7-or-less);
    fill: var(--data-series-6--7-or-less);
    }

    /* Series of 9 */

    .data-series-0.data-series-count-9,
    .data-series-0.data-series-count-8 {
    stroke: var(--data-series-0--9-or-less);
    fill: var(--data-series-0--9-or-less);
    }

    .data-series-1.data-series-count-9,
    .data-series-1.data-series-count-8 {
    stroke: var(--data-series-1--9-or-less);
    fill: var(--data-series-1--9-or-less);
    }

    .data-series-2.data-series-count-9,
    .data-series-2.data-series-count-8 {
    stroke: var(--data-series-2--9-or-less);
    fill: var(--data-series-2--9-or-less);
    }

    .data-series-3.data-series-count-9,
    .data-series-3.data-series-count-8 {
    stroke: var(--data-series-3--9-or-less);
    fill: var(--data-series-3--9-or-less);
    }

    .data-series-4.data-series-count-9,
    .data-series-4.data-series-count-8 {
    stroke: var(--data-series-4--9-or-less);
    fill: var(--data-series-4--9-or-less);
    }

    .data-series-5.data-series-count-9,
    .data-series-5.data-series-count-8 {
    stroke: var(--data-series-5--9-or-less);
    fill: var(--data-series-5--9-or-less);
    }

    .data-series-6.data-series-count-9,
    .data-series-6.data-series-count-8 {
    stroke: var(--data-series-6--9-or-less);
    fill: var(--data-series-6--9-or-less);
    }

    .data-series-7.data-series-count-9,
    .data-series-7.data-series-count-8 {
    stroke: var(--data-series-7--9-or-less);
    fill: var(--data-series-7--9-or-less);
    }

    .data-series-8.data-series-count-9,
    .data-series-8.data-series-count-8 {
    stroke: var(--data-series-8--9-or-less);
    fill: var(--data-series-8--9-or-less);
    }
  </style></defs><rect width="1000" height="2740" class="background"/><g transform="translate(0, 0)"><g transform="translate(80, 40)"><g transform="translate(440, 0)"><text style="text-anchor: middle; font-size: 28px;">Decoding an array of ints (optimized)</text></g><g class="x axis" transform="translate(0, 400)"><g class="tick" style="opacity: 1;" transform="translate(0,0)"><line y2="6" x2="0" class="axis-line"/><text dy=".71em" style="text-anchor: middle;" y="9" x="0">1,000</text></g><g class="tick" style="opacity: 1;" transform="translate(110,0)"><line y2="6" x2="0" class="axis-line"/><text dy=".71em" style="text-anchor: middle;" y="9" x="0">1,500</text></g><g class="tick" style="opacity: 1;" transform="translate(220,0)"><line y2="6" x2="0" class="axis-line"/><text dy=".71em" style="text-anchor: middle;" y="9" x="0">2,000</text></g><g class="tick" style="opacity: 1;" transform="translate(330,0)"><line y2="6" x2="0" class="axis-line"/><text dy=".71em" style="text-anchor: middle;" y="9" x="0">2,500</text></g><g class="tick" style="opacity: 1;" transform="translate(440,0)"><line y2="6" x2="0" class="axis-line"/><text dy=".71em" style="text-anchor: middle;" y="9" x="0">3,000</text></g><g class="tick" style="opacity: 1;" transform="translate(550,0)"><line y2="6" x2="0" class="axis-line"/><text dy=".71em" style="text-anchor: middle;" y="9" x="0">3,500</text></g><g class="tick" style="opacity: 1;" transform="translate(660,0)"><line y2="6" x2="0" class="axis-line"/><text dy=".71em" style="text-anchor: middle;" y="9" x="0">4,000</text></g><g class="tick" style="opacity: 1;" transform="translate(770,0)"><line y2="6" x2="0" class="axis-line"/><text dy=".71em" style="text-anchor: middle;" y="9" x="0">4,500</text></g><g class="tick" style="opacity: 1;" transform="translate(880,0)"><line y2="6" x2="0" class="axis-line"/><text dy=".71em" style="text-anchor: middle;" y="9" x="0">5,000</text></g><path class="axis-path" d="M0,6V0H880V6"/><text x="440" y="40" style="text-anchor: middle;">Number of elements in the array</text></g><g class="y axis"><g class="tick" style="opacity: 1;" transform="translate(0,398.62642497363856)"><line x2="-6" y2="0" class="axis-line"/><text dy=".32em" style="text-anchor: end;" x="-9" y="0">2.00e-4</text></g><g class="tick" style="opacity: 1;" transform="translate(0,353.29954734762214)"><line x2="-6" y2="0" class="axis-line"/><text dy=".32em" style="text-anchor: end;" x="-9" y="0">4.00e-4</text></g><g class="tick" style="opacity: 1;" transform="translate(0,307.9726697216057)"><line x2="-6" y2="0" class="axis-line"/><text dy=".32em" style="text-anchor: end;" x="-9" y="0">6.00e-4</text></g><g class="tick" style="opacity: 1;" transform="translate(0,262.6457920955893)"><line x2="-6" y2="0" class="axis-line"/><text dy=".32em" style="text-anchor: end;" x="-9" y="0">8.00e-4</text></g><g class="tick" style="opacity: 1;" transform="translate(0,217.3189144695729)"><line x2="-6" y2="0" class="axis-line"/><text dy=".32em" style="text-anchor: end;" x="-9" y="0">1.00e-3</text></g><g class="tick" style="opacity: 1;" transform="translate(0,171.99203684355658)"><line x2="-6" y2="0" class="axis-line"/><text dy=".32em" style="text-anchor: end;" x="-9" y="0">1.20e-3</text></g><g class="tick" style="opacity: 1;" transform="translate(0,126.66515921754015)"><line x2="-6" y2="0" class="axis-line"/><text dy=".32em" style="text-anchor: end;" x="-9" y="0">1.40e-3</text></g><g class="tick" style="opacity: 1;" transform="translate(0,81.33828159152374)"><line x2="-6" y2="0" class="axis-line"/><text dy=".32em" style="text-anchor: end;" x="-9" y="0">1.60e-3</text></g><g class="tick" style="opacity: 1;" transform="translate(0,36.01140396550737)"><line x2="-6" y2="0" class="axis-line"/><text dy=".32em" style="text-anchor: end;" x="-9" y="0">1.80e-3</text></g><path class="axis-path" d="M-6,0H0V400H-6"/><text transform="rotate(-90)" y="6" dy=".71em" style="text-anchor: end;">Mean running time (seconds)</text></g><g class="data-series-0 data-series-count-4"><circle cx="0" cy="383.31897909765524" r="3"/><circle cx="220" cy="303.33188939250925" r="3"/><circle cx="440" cy="223.67761081771604" r="3"/><circle cx="660" cy="139.4511823346245" r="3"/><circle cx="880" cy="57.35644054327618" r="3"/><path class="error-bar" x="0" y="383.31897909765524" d="M 0 383.31897909765524 V 381.47053221063925 h -3 h 6 h -3 V 385.1674259846711 h -3 h 6"/><path class="error-bar" x="220" y="303.33188939250925" d="M 220 303.33188939250925 V 299.20826446633583 h -3 h 6 h -3 V 307.4555143186827 h -3 h 6"/><path class="error-bar" x="440" y="223.67761081771604" d="M 440 223.67761081771604 V 218.1484225403358 h -3 h 6 h -3 V 229.20679909509633 h -3 h 6"/><path class="error-bar" x="660" y="139.4511823346245" d="M 660 139.4511823346245 V 133.10505043100136 h -3 h 6 h -3 V 145.79731423824765 h -3 h 6"/><path class="error-bar" x="880" y="57.35644054327618" d="M 880 57.35644054327618 V 51.075292000744184 h -3 h 6 h -3 V 63.637589085808166 h -3 h 6"/><path class="line" d="M0,383.31897909765524L220,303.33188939250925L440,223.67761081771604L660,139.4511823346245L880,57.35644054327618"/></g><g class="data-series-1 data-series-count-4"><circle cx="0" cy="400" r="3"/><circle cx="220" cy="355.0757154588451" r="3"/><circle cx="440" cy="308.7437307073871" r="3"/><circle cx="660" cy="264.9504355177819" r="3"/><circle cx="880" cy="219.1250108205713" r="3"/><path class="error-bar" x="0" y="400" d="M 0 400 V 398.76637131921166 h -3 h 6 h -3 V 401.23362868078834 h -3 h 6"/><path class="error-bar" x="220" y="355.0757154588451" d="M 220 355.0757154588451 V 351.1212489041708 h -3 h 6 h -3 V 359.03018201351944 h -3 h 6"/><path class="error-bar" x="440" y="308.7437307073871" d="M 440 308.7437307073871 V 302.2409718891462 h -3 h 6 h -3 V 315.246489525628 h -3 h 6"/><path class="error-bar" x="660" y="264.9504355177819" d="M 660 264.9504355177819 V 255.3558354374276 h -3 h 6 h -3 V 274.5450355981363 h -3 h 6"/><path class="error-bar" x="880" y="219.1250108205713" d="M 880 219.1250108205713 V 215.1312369026382 h -3 h 6 h -3 V 223.11878473850442 h -3 h 6"/><path class="line" d="M0,400L220,355.0757154588451L440,308.7437307073871L660,264.9504355177819L880,219.1250108205713"/></g><g class="data-series-2 data-series-count-4"><circle cx="0" cy="372.23959265611376" r="3"/><circle cx="220" cy="282.2327283708824" r="3"/><circle cx="440" cy="187.68640118516743" r="3"/><circle cx="660" cy="88.9395697355967" r="3"/><circle cx="880" cy="0" r="3"/><path class="error-bar" x="0" y="372.23959265611376" d="M 0 372.23959265611376 V 369.853412408379 h -3 h 6 h -3 V 374.62577290384854 h -3 h 6"/><path class="error-bar" x="220" y="282.2327283708824" d="M 220 282.2327283708824 V 278.7460743872174 h -3 h 6 h -3 V 285.71938235454735 h -3 h 6"/><path class="error-bar" x="440" y="187.68640118516743" d="M 440 187.68640118516743 V 182.56154010852853 h -3 h 6 h -3 V 192.81126226180623 h -3 h 6"/><path class="error-bar" x="660" y="88.9395697355967" d="M 660 88.9395697355967 V 68.83396275136411 h -3 h 6 h -3 V 109.04517671982927 h -3 h 6"/><path class="error-bar" x="880" y="0" d="M 880 0 V -7.532906028694608 h -3 h 6 h -3 V 7.532906028694608 h -3 h 6"/><path class="line" d="M0,372.23959265611376L220,282.2327283708824L440,187.68640118516743L660,88.9395697355967L880,0"/></g><g class="data-series-3 data-series-count-4"><circle cx="0" cy="383.2218978476024" r="3"/><circle cx="220" cy="307.096924476797" r="3"/><circle cx="440" cy="226.53417417598013" r="3"/><circle cx="660" cy="142.34423304328172" r="3"/><circle cx="880" cy="63.63985697925592" r="3"/><path class="error-bar" x="0" y="383.2218978476024" d="M 0 383.2218978476024 V 380.4567127857783 h -3 h 6 h -3 V 385.98708290942653 h -3 h 6"/><path class="error-bar" x="220" y="307.096924476797" d="M 220 307.096924476797 V 303.16850341165065 h -3 h 6 h -3 V 311.0253455419433 h -3 h 6"/><path class="error-bar" x="440" y="226.53417417598013" d="M 440 226.53417417598013 V 217.54326942955407 h -3 h 6 h -3 V 235.5250789224063 h -3 h 6"/><path class="error-bar" x="660" y="142.34423304328172" d="M 660 142.34423304328172 V 132.61062996420264 h -3 h 6 h -3 V 152.07783612236082 h -3 h 6"/><path class="error-bar" x="880" y="63.63985697925592" d="M 880 63.63985697925592 V 57.1795665702044 h -3 h 6 h -3 V 70.10014738830739 h -3 h 6"/><path class="line" d="M0,383.2218978476024L220,307.096924476797L440,226.53417417598013L660,142.34423304328172L880,63.63985697925592"/></g><g class="legend" transform="translate(50, 50)"><rect x="0" y="0" width="15" height="15" class="data-series-0 data-series-count-4"/><rect x="0" y="20" width="15" height="15" class="data-series-1 data-series-count-4"/><rect x="0" y="40" width="15" height="15" class="data-series-2 data-series-count-4"/><rect x="0" y="60" width="15" height="15" class="data-series-3 data-series-count-4"/><text x="24" y="13">argonaut-codec</text><text x="24" y="33">json</text><text x="24" y="53">json-codecs</text><text x="24" y="73">codec-argonaut</text></g></g><g transform="translate(960, 500)" class="graph-footer"><text style="text-anchor: end;">Ran on:</text><text style="text-anchor: end;" y="14">2023-09-05 13:36:03</text></g></g><line x1="0" y1="545" x2="1000" y2="545" class="graph-gap-line"/><g transform="translate(0, 550)"><g transform="translate(80, 40)"><g transform="translate(440, 0)"><text style="text-anchor: middle; font-size: 28px;">Decoding an array of ints (optimized)*</text><text y="20" style="text-anchor: middle; font-size: 16px;">* Tag: json-codec-with-argonaut-codec</text></g><g class="x axis" transform="translate(0, 400)"><g class="tick" style="opacity: 1;" transform="translate(0,0)"><line y2="6" x2="0" class="axis-line"/><text dy=".71em" style="text-anchor: middle;" y="9" x="0">1,000</text></g><g class="tick" style="opacity: 1;" transform="translate(110,0)"><line y2="6" x2="0" class="axis-line"/><text dy=".71em" style="text-anchor: middle;" y="9" x="0">1,500</text></g><g class="tick" style="opacity: 1;" transform="translate(220,0)"><line y2="6" x2="0" class="axis-line"/><text dy=".71em" style="text-anchor: middle;" y="9" x="0">2,000</text></g><g class="tick" style="opacity: 1;" transform="translate(330,0)"><line y2="6" x2="0" class="axis-line"/><text dy=".71em" style="text-anchor: middle;" y="9" x="0">2,500</text></g><g class="tick" style="opacity: 1;" transform="translate(440,0)"><line y2="6" x2="0" class="axis-line"/><text dy=".71em" style="text-anchor: middle;" y="9" x="0">3,000</text></g><g class="tick" style="opacity: 1;" transform="translate(550,0)"><line y2="6" x2="0" class="axis-line"/><text dy=".71em" style="text-anchor: middle;" y="9" x="0">3,500</text></g><g class="tick" style="opacity: 1;" transform="translate(660,0)"><line y2="6" x2="0" class="axis-line"/><text dy=".71em" style="text-anchor: middle;" y="9" x="0">4,000</text></g><g class="tick" style="opacity: 1;" transform="translate(770,0)"><line y2="6" x2="0" class="axis-line"/><text dy=".71em" style="text-anchor: middle;" y="9" x="0">4,500</text></g><g class="tick" style="opacity: 1;" transform="translate(880,0)"><line y2="6" x2="0" class="axis-line"/><text dy=".71em" style="text-anchor: middle;" y="9" x="0">5,000</text></g><path class="axis-path" d="M0,6V0H880V6"/><text x="440" y="40" style="text-anchor: middle;">Number of elements in the array</text></g><g class="y axis"><g class="tick" style="opacity: 1;" transform="translate(0,368.67420254462775)"><line x2="-6" y2="0" class="axis-line"/><text dy=".32em" style="text-anchor: end;" x="-9" y="0">4.00e-4</text></g><g class="tick" style="opacity: 1;" transform="translate(0,321.3748199440404)"><line x2="-6" y2="0" class="axis-line"/><text dy=".32em" style="text-anchor: end;" x="-9" y="0">6.00e-4</text></g><g class="tick" style="opacity: 1;" transform="translate(0,274.07543734345296)"><line x2="-6" y2="0" class="axis-line"/><text dy=".32em" style="text-anchor: end;" x="-9" y="0">8.00e-4</text></g><g class="tick" style="opacity: 1;" transform="translate(0,226.77605474286554)"><line x2="-6" y2="0" class="axis-line"/><text dy=".32em" style="text-anchor: end;" x="-9" y="0">1.00e-3</text></g><g class="tick" style="opacity: 1;" transform="translate(0,179.47667214227812)"><line x2="-6" y2="0" class="axis-line"/><text dy=".32em" style="text-anchor: end;" x="-9" y="0">1.20e-3</text></g><g class="tick" style="opacity: 1;" transform="translate(0,132.1772895416907)"><line x2="-6" y2="0" class="axis-line"/><text dy=".32em" style="text-anchor: end;" x="-9" y="0">1.40e-3</text></g><g class="tick" style="opacity: 1;" transform="translate(0,84.87790694110329)"><line x2="-6" y2="0" class="axis-line"/><text dy=".32em" style="text-anchor: end;" x="-9" y="0">1.60e-3</text></g><g class="tick" style="opacity: 1;" transform="translate(0,37.57852434051592)"><line x2="-6" y2="0" class="axis-line"/><text dy=".32em" style="text-anchor: end;" x="-9" y="0">1.80e-3</text></g><path class="axis-path" d="M-6,0H0V400H-6"/><text transform="rotate(-90)" y="6" dy=".71em" style="text-anchor: end;">Mean running time (seconds)</text></g><g class="data-series-0 data-series-count-2"><circle cx="0" cy="400" r="3"/><circle cx="220" cy="316.532085216925" r="3"/><circle cx="440" cy="233.41146461806835" r="3"/><circle cx="660" cy="145.51972632599296" r="3"/><circle cx="880" cy="59.852440052193636" r="3"/><path class="error-bar" x="0" y="400" d="M 0 400 V 398.0711136282714 h -3 h 6 h -3 V 401.9288863717286 h -3 h 6"/><path class="error-bar" x="220" y="316.532085216925" d="M 220 316.532085216925 V 312.22901111829253 h -3 h 6 h -3 V 320.8351593155576 h -3 h 6"/><path class="error-bar" x="440" y="233.41146461806835" d="M 440 233.41146461806835 V 227.64166079526137 h -3 h 6 h -3 V 239.1812684408753 h -3 h 6"/><path class="error-bar" x="660" y="145.51972632599296" d="M 660 145.51972632599296 V 138.897427666467 h -3 h 6 h -3 V 152.1420249855189 h -3 h 6"/><path class="error-bar" x="880" y="59.852440052193636" d="M 880 59.852440052193636 V 53.29795265653377 h -3 h 6 h -3 V 66.40692744785355 h -3 h 6"/><path class="line" d="M0,400L220,316.532085216925L440,233.41146461806835L660,145.51972632599296L880,59.852440052193636"/></g><g class="data-series-1 data-series-count-2"><circle cx="0" cy="388.4384681732977" r="3"/><circle cx="220" cy="294.5147449106402" r="3"/><circle cx="440" cy="195.85401341408874" r="3"/><circle cx="660" cy="92.80998289723428" r="3"/><circle cx="880" cy="0" r="3"/><path class="error-bar" x="0" y="388.4384681732977" d="M 0 388.4384681732977 V 385.9484477173819 h -3 h 6 h -3 V 390.92848862921346 h -3 h 6"/><path class="error-bar" x="220" y="294.5147449106402" d="M 220 294.5147449106402 V 290.87636103319943 h -3 h 6 h -3 V 298.15312878808106 h -3 h 6"/><path class="error-bar" x="440" y="195.85401341408874" d="M 440 195.85401341408874 V 190.50613203477073 h -3 h 6 h -3 V 201.20189479340675 h -3 h 6"/><path class="error-bar" x="660" y="92.80998289723428" d="M 660 92.80998289723428 V 71.82943345346624 h -3 h 6 h -3 V 113.79053234100228 h -3 h 6"/><path class="error-bar" x="880" y="0" d="M 880 0 V -7.860718033244574 h -3 h 6 h -3 V 7.860718033244574 h -3 h 6"/><path class="line" d="M0,388.4384681732977L220,294.5147449106402L440,195.85401341408874L660,92.80998289723428L880,0"/></g><g class="legend" transform="translate(50, 50)"><rect x="0" y="0" width="15" height="15" class="data-series-0 data-series-count-2"/><rect x="0" y="20" width="15" height="15" class="data-series-1 data-series-count-2"/><text x="24" y="13">argonaut-codec</text><text x="24" y="33">json-codecs</text></g></g><g transform="translate(960, 500)" class="graph-footer"><text style="text-anchor: end;">Ran on:</text><text style="text-anchor: end;" y="14">2023-09-05 13:36:03</text></g></g><line x1="0" y1="1095" x2="1000" y2="1095" class="graph-gap-line"/><g transform="translate(0, 1100)"><g transform="translate(80, 40)"><g transform="translate(440, 0)"><text style="text-anchor: middle; font-size: 28px;">Decoding an array of ints (optimized)*</text><text y="20" style="text-anchor: middle; font-size: 16px;">* Tag: json-codec-with-json</text></g><g class="x axis" transform="translate(0, 400)"><g class="tick" style="opacity: 1;" transform="translate(0,0)"><line y2="6" x2="0" class="axis-line"/><text dy=".71em" style="text-anchor: middle;" y="9" x="0">1,000</text></g><g class="tick" style="opacity: 1;" transform="translate(110,0)"><line y2="6" x2="0" class="axis-line"/><text dy=".71em" style="text-anchor: middle;" y="9" x="0">1,500</text></g><g class="tick" style="opacity: 1;" transform="translate(220,0)"><line y2="6" x2="0" class="axis-line"/><text dy=".71em" style="text-anchor: middle;" y="9" x="0">2,000</text></g><g class="tick" style="opacity: 1;" transform="translate(330,0)"><line y2="6" x2="0" class="axis-line"/><text dy=".71em" style="text-anchor: middle;" y="9" x="0">2,500</text></g><g class="tick" style="opacity: 1;" transform="translate(440,0)"><line y2="6" x2="0" class="axis-line"/><text dy=".71em" style="text-anchor: middle;" y="9" x="0">3,000</text></g><g class="tick" style="opacity: 1;" transform="translate(550,0)"><line y2="6" x2="0" class="axis-line"/><text dy=".71em" style="text-anchor: middle;" y="9" x="0">3,500</text></g><g class="tick" style="opacity: 1;" transform="translate(660,0)"><line y2="6" x2="0" class="axis-line"/><text dy=".71em" style="text-anchor: middle;" y="9" x="0">4,000</text></g><g class="tick" style="opacity: 1;" transform="translate(770,0)"><line y2="6" x2="0" class="axis-line"/><text dy=".71em" style="text-anchor: middle;" y="9" x="0">4,500</text></g><g class="tick" style="opacity: 1;" transform="translate(880,0)"><line y2="6" x2="0" class="axis-line"/><text dy=".71em" style="text-anchor: middle;" y="9" x="0">5,000</text></g><path class="axis-path" d="M0,6V0H880V6"/><text x="440" y="40" style="text-anchor: middle;">Number of elements in the array</text></g><g class="y axis"><g class="tick" style="opacity: 1;" transform="translate(0,398.62642497363856)"><line x2="-6" y2="0" class="axis-line"/><text dy=".32em" style="text-anchor: end;" x="-9" y="0">2.00e-4</text></g><g class="tick" style="opacity: 1;" transform="translate(0,353.29954734762214)"><line x2="-6" y2="0" class="axis-line"/><text dy=".32em" style="text-anchor: end;" x="-9" y="0">4.00e-4</text></g><g class="tick" style="opacity: 1;" transform="translate(0,307.9726697216057)"><line x2="-6" y2="0" class="axis-line"/><text dy=".32em" style="text-anchor: end;" x="-9" y="0">6.00e-4</text></g><g class="tick" style="opacity: 1;" transform="translate(0,262.6457920955893)"><line x2="-6" y2="0" class="axis-line"/><text dy=".32em" style="text-anchor: end;" x="-9" y="0">8.00e-4</text></g><g class="tick" style="opacity: 1;" transform="translate(0,217.3189144695729)"><line x2="-6" y2="0" class="axis-line"/><text dy=".32em" style="text-anchor: end;" x="-9" y="0">1.00e-3</text></g><g class="tick" style="opacity: 1;" transform="translate(0,171.99203684355658)"><line x2="-6" y2="0" class="axis-line"/><text dy=".32em" style="text-anchor: end;" x="-9" y="0">1.20e-3</text></g><g class="tick" style="opacity: 1;" transform="translate(0,126.66515921754015)"><line x2="-6" y2="0" class="axis-line"/><text dy=".32em" style="text-anchor: end;" x="-9" y="0">1.40e-3</text></g><g class="tick" style="opacity: 1;" transform="translate(0,81.33828159152374)"><line x2="-6" y2="0" class="axis-line"/><text dy=".32em" style="text-anchor: end;" x="-9" y="0">1.60e-3</text></g><g class="tick" style="opacity: 1;" transform="translate(0,36.01140396550737)"><line x2="-6" y2="0" class="axis-line"/><text dy=".32em" style="text-anchor: end;" x="-9" y="0">1.80e-3</text></g><path class="axis-path" d="M-6,0H0V400H-6"/><text transform="rotate(-90)" y="6" dy=".71em" style="text-anchor: end;">Mean running time (seconds)</text></g><g class="data-series-0 data-series-count-2"><circle cx="0" cy="400" r="3"/><circle cx="220" cy="355.0757154588451" r="3"/><circle cx="440" cy="308.7437307073871" r="3"/><circle cx="660" cy="264.9504355177819" r="3"/><circle cx="880" cy="219.1250108205713" r="3"/><path class="error-bar" x="0" y="400" d="M 0 400 V 398.76637131921166 h -3 h 6 h -3 V 401.23362868078834 h -3 h 6"/><path class="error-bar" x="220" y="355.0757154588451" d="M 220 355.0757154588451 V 351.1212489041708 h -3 h 6 h -3 V 359.03018201351944 h -3 h 6"/><path class="error-bar" x="440" y="308.7437307073871" d="M 440 308.7437307073871 V 302.2409718891462 h -3 h 6 h -3 V 315.246489525628 h -3 h 6"/><path class="error-bar" x="660" y="264.9504355177819" d="M 660 264.9504355177819 V 255.3558354374276 h -3 h 6 h -3 V 274.5450355981363 h -3 h 6"/><path class="error-bar" x="880" y="219.1250108205713" d="M 880 219.1250108205713 V 215.1312369026382 h -3 h 6 h -3 V 223.11878473850442 h -3 h 6"/><path class="line" d="M0,400L220,355.0757154588451L440,308.7437307073871L660,264.9504355177819L880,219.1250108205713"/></g><g class="data-series-1 data-series-count-2"><circle cx="0" cy="372.23959265611376" r="3"/><circle cx="220" cy="282.2327283708824" r="3"/><circle cx="440" cy="187.68640118516743" r="3"/><circle cx="660" cy="88.9395697355967" r="3"/><circle cx="880" cy="0" r="3"/><path class="error-bar" x="0" y="372.23959265611376" d="M 0 372.23959265611376 V 369.853412408379 h -3 h 6 h -3 V 374.62577290384854 h -3 h 6"/><path class="error-bar" x="220" y="282.2327283708824" d="M 220 282.2327283708824 V 278.7460743872174 h -3 h 6 h -3 V 285.71938235454735 h -3 h 6"/><path class="error-bar" x="440" y="187.68640118516743" d="M 440 187.68640118516743 V 182.56154010852853 h -3 h 6 h -3 V 192.81126226180623 h -3 h 6"/><path class="error-bar" x="660" y="88.9395697355967" d="M 660 88.9395697355967 V 68.83396275136411 h -3 h 6 h -3 V 109.04517671982927 h -3 h 6"/><path class="error-bar" x="880" y="0" d="M 880 0 V -7.532906028694608 h -3 h 6 h -3 V 7.532906028694608 h -3 h 6"/><path class="line" d="M0,372.23959265611376L220,282.2327283708824L440,187.68640118516743L660,88.9395697355967L880,0"/></g><g class="legend" transform="translate(50, 50)"><rect x="0" y="0" width="15" height="15" class="data-series-0 data-series-count-2"/><rect x="0" y="20" width="15" height="15" class="data-series-1 data-series-count-2"/><text x="24" y="13">json</text><text x="24" y="33">json-codecs</text></g></g><g transform="translate(960, 500)" class="graph-footer"><text style="text-anchor: end;">Ran on:</text><text style="text-anchor: end;" y="14">2023-09-05 13:36:03</text></g></g><line x1="0" y1="1645" x2="1000" y2="1645" class="graph-gap-line"/><g transform="translate(0, 1650)"><g transform="translate(80, 40)"><g transform="translate(440, 0)"><text style="text-anchor: middle; font-size: 28px;">Decoding an array of ints (optimized)*</text><text y="20" style="text-anchor: middle; font-size: 16px;">* Tag: json-codec-with-baseline</text></g><g class="x axis" transform="translate(0, 400)"><g class="tick" style="opacity: 1;" transform="translate(0,0)"><line y2="6" x2="0" class="axis-line"/><text dy=".71em" style="text-anchor: middle;" y="9" x="0">1,000</text></g><g class="tick" style="opacity: 1;" transform="translate(110,0)"><line y2="6" x2="0" class="axis-line"/><text dy=".71em" style="text-anchor: middle;" y="9" x="0">1,500</text></g><g class="tick" style="opacity: 1;" transform="translate(220,0)"><line y2="6" x2="0" class="axis-line"/><text dy=".71em" style="text-anchor: middle;" y="9" x="0">2,000</text></g><g class="tick" style="opacity: 1;" transform="translate(330,0)"><line y2="6" x2="0" class="axis-line"/><text dy=".71em" style="text-anchor: middle;" y="9" x="0">2,500</text></g><g class="tick" style="opacity: 1;" transform="translate(440,0)"><line y2="6" x2="0" class="axis-line"/><text dy=".71em" style="text-anchor: middle;" y="9" x="0">3,000</text></g><g class="tick" style="opacity: 1;" transform="translate(550,0)"><line y2="6" x2="0" class="axis-line"/><text dy=".71em" style="text-anchor: middle;" y="9" x="0">3,500</text></g><g class="tick" style="opacity: 1;" transform="translate(660,0)"><line y2="6" x2="0" class="axis-line"/><text dy=".71em" style="text-anchor: middle;" y="9" x="0">4,000</text></g><g class="tick" style="opacity: 1;" transform="translate(770,0)"><line y2="6" x2="0" class="axis-line"/><text dy=".71em" style="text-anchor: middle;" y="9" x="0">4,500</text></g><g class="tick" style="opacity: 1;" transform="translate(880,0)"><line y2="6" x2="0" class="axis-line"/><text dy=".71em" style="text-anchor: middle;" y="9" x="0">5,000</text></g><path class="axis-path" d="M0,6V0H880V6"/><text x="440" y="40" style="text-anchor: middle;">Number of elements in the array</text></g><g class="y axis"><g class="tick" style="opacity: 1;" transform="translate(0,379.64746826274444)"><line x2="-6" y2="0" class="axis-line"/><text dy=".32em" style="text-anchor: end;" x="-9" y="0">4.00e-4</text></g><g class="tick" style="opacity: 1;" transform="translate(0,330.9402608401415)"><line x2="-6" y2="0" class="axis-line"/><text dy=".32em" style="text-anchor: end;" x="-9" y="0">6.00e-4</text></g><g class="tick" style="opacity: 1;" transform="translate(0,282.23305341753854)"><line x2="-6" y2="0" class="axis-line"/><text dy=".32em" style="text-anchor: end;" x="-9" y="0">8.00e-4</text></g><g class="tick" style="opacity: 1;" transform="translate(0,233.52584599493557)"><line x2="-6" y2="0" class="axis-line"/><text dy=".32em" style="text-anchor: end;" x="-9" y="0">1.00e-3</text></g><g class="tick" style="opacity: 1;" transform="translate(0,184.81863857233267)"><line x2="-6" y2="0" class="axis-line"/><text dy=".32em" style="text-anchor: end;" x="-9" y="0">1.20e-3</text></g><g class="tick" style="opacity: 1;" transform="translate(0,136.1114311497297)"><line x2="-6" y2="0" class="axis-line"/><text dy=".32em" style="text-anchor: end;" x="-9" y="0">1.40e-3</text></g><g class="tick" style="opacity: 1;" transform="translate(0,87.40422372712673)"><line x2="-6" y2="0" class="axis-line"/><text dy=".32em" style="text-anchor: end;" x="-9" y="0">1.60e-3</text></g><g class="tick" style="opacity: 1;" transform="translate(0,38.69701630452384)"><line x2="-6" y2="0" class="axis-line"/><text dy=".32em" style="text-anchor: end;" x="-9" y="0">1.80e-3</text></g><path class="axis-path" d="M-6,0H0V400H-6"/><text transform="rotate(-90)" y="6" dy=".71em" style="text-anchor: end;">Mean running time (seconds)</text></g><g class="data-series-0 data-series-count-1"><circle cx="0" cy="400" r="3"/><circle cx="220" cy="303.28071912717525" r="3"/><circle cx="440" cy="201.68343710665707" r="3"/><circle cx="660" cy="95.57239099792562" r="3"/><circle cx="880" cy="0" r="3"/><path class="error-bar" x="0" y="400" d="M 0 400 V 397.4358662594613 h -3 h 6 h -3 V 402.56413374053864 h -3 h 6"/><path class="error-bar" x="220" y="303.28071912717525" d="M 220 303.28071912717525 V 299.53404193060305 h -3 h 6 h -3 V 307.02739632374744 h -3 h 6"/><path class="error-bar" x="440" y="201.68343710665707" d="M 440 201.68343710665707 V 196.17638070777116 h -3 h 6 h -3 V 207.19049350554295 h -3 h 6"/><path class="error-bar" x="660" y="95.57239099792562" d="M 660 95.57239099792562 V 73.9673738198559 h -3 h 6 h -3 V 117.1774081759954 h -3 h 6"/><path class="error-bar" x="880" y="0" d="M 880 0 V -8.094685441646465 h -3 h 6 h -3 V 8.094685441646421 h -3 h 6"/><path class="line" d="M0,400L220,303.28071912717525L440,201.68343710665707L660,95.57239099792562L880,0"/></g><g class="legend" transform="translate(50, 50)"><rect x="0" y="0" width="15" height="15" class="data-series-0 data-series-count-1"/><text x="24" y="13">json-codecs</text></g></g><g transform="translate(960, 500)" class="graph-footer"><text style="text-anchor: end;">Ran on:</text><text style="text-anchor: end;" y="14">2023-09-05 13:36:03</text></g></g><line x1="0" y1="2195" x2="1000" y2="2195" class="graph-gap-line"/><g transform="translate(0, 2200)"><g transform="translate(80, 40)"><g transform="translate(440, 0)"><text style="text-anchor: middle; font-size: 28px;">Decoding an array of ints (optimized)*</text><text y="20" style="text-anchor: middle; font-size: 16px;">* Tag: json-codec-with-codec-argonaut</text></g><g class="x axis" transform="translate(0, 400)"><g class="tick" style="opacity: 1;" transform="translate(0,0)"><line y2="6" x2="0" class="axis-line"/><text dy=".71em" style="text-anchor: middle;" y="9" x="0">1,000</text></g><g class="tick" style="opacity: 1;" transform="translate(110,0)"><line y2="6" x2="0" class="axis-line"/><text dy=".71em" style="text-anchor: middle;" y="9" x="0">1,500</text></g><g class="tick" style="opacity: 1;" transform="translate(220,0)"><line y2="6" x2="0" class="axis-line"/><text dy=".71em" style="text-anchor: middle;" y="9" x="0">2,000</text></g><g class="tick" style="opacity: 1;" transform="translate(330,0)"><line y2="6" x2="0" class="axis-line"/><text dy=".71em" style="text-anchor: middle;" y="9" x="0">2,500</text></g><g class="tick" style="opacity: 1;" transform="translate(440,0)"><line y2="6" x2="0" class="axis-line"/><text dy=".71em" style="text-anchor: middle;" y="9" x="0">3,000</text></g><g class="tick" style="opacity: 1;" transform="translate(550,0)"><line y2="6" x2="0" class="axis-line"/><text dy=".71em" style="text-anchor: middle;" y="9" x="0">3,500</text></g><g class="tick" style="opacity: 1;" transform="translate(660,0)"><line y2="6" x2="0" class="axis-line"/><text dy=".71em" style="text-anchor: middle;" y="9" x="0">4,000</text></g><g class="tick" style="opacity: 1;" transform="translate(770,0)"><line y2="6" x2="0" class="axis-line"/><text dy=".71em" style="text-anchor: middle;" y="9" x="0">4,500</text></g><g class="tick" style="opacity: 1;" transform="translate(880,0)"><line y2="6" x2="0" class="axis-line"/><text dy=".71em" style="text-anchor: middle;" y="9" x="0">5,000</text></g><path class="axis-path" d="M0,6V0H880V6"/><text x="440" y="40" style="text-anchor: middle;">Number of elements in the array</text></g><g class="y axis"><g class="tick" style="opacity: 1;" transform="translate(0,368.7675984404423)"><line x2="-6" y2="0" class="axis-line"/><text dy=".32em" style="text-anchor: end;" x="-9" y="0">4.00e-4</text></g><g class="tick" style="opacity: 1;" transform="translate(0,321.4562335308706)"><line x2="-6" y2="0" class="axis-line"/><text dy=".32em" style="text-anchor: end;" x="-9" y="0">6.00e-4</text></g><g class="tick" style="opacity: 1;" transform="translate(0,274.14486862129877)"><line x2="-6" y2="0" class="axis-line"/><text dy=".32em" style="text-anchor: end;" x="-9" y="0">8.00e-4</text></g><g class="tick" style="opacity: 1;" transform="translate(0,226.83350371172696)"><line x2="-6" y2="0" class="axis-line"/><text dy=".32em" style="text-anchor: end;" x="-9" y="0">1.00e-3</text></g><g class="tick" style="opacity: 1;" transform="translate(0,179.52213880215518)"><line x2="-6" y2="0" class="axis-line"/><text dy=".32em" style="text-anchor: end;" x="-9" y="0">1.20e-3</text></g><g class="tick" style="opacity: 1;" transform="translate(0,132.21077389258338)"><line x2="-6" y2="0" class="axis-line"/><text dy=".32em" style="text-anchor: end;" x="-9" y="0">1.40e-3</text></g><g class="tick" style="opacity: 1;" transform="translate(0,84.89940898301155)"><line x2="-6" y2="0" class="axis-line"/><text dy=".32em" style="text-anchor: end;" x="-9" y="0">1.60e-3</text></g><g class="tick" style="opacity: 1;" transform="translate(0,37.588044073439875)"><line x2="-6" y2="0" class="axis-line"/><text dy=".32em" style="text-anchor: end;" x="-9" y="0">1.80e-3</text></g><path class="axis-path" d="M-6,0H0V400H-6"/><text transform="rotate(-90)" y="6" dy=".71em" style="text-anchor: end;">Mean running time (seconds)</text></g><g class="data-series-0 data-series-count-2"><circle cx="0" cy="388.5368709323015" r="3"/><circle cx="220" cy="294.58935405942714" r="3"/><circle cx="440" cy="195.90362893073038" r="3"/><circle cx="660" cy="92.83349436463118" r="3"/><circle cx="880" cy="0" r="3"/><path class="error-bar" x="0" y="388.5368709323015" d="M 0 388.5368709323015 V 386.04621968179936 h -3 h 6 h -3 V 391.0275221828035 h -3 h 6"/><path class="error-bar" x="220" y="294.58935405942714" d="M 220 294.58935405942714 V 290.95004847355324 h -3 h 6 h -3 V 298.2286596453011 h -3 h 6"/><path class="error-bar" x="440" y="195.90362893073038" d="M 440 195.90362893073038 V 190.55439277755326 h -3 h 6 h -3 V 201.25286508390747 h -3 h 6"/><path class="error-bar" x="660" y="92.83349436463118" d="M 660 92.83349436463118 V 71.8476299376166 h -3 h 6 h -3 V 113.81935879164584 h -3 h 6"/><path class="error-bar" x="880" y="0" d="M 880 0 V -7.862709381696398 h -3 h 6 h -3 V 7.862709381696398 h -3 h 6"/><path class="line" d="M0,388.5368709323015L220,294.58935405942714L440,195.90362893073038L660,92.83349436463118L880,0"/></g><g class="data-series-1 data-series-count-2"><circle cx="0" cy="400" r="3"/><circle cx="220" cy="320.54214667964686" r="3"/><circle cx="440" cy="236.45222305753214" r="3"/><circle cx="660" cy="148.57630406067076" r="3"/><circle cx="880" cy="66.42611743921152" r="3"/><path class="error-bar" x="0" y="400" d="M 0 400 V 397.113750464308 h -3 h 6 h -3 V 402.886249535692 h -3 h 6"/><path class="error-bar" x="220" y="320.54214667964686" d="M 220 320.54214667964686 V 316.44173270308585 h -3 h 6 h -3 V 324.6425606562078 h -3 h 6"/><path class="error-bar" x="440" y="236.45222305753214" d="M 440 236.45222305753214 V 227.0676813109104 h -3 h 6 h -3 V 245.83676480415386 h -3 h 6"/><path class="error-bar" x="660" y="148.57630406067076" d="M 660 148.57630406067076 V 138.41654739358188 h -3 h 6 h -3 V 158.73606072775965 h -3 h 6"/><path class="error-bar" x="880" y="66.42611743921152" d="M 880 66.42611743921152 V 59.68298460120174 h -3 h 6 h -3 V 73.1692502772213 h -3 h 6"/><path class="line" d="M0,400L220,320.54214667964686L440,236.45222305753214L660,148.57630406067076L880,66.42611743921152"/></g><g class="legend" transform="translate(50, 50)"><rect x="0" y="0" width="15" height="15" class="data-series-0 data-series-count-2"/><rect x="0" y="20" width="15" height="15" class="data-series-1 data-series-count-2"/><text x="24" y="13">json-codecs</text><text x="24" y="33">codec-argonaut</text></g></g><g transform="translate(960, 500)" class="graph-footer"><text style="text-anchor: end;">Ran on:</text><text style="text-anchor: end;" y="14">2023-09-05 13:36:03</text></g></g></svg>