<svg xmlns="http://www.w3.org/2000/svg" width="1000" height="2740"><defs><style type="text/css">
    /* https://www.vis4.net/palettes/#/9|d|00429d,96ffea|ffffe0,ff005e,93003a|1|1 */
    :root {
    --data-series-0--1-only: #000;

    --data-series-0--3-or-less: #00429d;
    --data-series-1--3-or-less: #96ffea;
    --data-series-2--3-or-less: #93003a;

    --data-series-0--5-or-less: #00429d;
    --data-series-1--5-or-less: #629cc4;
    --data-series-2--5-or-less: #96ffea;
    --data-series-3--5-or-less: #f4777f;
    --data-series-4--5-or-less: #93003a;

    --data-series-0--7-or-less: #00429d;
    --data-series-1--7-or-less: #4d7cb7;
    --data-series-2--7-or-less: #74bcd1;
    --data-series-3--7-or-less: #96ffea;
    --data-series-4--7-or-less: #ffa59e;
    --data-series-5--7-or-less: #dd4c65;
    --data-series-6--7-or-less: #93003a;

    --data-series-0--9-or-less: #00429d;
    --data-series-1--9-or-less: #416db1;
    --data-series-2--9-or-less: #629cc4;
    --data-series-3--9-or-less: #7dccd7;
    --data-series-4--9-or-less: #96ffea;
    --data-series-5--9-or-less: #ffbcaf;
    --data-series-6--9-or-less: #f4777f;
    --data-series-7--9-or-less: #cf3759;
    --data-series-8--9-or-less: #93003a;
    }

    .background {
    fill: white;
    }

    text {
    font-size: 14px;
    font-family: sans-serif;
    }

    .axis-path,
    .axis-line {
    fill: none;
    stroke: #000;
    stroke-width: 1px;
    shape-rendering: crispEdges;
    }

    .line {
    fill: none;
    stroke-width: 1.5px;
    }

    .error-bar {
    fill: none;
    }

    /* Series of 1 */

    .data-series-0.data-series-count-1 {
    stroke: var(--data-series-0--1-only);
    fill: var(--data-series-0--1-only);
    }

    /* Series of 3 */

    .data-series-0.data-series-count-3,
    .data-series-0.data-series-count-2 {
    stroke: var(--data-series-0--3-or-less);
    fill: var(--data-series-0--3-or-less);
    }

    .data-series-1.data-series-count-3,
    .data-series-1.data-series-count-2 {
    stroke: var(--data-series-1--3-or-less);
    fill: var(--data-series-1--3-or-less);
    }

    .data-series-2.data-series-count-3,
    .data-series-2.data-series-count-2 {
    stroke: var(--data-series-2--3-or-less);
    fill: var(--data-series-2--3-or-less);
    }

    /* Series of 5 */

    .data-series-0.data-series-count-5,
    .data-series-0.data-series-count-4 {
    stroke: var(--data-series-0--5-or-less);
    fill: var(--data-series-0--5-or-less);
    }

    .data-series-1.data-series-count-5,
    .data-series-1.data-series-count-4 {
    stroke: var(--data-series-1--5-or-less);
    fill: var(--data-series-1--5-or-less);
    }

    .data-series-2.data-series-count-5,
    .data-series-2.data-series-count-4 {
    stroke: var(--data-series-2--5-or-less);
    fill: var(--data-series-2--5-or-less);
    }

    .data-series-3.data-series-count-5,
    .data-series-3.data-series-count-4 {
    stroke: var(--data-series-3--5-or-less);
    fill: var(--data-series-3--5-or-less);
    }

    .data-series-4.data-series-count-5,
    .data-series-4.data-series-count-4 {
    stroke: var(--data-series-4--5-or-less);
    fill: var(--data-series-4--5-or-less);
    }

    /* Series of 7 */

    .data-series-0.data-series-count-7,
    .data-series-0.data-series-count-6 {
    stroke: var(--data-series-0--7-or-less);
    fill: var(--data-series-0--7-or-less);
    }

    .data-series-1.data-series-count-7,
    .data-series-1.data-series-count-6 {
    stroke: var(--data-series-1--7-or-less);
    fill: var(--data-series-1--7-or-less);
    }

    .data-series-2.data-series-count-7,
    .data-series-2.data-series-count-6 {
    stroke: var(--data-series-2--7-or-less);
    fill: var(--data-series-2--7-or-less);
    }

    .data-series-3.data-series-count-7,
    .data-series-3.data-series-count-6 {
    stroke: var(--data-series-3--7-or-less);
    fill: var(--data-series-3--7-or-less);
    }

    .data-series-4.data-series-count-7,
    .data-series-4.data-series-count-6 {
    stroke: var(--data-series-4--7-or-less);
    fill: var(--data-series-4--7-or-less);
    }

    .data-series-5.data-series-count-7,
    .data-series-5.data-series-count-6 {
    stroke: var(--data-series-5--7-or-less);
    fill: var(--data-series-5--7-or-less);
    }

    .data-series-6.data-series-count-7,
    .data-series-6.data-series-count-6 {
    stroke: var(--data-series-6--7-or-less);
    fill: var(--data-series-6--7-or-less);
    }

    /* Series of 9 */

    .data-series-0.data-series-count-9,
    .data-series-0.data-series-count-8 {
    stroke: var(--data-series-0--9-or-less);
    fill: var(--data-series-0--9-or-less);
    }

    .data-series-1.data-series-count-9,
    .data-series-1.data-series-count-8 {
    stroke: var(--data-series-1--9-or-less);
    fill: var(--data-series-1--9-or-less);
    }

    .data-series-2.data-series-count-9,
    .data-series-2.data-series-count-8 {
    stroke: var(--data-series-2--9-or-less);
    fill: var(--data-series-2--9-or-less);
    }

    .data-series-3.data-series-count-9,
    .data-series-3.data-series-count-8 {
    stroke: var(--data-series-3--9-or-less);
    fill: var(--data-series-3--9-or-less);
    }

    .data-series-4.data-series-count-9,
    .data-series-4.data-series-count-8 {
    stroke: var(--data-series-4--9-or-less);
    fill: var(--data-series-4--9-or-less);
    }

    .data-series-5.data-series-count-9,
    .data-series-5.data-series-count-8 {
    stroke: var(--data-series-5--9-or-less);
    fill: var(--data-series-5--9-or-less);
    }

    .data-series-6.data-series-count-9,
    .data-series-6.data-series-count-8 {
    stroke: var(--data-series-6--9-or-less);
    fill: var(--data-series-6--9-or-less);
    }

    .data-series-7.data-series-count-9,
    .data-series-7.data-series-count-8 {
    stroke: var(--data-series-7--9-or-less);
    fill: var(--data-series-7--9-or-less);
    }

    .data-series-8.data-series-count-9,
    .data-series-8.data-series-count-8 {
    stroke: var(--data-series-8--9-or-less);
    fill: var(--data-series-8--9-or-less);
    }
  </style></defs><rect width="1000" height="2740" class="background"/><g transform="translate(0, 0)"><g transform="translate(80, 40)"><g transform="translate(440, 0)"><text style="text-anchor: middle; font-size: 28px;">Decoding an array of ints (unoptimized)</text></g><g class="x axis" transform="translate(0, 400)"><g class="tick" style="opacity: 1;" transform="translate(0,0)"><line y2="6" x2="0" class="axis-line"/><text dy=".71em" style="text-anchor: middle;" y="9" x="0">1,000</text></g><g class="tick" style="opacity: 1;" transform="translate(110,0)"><line y2="6" x2="0" class="axis-line"/><text dy=".71em" style="text-anchor: middle;" y="9" x="0">1,500</text></g><g class="tick" style="opacity: 1;" transform="translate(220,0)"><line y2="6" x2="0" class="axis-line"/><text dy=".71em" style="text-anchor: middle;" y="9" x="0">2,000</text></g><g class="tick" style="opacity: 1;" transform="translate(330,0)"><line y2="6" x2="0" class="axis-line"/><text dy=".71em" style="text-anchor: middle;" y="9" x="0">2,500</text></g><g class="tick" style="opacity: 1;" transform="translate(440,0)"><line y2="6" x2="0" class="axis-line"/><text dy=".71em" style="text-anchor: middle;" y="9" x="0">3,000</text></g><g class="tick" style="opacity: 1;" transform="translate(550,0)"><line y2="6" x2="0" class="axis-line"/><text dy=".71em" style="text-anchor: middle;" y="9" x="0">3,500</text></g><g class="tick" style="opacity: 1;" transform="translate(660,0)"><line y2="6" x2="0" class="axis-line"/><text dy=".71em" style="text-anchor: middle;" y="9" x="0">4,000</text></g><g class="tick" style="opacity: 1;" transform="translate(770,0)"><line y2="6" x2="0" class="axis-line"/><text dy=".71em" style="text-anchor: middle;" y="9" x="0">4,500</text></g><g class="tick" style="opacity: 1;" transform="translate(880,0)"><line y2="6" x2="0" class="axis-line"/><text dy=".71em" style="text-anchor: middle;" y="9" x="0">5,000</text></g><path class="axis-path" d="M0,6V0H880V6"/><text x="440" y="40" style="text-anchor: middle;">Number of elements in the array</text></g><g class="y axis"><g class="tick" style="opacity: 1;" transform="translate(0,353.68776672508784)"><line x2="-6" y2="0" class="axis-line"/><text dy=".32em" style="text-anchor: end;" x="-9" y="0">1.00e-3</text></g><g class="tick" style="opacity: 1;" transform="translate(0,307.373860112757)"><line x2="-6" y2="0" class="axis-line"/><text dy=".32em" style="text-anchor: end;" x="-9" y="0">2.00e-3</text></g><g class="tick" style="opacity: 1;" transform="translate(0,261.0599535004261)"><line x2="-6" y2="0" class="axis-line"/><text dy=".32em" style="text-anchor: end;" x="-9" y="0">3.00e-3</text></g><g class="tick" style="opacity: 1;" transform="translate(0,214.74604688809524)"><line x2="-6" y2="0" class="axis-line"/><text dy=".32em" style="text-anchor: end;" x="-9" y="0">4.00e-3</text></g><g class="tick" style="opacity: 1;" transform="translate(0,168.4321402757644)"><line x2="-6" y2="0" class="axis-line"/><text dy=".32em" style="text-anchor: end;" x="-9" y="0">5.00e-3</text></g><g class="tick" style="opacity: 1;" transform="translate(0,122.11823366343349)"><line x2="-6" y2="0" class="axis-line"/><text dy=".32em" style="text-anchor: end;" x="-9" y="0">6.00e-3</text></g><g class="tick" style="opacity: 1;" transform="translate(0,75.80432705110263)"><line x2="-6" y2="0" class="axis-line"/><text dy=".32em" style="text-anchor: end;" x="-9" y="0">7.00e-3</text></g><g class="tick" style="opacity: 1;" transform="translate(0,29.490420438771725)"><line x2="-6" y2="0" class="axis-line"/><text dy=".32em" style="text-anchor: end;" x="-9" y="0">8.00e-3</text></g><path class="axis-path" d="M-6,0H0V400H-6"/><text transform="rotate(-90)" y="6" dy=".71em" style="text-anchor: end;">Mean running time (seconds)</text></g><g class="data-series-0 data-series-count-6"><circle cx="0" cy="382.1219032911751" r="3"/><circle cx="220" cy="358.58650744907396" r="3"/><circle cx="440" cy="335.16548122397137" r="3"/><circle cx="660" cy="312.81034206331213" r="3"/><circle cx="880" cy="299.8829490084799" r="3"/><path class="error-bar" x="0" y="382.1219032911751" d="M 0 382.1219032911751 V 381.5757226355916 h -3 h 6 h -3 V 382.66808394675866 h -3 h 6"/><path class="error-bar" x="220" y="358.58650744907396" d="M 220 358.58650744907396 V 357.5044708383364 h -3 h 6 h -3 V 359.66854405981155 h -3 h 6"/><path class="error-bar" x="440" y="335.16548122397137" d="M 440 335.16548122397137 V 329.7042138978035 h -3 h 6 h -3 V 340.62674855013927 h -3 h 6"/><path class="error-bar" x="660" y="312.81034206331213" d="M 660 312.81034206331213 V 305.09348877099785 h -3 h 6 h -3 V 320.5271953556264 h -3 h 6"/><path class="error-bar" x="880" y="299.8829490084799" d="M 880 299.8829490084799 V 297.2477960582896 h -3 h 6 h -3 V 302.5181019586703 h -3 h 6"/><path class="line" d="M0,382.1219032911751L220,358.58650744907396L440,335.16548122397137L660,312.81034206331213L880,299.8829490084799"/></g><g class="data-series-1 data-series-count-6"><circle cx="0" cy="388.7549193361322" r="3"/><circle cx="220" cy="376.43047062581115" r="3"/><circle cx="440" cy="365.05417309794785" r="3"/><circle cx="660" cy="353.30186418396414" r="3"/><circle cx="880" cy="341.40331535968596" r="3"/><path class="error-bar" x="0" y="388.7549193361322" d="M 0 388.7549193361322 V 387.5841835417953 h -3 h 6 h -3 V 389.92565513046907 h -3 h 6"/><path class="error-bar" x="220" y="376.43047062581115" d="M 220 376.43047062581115 V 373.90750688269435 h -3 h 6 h -3 V 378.953434368928 h -3 h 6"/><path class="error-bar" x="440" y="365.05417309794785" d="M 440 365.05417309794785 V 363.9213768870885 h -3 h 6 h -3 V 366.1869693088072 h -3 h 6"/><path class="error-bar" x="660" y="353.30186418396414" d="M 660 353.30186418396414 V 351.10756759012213 h -3 h 6 h -3 V 355.49616077780615 h -3 h 6"/><path class="error-bar" x="880" y="341.40331535968596" d="M 880 341.40331535968596 V 339.05771738961386 h -3 h 6 h -3 V 343.7489133297581 h -3 h 6"/><path class="line" d="M0,388.7549193361322L220,376.43047062581115L440,365.05417309794785L660,353.30186418396414L880,341.40331535968596"/></g><g class="data-series-2 data-series-count-6"><circle cx="0" cy="372.0340065394163" r="3"/><circle cx="220" cy="335.6100430504813" r="3"/><circle cx="440" cy="298.7770263268435" r="3"/><circle cx="660" cy="262.2921281032852" r="3"/><circle cx="880" cy="225.46690375384534" r="3"/><path class="error-bar" x="0" y="372.0340065394163" d="M 0 372.0340065394163 V 370.71561080138827 h -3 h 6 h -3 V 373.35240227744436 h -3 h 6"/><path class="error-bar" x="220" y="335.6100430504813" d="M 220 335.6100430504813 V 333.63908687500634 h -3 h 6 h -3 V 337.58099922595613 h -3 h 6"/><path class="error-bar" x="440" y="298.7770263268435" d="M 440 298.7770263268435 V 292.8474633194308 h -3 h 6 h -3 V 304.70658933425614 h -3 h 6"/><path class="error-bar" x="660" y="262.2921281032852" d="M 660 262.2921281032852 V 255.6815052253434 h -3 h 6 h -3 V 268.9027509812271 h -3 h 6"/><path class="error-bar" x="880" y="225.46690375384534" d="M 880 225.46690375384534 V 217.92102646434924 h -3 h 6 h -3 V 233.0127810433415 h -3 h 6"/><path class="line" d="M0,372.0340065394163L220,335.6100430504813L440,298.7770263268435L660,262.2921281032852L880,225.46690375384534"/></g><g class="data-series-3 data-series-count-6"><circle cx="0" cy="333.5515865964263" r="3"/><circle cx="220" cy="244.25618432547677" r="3"/><circle cx="440" cy="159.13286969990264" r="3"/><circle cx="660" cy="101.38966712839954" r="3"/><circle cx="880" cy="0" r="3"/><path class="error-bar" x="0" y="333.5515865964263" d="M 0 333.5515865964263 V 331.76725815378177 h -3 h 6 h -3 V 335.33591503907087 h -3 h 6"/><path class="error-bar" x="220" y="244.25618432547677" d="M 220 244.25618432547677 V 239.79378628320492 h -3 h 6 h -3 V 248.71858236774864 h -3 h 6"/><path class="error-bar" x="440" y="159.13286969990264" d="M 440 159.13286969990264 V 151.77615026220224 h -3 h 6 h -3 V 166.48958913760308 h -3 h 6"/><path class="error-bar" x="660" y="101.38966712839954" d="M 660 101.38966712839954 V 90.22464694108807 h -3 h 6 h -3 V 112.554687315711 h -3 h 6"/><path class="error-bar" x="880" y="0" d="M 880 0 V -19.853339698193384 h -3 h 6 h -3 V 19.853339698193338 h -3 h 6"/><path class="line" d="M0,333.5515865964263L220,244.25618432547677L440,159.13286969990264L660,101.38966712839954L880,0"/></g><g class="data-series-4 data-series-count-6"><circle cx="0" cy="381.1713009307155" r="3"/><circle cx="220" cy="359.4248273840852" r="3"/><circle cx="440" cy="337.38047208494464" r="3"/><circle cx="660" cy="314.66239838764574" r="3"/><circle cx="880" cy="292.9434212166768" r="3"/><path class="error-bar" x="0" y="381.1713009307155" d="M 0 381.1713009307155 V 380.2391296668659 h -3 h 6 h -3 V 382.10347219456514 h -3 h 6"/><path class="error-bar" x="220" y="359.4248273840852" d="M 220 359.4248273840852 V 357.6760524154801 h -3 h 6 h -3 V 361.17360235269024 h -3 h 6"/><path class="error-bar" x="440" y="337.38047208494464" d="M 440 337.38047208494464 V 334.62434352431865 h -3 h 6 h -3 V 340.1366006455706 h -3 h 6"/><path class="error-bar" x="660" y="314.66239838764574" d="M 660 314.66239838764574 V 311.3926740342491 h -3 h 6 h -3 V 317.9321227410424 h -3 h 6"/><path class="error-bar" x="880" y="292.9434212166768" d="M 880 292.9434212166768 V 289.4225454842355 h -3 h 6 h -3 V 296.4642969491182 h -3 h 6"/><path class="line" d="M0,381.1713009307155L220,359.4248273840852L440,337.38047208494464L660,314.66239838764574L880,292.9434212166768"/></g><g class="data-series-5 data-series-count-6"><circle cx="0" cy="399.9999929413566" r="3"/><circle cx="220" cy="400" r="3"/><circle cx="440" cy="399.99964167206537" r="3"/><circle cx="660" cy="399.99995118443593" r="3"/><circle cx="880" cy="399.99998903690204" r="3"/><path class="error-bar" x="0" y="399.9999929413566" d="M 0 399.9999929413566 V 399.99992285257406 h -3 h 6 h -3 V 400.00006303013913 h -3 h 6"/><path class="error-bar" x="220" y="400" d="M 220 400 V 399.9999232506569 h -3 h 6 h -3 V 400.0000767493431 h -3 h 6"/><path class="error-bar" x="440" y="399.99964167206537" d="M 440 399.99964167206537 V 399.9995355489505 h -3 h 6 h -3 V 399.99974779518027 h -3 h 6"/><path class="error-bar" x="660" y="399.99995118443593" d="M 660 399.99995118443593 V 399.9996533024125 h -3 h 6 h -3 V 400.0002490664593 h -3 h 6"/><path class="error-bar" x="880" y="399.99998903690204" d="M 880 399.99998903690204 V 399.99980467359336 h -3 h 6 h -3 V 400.0001734002107 h -3 h 6"/><path class="line" d="M0,399.9999929413566L220,400L440,399.99964167206537L660,399.99995118443593L880,399.99998903690204"/></g><g class="legend" transform="translate(50, 50)"><rect x="0" y="0" width="15" height="15" class="data-series-0 data-series-count-6"/><rect x="0" y="20" width="15" height="15" class="data-series-1 data-series-count-6"/><rect x="0" y="40" width="15" height="15" class="data-series-2 data-series-count-6"/><rect x="0" y="60" width="15" height="15" class="data-series-3 data-series-count-6"/><rect x="0" y="80" width="15" height="15" class="data-series-4 data-series-count-6"/><rect x="0" y="100" width="15" height="15" class="data-series-5 data-series-count-6"/><text x="24" y="13">argonaut-codec</text><text x="24" y="33">json</text><text x="24" y="53">json-codecs - SpeedyDecoder</text><text x="24" y="73">json-codecs - PlainPrettyDecoder</text><text x="24" y="93">codec-argonaut</text><text x="24" y="113">unsafeCoerce</text></g></g><g transform="translate(960, 500)" class="graph-footer"><text style="text-anchor: end;">Ran on:</text><text style="text-anchor: end;" y="14">2023-09-04 13:44:32</text></g></g><line x1="0" y1="545" x2="1000" y2="545" class="graph-gap-line"/><g transform="translate(0, 550)"><g transform="translate(80, 40)"><g transform="translate(440, 0)"><text style="text-anchor: middle; font-size: 28px;">Decoding an array of ints (unoptimized)*</text><text y="20" style="text-anchor: middle; font-size: 16px;">* Tag: json-codec-with-argonaut-codec</text></g><g class="x axis" transform="translate(0, 400)"><g class="tick" style="opacity: 1;" transform="translate(0,0)"><line y2="6" x2="0" class="axis-line"/><text dy=".71em" style="text-anchor: middle;" y="9" x="0">1,000</text></g><g class="tick" style="opacity: 1;" transform="translate(110,0)"><line y2="6" x2="0" class="axis-line"/><text dy=".71em" style="text-anchor: middle;" y="9" x="0">1,500</text></g><g class="tick" style="opacity: 1;" transform="translate(220,0)"><line y2="6" x2="0" class="axis-line"/><text dy=".71em" style="text-anchor: middle;" y="9" x="0">2,000</text></g><g class="tick" style="opacity: 1;" transform="translate(330,0)"><line y2="6" x2="0" class="axis-line"/><text dy=".71em" style="text-anchor: middle;" y="9" x="0">2,500</text></g><g class="tick" style="opacity: 1;" transform="translate(440,0)"><line y2="6" x2="0" class="axis-line"/><text dy=".71em" style="text-anchor: middle;" y="9" x="0">3,000</text></g><g class="tick" style="opacity: 1;" transform="translate(550,0)"><line y2="6" x2="0" class="axis-line"/><text dy=".71em" style="text-anchor: middle;" y="9" x="0">3,500</text></g><g class="tick" style="opacity: 1;" transform="translate(660,0)"><line y2="6" x2="0" class="axis-line"/><text dy=".71em" style="text-anchor: middle;" y="9" x="0">4,000</text></g><g class="tick" style="opacity: 1;" transform="translate(770,0)"><line y2="6" x2="0" class="axis-line"/><text dy=".71em" style="text-anchor: middle;" y="9" x="0">4,500</text></g><g class="tick" style="opacity: 1;" transform="translate(880,0)"><line y2="6" x2="0" class="axis-line"/><text dy=".71em" style="text-anchor: middle;" y="9" x="0">5,000</text></g><path class="axis-path" d="M0,6V0H880V6"/><text x="440" y="40" style="text-anchor: middle;">Number of elements in the array</text></g><g class="y axis"><g class="tick" style="opacity: 1;" transform="translate(0,370.23553340315)"><line x2="-6" y2="0" class="axis-line"/><text dy=".32em" style="text-anchor: end;" x="-9" y="0">1.00e-3</text></g><g class="tick" style="opacity: 1;" transform="translate(0,321.7547672252009)"><line x2="-6" y2="0" class="axis-line"/><text dy=".32em" style="text-anchor: end;" x="-9" y="0">2.00e-3</text></g><g class="tick" style="opacity: 1;" transform="translate(0,273.2740010472518)"><line x2="-6" y2="0" class="axis-line"/><text dy=".32em" style="text-anchor: end;" x="-9" y="0">3.00e-3</text></g><g class="tick" style="opacity: 1;" transform="translate(0,224.79323486930264)"><line x2="-6" y2="0" class="axis-line"/><text dy=".32em" style="text-anchor: end;" x="-9" y="0">4.00e-3</text></g><g class="tick" style="opacity: 1;" transform="translate(0,176.31246869135347)"><line x2="-6" y2="0" class="axis-line"/><text dy=".32em" style="text-anchor: end;" x="-9" y="0">5.00e-3</text></g><g class="tick" style="opacity: 1;" transform="translate(0,127.83170251340437)"><line x2="-6" y2="0" class="axis-line"/><text dy=".32em" style="text-anchor: end;" x="-9" y="0">6.00e-3</text></g><g class="tick" style="opacity: 1;" transform="translate(0,79.35093633545524)"><line x2="-6" y2="0" class="axis-line"/><text dy=".32em" style="text-anchor: end;" x="-9" y="0">7.00e-3</text></g><g class="tick" style="opacity: 1;" transform="translate(0,30.870170157506127)"><line x2="-6" y2="0" class="axis-line"/><text dy=".32em" style="text-anchor: end;" x="-9" y="0">8.00e-3</text></g><path class="axis-path" d="M-6,0H0V400H-6"/><text transform="rotate(-90)" y="6" dy=".71em" style="text-anchor: end;">Mean running time (seconds)</text></g><g class="data-series-0 data-series-count-3"><circle cx="0" cy="400" r="3"/><circle cx="220" cy="375.3634684226229" r="3"/><circle cx="440" cy="350.846657401449" r="3"/><circle cx="660" cy="327.4456024311719" r="3"/><circle cx="880" cy="313.9133835832179" r="3"/><path class="error-bar" x="0" y="400" d="M 0 400 V 399.4282655342399 h -3 h 6 h -3 V 400.5717344657601 h -3 h 6"/><path class="error-bar" x="220" y="375.3634684226229" d="M 220 375.3634684226229 V 374.2308072467854 h -3 h 6 h -3 V 376.4961295984604 h -3 h 6"/><path class="error-bar" x="440" y="350.846657401449" d="M 440 350.846657401449 V 345.12987720211413 h -3 h 6 h -3 V 356.56343760078386 h -3 h 6"/><path class="error-bar" x="660" y="327.4456024311719" d="M 660 327.4456024311719 V 319.3677055863693 h -3 h 6 h -3 V 335.5234992759744 h -3 h 6"/><path class="error-bar" x="880" y="313.9133835832179" d="M 880 313.9133835832179 V 311.1549413923945 h -3 h 6 h -3 V 316.67182577404134 h -3 h 6"/><path class="line" d="M0,400L220,375.3634684226229L440,350.846657401449L660,327.4456024311719L880,313.9133835832179"/></g><g class="data-series-1 data-series-count-3"><circle cx="0" cy="389.4401271794442" r="3"/><circle cx="220" cy="351.31201866201104" r="3"/><circle cx="440" cy="312.7557187939334" r="3"/><circle cx="660" cy="274.56382462684405" r="3"/><circle cx="880" cy="236.01568170986585" r="3"/><path class="error-bar" x="0" y="389.4401271794442" d="M 0 389.4401271794442 V 388.060048490761 h -3 h 6 h -3 V 390.8202058681274 h -3 h 6"/><path class="error-bar" x="220" y="351.31201866201104" d="M 220 351.31201866201104 V 349.2488486018818 h -3 h 6 h -3 V 353.3751887221403 h -3 h 6"/><path class="error-bar" x="440" y="312.7557187939334" d="M 440 312.7557187939334 V 306.5487330583951 h -3 h 6 h -3 V 318.9627045294717 h -3 h 6"/><path class="error-bar" x="660" y="274.56382462684405" d="M 660 274.56382462684405 V 267.6439147017597 h -3 h 6 h -3 V 281.4837345519284 h -3 h 6"/><path class="error-bar" x="880" y="236.01568170986585" d="M 880 236.01568170986585 V 228.1167602143909 h -3 h 6 h -3 V 243.9146032053408 h -3 h 6"/><path class="line" d="M0,389.4401271794442L220,351.31201866201104L440,312.7557187939334L660,274.56382462684405L880,236.01568170986585"/></g><g class="data-series-2 data-series-count-3"><circle cx="0" cy="349.1572545029031" r="3"/><circle cx="220" cy="255.6840445122086" r="3"/><circle cx="440" cy="166.57811900266188" r="3"/><circle cx="660" cy="106.13332159726107" r="3"/><circle cx="880" cy="0" r="3"/><path class="error-bar" x="0" y="349.1572545029031" d="M 0 349.1572545029031 V 347.28944380974326 h -3 h 6 h -3 V 351.02506519606277 h -3 h 6"/><path class="error-bar" x="220" y="255.6840445122086" d="M 220 255.6840445122086 V 251.01286706455363 h -3 h 6 h -3 V 260.3552219598636 h -3 h 6"/><path class="error-bar" x="440" y="166.57811900266188" d="M 440 166.57811900266188 V 158.87720536820362 h -3 h 6 h -3 V 174.2790326371202 h -3 h 6"/><path class="error-bar" x="660" y="106.13332159726107" d="M 660 106.13332159726107 V 94.44593064568431 h -3 h 6 h -3 V 117.82071254883788 h -3 h 6"/><path class="error-bar" x="880" y="0" d="M 880 0 V -20.782205392780373 h -3 h 6 h -3 V 20.782205392780327 h -3 h 6"/><path class="line" d="M0,349.1572545029031L220,255.6840445122086L440,166.57811900266188L660,106.13332159726107L880,0"/></g><g class="legend" transform="translate(50, 50)"><rect x="0" y="0" width="15" height="15" class="data-series-0 data-series-count-3"/><rect x="0" y="20" width="15" height="15" class="data-series-1 data-series-count-3"/><rect x="0" y="40" width="15" height="15" class="data-series-2 data-series-count-3"/><text x="24" y="13">argonaut-codec</text><text x="24" y="33">json-codecs - SpeedyDecoder</text><text x="24" y="53">json-codecs - PlainPrettyDecoder</text></g></g><g transform="translate(960, 500)" class="graph-footer"><text style="text-anchor: end;">Ran on:</text><text style="text-anchor: end;" y="14">2023-09-04 13:44:32</text></g></g><line x1="0" y1="1095" x2="1000" y2="1095" class="graph-gap-line"/><g transform="translate(0, 1100)"><g transform="translate(80, 40)"><g transform="translate(440, 0)"><text style="text-anchor: middle; font-size: 28px;">Decoding an array of ints (unoptimized)*</text><text y="20" style="text-anchor: middle; font-size: 16px;">* Tag: json-codec-with-json</text></g><g class="x axis" transform="translate(0, 400)"><g class="tick" style="opacity: 1;" transform="translate(0,0)"><line y2="6" x2="0" class="axis-line"/><text dy=".71em" style="text-anchor: middle;" y="9" x="0">1,000</text></g><g class="tick" style="opacity: 1;" transform="translate(110,0)"><line y2="6" x2="0" class="axis-line"/><text dy=".71em" style="text-anchor: middle;" y="9" x="0">1,500</text></g><g class="tick" style="opacity: 1;" transform="translate(220,0)"><line y2="6" x2="0" class="axis-line"/><text dy=".71em" style="text-anchor: middle;" y="9" x="0">2,000</text></g><g class="tick" style="opacity: 1;" transform="translate(330,0)"><line y2="6" x2="0" class="axis-line"/><text dy=".71em" style="text-anchor: middle;" y="9" x="0">2,500</text></g><g class="tick" style="opacity: 1;" transform="translate(440,0)"><line y2="6" x2="0" class="axis-line"/><text dy=".71em" style="text-anchor: middle;" y="9" x="0">3,000</text></g><g class="tick" style="opacity: 1;" transform="translate(550,0)"><line y2="6" x2="0" class="axis-line"/><text dy=".71em" style="text-anchor: middle;" y="9" x="0">3,500</text></g><g class="tick" style="opacity: 1;" transform="translate(660,0)"><line y2="6" x2="0" class="axis-line"/><text dy=".71em" style="text-anchor: middle;" y="9" x="0">4,000</text></g><g class="tick" style="opacity: 1;" transform="translate(770,0)"><line y2="6" x2="0" class="axis-line"/><text dy=".71em" style="text-anchor: middle;" y="9" x="0">4,500</text></g><g class="tick" style="opacity: 1;" transform="translate(880,0)"><line y2="6" x2="0" class="axis-line"/><text dy=".71em" style="text-anchor: middle;" y="9" x="0">5,000</text></g><path class="axis-path" d="M0,6V0H880V6"/><text x="440" y="40" style="text-anchor: middle;">Number of elements in the array</text></g><g class="y axis"><g class="tick" style="opacity: 1;" transform="translate(0,363.9184989134772)"><line x2="-6" y2="0" class="axis-line"/><text dy=".32em" style="text-anchor: end;" x="-9" y="0">1.00e-3</text></g><g class="tick" style="opacity: 1;" transform="translate(0,316.26492149619844)"><line x2="-6" y2="0" class="axis-line"/><text dy=".32em" style="text-anchor: end;" x="-9" y="0">2.00e-3</text></g><g class="tick" style="opacity: 1;" transform="translate(0,268.6113440789196)"><line x2="-6" y2="0" class="axis-line"/><text dy=".32em" style="text-anchor: end;" x="-9" y="0">3.00e-3</text></g><g class="tick" style="opacity: 1;" transform="translate(0,220.95776666164082)"><line x2="-6" y2="0" class="axis-line"/><text dy=".32em" style="text-anchor: end;" x="-9" y="0">4.00e-3</text></g><g class="tick" style="opacity: 1;" transform="translate(0,173.30418924436205)"><line x2="-6" y2="0" class="axis-line"/><text dy=".32em" style="text-anchor: end;" x="-9" y="0">5.00e-3</text></g><g class="tick" style="opacity: 1;" transform="translate(0,125.65061182708321)"><line x2="-6" y2="0" class="axis-line"/><text dy=".32em" style="text-anchor: end;" x="-9" y="0">6.00e-3</text></g><g class="tick" style="opacity: 1;" transform="translate(0,77.99703440980443)"><line x2="-6" y2="0" class="axis-line"/><text dy=".32em" style="text-anchor: end;" x="-9" y="0">7.00e-3</text></g><g class="tick" style="opacity: 1;" transform="translate(0,30.343456992525653)"><line x2="-6" y2="0" class="axis-line"/><text dy=".32em" style="text-anchor: end;" x="-9" y="0">8.00e-3</text></g><path class="axis-path" d="M-6,0H0V400H-6"/><text transform="rotate(-90)" y="6" dy=".71em" style="text-anchor: end;">Mean running time (seconds)</text></g><g class="data-series-0 data-series-count-3"><circle cx="0" cy="400" r="3"/><circle cx="220" cy="387.31905568539975" r="3"/><circle cx="440" cy="375.6136886667234" r="3"/><circle cx="660" cy="363.521433799258" r="3"/><circle cx="880" cy="351.2787089024546" r="3"/><path class="error-bar" x="0" y="400" d="M 0 400 V 398.7953996349823 h -3 h 6 h -3 V 401.20460036501777 h -3 h 6"/><path class="error-bar" x="220" y="387.31905568539975" d="M 220 387.31905568539975 V 384.7231129794654 h -3 h 6 h -3 V 389.9149983913341 h -3 h 6"/><path class="error-bar" x="440" y="375.6136886667234" d="M 440 375.6136886667234 V 374.44812532126787 h -3 h 6 h -3 V 376.77925201217903 h -3 h 6"/><path class="error-bar" x="660" y="363.521433799258" d="M 660 363.521433799258 V 361.2636652312469 h -3 h 6 h -3 V 365.779202367269 h -3 h 6"/><path class="error-bar" x="880" y="351.2787089024546" d="M 880 351.2787089024546 V 348.8652624317808 h -3 h 6 h -3 V 353.69215537312834 h -3 h 6"/><path class="line" d="M0,400L220,387.31905568539975L440,375.6136886667234L660,363.521433799258L880,351.2787089024546"/></g><g class="data-series-1 data-series-count-3"><circle cx="0" cy="382.79541997794416" r="3"/><circle cx="220" cy="345.31786105610684" r="3"/><circle cx="440" cy="307.4194166721369" r="3"/><circle cx="660" cy="269.87916042446017" r="3"/><circle cx="880" cy="231.9887338160196" r="3"/><path class="error-bar" x="0" y="382.79541997794416" d="M 0 382.79541997794416 V 381.4388884744669 h -3 h 6 h -3 V 384.15195148142135 h -3 h 6"/><path class="error-bar" x="220" y="345.31786105610684" d="M 220 345.31786105610684 V 343.28989322605014 h -3 h 6 h -3 V 347.3458288861635 h -3 h 6"/><path class="error-bar" x="440" y="307.4194166721369" d="M 440 307.4194166721369 V 301.318335798317 h -3 h 6 h -3 V 313.5204975459568 h -3 h 6"/><path class="error-bar" x="660" y="269.87916042446017" d="M 660 269.87916042446017 V 263.07731941961254 h -3 h 6 h -3 V 276.6810014293078 h -3 h 6"/><path class="error-bar" x="880" y="231.9887338160196" d="M 880 231.9887338160196 V 224.22458533668248 h -3 h 6 h -3 V 239.75288229535673 h -3 h 6"/><path class="line" d="M0,382.79541997794416L220,345.31786105610684L440,307.4194166721369L660,269.87916042446017L880,231.9887338160196"/></g><g class="data-series-2 data-series-count-3"><circle cx="0" cy="343.19986192434527" r="3"/><circle cx="220" cy="251.3215109844397" r="3"/><circle cx="440" cy="163.73592902350939" r="3"/><circle cx="660" cy="104.32245312963792" r="3"/><circle cx="880" cy="0" r="3"/><path class="error-bar" x="0" y="343.19986192434527" d="M 0 343.19986192434527 V 341.3639201997321 h -3 h 6 h -3 V 345.0358036489584 h -3 h 6"/><path class="error-bar" x="220" y="251.3215109844397" d="M 220 251.3215109844397 V 246.7300341229845 h -3 h 6 h -3 V 255.91298784589492 h -3 h 6"/><path class="error-bar" x="440" y="163.73592902350939" d="M 440 163.73592902350939 V 156.16640995451516 h -3 h 6 h -3 V 171.30544809250364 h -3 h 6"/><path class="error-bar" x="660" y="104.32245312963792" d="M 660 104.32245312963792 V 92.83447483588132 h -3 h 6 h -3 V 115.81043142339453 h -3 h 6"/><path class="error-bar" x="880" y="0" d="M 880 0 V -20.42761514848115 h -3 h 6 h -3 V 20.42761514848115 h -3 h 6"/><path class="line" d="M0,343.19986192434527L220,251.3215109844397L440,163.73592902350939L660,104.32245312963792L880,0"/></g><g class="legend" transform="translate(50, 50)"><rect x="0" y="0" width="15" height="15" class="data-series-0 data-series-count-3"/><rect x="0" y="20" width="15" height="15" class="data-series-1 data-series-count-3"/><rect x="0" y="40" width="15" height="15" class="data-series-2 data-series-count-3"/><text x="24" y="13">json</text><text x="24" y="33">json-codecs - SpeedyDecoder</text><text x="24" y="53">json-codecs - PlainPrettyDecoder</text></g></g><g transform="translate(960, 500)" class="graph-footer"><text style="text-anchor: end;">Ran on:</text><text style="text-anchor: end;" y="14">2023-09-04 13:44:32</text></g></g><line x1="0" y1="1645" x2="1000" y2="1645" class="graph-gap-line"/><g transform="translate(0, 1650)"><g transform="translate(80, 40)"><g transform="translate(440, 0)"><text style="text-anchor: middle; font-size: 28px;">Decoding an array of ints (unoptimized)*</text><text y="20" style="text-anchor: middle; font-size: 16px;">* Tag: json-codec-with-baseline</text></g><g class="x axis" transform="translate(0, 400)"><g class="tick" style="opacity: 1;" transform="translate(0,0)"><line y2="6" x2="0" class="axis-line"/><text dy=".71em" style="text-anchor: middle;" y="9" x="0">1,000</text></g><g class="tick" style="opacity: 1;" transform="translate(110,0)"><line y2="6" x2="0" class="axis-line"/><text dy=".71em" style="text-anchor: middle;" y="9" x="0">1,500</text></g><g class="tick" style="opacity: 1;" transform="translate(220,0)"><line y2="6" x2="0" class="axis-line"/><text dy=".71em" style="text-anchor: middle;" y="9" x="0">2,000</text></g><g class="tick" style="opacity: 1;" transform="translate(330,0)"><line y2="6" x2="0" class="axis-line"/><text dy=".71em" style="text-anchor: middle;" y="9" x="0">2,500</text></g><g class="tick" style="opacity: 1;" transform="translate(440,0)"><line y2="6" x2="0" class="axis-line"/><text dy=".71em" style="text-anchor: middle;" y="9" x="0">3,000</text></g><g class="tick" style="opacity: 1;" transform="translate(550,0)"><line y2="6" x2="0" class="axis-line"/><text dy=".71em" style="text-anchor: middle;" y="9" x="0">3,500</text></g><g class="tick" style="opacity: 1;" transform="translate(660,0)"><line y2="6" x2="0" class="axis-line"/><text dy=".71em" style="text-anchor: middle;" y="9" x="0">4,000</text></g><g class="tick" style="opacity: 1;" transform="translate(770,0)"><line y2="6" x2="0" class="axis-line"/><text dy=".71em" style="text-anchor: middle;" y="9" x="0">4,500</text></g><g class="tick" style="opacity: 1;" transform="translate(880,0)"><line y2="6" x2="0" class="axis-line"/><text dy=".71em" style="text-anchor: middle;" y="9" x="0">5,000</text></g><path class="axis-path" d="M0,6V0H880V6"/><text x="440" y="40" style="text-anchor: middle;">Number of elements in the array</text></g><g class="y axis"><g class="tick" style="opacity: 1;" transform="translate(0,353.68776672508784)"><line x2="-6" y2="0" class="axis-line"/><text dy=".32em" style="text-anchor: end;" x="-9" y="0">1.00e-3</text></g><g class="tick" style="opacity: 1;" transform="translate(0,307.373860112757)"><line x2="-6" y2="0" class="axis-line"/><text dy=".32em" style="text-anchor: end;" x="-9" y="0">2.00e-3</text></g><g class="tick" style="opacity: 1;" transform="translate(0,261.0599535004261)"><line x2="-6" y2="0" class="axis-line"/><text dy=".32em" style="text-anchor: end;" x="-9" y="0">3.00e-3</text></g><g class="tick" style="opacity: 1;" transform="translate(0,214.74604688809524)"><line x2="-6" y2="0" class="axis-line"/><text dy=".32em" style="text-anchor: end;" x="-9" y="0">4.00e-3</text></g><g class="tick" style="opacity: 1;" transform="translate(0,168.4321402757644)"><line x2="-6" y2="0" class="axis-line"/><text dy=".32em" style="text-anchor: end;" x="-9" y="0">5.00e-3</text></g><g class="tick" style="opacity: 1;" transform="translate(0,122.11823366343349)"><line x2="-6" y2="0" class="axis-line"/><text dy=".32em" style="text-anchor: end;" x="-9" y="0">6.00e-3</text></g><g class="tick" style="opacity: 1;" transform="translate(0,75.80432705110263)"><line x2="-6" y2="0" class="axis-line"/><text dy=".32em" style="text-anchor: end;" x="-9" y="0">7.00e-3</text></g><g class="tick" style="opacity: 1;" transform="translate(0,29.490420438771725)"><line x2="-6" y2="0" class="axis-line"/><text dy=".32em" style="text-anchor: end;" x="-9" y="0">8.00e-3</text></g><path class="axis-path" d="M-6,0H0V400H-6"/><text transform="rotate(-90)" y="6" dy=".71em" style="text-anchor: end;">Mean running time (seconds)</text></g><g class="data-series-0 data-series-count-3"><circle cx="0" cy="372.0340065394163" r="3"/><circle cx="220" cy="335.6100430504813" r="3"/><circle cx="440" cy="298.7770263268435" r="3"/><circle cx="660" cy="262.2921281032852" r="3"/><circle cx="880" cy="225.46690375384534" r="3"/><path class="error-bar" x="0" y="372.0340065394163" d="M 0 372.0340065394163 V 370.71561080138827 h -3 h 6 h -3 V 373.35240227744436 h -3 h 6"/><path class="error-bar" x="220" y="335.6100430504813" d="M 220 335.6100430504813 V 333.63908687500634 h -3 h 6 h -3 V 337.58099922595613 h -3 h 6"/><path class="error-bar" x="440" y="298.7770263268435" d="M 440 298.7770263268435 V 292.8474633194308 h -3 h 6 h -3 V 304.70658933425614 h -3 h 6"/><path class="error-bar" x="660" y="262.2921281032852" d="M 660 262.2921281032852 V 255.6815052253434 h -3 h 6 h -3 V 268.9027509812271 h -3 h 6"/><path class="error-bar" x="880" y="225.46690375384534" d="M 880 225.46690375384534 V 217.92102646434924 h -3 h 6 h -3 V 233.0127810433415 h -3 h 6"/><path class="line" d="M0,372.0340065394163L220,335.6100430504813L440,298.7770263268435L660,262.2921281032852L880,225.46690375384534"/></g><g class="data-series-1 data-series-count-3"><circle cx="0" cy="333.5515865964263" r="3"/><circle cx="220" cy="244.25618432547677" r="3"/><circle cx="440" cy="159.13286969990264" r="3"/><circle cx="660" cy="101.38966712839954" r="3"/><circle cx="880" cy="0" r="3"/><path class="error-bar" x="0" y="333.5515865964263" d="M 0 333.5515865964263 V 331.76725815378177 h -3 h 6 h -3 V 335.33591503907087 h -3 h 6"/><path class="error-bar" x="220" y="244.25618432547677" d="M 220 244.25618432547677 V 239.79378628320492 h -3 h 6 h -3 V 248.71858236774864 h -3 h 6"/><path class="error-bar" x="440" y="159.13286969990264" d="M 440 159.13286969990264 V 151.77615026220224 h -3 h 6 h -3 V 166.48958913760308 h -3 h 6"/><path class="error-bar" x="660" y="101.38966712839954" d="M 660 101.38966712839954 V 90.22464694108807 h -3 h 6 h -3 V 112.554687315711 h -3 h 6"/><path class="error-bar" x="880" y="0" d="M 880 0 V -19.853339698193384 h -3 h 6 h -3 V 19.853339698193338 h -3 h 6"/><path class="line" d="M0,333.5515865964263L220,244.25618432547677L440,159.13286969990264L660,101.38966712839954L880,0"/></g><g class="data-series-2 data-series-count-3"><circle cx="0" cy="399.9999929413566" r="3"/><circle cx="220" cy="400" r="3"/><circle cx="440" cy="399.99964167206537" r="3"/><circle cx="660" cy="399.99995118443593" r="3"/><circle cx="880" cy="399.99998903690204" r="3"/><path class="error-bar" x="0" y="399.9999929413566" d="M 0 399.9999929413566 V 399.99992285257406 h -3 h 6 h -3 V 400.00006303013913 h -3 h 6"/><path class="error-bar" x="220" y="400" d="M 220 400 V 399.9999232506569 h -3 h 6 h -3 V 400.0000767493431 h -3 h 6"/><path class="error-bar" x="440" y="399.99964167206537" d="M 440 399.99964167206537 V 399.9995355489505 h -3 h 6 h -3 V 399.99974779518027 h -3 h 6"/><path class="error-bar" x="660" y="399.99995118443593" d="M 660 399.99995118443593 V 399.9996533024125 h -3 h 6 h -3 V 400.0002490664593 h -3 h 6"/><path class="error-bar" x="880" y="399.99998903690204" d="M 880 399.99998903690204 V 399.99980467359336 h -3 h 6 h -3 V 400.0001734002107 h -3 h 6"/><path class="line" d="M0,399.9999929413566L220,400L440,399.99964167206537L660,399.99995118443593L880,399.99998903690204"/></g><g class="legend" transform="translate(50, 50)"><rect x="0" y="0" width="15" height="15" class="data-series-0 data-series-count-3"/><rect x="0" y="20" width="15" height="15" class="data-series-1 data-series-count-3"/><rect x="0" y="40" width="15" height="15" class="data-series-2 data-series-count-3"/><text x="24" y="13">json-codecs - SpeedyDecoder</text><text x="24" y="33">json-codecs - PlainPrettyDecoder</text><text x="24" y="53">unsafeCoerce</text></g></g><g transform="translate(960, 500)" class="graph-footer"><text style="text-anchor: end;">Ran on:</text><text style="text-anchor: end;" y="14">2023-09-04 13:44:32</text></g></g><line x1="0" y1="2195" x2="1000" y2="2195" class="graph-gap-line"/><g transform="translate(0, 2200)"><g transform="translate(80, 40)"><g transform="translate(440, 0)"><text style="text-anchor: middle; font-size: 28px;">Decoding an array of ints (unoptimized)*</text><text y="20" style="text-anchor: middle; font-size: 16px;">* Tag: json-codec-with-codec-argonaut</text></g><g class="x axis" transform="translate(0, 400)"><g class="tick" style="opacity: 1;" transform="translate(0,0)"><line y2="6" x2="0" class="axis-line"/><text dy=".71em" style="text-anchor: middle;" y="9" x="0">1,000</text></g><g class="tick" style="opacity: 1;" transform="translate(110,0)"><line y2="6" x2="0" class="axis-line"/><text dy=".71em" style="text-anchor: middle;" y="9" x="0">1,500</text></g><g class="tick" style="opacity: 1;" transform="translate(220,0)"><line y2="6" x2="0" class="axis-line"/><text dy=".71em" style="text-anchor: middle;" y="9" x="0">2,000</text></g><g class="tick" style="opacity: 1;" transform="translate(330,0)"><line y2="6" x2="0" class="axis-line"/><text dy=".71em" style="text-anchor: middle;" y="9" x="0">2,500</text></g><g class="tick" style="opacity: 1;" transform="translate(440,0)"><line y2="6" x2="0" class="axis-line"/><text dy=".71em" style="text-anchor: middle;" y="9" x="0">3,000</text></g><g class="tick" style="opacity: 1;" transform="translate(550,0)"><line y2="6" x2="0" class="axis-line"/><text dy=".71em" style="text-anchor: middle;" y="9" x="0">3,500</text></g><g class="tick" style="opacity: 1;" transform="translate(660,0)"><line y2="6" x2="0" class="axis-line"/><text dy=".71em" style="text-anchor: middle;" y="9" x="0">4,000</text></g><g class="tick" style="opacity: 1;" transform="translate(770,0)"><line y2="6" x2="0" class="axis-line"/><text dy=".71em" style="text-anchor: middle;" y="9" x="0">4,500</text></g><g class="tick" style="opacity: 1;" transform="translate(880,0)"><line y2="6" x2="0" class="axis-line"/><text dy=".71em" style="text-anchor: middle;" y="9" x="0">5,000</text></g><path class="axis-path" d="M0,6V0H880V6"/><text x="440" y="40" style="text-anchor: middle;">Number of elements in the array</text></g><g class="y axis"><g class="tick" style="opacity: 1;" transform="translate(0,371.15886307440206)"><line x2="-6" y2="0" class="axis-line"/><text dy=".32em" style="text-anchor: end;" x="-9" y="0">1.00e-3</text></g><g class="tick" style="opacity: 1;" transform="translate(0,322.5571908086832)"><line x2="-6" y2="0" class="axis-line"/><text dy=".32em" style="text-anchor: end;" x="-9" y="0">2.00e-3</text></g><g class="tick" style="opacity: 1;" transform="translate(0,273.9555185429642)"><line x2="-6" y2="0" class="axis-line"/><text dy=".32em" style="text-anchor: end;" x="-9" y="0">3.00e-3</text></g><g class="tick" style="opacity: 1;" transform="translate(0,225.35384627724534)"><line x2="-6" y2="0" class="axis-line"/><text dy=".32em" style="text-anchor: end;" x="-9" y="0">4.00e-3</text></g><g class="tick" style="opacity: 1;" transform="translate(0,176.75217401152645)"><line x2="-6" y2="0" class="axis-line"/><text dy=".32em" style="text-anchor: end;" x="-9" y="0">5.00e-3</text></g><g class="tick" style="opacity: 1;" transform="translate(0,128.15050174580756)"><line x2="-6" y2="0" class="axis-line"/><text dy=".32em" style="text-anchor: end;" x="-9" y="0">6.00e-3</text></g><g class="tick" style="opacity: 1;" transform="translate(0,79.54882948008866)"><line x2="-6" y2="0" class="axis-line"/><text dy=".32em" style="text-anchor: end;" x="-9" y="0">7.00e-3</text></g><g class="tick" style="opacity: 1;" transform="translate(0,30.94715721436976)"><line x2="-6" y2="0" class="axis-line"/><text dy=".32em" style="text-anchor: end;" x="-9" y="0">8.00e-3</text></g><path class="axis-path" d="M-6,0H0V400H-6"/><text transform="rotate(-90)" y="6" dy=".71em" style="text-anchor: end;">Mean running time (seconds)</text></g><g class="data-series-0 data-series-count-3"><circle cx="0" cy="390.4113511494822" r="3"/><circle cx="220" cy="352.18815501693206" r="3"/><circle cx="440" cy="313.5356996681672" r="3"/><circle cx="660" cy="275.2485588110542" r="3"/><circle cx="880" cy="236.60428075599307" r="3"/><path class="error-bar" x="0" y="390.4113511494822" d="M 0 390.4113511494822 V 389.0278306852617 h -3 h 6 h -3 V 391.7948716137027 h -3 h 6"/><path class="error-bar" x="220" y="352.18815501693206" d="M 220 352.18815501693206 V 350.11983962103284 h -3 h 6 h -3 V 354.25647041283133 h -3 h 6"/><path class="error-bar" x="440" y="313.5356996681672" d="M 440 313.5356996681672 V 307.31323434306603 h -3 h 6 h -3 V 319.75816499326834 h -3 h 6"/><path class="error-bar" x="660" y="275.2485588110542" d="M 660 275.2485588110542 V 268.31139133616773 h -3 h 6 h -3 V 282.1857262859407 h -3 h 6"/><path class="error-bar" x="880" y="236.60428075599307" d="M 880 236.60428075599307 V 228.68566015567905 h -3 h 6 h -3 V 244.5229013563071 h -3 h 6"/><path class="line" d="M0,390.4113511494822L220,352.18815501693206L440,313.5356996681672L660,275.2485588110542L880,236.60428075599307"/></g><g class="data-series-1 data-series-count-3"><circle cx="0" cy="350.0280170957101" r="3"/><circle cx="220" cy="256.32169444978706" r="3"/><circle cx="440" cy="166.9935478472214" r="3"/><circle cx="660" cy="106.39800728001703" r="3"/><circle cx="880" cy="0" r="3"/><path class="error-bar" x="0" y="350.0280170957101" d="M 0 350.0280170957101 V 348.15554827312275 h -3 h 6 h -3 V 351.9004859182974 h -3 h 6"/><path class="error-bar" x="220" y="256.32169444978706" d="M 220 256.32169444978706 V 251.6388675618489 h -3 h 6 h -3 V 261.0045213377253 h -3 h 6"/><path class="error-bar" x="440" y="166.9935478472214" d="M 440 166.9935478472214 V 159.27342891934057 h -3 h 6 h -3 V 174.71366677510218 h -3 h 6"/><path class="error-bar" x="660" y="106.39800728001703" d="M 660 106.39800728001703 V 94.68146916704833 h -3 h 6 h -3 V 118.11454539298572 h -3 h 6"/><path class="error-bar" x="880" y="0" d="M 880 0 V -20.83403409408522 h -3 h 6 h -3 V 20.83403409408526 h -3 h 6"/><path class="line" d="M0,350.0280170957101L220,256.32169444978706L440,166.9935478472214L660,106.39800728001703L880,0"/></g><g class="data-series-2 data-series-count-3"><circle cx="0" cy="400" r="3"/><circle cx="220" cy="377.17931702252355" r="3"/><circle cx="440" cy="354.0460378429901" r="3"/><circle cx="660" cy="330.20576063237365" r="3"/><circle cx="880" cy="307.4139322676073" r="3"/><path class="error-bar" x="0" y="400" d="M 0 400 V 399.02178232036516 h -3 h 6 h -3 V 400.97821767963484 h -3 h 6"/><path class="error-bar" x="220" y="377.17931702252355" d="M 220 377.17931702252355 V 375.34415790709687 h -3 h 6 h -3 V 379.01447613795017 h -3 h 6"/><path class="error-bar" x="440" y="354.0460378429901" d="M 440 354.0460378429901 V 351.15376494217486 h -3 h 6 h -3 V 356.9383107438053 h -3 h 6"/><path class="error-bar" x="660" y="330.20576063237365" d="M 660 330.20576063237365 V 326.7745218739331 h -3 h 6 h -3 V 333.63699939081414 h -3 h 6"/><path class="error-bar" x="880" y="307.4139322676073" d="M 880 307.4139322676073 V 303.7191360184203 h -3 h 6 h -3 V 311.1087285167943 h -3 h 6"/><path class="line" d="M0,400L220,377.17931702252355L440,354.0460378429901L660,330.20576063237365L880,307.4139322676073"/></g><g class="legend" transform="translate(50, 50)"><rect x="0" y="0" width="15" height="15" class="data-series-0 data-series-count-3"/><rect x="0" y="20" width="15" height="15" class="data-series-1 data-series-count-3"/><rect x="0" y="40" width="15" height="15" class="data-series-2 data-series-count-3"/><text x="24" y="13">json-codecs - SpeedyDecoder</text><text x="24" y="33">json-codecs - PlainPrettyDecoder</text><text x="24" y="53">codec-argonaut</text></g></g><g transform="translate(960, 500)" class="graph-footer"><text style="text-anchor: end;">Ran on:</text><text style="text-anchor: end;" y="14">2023-09-04 13:44:32</text></g></g></svg>