<svg xmlns="http://www.w3.org/2000/svg" width="1000" height="2740"><defs><style type="text/css">
    /* https://www.vis4.net/palettes/#/9|d|00429d,96ffea|ffffe0,ff005e,93003a|1|1 */
    :root {
    --data-series-0--1-only: #000;

    --data-series-0--3-or-less: #00429d;
    --data-series-1--3-or-less: #96ffea;
    --data-series-2--3-or-less: #93003a;

    --data-series-0--5-or-less: #00429d;
    --data-series-1--5-or-less: #629cc4;
    --data-series-2--5-or-less: #96ffea;
    --data-series-3--5-or-less: #f4777f;
    --data-series-4--5-or-less: #93003a;

    --data-series-0--7-or-less: #00429d;
    --data-series-1--7-or-less: #4d7cb7;
    --data-series-2--7-or-less: #74bcd1;
    --data-series-3--7-or-less: #96ffea;
    --data-series-4--7-or-less: #ffa59e;
    --data-series-5--7-or-less: #dd4c65;
    --data-series-6--7-or-less: #93003a;

    --data-series-0--9-or-less: #00429d;
    --data-series-1--9-or-less: #416db1;
    --data-series-2--9-or-less: #629cc4;
    --data-series-3--9-or-less: #7dccd7;
    --data-series-4--9-or-less: #96ffea;
    --data-series-5--9-or-less: #ffbcaf;
    --data-series-6--9-or-less: #f4777f;
    --data-series-7--9-or-less: #cf3759;
    --data-series-8--9-or-less: #93003a;
    }

    .background {
    fill: white;
    }

    text {
    font-size: 14px;
    font-family: sans-serif;
    }

    .axis-path,
    .axis-line {
    fill: none;
    stroke: #000;
    stroke-width: 1px;
    shape-rendering: crispEdges;
    }

    .line {
    fill: none;
    stroke-width: 1.5px;
    }

    .error-bar {
    fill: none;
    }

    /* Series of 1 */

    .data-series-0.data-series-count-1 {
    stroke: var(--data-series-0--1-only);
    fill: var(--data-series-0--1-only);
    }

    /* Series of 3 */

    .data-series-0.data-series-count-3,
    .data-series-0.data-series-count-2 {
    stroke: var(--data-series-0--3-or-less);
    fill: var(--data-series-0--3-or-less);
    }

    .data-series-1.data-series-count-3,
    .data-series-1.data-series-count-2 {
    stroke: var(--data-series-1--3-or-less);
    fill: var(--data-series-1--3-or-less);
    }

    .data-series-2.data-series-count-3,
    .data-series-2.data-series-count-2 {
    stroke: var(--data-series-2--3-or-less);
    fill: var(--data-series-2--3-or-less);
    }

    /* Series of 5 */

    .data-series-0.data-series-count-5,
    .data-series-0.data-series-count-4 {
    stroke: var(--data-series-0--5-or-less);
    fill: var(--data-series-0--5-or-less);
    }

    .data-series-1.data-series-count-5,
    .data-series-1.data-series-count-4 {
    stroke: var(--data-series-1--5-or-less);
    fill: var(--data-series-1--5-or-less);
    }

    .data-series-2.data-series-count-5,
    .data-series-2.data-series-count-4 {
    stroke: var(--data-series-2--5-or-less);
    fill: var(--data-series-2--5-or-less);
    }

    .data-series-3.data-series-count-5,
    .data-series-3.data-series-count-4 {
    stroke: var(--data-series-3--5-or-less);
    fill: var(--data-series-3--5-or-less);
    }

    .data-series-4.data-series-count-5,
    .data-series-4.data-series-count-4 {
    stroke: var(--data-series-4--5-or-less);
    fill: var(--data-series-4--5-or-less);
    }

    /* Series of 7 */

    .data-series-0.data-series-count-7,
    .data-series-0.data-series-count-6 {
    stroke: var(--data-series-0--7-or-less);
    fill: var(--data-series-0--7-or-less);
    }

    .data-series-1.data-series-count-7,
    .data-series-1.data-series-count-6 {
    stroke: var(--data-series-1--7-or-less);
    fill: var(--data-series-1--7-or-less);
    }

    .data-series-2.data-series-count-7,
    .data-series-2.data-series-count-6 {
    stroke: var(--data-series-2--7-or-less);
    fill: var(--data-series-2--7-or-less);
    }

    .data-series-3.data-series-count-7,
    .data-series-3.data-series-count-6 {
    stroke: var(--data-series-3--7-or-less);
    fill: var(--data-series-3--7-or-less);
    }

    .data-series-4.data-series-count-7,
    .data-series-4.data-series-count-6 {
    stroke: var(--data-series-4--7-or-less);
    fill: var(--data-series-4--7-or-less);
    }

    .data-series-5.data-series-count-7,
    .data-series-5.data-series-count-6 {
    stroke: var(--data-series-5--7-or-less);
    fill: var(--data-series-5--7-or-less);
    }

    .data-series-6.data-series-count-7,
    .data-series-6.data-series-count-6 {
    stroke: var(--data-series-6--7-or-less);
    fill: var(--data-series-6--7-or-less);
    }

    /* Series of 9 */

    .data-series-0.data-series-count-9,
    .data-series-0.data-series-count-8 {
    stroke: var(--data-series-0--9-or-less);
    fill: var(--data-series-0--9-or-less);
    }

    .data-series-1.data-series-count-9,
    .data-series-1.data-series-count-8 {
    stroke: var(--data-series-1--9-or-less);
    fill: var(--data-series-1--9-or-less);
    }

    .data-series-2.data-series-count-9,
    .data-series-2.data-series-count-8 {
    stroke: var(--data-series-2--9-or-less);
    fill: var(--data-series-2--9-or-less);
    }

    .data-series-3.data-series-count-9,
    .data-series-3.data-series-count-8 {
    stroke: var(--data-series-3--9-or-less);
    fill: var(--data-series-3--9-or-less);
    }

    .data-series-4.data-series-count-9,
    .data-series-4.data-series-count-8 {
    stroke: var(--data-series-4--9-or-less);
    fill: var(--data-series-4--9-or-less);
    }

    .data-series-5.data-series-count-9,
    .data-series-5.data-series-count-8 {
    stroke: var(--data-series-5--9-or-less);
    fill: var(--data-series-5--9-or-less);
    }

    .data-series-6.data-series-count-9,
    .data-series-6.data-series-count-8 {
    stroke: var(--data-series-6--9-or-less);
    fill: var(--data-series-6--9-or-less);
    }

    .data-series-7.data-series-count-9,
    .data-series-7.data-series-count-8 {
    stroke: var(--data-series-7--9-or-less);
    fill: var(--data-series-7--9-or-less);
    }

    .data-series-8.data-series-count-9,
    .data-series-8.data-series-count-8 {
    stroke: var(--data-series-8--9-or-less);
    fill: var(--data-series-8--9-or-less);
    }
  </style></defs><rect width="1000" height="2740" class="background"/><g transform="translate(0, 0)"><g transform="translate(80, 40)"><g transform="translate(440, 0)"><text style="text-anchor: middle; font-size: 28px;">Decoding an array of ints (optimized)</text></g><g class="x axis" transform="translate(0, 400)"><g class="tick" style="opacity: 1;" transform="translate(0,0)"><line y2="6" x2="0" class="axis-line"/><text dy=".71em" style="text-anchor: middle;" y="9" x="0">1,000</text></g><g class="tick" style="opacity: 1;" transform="translate(110,0)"><line y2="6" x2="0" class="axis-line"/><text dy=".71em" style="text-anchor: middle;" y="9" x="0">1,500</text></g><g class="tick" style="opacity: 1;" transform="translate(220,0)"><line y2="6" x2="0" class="axis-line"/><text dy=".71em" style="text-anchor: middle;" y="9" x="0">2,000</text></g><g class="tick" style="opacity: 1;" transform="translate(330,0)"><line y2="6" x2="0" class="axis-line"/><text dy=".71em" style="text-anchor: middle;" y="9" x="0">2,500</text></g><g class="tick" style="opacity: 1;" transform="translate(440,0)"><line y2="6" x2="0" class="axis-line"/><text dy=".71em" style="text-anchor: middle;" y="9" x="0">3,000</text></g><g class="tick" style="opacity: 1;" transform="translate(550,0)"><line y2="6" x2="0" class="axis-line"/><text dy=".71em" style="text-anchor: middle;" y="9" x="0">3,500</text></g><g class="tick" style="opacity: 1;" transform="translate(660,0)"><line y2="6" x2="0" class="axis-line"/><text dy=".71em" style="text-anchor: middle;" y="9" x="0">4,000</text></g><g class="tick" style="opacity: 1;" transform="translate(770,0)"><line y2="6" x2="0" class="axis-line"/><text dy=".71em" style="text-anchor: middle;" y="9" x="0">4,500</text></g><g class="tick" style="opacity: 1;" transform="translate(880,0)"><line y2="6" x2="0" class="axis-line"/><text dy=".71em" style="text-anchor: middle;" y="9" x="0">5,000</text></g><path class="axis-path" d="M0,6V0H880V6"/><text x="440" y="40" style="text-anchor: middle;">Number of elements in the array</text></g><g class="y axis"><g class="tick" style="opacity: 1;" transform="translate(0,349.1395782920183)"><line x2="-6" y2="0" class="axis-line"/><text dy=".32em" style="text-anchor: end;" x="-9" y="0">1.00e-3</text></g><g class="tick" style="opacity: 1;" transform="translate(0,298.2777635082315)"><line x2="-6" y2="0" class="axis-line"/><text dy=".32em" style="text-anchor: end;" x="-9" y="0">2.00e-3</text></g><g class="tick" style="opacity: 1;" transform="translate(0,247.41594872444463)"><line x2="-6" y2="0" class="axis-line"/><text dy=".32em" style="text-anchor: end;" x="-9" y="0">3.00e-3</text></g><g class="tick" style="opacity: 1;" transform="translate(0,196.5541339406578)"><line x2="-6" y2="0" class="axis-line"/><text dy=".32em" style="text-anchor: end;" x="-9" y="0">4.00e-3</text></g><g class="tick" style="opacity: 1;" transform="translate(0,145.692319156871)"><line x2="-6" y2="0" class="axis-line"/><text dy=".32em" style="text-anchor: end;" x="-9" y="0">5.00e-3</text></g><g class="tick" style="opacity: 1;" transform="translate(0,94.83050437308415)"><line x2="-6" y2="0" class="axis-line"/><text dy=".32em" style="text-anchor: end;" x="-9" y="0">6.00e-3</text></g><g class="tick" style="opacity: 1;" transform="translate(0,43.96868958929731)"><line x2="-6" y2="0" class="axis-line"/><text dy=".32em" style="text-anchor: end;" x="-9" y="0">7.00e-3</text></g><path class="axis-path" d="M-6,0H0V400H-6"/><text transform="rotate(-90)" y="6" dy=".71em" style="text-anchor: end;">Mean running time (seconds)</text></g><g class="data-series-0 data-series-count-6"><circle cx="0" cy="385.8119375940941" r="3"/><circle cx="220" cy="367.69305506865" r="3"/><circle cx="440" cy="348.1849260638707" r="3"/><circle cx="660" cy="328.42423276286166" r="3"/><circle cx="880" cy="309.76323129308116" r="3"/><path class="error-bar" x="0" y="385.8119375940941" d="M 0 385.8119375940941 V 385.3940296843371 h -3 h 6 h -3 V 386.229845503851 h -3 h 6"/><path class="error-bar" x="220" y="367.69305506865" d="M 220 367.69305506865 V 366.4593241907152 h -3 h 6 h -3 V 368.92678594658474 h -3 h 6"/><path class="error-bar" x="440" y="348.1849260638707" d="M 440 348.1849260638707 V 344.2679987290682 h -3 h 6 h -3 V 352.10185339867326 h -3 h 6"/><path class="error-bar" x="660" y="328.42423276286166" d="M 660 328.42423276286166 V 320.1883754014455 h -3 h 6 h -3 V 336.66009012427776 h -3 h 6"/><path class="error-bar" x="880" y="309.76323129308116" d="M 880 309.76323129308116 V 307.20928751393376 h -3 h 6 h -3 V 312.31717507222857 h -3 h 6"/><path class="line" d="M0,385.8119375940941L220,367.69305506865L440,348.1849260638707L660,328.42423276286166L880,309.76323129308116"/></g><g class="data-series-1 data-series-count-6"><circle cx="0" cy="389.352738100555" r="3"/><circle cx="220" cy="378.82322166833796" r="3"/><circle cx="440" cy="368.8662613670773" r="3"/><circle cx="660" cy="356.35646804673894" r="3"/><circle cx="880" cy="346.66147913703134" r="3"/><path class="error-bar" x="0" y="389.352738100555" d="M 0 389.352738100555 V 388.36676322139215 h -3 h 6 h -3 V 390.33871297971785 h -3 h 6"/><path class="error-bar" x="220" y="378.82322166833796" d="M 220 378.82322166833796 V 376.26196902602567 h -3 h 6 h -3 V 381.3844743106502 h -3 h 6"/><path class="error-bar" x="440" y="368.8662613670773" d="M 440 368.8662613670773 V 367.7799594306124 h -3 h 6 h -3 V 369.9525633035421 h -3 h 6"/><path class="error-bar" x="660" y="356.35646804673894" d="M 660 356.35646804673894 V 354.17114329928773 h -3 h 6 h -3 V 358.5417927941902 h -3 h 6"/><path class="error-bar" x="880" y="346.66147913703134" d="M 880 346.66147913703134 V 344.22017295255336 h -3 h 6 h -3 V 349.10278532150926 h -3 h 6"/><path class="line" d="M0,389.352738100555L220,378.82322166833796L440,368.8662613670773L660,356.35646804673894L880,346.66147913703134"/></g><g class="data-series-2 data-series-count-6"><circle cx="0" cy="378.04222175973564" r="3"/><circle cx="220" cy="342.38160207363194" r="3"/><circle cx="440" cy="311.07718925826447" r="3"/><circle cx="660" cy="278.8081247426148" r="3"/><circle cx="880" cy="245.5911820262302" r="3"/><path class="error-bar" x="0" y="378.04222175973564" d="M 0 378.04222175973564 V 377.2173328174586 h -3 h 6 h -3 V 378.86711070201267 h -3 h 6"/><path class="error-bar" x="220" y="342.38160207363194" d="M 220 342.38160207363194 V 339.97956885139484 h -3 h 6 h -3 V 344.78363529586903 h -3 h 6"/><path class="error-bar" x="440" y="311.07718925826447" d="M 440 311.07718925826447 V 308.1744078582328 h -3 h 6 h -3 V 313.97997065829605 h -3 h 6"/><path class="error-bar" x="660" y="278.8081247426148" d="M 660 278.8081247426148 V 274.00635965170403 h -3 h 6 h -3 V 283.6098898335256 h -3 h 6"/><path class="error-bar" x="880" y="245.5911820262302" d="M 880 245.5911820262302 V 240.66975356223753 h -3 h 6 h -3 V 250.5126104902229 h -3 h 6"/><path class="line" d="M0,378.04222175973564L220,342.38160207363194L440,311.07718925826447L660,278.8081247426148L880,245.5911820262302"/></g><g class="data-series-3 data-series-count-6"><circle cx="0" cy="350.86003281180393" r="3"/><circle cx="220" cy="278.1173488347256" r="3"/><circle cx="440" cy="194.10650910820183" r="3"/><circle cx="660" cy="129.71134738172978" r="3"/><circle cx="880" cy="0" r="3"/><path class="error-bar" x="0" y="350.86003281180393" d="M 0 350.86003281180393 V 349.2861480744433 h -3 h 6 h -3 V 352.4339175491646 h -3 h 6"/><path class="error-bar" x="220" y="278.1173488347256" d="M 220 278.1173488347256 V 273.3977496467189 h -3 h 6 h -3 V 282.8369480227323 h -3 h 6"/><path class="error-bar" x="440" y="194.10650910820183" d="M 440 194.10650910820183 V 186.6068460200952 h -3 h 6 h -3 V 201.6061721963085 h -3 h 6"/><path class="error-bar" x="660" y="129.71134738172978" d="M 660 129.71134738172978 V 117.18758565640451 h -3 h 6 h -3 V 142.23510910705505 h -3 h 6"/><path class="error-bar" x="880" y="0" d="M 880 0 V -13.733548474563406 h -3 h 6 h -3 V 13.73354847456345 h -3 h 6"/><path class="line" d="M0,350.86003281180393L220,278.1173488347256L440,194.10650910820183L660,129.71134738172978L880,0"/></g><g class="data-series-4 data-series-count-6"><circle cx="0" cy="385.0292467432565" r="3"/><circle cx="220" cy="367.7077031048817" r="3"/><circle cx="440" cy="349.7706477530707" r="3"/><circle cx="660" cy="330.8001873012449" r="3"/><circle cx="880" cy="311.04999763753807" r="3"/><path class="error-bar" x="0" y="385.0292467432565" d="M 0 385.0292467432565 V 384.50943313883994 h -3 h 6 h -3 V 385.54906034767316 h -3 h 6"/><path class="error-bar" x="220" y="367.7077031048817" d="M 220 367.7077031048817 V 366.65102307999024 h -3 h 6 h -3 V 368.7643831297733 h -3 h 6"/><path class="error-bar" x="440" y="349.7706477530707" d="M 440 349.7706477530707 V 348.44324396462764 h -3 h 6 h -3 V 351.09805154151377 h -3 h 6"/><path class="error-bar" x="660" y="330.8001873012449" d="M 660 330.8001873012449 V 328.54725339919844 h -3 h 6 h -3 V 333.05312120329125 h -3 h 6"/><path class="error-bar" x="880" y="311.04999763753807" d="M 880 311.04999763753807 V 308.4353025768517 h -3 h 6 h -3 V 313.66469269822437 h -3 h 6"/><path class="line" d="M0,385.0292467432565L220,367.7077031048817L440,349.7706477530707L660,330.8001873012449L880,311.04999763753807"/></g><g class="data-series-5 data-series-count-6"><circle cx="0" cy="399.99962220018455" r="3"/><circle cx="220" cy="400" r="3"/><circle cx="440" cy="399.99998824479854" r="3"/><circle cx="660" cy="399.99998746625624" r="3"/><circle cx="880" cy="399.9999459395631" r="3"/><path class="error-bar" x="0" y="399.99962220018455" d="M 0 399.99962220018455 V 399.9995209536299 h -3 h 6 h -3 V 399.9997234467392 h -3 h 6"/><path class="error-bar" x="220" y="400" d="M 220 400 V 399.99993215325117 h -3 h 6 h -3 V 400.00006784674883 h -3 h 6"/><path class="error-bar" x="440" y="399.99998824479854" d="M 440 399.99998824479854 V 399.99991682901435 h -3 h 6 h -3 V 400.0000596605828 h -3 h 6"/><path class="error-bar" x="660" y="399.99998746625624" d="M 660 399.99998746625624 V 399.99980134064145 h -3 h 6 h -3 V 400.00017359187103 h -3 h 6"/><path class="error-bar" x="880" y="399.9999459395631" d="M 880 399.9999459395631 V 399.99972824281775 h -3 h 6 h -3 V 400.0001636363085 h -3 h 6"/><path class="line" d="M0,399.99962220018455L220,400L440,399.99998824479854L660,399.99998746625624L880,399.9999459395631"/></g><g class="legend" transform="translate(50, 50)"><rect x="0" y="0" width="15" height="15" class="data-series-0 data-series-count-6"/><rect x="0" y="20" width="15" height="15" class="data-series-1 data-series-count-6"/><rect x="0" y="40" width="15" height="15" class="data-series-2 data-series-count-6"/><rect x="0" y="60" width="15" height="15" class="data-series-3 data-series-count-6"/><rect x="0" y="80" width="15" height="15" class="data-series-4 data-series-count-6"/><rect x="0" y="100" width="15" height="15" class="data-series-5 data-series-count-6"/><text x="24" y="13">argonaut-codec</text><text x="24" y="33">json</text><text x="24" y="53">json-codecs - SpeedyDecoder</text><text x="24" y="73">json-codecs - PlainPrettyDecoder</text><text x="24" y="93">codec-argonaut</text><text x="24" y="113">unsafeCoerce</text></g></g><g transform="translate(960, 500)" class="graph-footer"><text style="text-anchor: end;">Ran on:</text><text style="text-anchor: end;" y="14">2023-09-04 13:50:00</text></g></g><line x1="0" y1="545" x2="1000" y2="545" class="graph-gap-line"/><g transform="translate(0, 550)"><g transform="translate(80, 40)"><g transform="translate(440, 0)"><text style="text-anchor: middle; font-size: 28px;">Decoding an array of ints (optimized)*</text><text y="20" style="text-anchor: middle; font-size: 16px;">* Tag: json-codec-with-argonaut-codec</text></g><g class="x axis" transform="translate(0, 400)"><g class="tick" style="opacity: 1;" transform="translate(0,0)"><line y2="6" x2="0" class="axis-line"/><text dy=".71em" style="text-anchor: middle;" y="9" x="0">1,000</text></g><g class="tick" style="opacity: 1;" transform="translate(110,0)"><line y2="6" x2="0" class="axis-line"/><text dy=".71em" style="text-anchor: middle;" y="9" x="0">1,500</text></g><g class="tick" style="opacity: 1;" transform="translate(220,0)"><line y2="6" x2="0" class="axis-line"/><text dy=".71em" style="text-anchor: middle;" y="9" x="0">2,000</text></g><g class="tick" style="opacity: 1;" transform="translate(330,0)"><line y2="6" x2="0" class="axis-line"/><text dy=".71em" style="text-anchor: middle;" y="9" x="0">2,500</text></g><g class="tick" style="opacity: 1;" transform="translate(440,0)"><line y2="6" x2="0" class="axis-line"/><text dy=".71em" style="text-anchor: middle;" y="9" x="0">3,000</text></g><g class="tick" style="opacity: 1;" transform="translate(550,0)"><line y2="6" x2="0" class="axis-line"/><text dy=".71em" style="text-anchor: middle;" y="9" x="0">3,500</text></g><g class="tick" style="opacity: 1;" transform="translate(660,0)"><line y2="6" x2="0" class="axis-line"/><text dy=".71em" style="text-anchor: middle;" y="9" x="0">4,000</text></g><g class="tick" style="opacity: 1;" transform="translate(770,0)"><line y2="6" x2="0" class="axis-line"/><text dy=".71em" style="text-anchor: middle;" y="9" x="0">4,500</text></g><g class="tick" style="opacity: 1;" transform="translate(880,0)"><line y2="6" x2="0" class="axis-line"/><text dy=".71em" style="text-anchor: middle;" y="9" x="0">5,000</text></g><path class="axis-path" d="M0,6V0H880V6"/><text x="440" y="40" style="text-anchor: middle;">Number of elements in the array</text></g><g class="y axis"><g class="tick" style="opacity: 1;" transform="translate(0,361.97903099550217)"><line x2="-6" y2="0" class="axis-line"/><text dy=".32em" style="text-anchor: end;" x="-9" y="0">1.00e-3</text></g><g class="tick" style="opacity: 1;" transform="translate(0,309.2467955950541)"><line x2="-6" y2="0" class="axis-line"/><text dy=".32em" style="text-anchor: end;" x="-9" y="0">2.00e-3</text></g><g class="tick" style="opacity: 1;" transform="translate(0,256.51456019460613)"><line x2="-6" y2="0" class="axis-line"/><text dy=".32em" style="text-anchor: end;" x="-9" y="0">3.00e-3</text></g><g class="tick" style="opacity: 1;" transform="translate(0,203.78232479415806)"><line x2="-6" y2="0" class="axis-line"/><text dy=".32em" style="text-anchor: end;" x="-9" y="0">4.00e-3</text></g><g class="tick" style="opacity: 1;" transform="translate(0,151.05008939371007)"><line x2="-6" y2="0" class="axis-line"/><text dy=".32em" style="text-anchor: end;" x="-9" y="0">5.00e-3</text></g><g class="tick" style="opacity: 1;" transform="translate(0,98.31785399326205)"><line x2="-6" y2="0" class="axis-line"/><text dy=".32em" style="text-anchor: end;" x="-9" y="0">6.00e-3</text></g><g class="tick" style="opacity: 1;" transform="translate(0,45.58561859281403)"><line x2="-6" y2="0" class="axis-line"/><text dy=".32em" style="text-anchor: end;" x="-9" y="0">7.00e-3</text></g><path class="axis-path" d="M-6,0H0V400H-6"/><text transform="rotate(-90)" y="6" dy=".71em" style="text-anchor: end;">Mean running time (seconds)</text></g><g class="data-series-0 data-series-count-3"><circle cx="0" cy="400" r="3"/><circle cx="220" cy="381.2148036284905" r="3"/><circle cx="440" cy="360.98927185626894" r="3"/><circle cx="660" cy="340.5018878481577" r="3"/><circle cx="880" cy="321.1546363492543" r="3"/><path class="error-bar" x="0" y="400" d="M 0 400 V 399.5667237127363 h -3 h 6 h -3 V 400.4332762872637 h -3 h 6"/><path class="error-bar" x="220" y="381.2148036284905" d="M 220 381.2148036284905 V 379.93570284625105 h -3 h 6 h -3 V 382.4939044107299 h -3 h 6"/><path class="error-bar" x="440" y="360.98927185626894" d="M 440 360.98927185626894 V 356.9283012608764 h -3 h 6 h -3 V 365.0502424516614 h -3 h 6"/><path class="error-bar" x="660" y="340.5018878481577" d="M 660 340.5018878481577 V 331.96316049537074 h -3 h 6 h -3 V 349.0406152009447 h -3 h 6"/><path class="error-bar" x="880" y="321.1546363492543" d="M 880 321.1546363492543 V 318.50677242355647 h -3 h 6 h -3 V 323.8025002749521 h -3 h 6"/><path class="line" d="M0,400L220,381.2148036284905L440,360.98927185626894L660,340.5018878481577L880,321.1546363492543"/></g><g class="data-series-1 data-series-count-3"><circle cx="0" cy="391.9445563216006" r="3"/><circle cx="220" cy="354.9725332074567" r="3"/><circle cx="440" cy="322.5169145341928" r="3"/><circle cx="660" cy="289.061169523421" r="3"/><circle cx="880" cy="254.62268851267362" r="3"/><path class="error-bar" x="0" y="391.9445563216006" d="M 0 391.9445563216006 V 391.0893324553605 h -3 h 6 h -3 V 392.7997801878407 h -3 h 6"/><path class="error-bar" x="220" y="354.9725332074567" d="M 220 354.9725332074567 V 352.4821662818337 h -3 h 6 h -3 V 357.46290013307964 h -3 h 6"/><path class="error-bar" x="440" y="322.5169145341928" d="M 440 322.5169145341928 V 319.50738463925677 h -3 h 6 h -3 V 325.5264444291289 h -3 h 6"/><path class="error-bar" x="660" y="289.061169523421" d="M 660 289.061169523421 V 284.0828216569922 h -3 h 6 h -3 V 294.0395173898497 h -3 h 6"/><path class="error-bar" x="880" y="254.62268851267362" d="M 880 254.62268851267362 V 249.520276705841 h -3 h 6 h -3 V 259.7251003195063 h -3 h 6"/><path class="line" d="M0,391.9445563216006L220,354.9725332074567L440,322.5169145341928L660,289.061169523421L880,254.62268851267362"/></g><g class="data-series-2 data-series-count-3"><circle cx="0" cy="363.76275446503945" r="3"/><circle cx="220" cy="288.3449906387583" r="3"/><circle cx="440" cy="201.24468964712844" r="3"/><circle cx="660" cy="134.48142448945873" r="3"/><circle cx="880" cy="0" r="3"/><path class="error-bar" x="0" y="363.76275446503945" d="M 0 363.76275446503945 V 362.13099081648534 h -3 h 6 h -3 V 365.39451811359356 h -3 h 6"/><path class="error-bar" x="220" y="288.3449906387583" d="M 220 288.3449906387583 V 283.45183028976766 h -3 h 6 h -3 V 293.23815098774895 h -3 h 6"/><path class="error-bar" x="440" y="201.24468964712844" d="M 440 201.24468964712844 V 193.46922978461177 h -3 h 6 h -3 V 209.02014950964505 h -3 h 6"/><path class="error-bar" x="660" y="134.48142448945873" d="M 660 134.48142448945873 V 121.49710699692812 h -3 h 6 h -3 V 147.46574198198928 h -3 h 6"/><path class="error-bar" x="880" y="0" d="M 880 0 V -14.238593611390193 h -3 h 6 h -3 V 14.238593611390282 h -3 h 6"/><path class="line" d="M0,363.76275446503945L220,288.3449906387583L440,201.24468964712844L660,134.48142448945873L880,0"/></g><g class="legend" transform="translate(50, 50)"><rect x="0" y="0" width="15" height="15" class="data-series-0 data-series-count-3"/><rect x="0" y="20" width="15" height="15" class="data-series-1 data-series-count-3"/><rect x="0" y="40" width="15" height="15" class="data-series-2 data-series-count-3"/><text x="24" y="13">argonaut-codec</text><text x="24" y="33">json-codecs - SpeedyDecoder</text><text x="24" y="53">json-codecs - PlainPrettyDecoder</text></g></g><g transform="translate(960, 500)" class="graph-footer"><text style="text-anchor: end;">Ran on:</text><text style="text-anchor: end;" y="14">2023-09-04 13:50:00</text></g></g><line x1="0" y1="1095" x2="1000" y2="1095" class="graph-gap-line"/><g transform="translate(0, 1100)"><g transform="translate(80, 40)"><g transform="translate(440, 0)"><text style="text-anchor: middle; font-size: 28px;">Decoding an array of ints (optimized)*</text><text y="20" style="text-anchor: middle; font-size: 16px;">* Tag: json-codec-with-json</text></g><g class="x axis" transform="translate(0, 400)"><g class="tick" style="opacity: 1;" transform="translate(0,0)"><line y2="6" x2="0" class="axis-line"/><text dy=".71em" style="text-anchor: middle;" y="9" x="0">1,000</text></g><g class="tick" style="opacity: 1;" transform="translate(110,0)"><line y2="6" x2="0" class="axis-line"/><text dy=".71em" style="text-anchor: middle;" y="9" x="0">1,500</text></g><g class="tick" style="opacity: 1;" transform="translate(220,0)"><line y2="6" x2="0" class="axis-line"/><text dy=".71em" style="text-anchor: middle;" y="9" x="0">2,000</text></g><g class="tick" style="opacity: 1;" transform="translate(330,0)"><line y2="6" x2="0" class="axis-line"/><text dy=".71em" style="text-anchor: middle;" y="9" x="0">2,500</text></g><g class="tick" style="opacity: 1;" transform="translate(440,0)"><line y2="6" x2="0" class="axis-line"/><text dy=".71em" style="text-anchor: middle;" y="9" x="0">3,000</text></g><g class="tick" style="opacity: 1;" transform="translate(550,0)"><line y2="6" x2="0" class="axis-line"/><text dy=".71em" style="text-anchor: middle;" y="9" x="0">3,500</text></g><g class="tick" style="opacity: 1;" transform="translate(660,0)"><line y2="6" x2="0" class="axis-line"/><text dy=".71em" style="text-anchor: middle;" y="9" x="0">4,000</text></g><g class="tick" style="opacity: 1;" transform="translate(770,0)"><line y2="6" x2="0" class="axis-line"/><text dy=".71em" style="text-anchor: middle;" y="9" x="0">4,500</text></g><g class="tick" style="opacity: 1;" transform="translate(880,0)"><line y2="6" x2="0" class="axis-line"/><text dy=".71em" style="text-anchor: middle;" y="9" x="0">5,000</text></g><path class="axis-path" d="M0,6V0H880V6"/><text x="440" y="40" style="text-anchor: middle;">Number of elements in the array</text></g><g class="y axis"><g class="tick" style="opacity: 1;" transform="translate(0,358.6871688590502)"><line x2="-6" y2="0" class="axis-line"/><text dy=".32em" style="text-anchor: end;" x="-9" y="0">1.00e-3</text></g><g class="tick" style="opacity: 1;" transform="translate(0,306.4344840243015)"><line x2="-6" y2="0" class="axis-line"/><text dy=".32em" style="text-anchor: end;" x="-9" y="0">2.00e-3</text></g><g class="tick" style="opacity: 1;" transform="translate(0,254.18179918955292)"><line x2="-6" y2="0" class="axis-line"/><text dy=".32em" style="text-anchor: end;" x="-9" y="0">3.00e-3</text></g><g class="tick" style="opacity: 1;" transform="translate(0,201.92911435480428)"><line x2="-6" y2="0" class="axis-line"/><text dy=".32em" style="text-anchor: end;" x="-9" y="0">4.00e-3</text></g><g class="tick" style="opacity: 1;" transform="translate(0,149.67642952005562)"><line x2="-6" y2="0" class="axis-line"/><text dy=".32em" style="text-anchor: end;" x="-9" y="0">5.00e-3</text></g><g class="tick" style="opacity: 1;" transform="translate(0,97.42374468530697)"><line x2="-6" y2="0" class="axis-line"/><text dy=".32em" style="text-anchor: end;" x="-9" y="0">6.00e-3</text></g><g class="tick" style="opacity: 1;" transform="translate(0,45.171059850558315)"><line x2="-6" y2="0" class="axis-line"/><text dy=".32em" style="text-anchor: end;" x="-9" y="0">7.00e-3</text></g><path class="axis-path" d="M-6,0H0V400H-6"/><text transform="rotate(-90)" y="6" dy=".71em" style="text-anchor: end;">Mean running time (seconds)</text></g><g class="data-series-0 data-series-count-3"><circle cx="0" cy="400" r="3"/><circle cx="220" cy="389.1825428185404" r="3"/><circle cx="440" cy="378.95329892023324" r="3"/><circle cx="660" cy="366.10141208736604" r="3"/><circle cx="880" cy="356.14130346503623" r="3"/><path class="error-bar" x="0" y="400" d="M 0 400 V 398.9870625962741 h -3 h 6 h -3 V 401.0129374037259 h -3 h 6"/><path class="error-bar" x="220" y="389.1825428185404" d="M 220 389.1825428185404 V 386.5512500172546 h -3 h 6 h -3 V 391.81383561982614 h -3 h 6"/><path class="error-bar" x="440" y="378.95329892023324" d="M 440 378.95329892023324 V 377.8372909098472 h -3 h 6 h -3 V 380.06930693061923 h -3 h 6"/><path class="error-bar" x="660" y="366.10141208736604" d="M 660 366.10141208736604 V 363.85632732632155 h -3 h 6 h -3 V 368.3464968484105 h -3 h 6"/><path class="error-bar" x="880" y="356.14130346503623" d="M 880 356.14130346503623 V 353.6332371841745 h -3 h 6 h -3 V 358.6493697458979 h -3 h 6"/><path class="line" d="M0,400L220,389.1825428185404L440,378.95329892023324L660,366.10141208736604L880,356.14130346503623"/></g><g class="data-series-1 data-series-count-3"><circle cx="0" cy="388.3801856424615" r="3"/><circle cx="220" cy="351.7443886424734" r="3"/><circle cx="440" cy="319.5839235915942" r="3"/><circle cx="660" cy="286.4324274207203" r="3"/><circle cx="880" cy="252.30713231846167" r="3"/><path class="error-bar" x="0" y="388.3801856424615" d="M 0 388.3801856424615 V 387.5327392407218 h -3 h 6 h -3 V 389.22763204420124 h -3 h 6"/><path class="error-bar" x="220" y="351.7443886424734" d="M 220 351.7443886424734 V 349.2766692844893 h -3 h 6 h -3 V 354.2121080004574 h -3 h 6"/><path class="error-bar" x="440" y="319.5839235915942" d="M 440 319.5839235915942 V 316.60176256795 h -3 h 6 h -3 V 322.5660846152385 h -3 h 6"/><path class="error-bar" x="660" y="286.4324274207203" d="M 660 286.4324274207203 V 281.4993529912597 h -3 h 6 h -3 V 291.36550185018086 h -3 h 6"/><path class="error-bar" x="880" y="252.30713231846167" d="M 880 252.30713231846167 V 247.25112219458097 h -3 h 6 h -3 V 257.3631424423424 h -3 h 6"/><path class="line" d="M0,388.3801856424615L220,351.7443886424734L440,319.5839235915942L660,286.4324274207203L880,252.30713231846167"/></g><g class="data-series-2 data-series-count-3"><circle cx="0" cy="360.45467102500777" r="3"/><circle cx="220" cy="285.72276151595827" r="3"/><circle cx="440" cy="199.41455663586112" r="3"/><circle cx="660" cy="133.25844119090826" r="3"/><circle cx="880" cy="0" r="3"/><path class="error-bar" x="0" y="360.45467102500777" d="M 0 360.45467102500777 V 358.83774674699833 h -3 h 6 h -3 V 362.07159530301726 h -3 h 6"/><path class="error-bar" x="220" y="285.72276151595827" d="M 220 285.72276151595827 V 280.8740999028092 h -3 h 6 h -3 V 290.5714231291074 h -3 h 6"/><path class="error-bar" x="440" y="199.41455663586112" d="M 440 199.41455663586112 V 191.70980733866242 h -3 h 6 h -3 V 207.11930593305988 h -3 h 6"/><path class="error-bar" x="660" y="133.25844119090826" d="M 660 133.25844119090826 V 120.39220397226478 h -3 h 6 h -3 V 146.12467840955173 h -3 h 6"/><path class="error-bar" x="880" y="0" d="M 880 0 V -14.10910686444593 h -3 h 6 h -3 V 14.109106864445975 h -3 h 6"/><path class="line" d="M0,360.45467102500777L220,285.72276151595827L440,199.41455663586112L660,133.25844119090826L880,0"/></g><g class="legend" transform="translate(50, 50)"><rect x="0" y="0" width="15" height="15" class="data-series-0 data-series-count-3"/><rect x="0" y="20" width="15" height="15" class="data-series-1 data-series-count-3"/><rect x="0" y="40" width="15" height="15" class="data-series-2 data-series-count-3"/><text x="24" y="13">json</text><text x="24" y="33">json-codecs - SpeedyDecoder</text><text x="24" y="53">json-codecs - PlainPrettyDecoder</text></g></g><g transform="translate(960, 500)" class="graph-footer"><text style="text-anchor: end;">Ran on:</text><text style="text-anchor: end;" y="14">2023-09-04 13:50:00</text></g></g><line x1="0" y1="1645" x2="1000" y2="1645" class="graph-gap-line"/><g transform="translate(0, 1650)"><g transform="translate(80, 40)"><g transform="translate(440, 0)"><text style="text-anchor: middle; font-size: 28px;">Decoding an array of ints (optimized)*</text><text y="20" style="text-anchor: middle; font-size: 16px;">* Tag: json-codec-with-baseline</text></g><g class="x axis" transform="translate(0, 400)"><g class="tick" style="opacity: 1;" transform="translate(0,0)"><line y2="6" x2="0" class="axis-line"/><text dy=".71em" style="text-anchor: middle;" y="9" x="0">1,000</text></g><g class="tick" style="opacity: 1;" transform="translate(110,0)"><line y2="6" x2="0" class="axis-line"/><text dy=".71em" style="text-anchor: middle;" y="9" x="0">1,500</text></g><g class="tick" style="opacity: 1;" transform="translate(220,0)"><line y2="6" x2="0" class="axis-line"/><text dy=".71em" style="text-anchor: middle;" y="9" x="0">2,000</text></g><g class="tick" style="opacity: 1;" transform="translate(330,0)"><line y2="6" x2="0" class="axis-line"/><text dy=".71em" style="text-anchor: middle;" y="9" x="0">2,500</text></g><g class="tick" style="opacity: 1;" transform="translate(440,0)"><line y2="6" x2="0" class="axis-line"/><text dy=".71em" style="text-anchor: middle;" y="9" x="0">3,000</text></g><g class="tick" style="opacity: 1;" transform="translate(550,0)"><line y2="6" x2="0" class="axis-line"/><text dy=".71em" style="text-anchor: middle;" y="9" x="0">3,500</text></g><g class="tick" style="opacity: 1;" transform="translate(660,0)"><line y2="6" x2="0" class="axis-line"/><text dy=".71em" style="text-anchor: middle;" y="9" x="0">4,000</text></g><g class="tick" style="opacity: 1;" transform="translate(770,0)"><line y2="6" x2="0" class="axis-line"/><text dy=".71em" style="text-anchor: middle;" y="9" x="0">4,500</text></g><g class="tick" style="opacity: 1;" transform="translate(880,0)"><line y2="6" x2="0" class="axis-line"/><text dy=".71em" style="text-anchor: middle;" y="9" x="0">5,000</text></g><path class="axis-path" d="M0,6V0H880V6"/><text x="440" y="40" style="text-anchor: middle;">Number of elements in the array</text></g><g class="y axis"><g class="tick" style="opacity: 1;" transform="translate(0,349.1395782920183)"><line x2="-6" y2="0" class="axis-line"/><text dy=".32em" style="text-anchor: end;" x="-9" y="0">1.00e-3</text></g><g class="tick" style="opacity: 1;" transform="translate(0,298.2777635082315)"><line x2="-6" y2="0" class="axis-line"/><text dy=".32em" style="text-anchor: end;" x="-9" y="0">2.00e-3</text></g><g class="tick" style="opacity: 1;" transform="translate(0,247.41594872444463)"><line x2="-6" y2="0" class="axis-line"/><text dy=".32em" style="text-anchor: end;" x="-9" y="0">3.00e-3</text></g><g class="tick" style="opacity: 1;" transform="translate(0,196.5541339406578)"><line x2="-6" y2="0" class="axis-line"/><text dy=".32em" style="text-anchor: end;" x="-9" y="0">4.00e-3</text></g><g class="tick" style="opacity: 1;" transform="translate(0,145.692319156871)"><line x2="-6" y2="0" class="axis-line"/><text dy=".32em" style="text-anchor: end;" x="-9" y="0">5.00e-3</text></g><g class="tick" style="opacity: 1;" transform="translate(0,94.83050437308415)"><line x2="-6" y2="0" class="axis-line"/><text dy=".32em" style="text-anchor: end;" x="-9" y="0">6.00e-3</text></g><g class="tick" style="opacity: 1;" transform="translate(0,43.96868958929731)"><line x2="-6" y2="0" class="axis-line"/><text dy=".32em" style="text-anchor: end;" x="-9" y="0">7.00e-3</text></g><path class="axis-path" d="M-6,0H0V400H-6"/><text transform="rotate(-90)" y="6" dy=".71em" style="text-anchor: end;">Mean running time (seconds)</text></g><g class="data-series-0 data-series-count-3"><circle cx="0" cy="378.04222175973564" r="3"/><circle cx="220" cy="342.38160207363194" r="3"/><circle cx="440" cy="311.07718925826447" r="3"/><circle cx="660" cy="278.8081247426148" r="3"/><circle cx="880" cy="245.5911820262302" r="3"/><path class="error-bar" x="0" y="378.04222175973564" d="M 0 378.04222175973564 V 377.2173328174586 h -3 h 6 h -3 V 378.86711070201267 h -3 h 6"/><path class="error-bar" x="220" y="342.38160207363194" d="M 220 342.38160207363194 V 339.97956885139484 h -3 h 6 h -3 V 344.78363529586903 h -3 h 6"/><path class="error-bar" x="440" y="311.07718925826447" d="M 440 311.07718925826447 V 308.1744078582328 h -3 h 6 h -3 V 313.97997065829605 h -3 h 6"/><path class="error-bar" x="660" y="278.8081247426148" d="M 660 278.8081247426148 V 274.00635965170403 h -3 h 6 h -3 V 283.6098898335256 h -3 h 6"/><path class="error-bar" x="880" y="245.5911820262302" d="M 880 245.5911820262302 V 240.66975356223753 h -3 h 6 h -3 V 250.5126104902229 h -3 h 6"/><path class="line" d="M0,378.04222175973564L220,342.38160207363194L440,311.07718925826447L660,278.8081247426148L880,245.5911820262302"/></g><g class="data-series-1 data-series-count-3"><circle cx="0" cy="350.86003281180393" r="3"/><circle cx="220" cy="278.1173488347256" r="3"/><circle cx="440" cy="194.10650910820183" r="3"/><circle cx="660" cy="129.71134738172978" r="3"/><circle cx="880" cy="0" r="3"/><path class="error-bar" x="0" y="350.86003281180393" d="M 0 350.86003281180393 V 349.2861480744433 h -3 h 6 h -3 V 352.4339175491646 h -3 h 6"/><path class="error-bar" x="220" y="278.1173488347256" d="M 220 278.1173488347256 V 273.3977496467189 h -3 h 6 h -3 V 282.8369480227323 h -3 h 6"/><path class="error-bar" x="440" y="194.10650910820183" d="M 440 194.10650910820183 V 186.6068460200952 h -3 h 6 h -3 V 201.6061721963085 h -3 h 6"/><path class="error-bar" x="660" y="129.71134738172978" d="M 660 129.71134738172978 V 117.18758565640451 h -3 h 6 h -3 V 142.23510910705505 h -3 h 6"/><path class="error-bar" x="880" y="0" d="M 880 0 V -13.733548474563406 h -3 h 6 h -3 V 13.73354847456345 h -3 h 6"/><path class="line" d="M0,350.86003281180393L220,278.1173488347256L440,194.10650910820183L660,129.71134738172978L880,0"/></g><g class="data-series-2 data-series-count-3"><circle cx="0" cy="399.99962220018455" r="3"/><circle cx="220" cy="400" r="3"/><circle cx="440" cy="399.99998824479854" r="3"/><circle cx="660" cy="399.99998746625624" r="3"/><circle cx="880" cy="399.9999459395631" r="3"/><path class="error-bar" x="0" y="399.99962220018455" d="M 0 399.99962220018455 V 399.9995209536299 h -3 h 6 h -3 V 399.9997234467392 h -3 h 6"/><path class="error-bar" x="220" y="400" d="M 220 400 V 399.99993215325117 h -3 h 6 h -3 V 400.00006784674883 h -3 h 6"/><path class="error-bar" x="440" y="399.99998824479854" d="M 440 399.99998824479854 V 399.99991682901435 h -3 h 6 h -3 V 400.0000596605828 h -3 h 6"/><path class="error-bar" x="660" y="399.99998746625624" d="M 660 399.99998746625624 V 399.99980134064145 h -3 h 6 h -3 V 400.00017359187103 h -3 h 6"/><path class="error-bar" x="880" y="399.9999459395631" d="M 880 399.9999459395631 V 399.99972824281775 h -3 h 6 h -3 V 400.0001636363085 h -3 h 6"/><path class="line" d="M0,399.99962220018455L220,400L440,399.99998824479854L660,399.99998746625624L880,399.9999459395631"/></g><g class="legend" transform="translate(50, 50)"><rect x="0" y="0" width="15" height="15" class="data-series-0 data-series-count-3"/><rect x="0" y="20" width="15" height="15" class="data-series-1 data-series-count-3"/><rect x="0" y="40" width="15" height="15" class="data-series-2 data-series-count-3"/><text x="24" y="13">json-codecs - SpeedyDecoder</text><text x="24" y="33">json-codecs - PlainPrettyDecoder</text><text x="24" y="53">unsafeCoerce</text></g></g><g transform="translate(960, 500)" class="graph-footer"><text style="text-anchor: end;">Ran on:</text><text style="text-anchor: end;" y="14">2023-09-04 13:50:00</text></g></g><line x1="0" y1="2195" x2="1000" y2="2195" class="graph-gap-line"/><g transform="translate(0, 2200)"><g transform="translate(80, 40)"><g transform="translate(440, 0)"><text style="text-anchor: middle; font-size: 28px;">Decoding an array of ints (optimized)*</text><text y="20" style="text-anchor: middle; font-size: 16px;">* Tag: json-codec-with-codec-argonaut</text></g><g class="x axis" transform="translate(0, 400)"><g class="tick" style="opacity: 1;" transform="translate(0,0)"><line y2="6" x2="0" class="axis-line"/><text dy=".71em" style="text-anchor: middle;" y="9" x="0">1,000</text></g><g class="tick" style="opacity: 1;" transform="translate(110,0)"><line y2="6" x2="0" class="axis-line"/><text dy=".71em" style="text-anchor: middle;" y="9" x="0">1,500</text></g><g class="tick" style="opacity: 1;" transform="translate(220,0)"><line y2="6" x2="0" class="axis-line"/><text dy=".71em" style="text-anchor: middle;" y="9" x="0">2,000</text></g><g class="tick" style="opacity: 1;" transform="translate(330,0)"><line y2="6" x2="0" class="axis-line"/><text dy=".71em" style="text-anchor: middle;" y="9" x="0">2,500</text></g><g class="tick" style="opacity: 1;" transform="translate(440,0)"><line y2="6" x2="0" class="axis-line"/><text dy=".71em" style="text-anchor: middle;" y="9" x="0">3,000</text></g><g class="tick" style="opacity: 1;" transform="translate(550,0)"><line y2="6" x2="0" class="axis-line"/><text dy=".71em" style="text-anchor: middle;" y="9" x="0">3,500</text></g><g class="tick" style="opacity: 1;" transform="translate(660,0)"><line y2="6" x2="0" class="axis-line"/><text dy=".71em" style="text-anchor: middle;" y="9" x="0">4,000</text></g><g class="tick" style="opacity: 1;" transform="translate(770,0)"><line y2="6" x2="0" class="axis-line"/><text dy=".71em" style="text-anchor: middle;" y="9" x="0">4,500</text></g><g class="tick" style="opacity: 1;" transform="translate(880,0)"><line y2="6" x2="0" class="axis-line"/><text dy=".71em" style="text-anchor: middle;" y="9" x="0">5,000</text></g><path class="axis-path" d="M0,6V0H880V6"/><text x="440" y="40" style="text-anchor: middle;">Number of elements in the array</text></g><g class="y axis"><g class="tick" style="opacity: 1;" transform="translate(0,362.714865164339)"><line x2="-6" y2="0" class="axis-line"/><text dy=".32em" style="text-anchor: end;" x="-9" y="0">1.00e-3</text></g><g class="tick" style="opacity: 1;" transform="translate(0,309.8754352103831)"><line x2="-6" y2="0" class="axis-line"/><text dy=".32em" style="text-anchor: end;" x="-9" y="0">2.00e-3</text></g><g class="tick" style="opacity: 1;" transform="translate(0,257.03600525642713)"><line x2="-6" y2="0" class="axis-line"/><text dy=".32em" style="text-anchor: end;" x="-9" y="0">3.00e-3</text></g><g class="tick" style="opacity: 1;" transform="translate(0,204.19657530247113)"><line x2="-6" y2="0" class="axis-line"/><text dy=".32em" style="text-anchor: end;" x="-9" y="0">4.00e-3</text></g><g class="tick" style="opacity: 1;" transform="translate(0,151.3571453485152)"><line x2="-6" y2="0" class="axis-line"/><text dy=".32em" style="text-anchor: end;" x="-9" y="0">5.00e-3</text></g><g class="tick" style="opacity: 1;" transform="translate(0,98.5177153945592)"><line x2="-6" y2="0" class="axis-line"/><text dy=".32em" style="text-anchor: end;" x="-9" y="0">6.00e-3</text></g><g class="tick" style="opacity: 1;" transform="translate(0,45.67828544060326)"><line x2="-6" y2="0" class="axis-line"/><text dy=".32em" style="text-anchor: end;" x="-9" y="0">7.00e-3</text></g><path class="axis-path" d="M-6,0H0V400H-6"/><text transform="rotate(-90)" y="6" dy=".71em" style="text-anchor: end;">Mean running time (seconds)</text></g><g class="data-series-0 data-series-count-3"><circle cx="0" cy="392.7413046747797" r="3"/><circle cx="220" cy="355.69412450575453" r="3"/><circle cx="440" cy="323.1725297644161" r="3"/><circle cx="660" cy="289.64877561992415" r="3"/><circle cx="880" cy="255.14028776104297" r="3"/><path class="error-bar" x="0" y="392.7413046747797" d="M 0 392.7413046747797 V 391.8843423019166 h -3 h 6 h -3 V 393.59826704764293 h -3 h 6"/><path class="error-bar" x="220" y="355.69412450575453" d="M 220 355.69412450575453 V 353.1986951402665 h -3 h 6 h -3 V 358.18955387124254 h -3 h 6"/><path class="error-bar" x="440" y="323.1725297644161" d="M 440 323.1725297644161 V 320.1568820705491 h -3 h 6 h -3 V 326.18817745828306 h -3 h 6"/><path class="error-bar" x="660" y="289.64877561992415" d="M 660 289.64877561992415 V 284.6603077240164 h -3 h 6 h -3 V 294.63724351583204 h -3 h 6"/><path class="error-bar" x="880" y="255.14028776104297" d="M 880 255.14028776104297 V 250.0275037264583 h -3 h 6 h -3 V 260.25307179562765 h -3 h 6"/><path class="line" d="M0,392.7413046747797L220,355.69412450575453L440,323.1725297644161L660,289.64877561992415L880,255.14028776104297"/></g><g class="data-series-1 data-series-count-3"><circle cx="0" cy="364.5022146026874" r="3"/><circle cx="220" cy="288.93114088050413" r="3"/><circle cx="440" cy="201.65378162831882" r="3"/><circle cx="660" cy="134.75479951602048" r="3"/><circle cx="880" cy="0" r="3"/><path class="error-bar" x="0" y="364.5022146026874" d="M 0 364.5022146026874 V 362.86713389058747 h -3 h 6 h -3 V 366.1372953147873 h -3 h 6"/><path class="error-bar" x="220" y="288.93114088050413" d="M 220 288.93114088050413 V 284.0280336719717 h -3 h 6 h -3 V 293.83424808903663 h -3 h 6"/><path class="error-bar" x="440" y="201.65378162831882" d="M 440 201.65378162831882 V 193.86251574237167 h -3 h 6 h -3 V 209.44504751426595 h -3 h 6"/><path class="error-bar" x="660" y="134.75479951602048" d="M 660 134.75479951602048 V 121.74408738829858 h -3 h 6 h -3 V 147.76551164374237 h -3 h 6"/><path class="error-bar" x="880" y="0" d="M 880 0 V -14.267537950145481 h -3 h 6 h -3 V 14.26753795014557 h -3 h 6"/><path class="line" d="M0,364.5022146026874L220,288.93114088050413L440,201.65378162831882L660,134.75479951602048L880,0"/></g><g class="data-series-2 data-series-count-3"><circle cx="0" cy="400" r="3"/><circle cx="220" cy="382.0049580286299" r="3"/><circle cx="440" cy="363.37047194371" r="3"/><circle cx="660" cy="343.66239977798625" r="3"/><circle cx="880" cy="323.144280875838" r="3"/><path class="error-bar" x="0" y="400" d="M 0 400 V 399.45997494079904 h -3 h 6 h -3 V 400.540025059201 h -3 h 6"/><path class="error-bar" x="220" y="382.0049580286299" d="M 220 382.0049580286299 V 380.9071920445345 h -3 h 6 h -3 V 383.1027240127253 h -3 h 6"/><path class="error-bar" x="440" y="363.37047194371" d="M 440 363.37047194371 V 361.9914558822852 h -3 h 6 h -3 V 364.7494880051347 h -3 h 6"/><path class="error-bar" x="660" y="343.66239977798625" d="M 660 343.66239977798625 V 341.3218670303026 h -3 h 6 h -3 V 346.00293252566996 h -3 h 6"/><path class="error-bar" x="880" y="323.144280875838" d="M 880 323.144280875838 V 320.4279209288443 h -3 h 6 h -3 V 325.8606408228316 h -3 h 6"/><path class="line" d="M0,400L220,382.0049580286299L440,363.37047194371L660,343.66239977798625L880,323.144280875838"/></g><g class="legend" transform="translate(50, 50)"><rect x="0" y="0" width="15" height="15" class="data-series-0 data-series-count-3"/><rect x="0" y="20" width="15" height="15" class="data-series-1 data-series-count-3"/><rect x="0" y="40" width="15" height="15" class="data-series-2 data-series-count-3"/><text x="24" y="13">json-codecs - SpeedyDecoder</text><text x="24" y="33">json-codecs - PlainPrettyDecoder</text><text x="24" y="53">codec-argonaut</text></g></g><g transform="translate(960, 500)" class="graph-footer"><text style="text-anchor: end;">Ran on:</text><text style="text-anchor: end;" y="14">2023-09-04 13:50:00</text></g></g></svg>