<svg xmlns="http://www.w3.org/2000/svg" width="960" height="500"><defs><style type="text/css">
.background {
  fill: white;
}

text {
  font-size: 14px;
  font-family: sans-serif;
}

.axis-path,
.axis-line {
  fill: none;
  stroke: #000;
  stroke-width: 1px;
  shape-rendering: crispEdges;
}

.line {
  fill: none;
  stroke-width: 1.5px;
}

.data-series-0 {
  stroke: steelblue;
  fill: steelblue;
}

.data-series-1 {
  stroke: crimson;
  fill: crimson;
}

.data-series-2 {
  stroke: mediumseagreen;
  fill: mediumseagreen;
}

.data-series-3 {
  stroke: mediumslateblue;
  fill: mediumslateblue;
}

.data-series-4 {
  stroke: goldenrod;
  fill: goldenrod;
}

.error-bar {
  fill: none;
}
</style></defs><rect width="960" height="500" class="background"/><g transform="translate(80,40)"><g transform="translate(420, 0)"><text style="text-anchor: middle; font-size: 28px;">Encoding an array of ints</text></g><g class="x axis" transform="translate(0,400)"><g class="tick" style="opacity: 1;" transform="translate(0,0)"><line y2="6" x2="0" class="axis-line"/><text dy=".71em" style="text-anchor: middle;" y="9" x="0">1,000</text></g><g class="tick" style="opacity: 1;" transform="translate(105,0)"><line y2="6" x2="0" class="axis-line"/><text dy=".71em" style="text-anchor: middle;" y="9" x="0">1,500</text></g><g class="tick" style="opacity: 1;" transform="translate(210,0)"><line y2="6" x2="0" class="axis-line"/><text dy=".71em" style="text-anchor: middle;" y="9" x="0">2,000</text></g><g class="tick" style="opacity: 1;" transform="translate(315,0)"><line y2="6" x2="0" class="axis-line"/><text dy=".71em" style="text-anchor: middle;" y="9" x="0">2,500</text></g><g class="tick" style="opacity: 1;" transform="translate(420,0)"><line y2="6" x2="0" class="axis-line"/><text dy=".71em" style="text-anchor: middle;" y="9" x="0">3,000</text></g><g class="tick" style="opacity: 1;" transform="translate(525,0)"><line y2="6" x2="0" class="axis-line"/><text dy=".71em" style="text-anchor: middle;" y="9" x="0">3,500</text></g><g class="tick" style="opacity: 1;" transform="translate(630,0)"><line y2="6" x2="0" class="axis-line"/><text dy=".71em" style="text-anchor: middle;" y="9" x="0">4,000</text></g><g class="tick" style="opacity: 1;" transform="translate(735,0)"><line y2="6" x2="0" class="axis-line"/><text dy=".71em" style="text-anchor: middle;" y="9" x="0">4,500</text></g><g class="tick" style="opacity: 1;" transform="translate(840,0)"><line y2="6" x2="0" class="axis-line"/><text dy=".71em" style="text-anchor: middle;" y="9" x="0">5,000</text></g><path class="axis-path" d="M0,6V0H840V6"/><text x="420" y="40" style="text-anchor: middle;">Number of elements in the array</text></g><g class="y axis"><g class="tick" style="opacity: 1;" transform="translate(0,372.73433804178393)"><line x2="-6" y2="0" class="axis-line"/><text dy=".32em" style="text-anchor: end;" x="-9" y="0">2.00e-5</text></g><g class="tick" style="opacity: 1;" transform="translate(0,342.5547919195378)"><line x2="-6" y2="0" class="axis-line"/><text dy=".32em" style="text-anchor: end;" x="-9" y="0">4.00e-5</text></g><g class="tick" style="opacity: 1;" transform="translate(0,312.37524579729165)"><line x2="-6" y2="0" class="axis-line"/><text dy=".32em" style="text-anchor: end;" x="-9" y="0">6.00e-5</text></g><g class="tick" style="opacity: 1;" transform="translate(0,282.1956996750455)"><line x2="-6" y2="0" class="axis-line"/><text dy=".32em" style="text-anchor: end;" x="-9" y="0">8.00e-5</text></g><g class="tick" style="opacity: 1;" transform="translate(0,252.01615355279932)"><line x2="-6" y2="0" class="axis-line"/><text dy=".32em" style="text-anchor: end;" x="-9" y="0">1.00e-4</text></g><g class="tick" style="opacity: 1;" transform="translate(0,221.83660743055322)"><line x2="-6" y2="0" class="axis-line"/><text dy=".32em" style="text-anchor: end;" x="-9" y="0">1.20e-4</text></g><g class="tick" style="opacity: 1;" transform="translate(0,191.65706130830705)"><line x2="-6" y2="0" class="axis-line"/><text dy=".32em" style="text-anchor: end;" x="-9" y="0">1.40e-4</text></g><g class="tick" style="opacity: 1;" transform="translate(0,161.47751518606088)"><line x2="-6" y2="0" class="axis-line"/><text dy=".32em" style="text-anchor: end;" x="-9" y="0">1.60e-4</text></g><g class="tick" style="opacity: 1;" transform="translate(0,131.29796906381475)"><line x2="-6" y2="0" class="axis-line"/><text dy=".32em" style="text-anchor: end;" x="-9" y="0">1.80e-4</text></g><g class="tick" style="opacity: 1;" transform="translate(0,101.11842294156861)"><line x2="-6" y2="0" class="axis-line"/><text dy=".32em" style="text-anchor: end;" x="-9" y="0">2.00e-4</text></g><g class="tick" style="opacity: 1;" transform="translate(0,70.93887681932247)"><line x2="-6" y2="0" class="axis-line"/><text dy=".32em" style="text-anchor: end;" x="-9" y="0">2.20e-4</text></g><g class="tick" style="opacity: 1;" transform="translate(0,40.75933069707634)"><line x2="-6" y2="0" class="axis-line"/><text dy=".32em" style="text-anchor: end;" x="-9" y="0">2.40e-4</text></g><g class="tick" style="opacity: 1;" transform="translate(0,10.579784574830153)"><line x2="-6" y2="0" class="axis-line"/><text dy=".32em" style="text-anchor: end;" x="-9" y="0">2.60e-4</text></g><path class="axis-path" d="M-6,0H0V400H-6"/><text transform="rotate(-90)" y="6" dy=".71em" style="text-anchor: end;">Mean running time (seconds)</text></g><g class="data-series-0"><circle cx="0" cy="399.59227528799056" r="3"/><circle cx="210" cy="396.1361135593872" r="3"/><circle cx="420" cy="393.69135774960824" r="3"/><circle cx="630" cy="390.29740682980514" r="3"/><circle cx="840" cy="386.42262058128483" r="3"/><path class="error-bar" x="0" y="399.59227528799056" d="M 0 399.59227528799056 V 399.50559545827775 h -3 h 6 h -3 V 399.67895511770337 h -3 h 6"/><path class="error-bar" x="210" y="396.1361135593872" d="M 210 396.1361135593872 V 392.1411748151805 h -3 h 6 h -3 V 400.13105230359383 h -3 h 6"/><path class="error-bar" x="420" y="393.69135774960824" d="M 420 393.69135774960824 V 393.5518109603388 h -3 h 6 h -3 V 393.83090453887763 h -3 h 6"/><path class="error-bar" x="630" y="390.29740682980514" d="M 630 390.29740682980514 V 390.0244541676201 h -3 h 6 h -3 V 390.5703594919901 h -3 h 6"/><path class="error-bar" x="840" y="386.42262058128483" d="M 840 386.42262058128483 V 383.62791675878407 h -3 h 6 h -3 V 389.2173244037856 h -3 h 6"/><path class="line" d="M0,399.59227528799056L210,396.1361135593872L420,393.69135774960824L630,390.29740682980514L840,386.42262058128483"/></g><g class="data-series-1"><circle cx="0" cy="400" r="3"/><circle cx="210" cy="396.70236069672995" r="3"/><circle cx="420" cy="393.70786894820424" r="3"/><circle cx="630" cy="390.45400438866704" r="3"/><circle cx="840" cy="387.1754174276366" r="3"/><path class="error-bar" x="0" y="400" d="M 0 400 V 399.92276340079474 h -3 h 6 h -3 V 400.0772365992053 h -3 h 6"/><path class="error-bar" x="210" y="396.70236069672995" d="M 210 396.70236069672995 V 396.5965147729964 h -3 h 6 h -3 V 396.8082066204634 h -3 h 6"/><path class="error-bar" x="420" y="393.70786894820424" d="M 420 393.70786894820424 V 393.62483093779156 h -3 h 6 h -3 V 393.7909069586169 h -3 h 6"/><path class="error-bar" x="630" y="390.45400438866704" d="M 630 390.45400438866704 V 390.3308273368614 h -3 h 6 h -3 V 390.5771814404728 h -3 h 6"/><path class="error-bar" x="840" y="387.1754174276366" d="M 840 387.1754174276366 V 386.93307218180223 h -3 h 6 h -3 V 387.4177626734709 h -3 h 6"/><path class="line" d="M0,400L210,396.70236069672995L420,393.70786894820424L630,390.45400438866704L840,387.1754174276366"/></g><g class="data-series-2"><circle cx="0" cy="367.5988444711405" r="3"/><circle cx="210" cy="333.2983564201595" r="3"/><circle cx="420" cy="296.79054289287217" r="3"/><circle cx="630" cy="261.60999097344694" r="3"/><circle cx="840" cy="224.58638972649342" r="3"/><path class="error-bar" x="0" y="367.5988444711405" d="M 0 367.5988444711405 V 366.1227410253398 h -3 h 6 h -3 V 369.0749479169412 h -3 h 6"/><path class="error-bar" x="210" y="333.2983564201595" d="M 210 333.2983564201595 V 330.08426419488524 h -3 h 6 h -3 V 336.5124486454337 h -3 h 6"/><path class="error-bar" x="420" y="296.79054289287217" d="M 420 296.79054289287217 V 293.0122629846459 h -3 h 6 h -3 V 300.5688228010986 h -3 h 6"/><path class="error-bar" x="630" y="261.60999097344694" d="M 630 261.60999097344694 V 257.4890402887601 h -3 h 6 h -3 V 265.7309416581337 h -3 h 6"/><path class="error-bar" x="840" y="224.58638972649342" d="M 840 224.58638972649342 V 213.3086986837851 h -3 h 6 h -3 V 235.86408076920185 h -3 h 6"/><path class="line" d="M0,367.5988444711405L210,333.2983564201595L420,296.79054289287217L630,261.60999097344694L840,224.58638972649342"/></g><g class="data-series-3"><circle cx="0" cy="364.62278630886084" r="3"/><circle cx="210" cy="327.3045942309624" r="3"/><circle cx="420" cy="288.05921008825237" r="3"/><circle cx="630" cy="249.07823577717326" r="3"/><circle cx="840" cy="208.6183742099468" r="3"/><path class="error-bar" x="0" y="364.62278630886084" d="M 0 364.62278630886084 V 363.7852258891167 h -3 h 6 h -3 V 365.4603467286049 h -3 h 6"/><path class="error-bar" x="210" y="327.3045942309624" d="M 210 327.3045942309624 V 326.53130903361443 h -3 h 6 h -3 V 328.0778794283104 h -3 h 6"/><path class="error-bar" x="420" y="288.05921008825237" d="M 420 288.05921008825237 V 286.52629010594603 h -3 h 6 h -3 V 289.59213007055865 h -3 h 6"/><path class="error-bar" x="630" y="249.07823577717326" d="M 630 249.07823577717326 V 244.33211599378123 h -3 h 6 h -3 V 253.8243555605653 h -3 h 6"/><path class="error-bar" x="840" y="208.6183742099468" d="M 840 208.6183742099468 V 205.0325827611075 h -3 h 6 h -3 V 212.20416565878608 h -3 h 6"/><path class="line" d="M0,364.62278630886084L210,327.3045942309624L420,288.05921008825237L630,249.07823577717326L840,208.6183742099468"/></g><g class="data-series-4"><circle cx="0" cy="322.37894159048784" r="3"/><circle cx="210" cy="243.32912931923164" r="3"/><circle cx="420" cy="164.28496380810688" r="3"/><circle cx="630" cy="79.92270180785232" r="3"/><circle cx="840" cy="1.3567912629459222" r="3"/><path class="error-bar" x="0" y="322.37894159048784" d="M 0 322.37894159048784 V 320.5403162390613 h -3 h 6 h -3 V 324.21756694191436 h -3 h 6"/><path class="error-bar" x="210" y="243.32912931923164" d="M 210 243.32912931923164 V 237.2999455671108 h -3 h 6 h -3 V 249.3583130713525 h -3 h 6"/><path class="error-bar" x="420" y="164.28496380810688" d="M 420 164.28496380810688 V 162.20377734848103 h -3 h 6 h -3 V 166.36615026773276 h -3 h 6"/><path class="error-bar" x="630" y="79.92270180785232" d="M 630 79.92270180785232 V 63.31521157439983 h -3 h 6 h -3 V 96.53019204130486 h -3 h 6"/><path class="error-bar" x="840" y="1.3567912629459222" d="M 840 1.3567912629459222 V -12.006431196384781 h -3 h 6 h -3 V 14.720013722276581 h -3 h 6"/><path class="line" d="M0,322.37894159048784L210,243.32912931923164L420,164.28496380810688L630,79.92270180785232L840,1.3567912629459222"/></g><g class="data-series-5"><circle cx="0" cy="320.6252055180409" r="3"/><circle cx="210" cy="240.34315483533862" r="3"/><circle cx="420" cy="163.77541291469075" r="3"/><circle cx="630" cy="68.01886859474817" r="3"/><circle cx="840" cy="0" r="3"/><path class="error-bar" x="0" y="320.6252055180409" d="M 0 320.6252055180409 V 315.330797607877 h -3 h 6 h -3 V 325.91961342820474 h -3 h 6"/><path class="error-bar" x="210" y="240.34315483533862" d="M 210 240.34315483533862 V 229.65291992775656 h -3 h 6 h -3 V 251.03338974292066 h -3 h 6"/><path class="error-bar" x="420" y="163.77541291469075" d="M 420 163.77541291469075 V 160.4470763802754 h -3 h 6 h -3 V 167.10374944910615 h -3 h 6"/><path class="error-bar" x="630" y="68.01886859474817" d="M 630 68.01886859474817 V 40.557202936104005 h -3 h 6 h -3 V 95.48053425339229 h -3 h 6"/><path class="error-bar" x="840" y="0" d="M 840 0 V -12.656633231971792 h -3 h 6 h -3 V 12.656633231971837 h -3 h 6"/><path class="line" d="M0,320.6252055180409L210,240.34315483533862L420,163.77541291469075L630,68.01886859474817L840,0"/></g><g class="legend" transform="translate(50, 50)"><rect x="0" y="0" width="15" height="15" class="data-series-0"/><rect x="0" y="20" width="15" height="15" class="data-series-1"/><rect x="0" y="40" width="15" height="15" class="data-series-2"/><rect x="0" y="60" width="15" height="15" class="data-series-3"/><rect x="0" y="80" width="15" height="15" class="data-series-4"/><rect x="0" y="100" width="15" height="15" class="data-series-5"/><text x="24" y="13">encode (argonaut-codec)</text><text x="24" y="33">encode (json-codecs - uni - value)</text><text x="24" y="53">encode (json-codecs - uni - class)</text><text x="24" y="73">encode (codec-argonaut)</text><text x="24" y="93">encode (json-codecs - bidi - value)</text><text x="24" y="113">encode (json-codecs - bidi - class)</text></g></g></svg>