<svg xmlns="http://www.w3.org/2000/svg" width="960" height="500"><defs><style type="text/css">
.background {
  fill: white;
}

text {
  font-size: 14px;
  font-family: sans-serif;
}

.axis-path,
.axis-line {
  fill: none;
  stroke: #000;
  stroke-width: 1px;
  shape-rendering: crispEdges;
}

.line {
  fill: none;
  stroke-width: 1.5px;
}

.data-series-0 {
  stroke: steelblue;
  fill: steelblue;
}

.data-series-1 {
  stroke: crimson;
  fill: crimson;
}

.data-series-2 {
  stroke: mediumseagreen;
  fill: mediumseagreen;
}

.data-series-3 {
  stroke: mediumslateblue;
  fill: mediumslateblue;
}

.data-series-4 {
  stroke: goldenrod;
  fill: goldenrod;
}

.error-bar {
  fill: none;
}
</style></defs><rect width="960" height="500" class="background"/><g transform="translate(80,40)"><g transform="translate(420, 0)"><text style="text-anchor: middle; font-size: 28px;">Encoding an array of ints (optimized)</text></g><g class="x axis" transform="translate(0,400)"><g class="tick" style="opacity: 1;" transform="translate(0,0)"><line y2="6" x2="0" class="axis-line"/><text dy=".71em" style="text-anchor: middle;" y="9" x="0">1,000</text></g><g class="tick" style="opacity: 1;" transform="translate(105,0)"><line y2="6" x2="0" class="axis-line"/><text dy=".71em" style="text-anchor: middle;" y="9" x="0">1,500</text></g><g class="tick" style="opacity: 1;" transform="translate(210,0)"><line y2="6" x2="0" class="axis-line"/><text dy=".71em" style="text-anchor: middle;" y="9" x="0">2,000</text></g><g class="tick" style="opacity: 1;" transform="translate(315,0)"><line y2="6" x2="0" class="axis-line"/><text dy=".71em" style="text-anchor: middle;" y="9" x="0">2,500</text></g><g class="tick" style="opacity: 1;" transform="translate(420,0)"><line y2="6" x2="0" class="axis-line"/><text dy=".71em" style="text-anchor: middle;" y="9" x="0">3,000</text></g><g class="tick" style="opacity: 1;" transform="translate(525,0)"><line y2="6" x2="0" class="axis-line"/><text dy=".71em" style="text-anchor: middle;" y="9" x="0">3,500</text></g><g class="tick" style="opacity: 1;" transform="translate(630,0)"><line y2="6" x2="0" class="axis-line"/><text dy=".71em" style="text-anchor: middle;" y="9" x="0">4,000</text></g><g class="tick" style="opacity: 1;" transform="translate(735,0)"><line y2="6" x2="0" class="axis-line"/><text dy=".71em" style="text-anchor: middle;" y="9" x="0">4,500</text></g><g class="tick" style="opacity: 1;" transform="translate(840,0)"><line y2="6" x2="0" class="axis-line"/><text dy=".71em" style="text-anchor: middle;" y="9" x="0">5,000</text></g><path class="axis-path" d="M0,6V0H840V6"/><text x="420" y="40" style="text-anchor: middle;">Number of elements in the array</text></g><g class="y axis"><g class="tick" style="opacity: 1;" transform="translate(0,381.56443926549605)"><line x2="-6" y2="0" class="axis-line"/><text dy=".32em" style="text-anchor: end;" x="-9" y="0">5.00e-6</text></g><g class="tick" style="opacity: 1;" transform="translate(0,350.05738201312937)"><line x2="-6" y2="0" class="axis-line"/><text dy=".32em" style="text-anchor: end;" x="-9" y="0">1.00e-5</text></g><g class="tick" style="opacity: 1;" transform="translate(0,318.55032476076263)"><line x2="-6" y2="0" class="axis-line"/><text dy=".32em" style="text-anchor: end;" x="-9" y="0">1.50e-5</text></g><g class="tick" style="opacity: 1;" transform="translate(0,287.043267508396)"><line x2="-6" y2="0" class="axis-line"/><text dy=".32em" style="text-anchor: end;" x="-9" y="0">2.00e-5</text></g><g class="tick" style="opacity: 1;" transform="translate(0,255.53621025602934)"><line x2="-6" y2="0" class="axis-line"/><text dy=".32em" style="text-anchor: end;" x="-9" y="0">2.50e-5</text></g><g class="tick" style="opacity: 1;" transform="translate(0,224.0291530036627)"><line x2="-6" y2="0" class="axis-line"/><text dy=".32em" style="text-anchor: end;" x="-9" y="0">3.00e-5</text></g><g class="tick" style="opacity: 1;" transform="translate(0,192.52209575129604)"><line x2="-6" y2="0" class="axis-line"/><text dy=".32em" style="text-anchor: end;" x="-9" y="0">3.50e-5</text></g><g class="tick" style="opacity: 1;" transform="translate(0,161.01503849892933)"><line x2="-6" y2="0" class="axis-line"/><text dy=".32em" style="text-anchor: end;" x="-9" y="0">4.00e-5</text></g><g class="tick" style="opacity: 1;" transform="translate(0,129.50798124656268)"><line x2="-6" y2="0" class="axis-line"/><text dy=".32em" style="text-anchor: end;" x="-9" y="0">4.50e-5</text></g><g class="tick" style="opacity: 1;" transform="translate(0,98.000923994196)"><line x2="-6" y2="0" class="axis-line"/><text dy=".32em" style="text-anchor: end;" x="-9" y="0">5.00e-5</text></g><g class="tick" style="opacity: 1;" transform="translate(0,66.49386674182934)"><line x2="-6" y2="0" class="axis-line"/><text dy=".32em" style="text-anchor: end;" x="-9" y="0">5.50e-5</text></g><g class="tick" style="opacity: 1;" transform="translate(0,34.986809489462665)"><line x2="-6" y2="0" class="axis-line"/><text dy=".32em" style="text-anchor: end;" x="-9" y="0">6.00e-5</text></g><g class="tick" style="opacity: 1;" transform="translate(0,3.4797522370960454)"><line x2="-6" y2="0" class="axis-line"/><text dy=".32em" style="text-anchor: end;" x="-9" y="0">6.50e-5</text></g><path class="axis-path" d="M-6,0H0V400H-6"/><text transform="rotate(-90)" y="6" dy=".71em" style="text-anchor: end;">Mean running time (seconds)</text></g><g class="data-series-0"><circle cx="0" cy="400" r="3"/><circle cx="210" cy="384.5363655482839" r="3"/><circle cx="420" cy="373.9261463083481" r="3"/><circle cx="630" cy="361.3388240131366" r="3"/><circle cx="840" cy="348.4141380130062" r="3"/><path class="error-bar" x="0" y="400" d="M 0 400 V 397.24356211837664 h -3 h 6 h -3 V 402.75643788162336 h -3 h 6"/><path class="error-bar" x="210" y="384.5363655482839" d="M 210 384.5363655482839 V 366.8156388392126 h -3 h 6 h -3 V 402.25709225735517 h -3 h 6"/><path class="error-bar" x="420" y="373.9261463083481" d="M 420 373.9261463083481 V 371.81771889336295 h -3 h 6 h -3 V 376.0345737233332 h -3 h 6"/><path class="error-bar" x="630" y="361.3388240131366" d="M 630 361.3388240131366 V 359.80804646690757 h -3 h 6 h -3 V 362.8696015593656 h -3 h 6"/><path class="error-bar" x="840" y="348.4141380130062" d="M 840 348.4141380130062 V 347.2627037752236 h -3 h 6 h -3 V 349.5655722507888 h -3 h 6"/><path class="line" d="M0,400L210,384.5363655482839L420,373.9261463083481L630,361.3388240131366L840,348.4141380130062"/></g><g class="data-series-1"><circle cx="0" cy="399.0151729646358" r="3"/><circle cx="210" cy="380.484317456034" r="3"/><circle cx="420" cy="373.4095883342714" r="3"/><circle cx="630" cy="361.231250335438" r="3"/><circle cx="840" cy="348.248031291268" r="3"/><path class="error-bar" x="0" y="399.0151729646358" d="M 0 399.0151729646358 V 391.832438820912 h -3 h 6 h -3 V 406.1979071083595 h -3 h 6"/><path class="error-bar" x="210" y="380.484317456034" d="M 210 380.484317456034 V 354.27588288619404 h -3 h 6 h -3 V 406.692752025874 h -3 h 6"/><path class="error-bar" x="420" y="373.4095883342714" d="M 420 373.4095883342714 V 370.93764688922676 h -3 h 6 h -3 V 375.88152977931605 h -3 h 6"/><path class="error-bar" x="630" y="361.231250335438" d="M 630 361.231250335438 V 360.2483507792343 h -3 h 6 h -3 V 362.21414989164174 h -3 h 6"/><path class="error-bar" x="840" y="348.248031291268" d="M 840 348.248031291268 V 347.1553704398103 h -3 h 6 h -3 V 349.3406921427256 h -3 h 6"/><path class="line" d="M0,399.0151729646358L210,380.484317456034L420,373.4095883342714L630,361.231250335438L840,348.248031291268"/></g><g class="data-series-2"><circle cx="0" cy="331.9245648332651" r="3"/><circle cx="210" cy="255.13821855261654" r="3"/><circle cx="420" cy="161.96146582045486" r="3"/><circle cx="630" cy="90.92533296446783" r="3"/><circle cx="840" cy="5.098638169981218" r="3"/><path class="error-bar" x="0" y="331.9245648332651" d="M 0 331.9245648332651 V 325.8134482934655 h -3 h 6 h -3 V 338.0356813730646 h -3 h 6"/><path class="error-bar" x="210" y="255.13821855261654" d="M 210 255.13821855261654 V 249.6959614370268 h -3 h 6 h -3 V 260.5804756682062 h -3 h 6"/><path class="error-bar" x="420" y="161.96146582045486" d="M 420 161.96146582045486 V 142.04062318097706 h -3 h 6 h -3 V 181.88230845993263 h -3 h 6"/><path class="error-bar" x="630" y="90.92533296446783" d="M 630 90.92533296446783 V 82.02079952367636 h -3 h 6 h -3 V 99.82986640525931 h -3 h 6"/><path class="error-bar" x="840" y="5.098638169981218" d="M 840 5.098638169981218 V -18.789506961585722 h -3 h 6 h -3 V 28.9867833015482 h -3 h 6"/><path class="line" d="M0,331.9245648332651L210,255.13821855261654L420,161.96146582045486L630,90.92533296446783L840,5.098638169981218"/></g><g class="data-series-3"><circle cx="0" cy="330.70286915622574" r="3"/><circle cx="210" cy="248.19244310223638" r="3"/><circle cx="420" cy="134.51054882494833" r="3"/><circle cx="630" cy="71.65871840838425" r="3"/><circle cx="840" cy="0" r="3"/><path class="error-bar" x="0" y="330.70286915622574" d="M 0 330.70286915622574 V 328.0491115450611 h -3 h 6 h -3 V 333.35662676739037 h -3 h 6"/><path class="error-bar" x="210" y="248.19244310223638" d="M 210 248.19244310223638 V 243.4389129757755 h -3 h 6 h -3 V 252.94597322869726 h -3 h 6"/><path class="error-bar" x="420" y="134.51054882494833" d="M 420 134.51054882494833 V 102.42617262266012 h -3 h 6 h -3 V 166.59492502723657 h -3 h 6"/><path class="error-bar" x="630" y="71.65871840838425" d="M 630 71.65871840838425 V 56.79319772283185 h -3 h 6 h -3 V 86.52423909393664 h -3 h 6"/><path class="error-bar" x="840" y="0" d="M 840 0 V -11.364131857212634 h -3 h 6 h -3 V 11.36413185721259 h -3 h 6"/><path class="line" d="M0,330.70286915622574L210,248.19244310223638L420,134.51054882494833L630,71.65871840838425L840,0"/></g><g class="data-series-4"><circle cx="0" cy="336.4294989866168" r="3"/><circle cx="210" cy="259.6812544036643" r="3"/><circle cx="420" cy="109.95310690047435" r="3"/><circle cx="630" cy="96.47976979967923" r="3"/><circle cx="840" cy="29.63764996547593" r="3"/><path class="error-bar" x="0" y="336.4294989866168" d="M 0 336.4294989866168 V 334.1046503940528 h -3 h 6 h -3 V 338.7543475791808 h -3 h 6"/><path class="error-bar" x="210" y="259.6812544036643" d="M 210 259.6812544036643 V 253.79629041150596 h -3 h 6 h -3 V 265.56621839582266 h -3 h 6"/><path class="error-bar" x="420" y="109.95310690047435" d="M 420 109.95310690047435 V 30.735808440193413 h -3 h 6 h -3 V 189.17040536075532 h -3 h 6"/><path class="error-bar" x="630" y="96.47976979967923" d="M 630 96.47976979967923 V 68.36328528599473 h -3 h 6 h -3 V 124.59625431336376 h -3 h 6"/><path class="error-bar" x="840" y="29.63764996547593" d="M 840 29.63764996547593 V 22.91840776903222 h -3 h 6 h -3 V 36.35689216191969 h -3 h 6"/><path class="line" d="M0,336.4294989866168L210,259.6812544036643L420,109.95310690047435L630,96.47976979967923L840,29.63764996547593"/></g><g class="data-series-5"><circle cx="0" cy="336.825986794078" r="3"/><circle cx="210" cy="260.017931860786" r="3"/><circle cx="420" cy="177.2436549261655" r="3"/><circle cx="630" cy="105.88344591031964" r="3"/><circle cx="840" cy="28.47519756140433" r="3"/><path class="error-bar" x="0" y="336.825986794078" d="M 0 336.825986794078 V 333.1137620255185 h -3 h 6 h -3 V 340.53821156263734 h -3 h 6"/><path class="error-bar" x="210" y="260.017931860786" d="M 210 260.017931860786 V 253.79389530491287 h -3 h 6 h -3 V 266.2419684166591 h -3 h 6"/><path class="error-bar" x="420" y="177.2436549261655" d="M 420 177.2436549261655 V 165.69580423682 h -3 h 6 h -3 V 188.79150561551108 h -3 h 6"/><path class="error-bar" x="630" y="105.88344591031964" d="M 630 105.88344591031964 V 99.06033913379045 h -3 h 6 h -3 V 112.7065526868488 h -3 h 6"/><path class="error-bar" x="840" y="28.47519756140433" d="M 840 28.47519756140433 V 19.326101833659635 h -3 h 6 h -3 V 37.624293289149065 h -3 h 6"/><path class="line" d="M0,336.825986794078L210,260.017931860786L420,177.2436549261655L630,105.88344591031964L840,28.47519756140433"/></g><g class="legend" transform="translate(50, 50)"><rect x="0" y="0" width="15" height="15" class="data-series-0"/><rect x="0" y="20" width="15" height="15" class="data-series-1"/><rect x="0" y="40" width="15" height="15" class="data-series-2"/><rect x="0" y="60" width="15" height="15" class="data-series-3"/><rect x="0" y="80" width="15" height="15" class="data-series-4"/><rect x="0" y="100" width="15" height="15" class="data-series-5"/><text x="24" y="13">encode (argonaut-codec)</text><text x="24" y="33">encode (json-codecs - uni - value)</text><text x="24" y="53">encode (json-codecs - uni - class)</text><text x="24" y="73">encode (codec-argonaut)</text><text x="24" y="93">encode (json-codecs - bidi - value)</text><text x="24" y="113">encode (json-codecs - bidi - class)</text></g></g></svg>