<svg xmlns="http://www.w3.org/2000/svg" width="960" height="500"><defs><style type="text/css">
/* https://www.vis4.net/palettes/#/9|d|00429d,96ffea|ffffe0,ff005e,93003a|1|1 */
:root {
  --data-series-0: #00429d;
  --data-series-1: #416db1;
  --data-series-2: #629cc4;
  --data-series-3: #7dccd7;
  --data-series-4: #96ffea;
  --data-series-5: #ffbcaf;
  --data-series-6: #f4777f;
  --data-series-7: #cf3759;
  --data-series-8: #93003a;
}

.background {
  fill: white;
}

text {
  font-size: 14px;
  font-family: sans-serif;
}

.axis-path,
.axis-line {
  fill: none;
  stroke: #000;
  stroke-width: 1px;
  shape-rendering: crispEdges;
}

.line {
  fill: none;
  stroke-width: 1.5px;
}

.data-series-0 {
  stroke: var(--data-series-0);
  fill: var(--data-series-0);
}

.data-series-1 {
  stroke: var(--data-series-1);
  fill: var(--data-series-1);
}

.data-series-2 {
  stroke: var(--data-series-2);
  fill: var(--data-series-2);
}

.data-series-3 {
  stroke: var(--data-series-3);
  fill: var(--data-series-3);
}

.data-series-4 {
  stroke: var(--data-series-4);
  fill: var(--data-series-4);
}

.data-series-5 {
  stroke: var(--data-series-5);
  fill: var(--data-series-5);
}

.data-series-6 {
  stroke: var(--data-series-6);
  fill: var(--data-series-6);
}

.data-series-7 {
  stroke: var(--data-series-7);
  fill: var(--data-series-7);
}

.data-series-8 {
  stroke: var(--data-series-8);
  fill: var(--data-series-8);
}

.data-series-9 {
  stroke: var(--data-series-9);
  fill: var(--data-series-9);
}

.error-bar {
  fill: none;
}
</style></defs><rect width="960" height="500" class="background"/><g transform="translate(80,40)"><g transform="translate(420, 0)"><text style="text-anchor: middle; font-size: 28px;">Encoding an array of ints (optimized)</text></g><g class="x axis" transform="translate(0,400)"><g class="tick" style="opacity: 1;" transform="translate(0,0)"><line y2="6" x2="0" class="axis-line"/><text dy=".71em" style="text-anchor: middle;" y="9" x="0">1,000</text></g><g class="tick" style="opacity: 1;" transform="translate(105,0)"><line y2="6" x2="0" class="axis-line"/><text dy=".71em" style="text-anchor: middle;" y="9" x="0">1,500</text></g><g class="tick" style="opacity: 1;" transform="translate(210,0)"><line y2="6" x2="0" class="axis-line"/><text dy=".71em" style="text-anchor: middle;" y="9" x="0">2,000</text></g><g class="tick" style="opacity: 1;" transform="translate(315,0)"><line y2="6" x2="0" class="axis-line"/><text dy=".71em" style="text-anchor: middle;" y="9" x="0">2,500</text></g><g class="tick" style="opacity: 1;" transform="translate(420,0)"><line y2="6" x2="0" class="axis-line"/><text dy=".71em" style="text-anchor: middle;" y="9" x="0">3,000</text></g><g class="tick" style="opacity: 1;" transform="translate(525,0)"><line y2="6" x2="0" class="axis-line"/><text dy=".71em" style="text-anchor: middle;" y="9" x="0">3,500</text></g><g class="tick" style="opacity: 1;" transform="translate(630,0)"><line y2="6" x2="0" class="axis-line"/><text dy=".71em" style="text-anchor: middle;" y="9" x="0">4,000</text></g><g class="tick" style="opacity: 1;" transform="translate(735,0)"><line y2="6" x2="0" class="axis-line"/><text dy=".71em" style="text-anchor: middle;" y="9" x="0">4,500</text></g><g class="tick" style="opacity: 1;" transform="translate(840,0)"><line y2="6" x2="0" class="axis-line"/><text dy=".71em" style="text-anchor: middle;" y="9" x="0">5,000</text></g><path class="axis-path" d="M0,6V0H840V6"/><text x="420" y="40" style="text-anchor: middle;">Number of elements in the array</text></g><g class="y axis"><g class="tick" style="opacity: 1;" transform="translate(0,380.31829056799376)"><line x2="-6" y2="0" class="axis-line"/><text dy=".32em" style="text-anchor: end;" x="-9" y="0">5.00e-6</text></g><g class="tick" style="opacity: 1;" transform="translate(0,348.61162810558665)"><line x2="-6" y2="0" class="axis-line"/><text dy=".32em" style="text-anchor: end;" x="-9" y="0">1.00e-5</text></g><g class="tick" style="opacity: 1;" transform="translate(0,316.90496564317954)"><line x2="-6" y2="0" class="axis-line"/><text dy=".32em" style="text-anchor: end;" x="-9" y="0">1.50e-5</text></g><g class="tick" style="opacity: 1;" transform="translate(0,285.1983031807725)"><line x2="-6" y2="0" class="axis-line"/><text dy=".32em" style="text-anchor: end;" x="-9" y="0">2.00e-5</text></g><g class="tick" style="opacity: 1;" transform="translate(0,253.49164071836537)"><line x2="-6" y2="0" class="axis-line"/><text dy=".32em" style="text-anchor: end;" x="-9" y="0">2.50e-5</text></g><g class="tick" style="opacity: 1;" transform="translate(0,221.78497825595832)"><line x2="-6" y2="0" class="axis-line"/><text dy=".32em" style="text-anchor: end;" x="-9" y="0">3.00e-5</text></g><g class="tick" style="opacity: 1;" transform="translate(0,190.07831579355124)"><line x2="-6" y2="0" class="axis-line"/><text dy=".32em" style="text-anchor: end;" x="-9" y="0">3.50e-5</text></g><g class="tick" style="opacity: 1;" transform="translate(0,158.3716533311441)"><line x2="-6" y2="0" class="axis-line"/><text dy=".32em" style="text-anchor: end;" x="-9" y="0">4.00e-5</text></g><g class="tick" style="opacity: 1;" transform="translate(0,126.66499086873704)"><line x2="-6" y2="0" class="axis-line"/><text dy=".32em" style="text-anchor: end;" x="-9" y="0">4.50e-5</text></g><g class="tick" style="opacity: 1;" transform="translate(0,94.95832840632991)"><line x2="-6" y2="0" class="axis-line"/><text dy=".32em" style="text-anchor: end;" x="-9" y="0">5.00e-5</text></g><g class="tick" style="opacity: 1;" transform="translate(0,63.251665943922845)"><line x2="-6" y2="0" class="axis-line"/><text dy=".32em" style="text-anchor: end;" x="-9" y="0">5.50e-5</text></g><g class="tick" style="opacity: 1;" transform="translate(0,31.545003481515764)"><line x2="-6" y2="0" class="axis-line"/><text dy=".32em" style="text-anchor: end;" x="-9" y="0">6.00e-5</text></g><path class="axis-path" d="M-6,0H0V400H-6"/><text transform="rotate(-90)" y="6" dy=".71em" style="text-anchor: end;">Mean running time (seconds)</text></g><g class="data-series-0"><circle cx="0" cy="400" r="3"/><circle cx="210" cy="383.9430523937763" r="3"/><circle cx="420" cy="373.9895243060384" r="3"/><circle cx="630" cy="361.0422433496091" r="3"/><circle cx="840" cy="348.3993073504517" r="3"/><path class="error-bar" x="0" y="400" d="M 0 400 V 399.69912771913283 h -3 h 6 h -3 V 400.30087228086717 h -3 h 6"/><path class="error-bar" x="210" y="383.9430523937763" d="M 210 383.9430523937763 V 364.68108028667683 h -3 h 6 h -3 V 403.2050245008757 h -3 h 6"/><path class="error-bar" x="420" y="373.9895243060384" d="M 420 373.9895243060384 V 373.0459850767792 h -3 h 6 h -3 V 374.9330635352976 h -3 h 6"/><path class="error-bar" x="630" y="361.0422433496091" d="M 630 361.0422433496091 V 359.953416920451 h -3 h 6 h -3 V 362.13106977876726 h -3 h 6"/><path class="error-bar" x="840" y="348.3993073504517" d="M 840 348.3993073504517 V 347.7547683421949 h -3 h 6 h -3 V 349.0438463587085 h -3 h 6"/><path class="line" d="M0,400L210,383.9430523937763L420,373.9895243060384L630,361.0422433496091L840,348.3993073504517"/></g><g class="data-series-1"><circle cx="0" cy="396.80901371068853" r="3"/><circle cx="210" cy="373.73018724329654" r="3"/><circle cx="420" cy="368.76149751564606" r="3"/><circle cx="630" cy="354.22381085528116" r="3"/><circle cx="840" cy="339.55764648946507" r="3"/><path class="error-bar" x="0" y="396.80901371068853" d="M 0 396.80901371068853 V 388.0083619998793 h -3 h 6 h -3 V 405.6096654214978 h -3 h 6"/><path class="error-bar" x="210" y="373.73018724329654" d="M 210 373.73018724329654 V 344.330044628286 h -3 h 6 h -3 V 403.13032985830716 h -3 h 6"/><path class="error-bar" x="420" y="368.76149751564606" d="M 420 368.76149751564606 V 367.67436294975204 h -3 h 6 h -3 V 369.84863208154 h -3 h 6"/><path class="error-bar" x="630" y="354.22381085528116" d="M 630 354.22381085528116 V 353.68200160823557 h -3 h 6 h -3 V 354.7656201023268 h -3 h 6"/><path class="error-bar" x="840" y="339.55764648946507" d="M 840 339.55764648946507 V 338.7737129575751 h -3 h 6 h -3 V 340.341580021355 h -3 h 6"/><path class="line" d="M0,396.80901371068853L210,373.73018724329654L420,368.76149751564606L630,354.22381085528116L840,339.55764648946507"/></g><g class="data-series-2"><circle cx="0" cy="399.43593121126105" r="3"/><circle cx="210" cy="380.6512404945576" r="3"/><circle cx="420" cy="373.92405557798895" r="3"/><circle cx="630" cy="361.2027432213365" r="3"/><circle cx="840" cy="347.91033283076354" r="3"/><path class="error-bar" x="0" y="399.43593121126105" d="M 0 399.43593121126105 V 393.1960701559203 h -3 h 6 h -3 V 405.67579226660183 h -3 h 6"/><path class="error-bar" x="210" y="380.6512404945576" d="M 210 380.6512404945576 V 355.02013809755033 h -3 h 6 h -3 V 406.28234289156495 h -3 h 6"/><path class="error-bar" x="420" y="373.92405557798895" d="M 420 373.92405557798895 V 373.19999008166997 h -3 h 6 h -3 V 374.648121074308 h -3 h 6"/><path class="error-bar" x="630" y="361.2027432213365" d="M 630 361.2027432213365 V 360.85506594064105 h -3 h 6 h -3 V 361.55042050203195 h -3 h 6"/><path class="error-bar" x="840" y="347.91033283076354" d="M 840 347.91033283076354 V 346.41747463092065 h -3 h 6 h -3 V 349.4031910306065 h -3 h 6"/><path class="line" d="M0,399.43593121126105L210,380.6512404945576L420,373.92405557798895L630,361.2027432213365L840,347.91033283076354"/></g><g class="data-series-3"><circle cx="0" cy="333.5259379333474" r="3"/><circle cx="210" cy="257.5556989467012" r="3"/><circle cx="420" cy="178.74297545995012" r="3"/><circle cx="630" cy="98.56881351793265" r="3"/><circle cx="840" cy="21.22669580211469" r="3"/><path class="error-bar" x="0" y="333.5259379333474" d="M 0 333.5259379333474 V 329.30718123683187 h -3 h 6 h -3 V 337.744694629863 h -3 h 6"/><path class="error-bar" x="210" y="257.5556989467012" d="M 210 257.5556989467012 V 255.2076155828629 h -3 h 6 h -3 V 259.90378231053955 h -3 h 6"/><path class="error-bar" x="420" y="178.74297545995012" d="M 420 178.74297545995012 V 174.50352298506385 h -3 h 6 h -3 V 182.98242793483635 h -3 h 6"/><path class="error-bar" x="630" y="98.56881351793265" d="M 630 98.56881351793265 V 90.8845129060071 h -3 h 6 h -3 V 106.2531141298582 h -3 h 6"/><path class="error-bar" x="840" y="21.22669580211469" d="M 840 21.22669580211469 V 18.934387764082892 h -3 h 6 h -3 V 23.519003840146535 h -3 h 6"/><path class="line" d="M0,333.5259379333474L210,257.5556989467012L420,178.74297545995012L630,98.56881351793265L840,21.22669580211469"/></g><g class="data-series-4"><circle cx="0" cy="331.20998848069854" r="3"/><circle cx="210" cy="250.589116071611" r="3"/><circle cx="420" cy="166.15866337917203" r="3"/><circle cx="630" cy="86.46032764650937" r="3"/><circle cx="840" cy="0" r="3"/><path class="error-bar" x="0" y="331.20998848069854" d="M 0 331.20998848069854 V 329.4817892488519 h -3 h 6 h -3 V 332.93818771254513 h -3 h 6"/><path class="error-bar" x="210" y="250.589116071611" d="M 210 250.589116071611 V 242.02202775052078 h -3 h 6 h -3 V 259.15620439270117 h -3 h 6"/><path class="error-bar" x="420" y="166.15866337917203" d="M 420 166.15866337917203 V 159.74472181953763 h -3 h 6 h -3 V 172.57260493880642 h -3 h 6"/><path class="error-bar" x="630" y="86.46032764650937" d="M 630 86.46032764650937 V 75.51334037552762 h -3 h 6 h -3 V 97.40731491749108 h -3 h 6"/><path class="error-bar" x="840" y="0" d="M 840 0 V -22.051682760574476 h -3 h 6 h -3 V 22.051682760574522 h -3 h 6"/><path class="line" d="M0,331.20998848069854L210,250.589116071611L420,166.15866337917203L630,86.46032764650937L840,0"/></g><g class="data-series-5"><circle cx="0" cy="335.8530090236179" r="3"/><circle cx="210" cy="259.987446618621" r="3"/><circle cx="420" cy="184.30921278651437" r="3"/><circle cx="630" cy="103.69598372050186" r="3"/><circle cx="840" cy="24.137262755501254" r="3"/><path class="error-bar" x="0" y="335.8530090236179" d="M 0 335.8530090236179 V 334.5385623761989 h -3 h 6 h -3 V 337.167455671037 h -3 h 6"/><path class="error-bar" x="210" y="259.987446618621" d="M 210 259.987446618621 V 257.6079801364851 h -3 h 6 h -3 V 262.3669131007569 h -3 h 6"/><path class="error-bar" x="420" y="184.30921278651437" d="M 420 184.30921278651437 V 180.01404683869202 h -3 h 6 h -3 V 188.60437873433676 h -3 h 6"/><path class="error-bar" x="630" y="103.69598372050186" d="M 630 103.69598372050186 V 96.7775043817237 h -3 h 6 h -3 V 110.61446305928003 h -3 h 6"/><path class="error-bar" x="840" y="24.137262755501254" d="M 840 24.137262755501254 V 3.0637039941275646 h -3 h 6 h -3 V 45.210821516874944 h -3 h 6"/><path class="line" d="M0,335.8530090236179L210,259.987446618621L420,184.30921278651437L630,103.69598372050186L840,24.137262755501254"/></g><g class="data-series-6"><circle cx="0" cy="337.9083311248282" r="3"/><circle cx="210" cy="265.8056874756041" r="3"/><circle cx="420" cy="186.1314520265176" r="3"/><circle cx="630" cy="107.85831371814605" r="3"/><circle cx="840" cy="34.4009481503396" r="3"/><path class="error-bar" x="0" y="337.9083311248282" d="M 0 337.9083311248282 V 336.13495722515336 h -3 h 6 h -3 V 339.68170502450295 h -3 h 6"/><path class="error-bar" x="210" y="265.8056874756041" d="M 210 265.8056874756041 V 262.99035697816294 h -3 h 6 h -3 V 268.6210179730452 h -3 h 6"/><path class="error-bar" x="420" y="186.1314520265176" d="M 420 186.1314520265176 V 178.75625763732424 h -3 h 6 h -3 V 193.50664641571095 h -3 h 6"/><path class="error-bar" x="630" y="107.85831371814605" d="M 630 107.85831371814605 V 98.6059147809088 h -3 h 6 h -3 V 117.11071265538324 h -3 h 6"/><path class="error-bar" x="840" y="34.4009481503396" d="M 840 34.4009481503396 V 27.915662734526947 h -3 h 6 h -3 V 40.88623356615222 h -3 h 6"/><path class="line" d="M0,337.9083311248282L210,265.8056874756041L420,186.1314520265176L630,107.85831371814605L840,34.4009481503396"/></g><g class="legend" transform="translate(50, 50)"><rect x="0" y="0" width="15" height="15" class="data-series-0"/><rect x="0" y="20" width="15" height="15" class="data-series-1"/><rect x="0" y="40" width="15" height="15" class="data-series-2"/><rect x="0" y="60" width="15" height="15" class="data-series-3"/><rect x="0" y="80" width="15" height="15" class="data-series-4"/><rect x="0" y="100" width="15" height="15" class="data-series-5"/><rect x="0" y="120" width="15" height="15" class="data-series-6"/><text x="24" y="13">encode (argonaut-codec)</text><text x="24" y="33">encode (foreign-readwrite)</text><text x="24" y="53">encode (json-codecs - uni - value)</text><text x="24" y="73">encode (json-codecs - uni - class)</text><text x="24" y="93">encode (codec-argonaut)</text><text x="24" y="113">encode (json-codecs - bidi - value)</text><text x="24" y="133">encode (json-codecs - bidi - class)</text></g></g></svg>