<svg xmlns="http://www.w3.org/2000/svg" width="960" height="500"><defs><style type="text/css">
.background {
  fill: white;
}

text {
  font-size: 14px;
  font-family: sans-serif;
}

.axis-path,
.axis-line {
  fill: none;
  stroke: #000;
  stroke-width: 1px;
  shape-rendering: crispEdges;
}

.line {
  fill: none;
  stroke-width: 1.5px;
}

.data-series-0 {
  stroke: steelblue;
  fill: steelblue;
}

.data-series-1 {
  stroke: crimson;
  fill: crimson;
}

.data-series-2 {
  stroke: mediumseagreen;
  fill: mediumseagreen;
}

.data-series-3 {
  stroke: mediumslateblue;
  fill: mediumslateblue;
}

.data-series-4 {
  stroke: goldenrod;
  fill: goldenrod;
}

.error-bar {
  fill: none;
}
</style></defs><rect width="960" height="500" class="background"/><g transform="translate(80,40)"><g transform="translate(420, 0)"><text style="text-anchor: middle; font-size: 28px;">Encoding an array of ints (unoptimized)</text></g><g class="x axis" transform="translate(0,400)"><g class="tick" style="opacity: 1;" transform="translate(0,0)"><line y2="6" x2="0" class="axis-line"/><text dy=".71em" style="text-anchor: middle;" y="9" x="0">1,000</text></g><g class="tick" style="opacity: 1;" transform="translate(105,0)"><line y2="6" x2="0" class="axis-line"/><text dy=".71em" style="text-anchor: middle;" y="9" x="0">1,500</text></g><g class="tick" style="opacity: 1;" transform="translate(210,0)"><line y2="6" x2="0" class="axis-line"/><text dy=".71em" style="text-anchor: middle;" y="9" x="0">2,000</text></g><g class="tick" style="opacity: 1;" transform="translate(315,0)"><line y2="6" x2="0" class="axis-line"/><text dy=".71em" style="text-anchor: middle;" y="9" x="0">2,500</text></g><g class="tick" style="opacity: 1;" transform="translate(420,0)"><line y2="6" x2="0" class="axis-line"/><text dy=".71em" style="text-anchor: middle;" y="9" x="0">3,000</text></g><g class="tick" style="opacity: 1;" transform="translate(525,0)"><line y2="6" x2="0" class="axis-line"/><text dy=".71em" style="text-anchor: middle;" y="9" x="0">3,500</text></g><g class="tick" style="opacity: 1;" transform="translate(630,0)"><line y2="6" x2="0" class="axis-line"/><text dy=".71em" style="text-anchor: middle;" y="9" x="0">4,000</text></g><g class="tick" style="opacity: 1;" transform="translate(735,0)"><line y2="6" x2="0" class="axis-line"/><text dy=".71em" style="text-anchor: middle;" y="9" x="0">4,500</text></g><g class="tick" style="opacity: 1;" transform="translate(840,0)"><line y2="6" x2="0" class="axis-line"/><text dy=".71em" style="text-anchor: middle;" y="9" x="0">5,000</text></g><path class="axis-path" d="M0,6V0H840V6"/><text x="420" y="40" style="text-anchor: middle;">Number of elements in the array</text></g><g class="y axis"><g class="tick" style="opacity: 1;" transform="translate(0,334.25152301261124)"><line x2="-6" y2="0" class="axis-line"/><text dy=".32em" style="text-anchor: end;" x="-9" y="0">5.00e-5</text></g><g class="tick" style="opacity: 1;" transform="translate(0,265.91668543675723)"><line x2="-6" y2="0" class="axis-line"/><text dy=".32em" style="text-anchor: end;" x="-9" y="0">1.00e-4</text></g><g class="tick" style="opacity: 1;" transform="translate(0,197.58184786090328)"><line x2="-6" y2="0" class="axis-line"/><text dy=".32em" style="text-anchor: end;" x="-9" y="0">1.50e-4</text></g><g class="tick" style="opacity: 1;" transform="translate(0,129.24701028504924)"><line x2="-6" y2="0" class="axis-line"/><text dy=".32em" style="text-anchor: end;" x="-9" y="0">2.00e-4</text></g><g class="tick" style="opacity: 1;" transform="translate(0,60.91217270919525)"><line x2="-6" y2="0" class="axis-line"/><text dy=".32em" style="text-anchor: end;" x="-9" y="0">2.50e-4</text></g><path class="axis-path" d="M-6,0H0V400H-6"/><text transform="rotate(-90)" y="6" dy=".71em" style="text-anchor: end;">Mean running time (seconds)</text></g><g class="data-series-0"><circle cx="0" cy="399.31048881768714" r="3"/><circle cx="210" cy="396.62159016369765" r="3"/><circle cx="420" cy="393.0135629257414" r="3"/><circle cx="630" cy="390.65806917236443" r="3"/><circle cx="840" cy="388.505199463665" r="3"/><path class="error-bar" x="0" y="399.31048881768714" d="M 0 399.31048881768714 V 398.67438359179084 h -3 h 6 h -3 V 399.94659404358345 h -3 h 6"/><path class="error-bar" x="210" y="396.62159016369765" d="M 210 396.62159016369765 V 393.8626360001761 h -3 h 6 h -3 V 399.3805443272192 h -3 h 6"/><path class="error-bar" x="420" y="393.0135629257414" d="M 420 393.0135629257414 V 390.8512477889546 h -3 h 6 h -3 V 395.1758780625281 h -3 h 6"/><path class="error-bar" x="630" y="390.65806917236443" d="M 630 390.65806917236443 V 389.25885021119376 h -3 h 6 h -3 V 392.05728813353517 h -3 h 6"/><path class="error-bar" x="840" y="388.505199463665" d="M 840 388.505199463665 V 388.13734505553674 h -3 h 6 h -3 V 388.8730538717932 h -3 h 6"/><path class="line" d="M0,399.31048881768714L210,396.62159016369765L420,393.0135629257414L630,390.65806917236443L840,388.505199463665"/></g><g class="data-series-1"><circle cx="0" cy="400" r="3"/><circle cx="210" cy="396.61104527525487" r="3"/><circle cx="420" cy="394.2502108240999" r="3"/><circle cx="630" cy="391.1556375279703" r="3"/><circle cx="840" cy="387.7435646167749" r="3"/><path class="error-bar" x="0" y="400" d="M 0 400 V 399.95678390117797 h -3 h 6 h -3 V 400.04321609882203 h -3 h 6"/><path class="error-bar" x="210" y="396.61104527525487" d="M 210 396.61104527525487 V 395.70457691677825 h -3 h 6 h -3 V 397.5175136337316 h -3 h 6"/><path class="error-bar" x="420" y="394.2502108240999" d="M 420 394.2502108240999 V 394.0712723651724 h -3 h 6 h -3 V 394.4291492830274 h -3 h 6"/><path class="error-bar" x="630" y="391.1556375279703" d="M 630 391.1556375279703 V 390.7527464999714 h -3 h 6 h -3 V 391.55852855596936 h -3 h 6"/><path class="error-bar" x="840" y="387.7435646167749" d="M 840 387.7435646167749 V 385.8954417172137 h -3 h 6 h -3 V 389.59168751633604 h -3 h 6"/><path class="line" d="M0,400L210,396.61104527525487L420,394.2502108240999L630,391.1556375279703L840,387.7435646167749"/></g><g class="data-series-2"><circle cx="0" cy="369.6754079137754" r="3"/><circle cx="210" cy="337.34126578152325" r="3"/><circle cx="420" cy="308.1777457439898" r="3"/><circle cx="630" cy="275.51252451754766" r="3"/><circle cx="840" cy="232.7613633684207" r="3"/><path class="error-bar" x="0" y="369.6754079137754" d="M 0 369.6754079137754 V 367.70593146868254 h -3 h 6 h -3 V 371.64488435886835 h -3 h 6"/><path class="error-bar" x="210" y="337.34126578152325" d="M 210 337.34126578152325 V 332.9572400373735 h -3 h 6 h -3 V 341.725291525673 h -3 h 6"/><path class="error-bar" x="420" y="308.1777457439898" d="M 420 308.1777457439898 V 303.37496544350176 h -3 h 6 h -3 V 312.9805260444779 h -3 h 6"/><path class="error-bar" x="630" y="275.51252451754766" d="M 630 275.51252451754766 V 273.1901069539918 h -3 h 6 h -3 V 277.8349420811035 h -3 h 6"/><path class="error-bar" x="840" y="232.7613633684207" d="M 840 232.7613633684207 V 214.20573429139847 h -3 h 6 h -3 V 251.3169924454429 h -3 h 6"/><path class="line" d="M0,369.6754079137754L210,337.34126578152325L420,308.1777457439898L630,275.51252451754766L840,232.7613633684207"/></g><g class="data-series-3"><circle cx="0" cy="367.4045894083677" r="3"/><circle cx="210" cy="334.1340701000952" r="3"/><circle cx="420" cy="299.2366468955809" r="3"/><circle cx="630" cy="263.866491025634" r="3"/><circle cx="840" cy="219.83443187974584" r="3"/><path class="error-bar" x="0" y="367.4045894083677" d="M 0 367.4045894083677 V 366.96932084971274 h -3 h 6 h -3 V 367.83985796702274 h -3 h 6"/><path class="error-bar" x="210" y="334.1340701000952" d="M 210 334.1340701000952 V 331.0930715003514 h -3 h 6 h -3 V 337.175068699839 h -3 h 6"/><path class="error-bar" x="420" y="299.2366468955809" d="M 420 299.2366468955809 V 295.95171332038205 h -3 h 6 h -3 V 302.5215804707798 h -3 h 6"/><path class="error-bar" x="630" y="263.866491025634" d="M 630 263.866491025634 V 261.41901274578123 h -3 h 6 h -3 V 266.3139693054868 h -3 h 6"/><path class="error-bar" x="840" y="219.83443187974584" d="M 840 219.83443187974584 V 205.43077411059326 h -3 h 6 h -3 V 234.23808964889835 h -3 h 6"/><path class="line" d="M0,367.4045894083677L210,334.1340701000952L420,299.2366468955809L630,263.866491025634L840,219.83443187974584"/></g><g class="data-series-4"><circle cx="0" cy="322.2305584557584" r="3"/><circle cx="210" cy="228.50572332533926" r="3"/><circle cx="420" cy="184.21675046011532" r="3"/><circle cx="630" cy="108.9442853675783" r="3"/><circle cx="840" cy="6.400912763343358" r="3"/><path class="error-bar" x="0" y="322.2305584557584" d="M 0 322.2305584557584 V 307.5098583729222 h -3 h 6 h -3 V 336.9512585385945 h -3 h 6"/><path class="error-bar" x="210" y="228.50572332533926" d="M 210 228.50572332533926 V 183.5925701787702 h -3 h 6 h -3 V 273.4188764719084 h -3 h 6"/><path class="error-bar" x="420" y="184.21675046011532" d="M 420 184.21675046011532 V 175.56553046590005 h -3 h 6 h -3 V 192.86797045433056 h -3 h 6"/><path class="error-bar" x="630" y="108.9442853675783" d="M 630 108.9442853675783 V 87.0992584161392 h -3 h 6 h -3 V 130.78931231901737 h -3 h 6"/><path class="error-bar" x="840" y="6.400912763343358" d="M 840 6.400912763343358 V -84.96220163052408 h -3 h 6 h -3 V 97.76402715721075 h -3 h 6"/><path class="line" d="M0,322.2305584557584L210,228.50572332533926L420,184.21675046011532L630,108.9442853675783L840,6.400912763343358"/></g><g class="data-series-5"><circle cx="0" cy="328.61604474480987" r="3"/><circle cx="210" cy="166.36980568675574" r="3"/><circle cx="420" cy="181.1989371036566" r="3"/><circle cx="630" cy="111.14106259926398" r="3"/><circle cx="840" cy="0" r="3"/><path class="error-bar" x="0" y="328.61604474480987" d="M 0 328.61604474480987 V 326.7868249685164 h -3 h 6 h -3 V 330.44526452110335 h -3 h 6"/><path class="error-bar" x="210" y="166.36980568675574" d="M 210 166.36980568675574 V 73.98391945167462 h -3 h 6 h -3 V 258.7556919218369 h -3 h 6"/><path class="error-bar" x="420" y="181.1989371036566" d="M 420 181.1989371036566 V 168.0978685979869 h -3 h 6 h -3 V 194.30000560932626 h -3 h 6"/><path class="error-bar" x="630" y="111.14106259926398" d="M 630 111.14106259926398 V 93.26138829994423 h -3 h 6 h -3 V 129.02073689858375 h -3 h 6"/><path class="error-bar" x="840" y="0" d="M 840 0 V -99.70905541494108 h -3 h 6 h -3 V 99.70905541494099 h -3 h 6"/><path class="line" d="M0,328.61604474480987L210,166.36980568675574L420,181.1989371036566L630,111.14106259926398L840,0"/></g><g class="legend" transform="translate(50, 50)"><rect x="0" y="0" width="15" height="15" class="data-series-0"/><rect x="0" y="20" width="15" height="15" class="data-series-1"/><rect x="0" y="40" width="15" height="15" class="data-series-2"/><rect x="0" y="60" width="15" height="15" class="data-series-3"/><rect x="0" y="80" width="15" height="15" class="data-series-4"/><rect x="0" y="100" width="15" height="15" class="data-series-5"/><text x="24" y="13">encode (argonaut-codec)</text><text x="24" y="33">encode (json-codecs - uni - value)</text><text x="24" y="53">encode (json-codecs - uni - class)</text><text x="24" y="73">encode (codec-argonaut)</text><text x="24" y="93">encode (json-codecs - bidi - value)</text><text x="24" y="113">encode (json-codecs - bidi - class)</text></g></g></svg>